<svg id="圖層_1" data-name="圖層 1" xmlns="http://www.w3.org/2000/svg" viewBox="0 0 1761.11 614.01"><defs><style>.cls-1{fill:#50e6b4;}</style></defs><title>工作區域 2</title><path class="cls-1" d="M1340.45,423.87c-22.5,0-45-.18-67.49.12-6.38.08-11.46-1.28-15-6.83a16.79,16.79,0,0,0-1.35-1.46c-8.58-10.48-8.72-8.12-15.17,1.6-3.24,4.9-6.86,7-12.71,6.66-7.14-.44-14.33,0-21.49-.15-6.65-.13-8.34-3.41-4.69-9q9.45-14.43,19.1-28.73a14.39,14.39,0,0,0,2.67-8.39c-.06-17-.12-34,0-51,0-4.24-1.31-5.94-5.74-5.89-16.49.18-33,0-49.49.09-5.75,0-7.67,1.71-7.7,7.37-.12,18,0,36,0,54,0,4.48,1.91,6.78,6.66,6.65,6-.16,12-.18,18,.06,7.11.28,9,3.88,5.17,9.77-4.52,7-9.25,13.87-13.76,20.87a8.49,8.49,0,0,1-7.85,4.29c-27.16-.08-54.33,0-81.49-.07-5.83,0-6.94-1.21-7-7.14-.06-6.17,0-12.34,0-18.5,0-8.46.84-9.29,9.57-9.31,10.16,0,20.33,0,30.49,0,6.49,0,7.09-.63,7.1-7.23q0-26.25,0-52.49c0-7.3-.94-8.22-8.5-8.25-10.5,0-21,0-31.5,0-5.94,0-7.08-1.18-7.14-7-.08-6.49.08-13,0-19.49-.08-4.65,2-6.67,6.63-6.64,11.17.1,22.33.06,33.5,0,6,0,6.94-1.09,7.06-7,0-1.16,0-2.33,0-3.5-.1-5.78-1.28-7.13-7-7.19-10.49-.11-21,0-31.49-.05-8.37,0-8.62-.28-8.63-8.79,0-6,.07-12,0-18-.06-4.43,2.06-6.35,6.4-6.34q57.49,0,115,.06c5.4,0,6.76,1.56,6.82,7,.07,6.5-.08,13,0,19.5.09,4.63-1.94,6.68-6.6,6.63-10.83-.1-21.66,0-32.5,0-3.18,0-6.78-.2-8.07,3.51-1.37,4-1.61,8.26.68,12.09,1.64,2.73,4.64,2.18,7.27,2.18q39,0,78,0c9.2,0,10.06.84,10.07,9.94,0,20,.06,40-.05,60a16.11,16.11,0,0,0,3.46,10.65c4.35,5.48,8.59,11.05,12.79,16.64a9.06,9.06,0,0,0,7.69,3.89c13,0,26,0,39,0,4,0,5.9-1.92,6-5.74.09-5.17.16-10.34,0-15.5s-1.67-6.72-7.09-6.75c-12.49-.09-25,0-37.49-.06-6.8,0-8.16-1.41-8.23-8.24,0-5-.1-10,0-15,.15-5.46,1.55-6.9,6.87-6.91q65.74-.06,131.49-.05c4.62,0,6.75,1.92,6.65,6.59-.12,5.66-.12,11.34,0,17,.1,4.63-2,6.68-6.62,6.65-12.5-.09-25-.05-37.5,0-7.14,0-7.94.85-8,8.15,0,4.66.13,9.33,0,14-.16,4.32,1.81,5.95,6,5.91,12-.11,24-.06,36,0,8.86,0,10.09,1.28,10.1,10.1,0,5.84,0,11.67,0,17.5-.06,6.17-1.17,7.34-7.32,7.35Q1376.21,423.91,1340.45,423.87Z"/><path class="cls-1" d="M651.72,394q10.57,4.71,21.15,9.4,4.57,2,9.2,3.92a6.36,6.36,0,0,1,4.24,6.12c.56,9.41-1,11.22-10.49,11.23-17.17,0-34.33-.06-51.5,0a23.37,23.37,0,0,1-14.48-4.43c-11.06-8-22.37-15.69-33.45-23.69a19.34,19.34,0,0,0-12-3.94q-50.24.21-100.49,0a17.76,17.76,0,0,0-11.09,3.54c-11.86,8.61-24,16.88-35.94,25.35a17.21,17.21,0,0,1-10.34,3.11c-18.49,0-37,0-55.49,0-3.71,0-7.61-.05-8.7-4.82-1.55-6.76,0-10.49,5.15-12.82q14.56-6.51,29.15-12.95l-.12-1.34h-16c-10.12,0-11.22-1.09-11.23-11.12q0-42.25,0-84.5c0-9.25,1.16-10.39,10.3-10.4q12.5,0,25,0c7.48,0,8.57,1.09,8.58,8.77,0,21.5,0,43,0,64.5,0,7.76.87,8.68,8.57,8.68q112.49,0,225,0c2.94,0,6.62.63,7.85-2.86a17.65,17.65,0,0,0-.16-11.76c-.54-1.52-2.1-2.09-3.68-2.16-2-.1-4-.12-6-.13H417.29c-10,0-11-1-11-10.73,0-13.32,0-13.32,13.18-13.32H626c8.44,0,12.49-6.62,8.75-14.28a4.38,4.38,0,0,0-4-2.54c-2-.09-4-.11-6-.11h-208c-9.23,0-10.39-1.15-10.44-10.29-.07-13.76-.07-13.76,13.73-13.76H668.5c9.55,0,10.64,1.06,10.65,10.56q0,42.49,0,85c0,9.13-1.33,10.44-10.37,10.47-5.59,0-11.18,0-16.77,0C651.92,393.19,651.82,393.62,651.72,394Z"/><path class="cls-1" d="M765.24,315.51c-7.4,10.88-14.44,21.15-21.4,31.49-7.91,11.75-15.73,23.55-23.62,35.31a23.34,23.34,0,0,1-3.37,4.31c-2.8,2.56-6.31,1.48-7.33-2.17a13,13,0,0,1-.3-3.48c0-17.16,0-34.32-.06-51.47,0-3.59,1.47-6.38,3.37-9.18,16.32-23.95,32.53-48,49-71.86a25.39,25.39,0,0,0,4.75-15.35c-.21-23-.1-46-.08-69,0-7.47.91-8.37,8.32-8.39,9.16,0,18.32-.05,27.49,0,6.06,0,7.24,1.24,7.27,7.42,0,12.83,0,25.66,0,38.49,0,5.93,1.13,7,7,7.08,8.33.06,16.66-.14,25,.08,4.18.11,6.78-1.6,9-5,9.45-14.91,19.15-29.66,28.57-44.6,2.4-3.81,5.29-5.5,9.81-5.39,9.49.22,19,0,28.49.08,3.17,0,6.61-.18,8.37,3.18,1.63,3.09-.78,5.35-2.25,7.69-15.74,25.12-31.62,50.16-47.19,75.39-3.8,6.15-8.28,9.16-15.81,8.86-13.47-.53-27-.15-40.47-.15-10.32,0-10.52.22-10.52,10.75V414.55c0,9.46-.75,10.2-10.28,10.21-8.5,0-17,.07-25.49,0-6-.07-7.31-1.45-7.32-7.48q0-47.48,0-95C766.13,320.33,766.56,318.31,765.24,315.51Z"/><path class="cls-1" d="M1346.85,311.79q-31.74,0-63.48,0c-7.67,0-9.11-1.43-9.12-9q0-34.5,0-69c0-7.57,1.46-9,9.13-9,12.16,0,24.33,0,36.49,0,5.8,0,7-1.28,7.23-7,.59-15,.59-15-14.31-15-10.33,0-20.67.05-31,0-5.71,0-7.41-1.8-7.52-7.53-.09-5.16-.08-10.33,0-15.5.08-5.88,1.84-7.77,7.82-7.83,12.16-.13,24.33,0,36.49-.06,7.48,0,8.35-.88,8.54-8.25.17-6.94,1-7.83,7.82-7.86,8.5,0,17,.1,25.49,0,4.69-.08,6.73,2.15,6.74,6.63l0,2.5c.13,6.44.67,7,7.34,7,12,0,24,0,36,0,7.48,0,8.7,1.27,8.75,8.73,0,5,0,10,0,15-.08,5.66-1.42,7.12-7.12,7.17-12.16.11-24.32,0-36.49.05-7.68,0-8.42.74-8.45,8.17-.07,14.81-.89,13.86,13.79,13.83,10,0,20,0,30,0,7,0,8.27,1.25,8.27,8.06q0,35.49,0,71c0,6.57-1.28,7.88-7.93,7.9C1389.84,311.82,1368.35,311.79,1346.85,311.79Zm-.16-31c10.84,0,21.67,0,32.5,0,5.9,0,6.91-1.12,7-7.11,0-3.83-.09-7.66,0-11.49.12-4.36-1.76-6.44-6.23-6.43q-33.26.09-66.49,0c-4.27,0-6.06,2.15-6.11,6.14-.05,3.83-.1,7.67,0,11.5.12,6.15,1.3,7.36,7.34,7.39C1325.36,280.85,1336,280.82,1346.69,280.82Z"/><path class="cls-1" d="M1051.13,265.36c0,25.65-.05,51.31,0,77a24.17,24.17,0,0,1-4.2,14.06q-20.18,30.39-40,61c-2.93,4.54-6.42,6.69-11.89,6.54-10-.28-20-.06-30-.1-2.62,0-5.58.55-7.2-2.28s.12-5.41,1.67-7.8c15.11-23.17,30.16-46.36,45.36-69.45a19.34,19.34,0,0,0,3.36-11.21c-.09-37.82,0-75.63-.06-113.45,0-7.5-.41-7.91-7.93-7.91q-35,0-70,0a37.27,37.27,0,0,1-6-.27c-4.76-.78-6.44-3.73-4-7.88,4.6-7.72,9.62-15.2,14.5-22.75,1.51-2.33,3.84-3,6.5-3q51,0,101.95,0c6.07,0,7.75,2.09,7.77,9Q1051.18,226.13,1051.13,265.36Z"/><path class="cls-1" d="M543.69,203.7q35.22,0,70.44,0c7.13,0,8.09,1,8.15,8.07,0,2.66,0,5.33,0,8,.1,5.93,1.14,7.07,7,7.1,13,.07,26,0,39,0,9.66,0,10.83,1.21,10.86,11,0,13,0,13-12.83,13-11.83,0-23.65-.05-35.48,0-7,.05-8.49,1.66-8.54,8.57,0,3.33-.08,6.66,0,10,.09,4.19-2.08,6.09-6.08,6.24-1.33.05-2.66.05-4,.05H474.31c-8.43,0-9.17-.73-9.17-9.07q0-27.48,0-54.95c0-7.11,1-8.09,8.11-8.1Q508.47,203.67,543.69,203.7Zm-.09,24.07c-9.66,0-19.32.06-29,0-4.19,0-6.16,2-6.23,6-.06,3.66-.12,7.33,0,11,.15,5.37,1.59,6.94,6.88,7,19,.08,38,0,57,.05,4.65,0,6.68-2.41,6.83-6.74.12-3.49.15-7,0-10.49-.18-5.41-1.5-6.7-7-6.74C562.58,227.71,553.09,227.76,543.6,227.77Z"/><path class="cls-1" d="M879.3,406.75c-9,0-18,0-27,0-6.6-.05-8.07-1.47-8.12-7.85q-.09-12.5,0-25c.05-5.88,1.24-7.08,7.05-7.13,9.33-.07,18.68-.32,28,.08,6.95.29,11.21-2.32,15-8.27,23.71-36.85,47.83-73.43,71.81-110.11,2.91-4.46,5.82-8.93,8.68-13.43,2.51-4,6.15-5.11,10.38-3.77,4,1.26,4,4.9,4,8.3,0,17.16,0,34.32,0,51.49a18.42,18.42,0,0,1-3.3,10.79Q952,351.34,918.2,400.89a12.68,12.68,0,0,1-11.41,5.88C897.63,406.69,888.46,406.75,879.3,406.75Z"/><path class="cls-1" d="M448.58,165.74c11.5,0,23-.1,34.49,0,4.62.07,7.3-1.33,7.36-6.44.05-4.2,2.57-6.41,6.73-6.43q17-.09,34,0c3.83,0,6.21,1.79,6.88,5.79,1.18,7,1.28,7,8.7,7h129c1.67,0,3.34,0,5,0,3.66,0,5.56,1.89,5.56,5.57,0,12.49,0,25,0,37.48,0,4-2.19,5.84-5.9,5.86q-19.5.12-39,0c-4,0-6-2.47-6.08-6.42-.07-3.67,0-7.33-.06-11-.08-6.49-1-7.38-7.66-7.46H416.65c-9.18,0-10.31-1.16-10.36-10.37-.06-13.7-.06-13.7,13.8-13.7Z"/><path class="cls-1" d="M816.2,538.13V503.65c0-10.82,7.25-14.84,16.94-9.2,8.06,4.69,15.94,9.68,23.88,14.57,7.1,4.36,14.27,8.61,21.22,13.19,3.57,2.35,6.51,2.16,10.07-.09,13.79-8.72,27.79-17.12,41.58-25.85a21,21,0,0,1,12.67-3.61c6.22.3,7.61,1.4,7.63,7.76q.07,38,0,76c0,6.07-1.44,7.4-7.34,7.47-4.5,0-9,.06-13.49,0-5.61-.08-7-1.43-7.09-7.2-.1-12.16,0-24.32-.08-36.48,0-2.37,1-5.35-1.84-6.78-2.44-1.25-4.41.76-6.36,1.94-8.57,5.14-17.17,10.23-25.63,15.55-3.53,2.21-6.6,2.32-10.17.07-8.75-5.49-17.63-10.75-26.48-16.08-1.82-1.1-3.69-2.72-6-1.31-2,1.27-1.5,3.56-1.51,5.5,0,12.32,0,24.65,0,37,0,6.56-1.37,7.78-8,7.83-3.5,0-7,0-10.49,0-9,0-9.48-.53-9.49-9.75Z"/><path class="cls-1" d="M1419.28,538.65c0,12.49,0,25,0,37.48,0,6.56-1.1,7.65-7.46,7.72-4.17,0-8.33,0-12.49,0-6.34-.08-7.91-1.53-8-8.05-.12-11.33.05-22.66-.11-34,0-2.85,1.5-6.58-1.55-8.34s-5.54,1.4-8,2.83c-7.78,4.52-15.55,9.06-23,14-4.43,2.93-8.11,2.61-12.4-.11-8.43-5.35-17.06-10.4-25.65-15.51-5.31-3.17-7.25-2.12-7.28,4-.07,12.49,0,25,0,37.47,0,6.48-1.14,7.57-7.57,7.63-4.49,0-9-.06-13.49,0s-6.89-2-6.9-6.56q0-39,0-77.95c0-4.45,2-6.64,6.72-6.71a23.28,23.28,0,0,1,13.65,3.59c13.59,8.72,27.57,16.84,41.16,25.56,4.17,2.68,7.39,2.5,11.37,0,13.94-8.79,28-17.37,42-26,1.84-1.13,3.57-2.43,5.78-2.85,10.67-2,13.24.05,13.24,10.78Q1419.3,521.16,1419.28,538.65Z"/><path class="cls-1" d="M644.31,538.73c0,12.33,0,24.65,0,37,0,2.77.63,6-2.63,7.46a9.47,9.47,0,0,1-9.49-1.15c-7.14-4.89-14.32-9.74-21.47-14.61q-21.48-14.62-43-29.24c-1.73-1.18-3.51-3.06-5.84-1.71s-1.63,3.83-1.64,5.91c0,11,0,22,0,33,0,7.67-.87,8.48-8.71,8.51-4.17,0-8.34-.12-12.49,0-4.68.16-6.76-2.1-6.78-6.59q0-10.5,0-21,0-27.24,0-54.46c0-3.1-.69-6.81,2.83-8.43s7.08-.74,10.37,1.5q31.59,21.49,63.29,42.84c1.83,1.24,3.6,3.58,6.18,2.25,2.73-1.4,2.13-4.28,2.14-6.72.05-11.15,0-22.31.05-33.47,0-5.88,1.2-7,7-7.1,4.33-.07,8.66-.06,13,0,5.89.09,7.11,1.23,7.14,7C644.35,512.75,644.31,525.74,644.31,538.73Z"/><path class="cls-1" d="M1167.74,583.86c-12.66,0-25.32,0-38,0-6,0-7.28-1.36-7.48-7.34,0-1.17,0-2.34,0-3.5,0-7.69,1.43-9.14,9-9.15,15.66,0,31.32,0,47,0,6.32,0,7-.7,7.08-6.76.11-7.62-.88-9-7.16-9.07-15.83-.1-31.66,0-47.48-.06-7.22,0-8.35-1.12-8.37-8.47q-.08-19.25,0-38.48c0-7,1.22-8.23,8.09-8.24q37.49,0,75,0c6.87,0,7.87,1,8,7.75q0,1.5,0,3c0,8.13-1.11,9.25-9.21,9.27-15.33,0-30.66,0-46,0-6.78,0-7.78,1-7.84,7.29,0,6.89,1.28,8.5,7.92,8.54,15.83.11,31.65,0,47.48.07,6.52,0,7.59,1.08,7.62,7.55q.06,20.25,0,40.49c0,5.87-1.23,7.09-7,7.12C1193.4,583.9,1180.57,583.86,1167.74,583.86Z"/><path class="cls-1" d="M1209.31,208c0,3.83-.06,7.66,0,11.49s-1.87,6-5.67,6.09c-5.66.11-11.33.07-17-.11-3.47-.11-6.25-1.76-8.72-4.29-8.28-8.45-16.69-16.76-25.08-25.1-4.81-4.79-5.52-4.78-10.46.14-8.27,8.22-16.6,16.38-24.72,24.76a14.35,14.35,0,0,1-10.63,4.66c-6.49.08-13,0-19.49,0-4.14,0-6.56-1.78-6.5-6.33.11-7.49.07-15,0-22.49,0-4.2,2.17-6.57,6.17-5.92,9.24,1.51,15.26-3,21-9.41,6.54-7.32,13.86-13.94,20.75-20.95a14.54,14.54,0,0,1,11.6-4.77,35.36,35.36,0,0,0,7.49,0c10.17-1.75,17,3.11,23.07,10.55,5.69,6.95,12.12,13.28,18,20a12.44,12.44,0,0,0,10.46,4.56c9-.22,9.63.63,9.65,9.61V208Z"/><path class="cls-1" d="M868.6,326.85c-6,0-12-.06-18,0-4.32.06-6.48-1.83-6.45-6.28q.11-13.48,0-27c0-4.57,2.19-6.76,6.7-6.75a16.6,16.6,0,0,1,3,0c10.86,2.13,17.14-3.1,22.3-12.22,7.29-12.87,15.84-25,23.55-37.68,2.74-4.48,6-6.44,11.35-6.26,11,.36,22,.11,33,.11,2.69,0,5.43-.07,7,2.74s-.36,5.06-1.8,7.24c-17.71,26.61-35.5,53.18-53.12,79.84-2.85,4.31-6.3,6.54-11.55,6.29S873.92,326.86,868.6,326.85Z"/><path class="cls-1" d="M460.89,583.86c-10.55,2.74-16.55-2.56-21.94-11-7.69-12.05-16.46-23.41-24.79-35.05-4-5.56-5.33-5.63-9.38,0-9.9,13.79-19.78,27.59-29.48,41.53-2.23,3.22-4.74,4.73-8.67,4.58-5.82-.23-11.65-.06-17.48-.07-2.53,0-5.14.06-6.42-2.75-1.15-2.52.24-4.52,1.6-6.43q19.1-26.85,38.24-53.68,8.69-12.19,17.41-24.37c4-5.54,14.6-5.92,18.54-.42q28.08,39.15,55.94,78.45c1.43,2,3.18,4.17,1.62,6.83s-4.2,2.35-6.7,2.37C466.55,583.88,463.72,583.86,460.89,583.86Z"/><path class="cls-1" d="M450.24,239.68c0,9.15,0,18.31,0,27.46,0,6.56-1.12,7.7-7.45,7.73q-14.73.08-29.46,0c-5.38,0-6.77-1.42-7-6.79-.13-3.49,0-7-.07-10.49-.14-5.21-1.47-6.56-7.12-6.6-13.65-.09-27.3,0-40.94,0-7.55,0-8.68-1.12-8.89-8.56-.42-15.14-.08-15.49,14.82-15.49,12,0,24-.11,35.95,0,4.47,0,6.44-1.69,6.23-6.2-.17-3.65-.06-7.32.05-11,.11-4,2-6.1,6.22-6.07,10.49.09,21,.07,31.46,0,4.49,0,6.23,2.26,6.2,6.53C450.19,220,450.23,229.86,450.24,239.68Z"/><path class="cls-1" d="M709.21,226q0-20,0-40c0-7.17,1-8.19,8-8.23,7.67,0,15.33-.05,23,0,5.76.05,7.78,1.72,7.85,7.27.16,12.66.09,25.33,0,38a16.63,16.63,0,0,1-3.1,9.34q-13.1,19.2-26,38.5c-1.54,2.28-3.13,4.59-6.37,3.63s-3.32-3.8-3.32-6.53Q709.2,247,709.21,226Z"/><path class="cls-1" d="M1419.28,58.37c0,7.32-.18,14.65.06,22,.16,4.85-2,6.5-6.55,6.46q-22-.17-43.94,0c-3.91,0-5.82-1.4-5.79-5.55q.15-23,0-45.93c0-4.08,1.7-5.63,5.7-5.6q22.47.15,44.94,0c4.07,0,5.68,1.68,5.61,5.69C1419.18,43.05,1419.27,50.71,1419.28,58.37ZM1391.34,73.8c2,0,4,0,6,0,3.34.08,4.82-1.5,4.82-4.86s-1.14-5.09-4.61-5.06c-4.16,0-8.33,0-12.49,0-3.35,0-4.81,1.51-4.81,4.86s1.13,5.11,4.6,5.06C1387,73.76,1389.17,73.78,1391.34,73.8Zm-.42-22.25c2.31,0,4.63.11,6.94,0,2.75-.16,4.15-1.76,4.2-4.53.06-3-1.25-4.86-4.29-5-4.46-.13-8.93-.11-13.39,0-2.8.07-4.06,1.73-4.11,4.53-.06,3,1.1,4.81,4.2,5C1386.61,51.64,1388.77,51.55,1390.92,51.55Z"/><path class="cls-1" d="M375.51,29.75c8.83,0,17.66.12,26.49-.06,4.38-.09,6.38,1.39,6.33,6-.16,15-.13,30,0,45,0,4.25-1.7,6.08-5.91,6.07q-27.24-.07-54.48,0c-4.26,0-5.85-2-5.81-6.16q.19-22.49,0-45c0-4.26,1.6-6,5.9-5.94C357.18,29.86,366.35,29.75,375.51,29.75Zm-.12,44v0c3.5,0,7-.07,10.5,0s5.29-1.31,5.24-5c-.08-7.16,0-14.33,0-21.5,0-3.42-1.54-5.36-5.08-5.37-7.17,0-14.33,0-21.5,0-3.47,0-5.21,1.73-5.21,5.24q0,11,0,22c0,3.11,1.46,4.61,4.57,4.59C367.72,73.76,371.56,73.78,375.39,73.78Z"/><path class="cls-1" d="M744.25,538.7c0,12.49,0,25,0,37.48,0,6.46-1.16,7.58-7.56,7.64-4.5,0-9,0-13.49,0s-6.9-2-6.9-6.57q0-39,0-77.95c0-4.49,2.06-6.76,6.75-6.62s9.66,0,14.49.05c5.4.1,6.66,1.38,6.69,7C744.3,512.71,744.25,525.71,744.25,538.7Z"/><path class="cls-1" d="M1022.17,538.31c0-12.81,0-25.62,0-38.43,0-5.89,1.21-7.06,7-7.15,4.82-.07,9.65.1,14.47,0,3.91-.11,6.22,1.74,6.24,5.49q.18,39.91,0,79.83c0,3.92-2.65,5.87-6.66,5.82-4.66-.05-9.32,0-14,0-5.81-.09-7.06-1.3-7.09-7.08C1022.13,563.93,1022.17,551.12,1022.17,538.31Z"/><path class="cls-1" d="M655.2,58c0-7.32-.05-14.65,0-22,.07-6.43,3.07-8.1,8.53-4.51,9.87,6.5,19.59,13.22,29.38,19.84,2.9,1.95,5.78,3.94,8.73,5.81,1.33.84,2.64,2.61,4.39,1.51s1-3,1-4.64c.06-5.82,0-11.65,0-17.48s1-6.7,6.59-6.81c11.29-.2,11.3-.2,11.3,11.11,0,12.66,0,25.31,0,38,0,2.58.69,5.63-2.2,7.19-3.07,1.65-5.39-.59-7.7-2.14-12-8.1-24-16.26-36-24.33-1.59-1.07-3.18-3.1-5.3-2-2.35,1.19-1.57,3.81-1.6,5.89-.09,6-.13,12,0,18,.06,3.8-1.61,5.58-5.39,5.4-.5,0-1,0-1.5,0-10,.13-10.26-.12-10.27-10.29Z"/><path class="cls-1" d="M1187.16,58c0-7.49.09-15,0-22.46-.06-3.91,1.33-5.84,5.5-5.81,15.14.11,30.29.09,45.43,0,3.87,0,5.33,1.73,5.31,5.46q-.1,23,0,45.94c0,4.05-1.66,5.68-5.67,5.66q-22.21-.14-44.44,0c-4.44,0-6.28-1.83-6.16-6.33C1187.31,73,1187.16,65.47,1187.16,58Zm39-1.43c-.36-16.65,3.45-14.58-16.52-14.61l-.5,0c-3.26.12-4.82,1.87-4.83,5.08,0,7.32,0,14.64,0,22,0,3.37,1.59,4.85,4.89,4.8,4.16-.06,8.32,0,12.48,0,3.12,0,4.54-1.55,4.51-4.63C1226.14,65.5,1226.17,61.84,1226.17,56.55Z"/><path class="cls-1" d="M367.52,165.75c6.16,0,12.33.08,18.49,0,4.72-.08,7.19,2,7.18,6.81,0,11.83,0,23.66,0,35.49,0,4.52-2.39,6.72-6.86,6.73H348.82c-4.43,0-6.74-1.94-6.69-6.67.13-12,.09-24,0-36,0-4.41,2-6.41,6.37-6.35C354.85,165.81,361.18,165.76,367.52,165.75Z"/><path class="cls-1" d="M1114.36,86.78c-7.32,0-14.65-.13-22,.06-4.39.11-6.45-1.42-6.32-6.06q.32-11.49,0-23c-.13-4.65,2-6.12,6.34-6,8.82.17,17.65.05,26.47,0,3.11,0,6.18.11,6.26-4.38.09-4.64-2.7-5.5-6.5-5.49-9,0-18-.14-27,.07-4.55.1-5.66-2-5.62-6.1s1.21-6.21,5.69-6.17c15,.12,30,.09,45,0,4,0,5.71,1.66,5.64,5.69-.13,7.82-.16,15.65,0,23.47.1,4.42-2.07,5.89-6.11,5.87-9.16,0-18.32,0-27.47,0-2.62,0-5.1.17-5.43,3.67-.37,3.89,1.39,5.46,5.2,5.42,8.83-.08,17.65,0,26.48,0,6.67,0,9.15,3.71,7,10.1-.88,2.7-3,2.79-5.23,2.8C1129.35,86.8,1121.86,86.78,1114.36,86.78Z"/><path class="cls-1" d="M554.15,57.57c0-7.5.07-15,0-22.49,0-3.82,1.63-5.38,5.42-5.36q22.74.12,45.47,0c4.29,0,5.34,2.15,5.37,6,0,4-1,6.36-5.55,6.27-8.16-.17-16.32,0-24.49,0-1.49,0-3,0-4.49.09q-4.51.27-4.48,4.84c0,3.11,2,3.94,4.6,3.95,7,0,14,.19,21,0,4.72-.15,6.53,1.66,6.5,6.43,0,4.59-1.41,6.8-6.31,6.63-6.82-.23-13.66,0-20.48-.06-3.36,0-5.35,1-5.41,4.81s1.76,5.3,5.47,5.26c9.16-.09,18.32.15,27.48-.08,5-.12,6.23,2.22,6.21,6.72s-1.48,6.38-6.09,6.33c-14.66-.15-29.32-.11-44,0-4.36,0-6.4-1.65-6.28-6.23C554.29,72.89,554.14,65.23,554.15,57.57Z"/><path class="cls-1" d="M835.28,58.2c0,7.67-.08,15.33,0,23,.06,3.81-1.68,5.54-5.39,5.52l-1,0c-10.4.37-10.75,0-10.76-10.16,0-14.78,1.22-13.71-13.82-13.7-4,0-8,.08-12,0-3.56-.08-5.21,1.49-5.14,5.09.09,4.33-.05,8.66,0,13,0,4-1.86,5.61-5.79,5.81-11.33.57-12.1-.05-12.11-11.16,0-12.66,0-25.33,0-38,0-7,.85-7.82,7.7-7.88,1.66,0,3.33.06,5,0,3.62-.12,5.13,1.81,5.16,5.22s.12,7,0,10.5,1.31,5.29,5,5.25c6.83-.08,13.66,0,20.49,0,3.74,0,5.51-1.79,5.48-5.52s0-7.33.06-11c0-2.82,1.4-4.34,4.27-4.39a4.07,4.07,0,0,0,.5,0c12-1,12.31-.66,12.31,11.43v17Z"/><path class="cls-1" d="M453.12,58.41c0-7.65.08-15.3,0-22.95-.07-3.95,1.44-5.78,5.55-5.75q22.46.16,44.91,0c3.91,0,5.83,1.39,5.78,5.53q-.19,14.47,0,28.94c.05,4-1.58,5.73-5.63,5.67-9-.12-18,.13-26.94-.08-4.6-.11-6.61,1.34-6.59,6.25,0,11-.59,11.25-11.7,10.79-3.78-.16-5.42-1.67-5.37-5.46C453.19,73.71,453.12,66.06,453.12,58.41Zm28.17-.75c1.33,0,2.66,0,4,0,6-.13,6.81-1,6.88-7.11,0-1.16,0-2.33,0-3.49,0-3.23-1.59-5-4.84-5-4.15-.06-8.31-.06-12.46,0-2.14,0-3.8.78-4.43,3.19-2.3,8.91.33,12.43,9.41,12.44Z"/><path class="cls-1" d="M880.14,58.24c0-7.48.11-15,0-22.46-.09-4.12,1.29-6.12,5.73-6.08q22.45.21,44.92,0c4.54,0,5.6,2.19,5.63,6.2,0,4.17-1.39,6.13-5.79,6.05-8.81-.17-17.64-.09-26.45,0-5.82,0-6.78,1-6.84,6.62-.07,6.66.09,13.32,0,20-.07,3.86,1.64,5.36,5.41,5.32,9-.1,18,0,27,0,6,0,6.49.8,6.74,6.55.2,4.78-1.74,6.49-6.45,6.43-14.31-.17-28.62,0-42.92-.08-6,0-6.82-.91-6.86-7C880.11,72.55,880.14,65.4,880.14,58.24Z"/><path class="cls-1" d="M1258.13,187.07c0,5.15,0,10.3,0,15.45,0,4.67-2.44,7.1-7.09,7.13q-9.72.07-19.45-.05c-4.61-.06-7.12-2.52-7.15-7.14-.08-10.63-.13-21.27,0-31.91,0-4.3,2.29-6.77,6.89-6.73,6.65.06,13.29.05,19.94,0,4.6,0,6.73,2.47,6.83,6.78.13,5.48,0,11,0,16.46Z"/><path class="cls-1" d="M1258.13,247.7c0,5.33,0,10.65,0,16,0,4.25-2.09,6.37-6.52,6.28-6.82-.13-13.65-.15-20.47,0-4.1.1-6.51-1.66-6.57-5.69-.16-11.14-.21-22.29,0-33.43.06-3.87,2.43-6,6.5-6,6.82,0,13.65,0,20.47,0,4.54,0,6.66,2.46,6.67,6.89,0,5.33,0,10.65,0,16Z"/><path class="cls-1" d="M1318.25,57.82c0,7.64-.08,15.29,0,22.93,0,4.22-1.91,6.14-6,6-.17,0-.33,0-.5,0-10.51.37-10.6.28-10.6-10.12,0-9.31,0-18.62,0-27.92,0-5.76-1-6.66-6.67-6.79a31.26,31.26,0,0,0-3.49,0c-4.59.42-6.75-1.44-6.7-6.25,0-4.58,2.15-6.09,6.5-6,7.31.2,14.62.16,21.93,0,4.06-.07,5.7,1.67,5.63,5.67C1318.15,42.86,1318.25,50.34,1318.25,57.82Z"/><path class="cls-1" d="M1081.12,354.75c0-3.5,0-7,0-10.48,0-3.69,1.92-5.51,5.57-5.52h21c3.67,0,5.56,1.9,5.57,5.55,0,7,0,14,0,21,0,3.63-1.79,5.6-5.49,5.61-7.15,0-14.31,0-21.46,0-3.52,0-5.21-1.66-5.18-5.17C1081.14,362.07,1081.11,358.41,1081.12,354.75Z"/><path class="cls-1" d="M1193.11,370.88c-3.48,0-7,0-10.45,0-3.69,0-5.48-1.95-5.49-5.59q0-10.46,0-20.91c0-3.63,1.76-5.6,5.46-5.62,7,0,13.94,0,20.91,0,3.92,0,5.76,2,5.75,5.86,0,6.8,0,13.61,0,20.41,0,4.23-2.17,6-6.23,5.91-3.32-.07-6.64,0-10,0Z"/><path class="cls-1" d="M998.29,58.5c0,7.49-.1,15,0,22.45.07,3.89-1.31,5.74-5.46,5.89-11.64.42-11.71.48-11.71-11.09,0-13.14.12-26.28,0-39.41-.06-4.55,1.31-6.66,6.24-6.66,10.95,0,10.95-.18,10.95,10.86Z"/></svg>