<svg id="圖層_1" data-name="圖層 1" xmlns="http://www.w3.org/2000/svg" viewBox="0 0 1761.11 614.01"><defs><style>.cls-1{fill:#50e6b4;}</style></defs><title>工作區域 2 複本 2</title><path class="cls-1" d="M667.69,388.63c2.94,0,5.42-.05,7.9.05a2.11,2.11,0,0,1,1.56.94c.45.94-.37,1.52-1.08,1.94-1.81,1.06-3.85,1-5.84,1-6.08,0-12.16,0-18.24,0l-.28,1.29q10.6,4.71,21.19,9.4,4.58,2,9.2,3.92c2.75,1.14,4,3.1,4.2,6.15.54,9.39-1,11.17-10.53,11.18-17.17,0-34.33-.05-51.5.05a23.35,23.35,0,0,1-14.47-4.46c-11.06-8-22.38-15.68-33.45-23.69a19.3,19.3,0,0,0-12-3.91q-50.24.19-100.49,0a17.77,17.77,0,0,0-11.08,3.56c-11.87,8.61-24,16.89-35.94,25.35a17.22,17.22,0,0,1-10.35,3.09c-18.49,0-37,0-55.49,0-3.72,0-7.6-.07-8.67-4.85-1.52-6.82,0-10.45,5.2-12.8,9.7-4.34,19.42-8.63,29.13-12.95,0-.44-.09-.88-.13-1.32-5.51,0-11,0-16.53,0-3.7,0-7.31.09-10.21-2.92-1.38-1.42-3.46-1-5.27-1-12.5,0-25-.15-37.49.06-4.42.08-5.82-1.62-5.78-5.86q.24-23.75,0-47.5c0-4.21,1.26-6,5.73-5.91,11,.24,22,.19,33,0,3.91-.06,5.34,1.46,5.27,5.3-.14,9,.08,18-.07,27-.09,4.71,2.06,6.75,6.59,6.7,1.5,0,3,0,4.5,0h222c8.22-.06,12.09-6.52,8.5-14.19a4.34,4.34,0,0,0-4-2.61c-2-.11-4-.13-6-.13h-208c-9.44,0-10.5-1.09-10.53-10.71a38.78,38.78,0,0,1,.05-5.5c.61-4.18-.57-6.35-5.26-5.8-2.82.33-3.74-1.59-3.74-4.11,0-10.67-.05-21.33.07-32,.05-4.55,2.31-7,7.19-6.95,9.83.13,19.66,0,29.5.05,5.55,0,7,1.47,7.06,7.24.11,10,.19,20,0,30-.1,4.33,1.46,5.67,5.78,5.87,6.9.31,13.29-2.32,20.21-2.3,68.83.26,137.66.16,206.48.16,8.88,0,12.62-5.69,9.22-14a4.45,4.45,0,0,0-4.28-2.87c-2-.08-4-.09-6-.09h-208c-9.1,0-10.24-1.18-10.28-10.46-.06-13.59-.06-13.59,13.4-13.59H668.16c10.12,0,11,.87,11,11.23,0,8.83.12,17.66,0,26.49-.06,3.83,1.33,5.44,5.26,5.32,6.16-.19,12.33,0,18.49-.05,2.94,0,4.27.74,2.25,3.73C692.79,351.45,680.5,369.67,667.69,388.63Zm-2.76-.14c-4-2.94-3.74-6-3.74-9q0-22.23,0-44.46c0-2.85-.12-5.42-4.05-5.38-7.33.07-14.65,0-22,0-2.68,0-4,1.24-4,3.93q0,25.48,0,51c0,2.69,1.29,3.95,4,3.94C644.46,388.48,653.78,388.49,664.93,388.49Z"/><path class="cls-1" d="M520.91,189.6h-105c-8.19,0-9.57-1.39-9.65-9.57-.16-14.49-.16-14.49,14.5-14.49q30.49,0,61,0c7.29,0,7.39-.06,8.64-7.1.61-3.43,2.48-5.6,5.94-5.64q17.75-.19,35.49,0c3.7,0,5.63,2.25,6.2,5.93,1,6.61,1.33,6.83,8.38,6.83H676.9c8.83,0,9.38.55,9.38,9.32q0,16.25,0,32.49c0,2.37,0,4.45-3.12,5.41-5.2,1.62-2.42,6.15-2.66,9.4-.22,3,2,4.34,4.92,4.46,1.33,0,2.67.06,4,.06q16.25,0,32.49,0c14.94,0,18.49,4.7,15,19.64-.88,3.75-3.44,4.44-6.74,4.43-13.17-.05-26.33,0-39.49,0-9.36,0-10.37,1-10.38,10.27,0,2.17,0,4.33,0,6.5-.06,6.82-1.26,8.09-8.26,8.09q-70.49,0-141,0c-6.77,0-7.89-1.12-7.9-7.83,0-16.17,0-32.33,0-48.49,0-6.54-.11-6.6-6.79-6.63-8.08,0-8.09,0-8.09,7.84,0,15.5,0,31,0,46.49,0,6.52-1.13,7.65-7.52,7.68q-14.49.07-29,0c-5.94,0-7.22-1.37-7.41-7.42-.05-1.83,0-3.67,0-5.5,0-10.92-.09-11-11.28-11H417.51c-9.37,0-10.15-.8-10.21-10.27-.08-13.46.23-13.78,13.57-13.79,12.33,0,24.67-.12,37,.06,4.74.07,6.62-1.77,6.49-6.5-.1-3.64.61-7.29.74-10.94.15-4.26,2.43-5.92,6.44-5.8.83,0,1.66,0,2.5,0q69.72,0,139.46,0c4.69,0,8.88.15,8.94,6.46,0,1.83,1.43,2.5,3.11,2.54,1.83.05,3.67,0,5.49.1,3.12.25,4.59-.71,4.32-4.2a123.83,123.83,0,0,1-.09-12.49c.1-4.44-2-6.46-6.38-6.26-1.49.07-3,0-4.5,0Zm80.67,38c-9.66,0-19.32.07-29,0-4.19,0-6.16,2-6.22,6-.06,3.66-.12,7.32,0,11,.14,5.37,1.58,6.94,6.88,7,19,.07,38,0,57,0,4.65,0,6.68-2.43,6.82-6.75.13-3.49.15-7,0-10.49-.19-5.4-1.51-6.7-7-6.74C620.56,227.5,611.07,227.54,601.58,227.55Z"/><path class="cls-1" d="M1190.13,388.66c4.61,4,2.92,7.27.6,10.69-4.4,6.47-8.77,13-13,19.59a9.18,9.18,0,0,1-8.6,4.77c-27-.11-54,0-81-.08-5.89,0-7.31-1.2-7-7.06.45-8.89-1.75-17.93,1.35-26.69-5-8.15-1.46-17.07-2.11-25.61-.67-8.78-.15-17.65-.15-26.48,0-8.25,0-8.26,8.22-8.26q9,0,18,0c6.77,0,6.87.12,6.88,7.11,0,14.5,0,29,0,43.49,0,7.66,1,8.55,8.72,8.54,14.33,0,28.66-.1,43,0,7.81,0,11.13-3,11.19-11.08.09-13.66,0-27.32,0-41,0-6.91.14-7,6.93-7.05,7.17,0,14.34.17,21.49-.06,4.21-.13,5.57,1.61,5.48,5.62-.18,7.66,0,15.33-.08,23a14.62,14.62,0,0,0,3.22,9.71c4.32,5.5,8.61,11,12.77,16.66a9.29,9.29,0,0,0,8.07,4.08c12.83-.06,25.66-.12,38.49,0,4.53.05,6.4-2,6.4-6.31,0-4.83.09-9.66,0-14.49-.11-5.58-1.59-7.06-7.26-7.09-12.33-.08-24.66,0-37-.05-7.19,0-8.51-1.33-8.57-8.4q-.06-7.75,0-15.5c0-4.26,2.09-6.31,6.52-6.3q66,.07,132,0c4.71,0,6.62,2.15,6.52,6.72-.13,5.67-.12,11.33,0,17,.09,4.71-2.19,6.55-6.75,6.52-12.66-.09-25.33-.06-38,0-6.28,0-7.27,1-7.34,7.27q-.07,7,0,14c.06,6.06.66,6.62,6.58,6.63q41.24,0,82.48.13c10.11,0,11,.93,11,11.2,0,5.67.06,11.33,0,17-.08,5.48-1.31,6.75-6.9,6.75q-71.47.06-143,.06a11.39,11.39,0,0,1-9.51-4.5c-2.3-2.85-4.83-5.51-7.23-8.28s-4.69-2.94-7,.06a21.24,21.24,0,0,0-2.92,4c-3.34,7.63-9.31,9.43-17.07,8.74-6.28-.55-12.66,0-19-.18-6-.19-7.66-3.52-4.38-8.58q7.2-11.12,14.67-22.06c2.19-3.22,1.4-4.34-2.34-4.3C1206.83,388.72,1199,388.66,1190.13,388.66Z"/><path class="cls-1" d="M764.83,315.78c-1.93,2.86-3.88,5.71-5.8,8.59-1.44,2.16-3.77,4.35.89,5.78,1.61.49,1.3,2.55,1.3,4,0,16.5,0,33,.06,49.5,0,3.62-1.36,5.06-5,5-11-.12-22-.15-33,0-4,.05-5.21-1.62-5.18-5.39.12-15.66-.05-31.33.11-47,0-4.27-.49-7.22-5.8-6.81-2.66.21-3.44-1.69-2.82-4a10.63,10.63,0,0,1,1.5-3.13c8.49-12.56,17.08-25.06,25.48-37.68,2.09-3.13,4.6-4.24,8.33-4.2,15.66.17,31.33-.06,47,.15,4.18.06,6.71-1.41,9-4.87,6.34-9.78,12.95-19.4,19.61-29a19.5,19.5,0,0,0,3.74-12.15c-.19-5.83-.13-11.66,0-17.49.06-3.17-1.26-4.68-4.46-4.47a8.18,8.18,0,0,1-1,0c-11.52-.28-11.53-.28-12.69,10.91a18.71,18.71,0,0,1-3.22,8.81q-13,19-25.77,38.09c-1.63,2.42-3.28,5-6.76,3.73-3.17-1.12-3.11-4-3-6.72.75-34.47-1.67-68.92-1.08-103.39.13-7.7.88-8.53,8.69-8.54,9,0,18,0,27,0,6.17,0,7.39,1.21,7.42,7.29.06,12.66,0,25.33,0,38,0,6.8,1,7.7,7.91,7.73,8,0,16-.15,24,.06,4.14.11,6.82-1.45,9-4.93,9.44-14.92,19.17-29.66,28.56-44.62,2.52-4,5.61-5.6,10.28-5.48,9.66.24,19.33.06,29,.09,2.88,0,5.86.17,7.44,3.08s-.5,5.07-1.89,7.29q-13.67,21.81-27.36,43.61c-.76,1.21-2.38,2.39-1.62,3.93s2.7.9,4.11.91c15.66,0,31.33,0,47,.06,1.39,0,3.28-.74,4.06.93.61,1.31-.79,2.42-1.47,3.51-5.21,8.34-10.51,16.62-15.64,25-2.88,4.72-6.75,6.82-12.4,6.73-14.49-.24-29-.09-43.49-.08-8.85,0-9.48.64-9.5,9.27,0,5.83-.14,11.67,0,17.49.12,3.88-1.4,5.32-5.28,5.28-15.49-.12-31,.1-46.49-.13-4.73-.07-6.47,1.39-6.36,6.25.28,12.16-.07,24.34.17,36.5.09,4.66-1.28,6.57-6.21,6.43-10.32-.3-20.67-.26-31,0-4.57.11-6.46-1.48-6-6.06.23-2.45,0-4.94,0-7.41Z"/><path class="cls-1" d="M879.39,406.53c-9.16,0-18.33.06-27.49,0-6.19-.06-7.65-1.57-7.73-7.74-.13-10.89,1.34-10.1-10.31-10.12-6.17,0-12.35.26-18.5-.08-4.94-.28-6.37,1.74-6.19,6.41.29,7.32.14,14.66.05,22-.06,5.92-1.56,7.48-7.39,7.54q-14.25.15-28.5,0c-5.75-.07-7.11-1.5-7.16-7.13-.07-7.67.2-15.34-.1-23-.19-4.74,1.78-6.1,6.19-5.91,6.16.25,12.34-.13,18.49.11,4.2.17,5.72-1.52,5.44-5.58-.21-3.15-.08-6.33,0-9.49.12-5.74,1.3-6.93,7.22-7,9.67-.06,19.34-.18,29,0,5.9.13,10-1.82,13.12-7.13,5.24-8.89,11.25-17.33,16.77-26.06a7.75,7.75,0,0,1,7.42-3.92c12.83.13,25.66,0,38.49.08,3.09,0,5.33-.76,7.11-3.53Q928.5,305.4,942,285c2.09-3.18,1.5-4.24-2.31-4.37-9.24-.3-9.32-.46-4.48-8.17,7.69-12.28,15.59-24.44,23.22-36.76a9.81,9.81,0,0,1,9.43-5.14c11.33.2,22.67.06,34,.07,2.68,0,5.45-.14,7.1,2.61,1.76,2.92-.2,5.06-1.66,7.26q-11.76,17.68-23.58,35.35c-1.88,2.79-2.76,4.85,2,4.77,2.28,0,3.26,1.3,3.37,3.46.34,6.9.16,13.5-4.39,19.48-5.44,7.15-10.19,14.83-15.36,22.2-2,2.8-1.28,3.79,1.93,3.79,8.84,0,17.67.12,26.5,0,3.81-.07,5.22,1.3,5.43,5.19.49,9.24-.73,17.68-6.61,25.41-5.74,7.54-10.6,15.76-15.78,23.72-.76,1.18-2.38,2.36-1.34,3.95.79,1.21,2.45.75,3.74.76,12,0,24,0,36,.05,1.59,0,3.68-.74,4.65.84s-.67,3.1-1.54,4.43c-5.48,8.36-11.07,16.65-16.53,25a9.71,9.71,0,0,1-8.75,4.78c-11.17,0-22.33.08-33.5,0-6.19-.06-8-3.5-4.71-8.83,4.5-7.21,9.26-14.25,13.85-21.4,2.63-4.1,2.35-4.67-2.48-4.7-12.16-.06-24.33,0-36.49-.05-1.43,0-3.3.64-4.16-.86s.73-2.75,1.5-3.94q12.77-19.72,25.59-39.41a29.73,29.73,0,0,0,2.81-4.71c2.8-6.79.66-10-6.5-10.05-10,0-20,.06-30,0a7.14,7.14,0,0,0-6.69,3.36c-11.64,17.27-23.41,34.46-35.11,51.69-.62.92-1.95,1.82-1.4,3,.69,1.49,2.37.83,3.61.84,12.5.05,25,0,37.5,0,1.3,0,3-.5,3.78.64,1,1.53-.81,2.63-1.4,3.92-4.9,10.76-13,15.12-24.88,13.58C892.15,405.87,885.73,406.54,879.39,406.53Z"/><path class="cls-1" d="M1347.05,311.58q-32,0-64,0c-7.3,0-8.77-1.51-8.82-8.8,0-5.5.18-11-.06-16.5-.19-4.33,1.45-5.87,5.81-5.81,15.33.21,30.66,0,46,.23,4.78.08,6.42-1.54,6.34-6.33-.24-13.83-.12-27.66-.07-41.5,0-6.59,1.69-8.22,8.35-8.25,12.34-.05,24.67,0,37,0,6,0,7.33-1,7.4-6.76,0-4.28,1.87-5.41,5.78-5.34,9.5.17,19,.19,28.5,0,4.17-.09,6.34,1.12,6,5.63-.45,5.13,2.43,6.6,7.09,6.55,12.16-.14,24.33-.08,36.5,0,7.32,0,8.44,1.17,8.45,8.4q0,20.51,0,41c0,6.49-.15,6.61-6.82,6.63-7.5,0-15-.08-22.5.05-3.13.05-4.8,0-4-4.27.82-4.69.15-9.63.31-14.46s-2.24-6.44-6.77-6.42c-19.33.08-38.66,0-58,0-13.75,0-14.35-1.94-14.12,14.15,0,1.17,0,2.33,0,3.5.17,6.13,1.32,7.35,7.38,7.36,13.5,0,27,.09,40.5-.13,4.47-.08,6.37,1.3,6.13,6-.31,6,0,12-.1,18-.06,5.59-1.45,7.07-7.2,7.11-14.83.09-29.66,0-44.5,0Z"/><path class="cls-1" d="M1168.91,212.53c-6.85-7-12.68-13.11-18.65-19.05-2.16-2.14-4.28-1-6.11.81-4.14,4.11-8.52,8-12.33,12.4a16.2,16.2,0,0,1-14.37,6.08c-8.29-.48-8.32-.11-8.32,8q0,26.5,0,53c0,6.64-.21,6.84-6.63,6.85-10.33,0-20.66-.1-31,.06-3.88.06-5.31-1.44-5.29-5.29q.16-29,0-58c0-3.7,1.45-5,5-4.94,10.35.16,9.82,1.29,9.82-10.08,0-11.74,0-11.89,11.91-11.74a12.72,12.72,0,0,0,10.09-4.27c8.46-8.74,17.21-17.19,25.74-25.86,3.36-3.43,7.2-5.24,12-5a29.69,29.69,0,0,0,7,0c10.38-1.86,17.33,3.11,23.5,10.73,5.43,6.72,11.68,12.77,17.33,19.32a13.59,13.59,0,0,0,11.74,5.12c8-.31,9,.85,8.89,8.83-.14,15.15,2,12.9-12.84,13.12a24.25,24.25,0,0,1-4,0c-6.19-1-11,1.09-14.78,6.07-4.07,5.43-9.62,7.22-16.24,6.86-5.32-.28-10.67.08-16-.14-5.53-.22-8.75-6.67-5.82-11.33,1.21-1.92,3.19-1.51,5-1.52C1152.23,212.5,1159.87,212.53,1168.91,212.53Z"/><path class="cls-1" d="M816.2,537.8c0-12.66,0-25.32,0-38,0-6.09,1.25-7.07,7.39-7.36a20.19,20.19,0,0,1,12.24,3.3c13.94,8.79,28.11,17.23,42,26,3.74,2.36,6.73,2.46,10.5.06,14.06-8.93,28.38-17.45,42.4-26.43,4.75-3,9.68-3.19,14.86-2.78,3.05.25,4.24,2.46,4.4,5.18.19,3.15.14,6.32.14,9.49q0,33.72,0,67.46c0,7.89-1,8.85-9,8.87-3.84,0-7.67,0-11.5,0-6-.07-7.43-1.34-7.47-7.33-.1-12.32,0-24.65-.07-37,0-2.09.67-4.6-1.52-6-2.45-1.54-4.42.38-6.36,1.55-8.71,5.23-17.46,10.41-26.06,15.81-3.56,2.24-6.64,2.18-10.17,0-8.6-5.4-17.35-10.57-26.05-15.82-1.83-1.1-3.67-2.8-5.95-1.7-2.43,1.17-1.82,3.71-1.83,5.8-.06,12.16,0,24.32,0,36.48,0,7-1.25,8.17-8.13,8.21-4.33,0-8.66.07-13,0-5.5-.1-6.81-1.34-6.84-6.85C816.15,563.79,816.2,550.8,816.2,537.8Z"/><path class="cls-1" d="M1419.27,538.46c0,12.49,0,25,0,37.47,0,6.55-1.11,7.64-7.48,7.71-4,0-8,0-12,0-7,0-8.42-1.44-8.47-8.58-.09-11.16.06-22.32-.1-33.47,0-2.85,1.5-6.58-1.57-8.33s-5.53,1.42-8,2.85c-7.77,4.52-15.55,9.06-23,14-4.44,3-8.12,2.59-12.4-.13-8.44-5.35-17.07-10.39-25.66-15.51-5.29-3.15-7.23-2.09-7.26,4-.07,12.49,0,25,0,37.48,0,6.46-1.14,7.55-7.58,7.61-4.5,0-9-.06-13.5,0s-6.87-2-6.88-6.59q0-39,0-77.95c0-4.46,2-6.61,6.74-6.68a23.27,23.27,0,0,1,13.65,3.6c13.59,8.72,27.57,16.83,41.16,25.56,4.18,2.69,7.4,2.47,11.37,0,13.94-8.79,28-17.37,42-26,1.84-1.14,3.58-2.43,5.78-2.85,10.68-2,13.22.05,13.22,10.81Q1419.29,521,1419.27,538.46Z"/><path class="cls-1" d="M1193.22,320.68c-8,0-16,.11-24,0-4.25-.08-7.2,1.21-7.82,5.78-.35,2.54-2,3.21-4.23,3.21q-12.48,0-25,0c-2.36,0-3.86-.91-3.94-3.44-.14-4.46-3-5.47-6.77-5.48l-31.47,0c-8.36,0-9-.63-9-9.2,0-5,0-10,0-15,0-8.2.73-8.94,8.74-8.95,10.49,0,21-.05,31.47,0,3.44,0,6.34-.52,7.09-4.6.33-1.78,1.71-2.36,3.35-2.36q13.24,0,26.47,0a3,3,0,0,1,3.15,2c1.41,4.75,5.06,5,9.13,5q39-.12,77.92,0c8.78,0,9.74,1,9.76,9.72,0,9-.12,18,0,27,.08,4.09-1.47,5.67-5.57,5.55-7.66-.22-15.32-.15-23-.07-3.31,0-5.6-.76-5.37-4.67.22-3.67-2-4.41-5.1-4.38C1210.54,320.74,1201.88,320.69,1193.22,320.68Z"/><path class="cls-1" d="M644.3,538c0,12.5,0,25,0,37.48,0,2.77.61,6-2.66,7.45a9.49,9.49,0,0,1-9.48-1.17q-22.87-15.67-45.77-31.31-9.5-6.47-19.07-12.83c-1.63-1.09-3.3-2.66-5.44-1.42s-1.6,3.51-1.61,5.44c0,11.33,0,22.65,0,34,0,6.86-1.07,7.92-7.73,8-4.49,0-9-.12-13.49,0-4.68.16-6.73-2.13-6.75-6.61q0-10.74,0-21.48,0-27,0-54c0-3.1-.68-6.8,2.85-8.42s7.08-.71,10.37,1.53q31.59,21.5,63.29,42.84c1.83,1.24,3.6,3.58,6.19,2.23s2.1-4.3,2.11-6.73c.05-11.16,0-22.32.05-33.48,0-5.86,1.2-7,7.08-7.07q6.5-.11,13,0c5.87.09,7.08,1.23,7.11,7.05C644.34,512.4,644.3,525.22,644.3,538Z"/><path class="cls-1" d="M1167.77,583.65c-12.66,0-25.32,0-38,0-6,0-7.32-1.35-7.52-7.31,0-1.66,0-3.33,0-5,.15-5.93,1.83-7.66,7.91-7.68,16-.06,32,0,48,0,6.36,0,7-.69,7.12-6.72.12-7.64-.87-9.07-7.12-9.11-16-.11-32,0-48-.07-6.59,0-7.87-1.25-7.9-7.92q-.1-19.74,0-39.48c0-6.57,1.33-7.78,8-7.78q37.48,0,75,0c7,0,7.94,1,8,8.2,0,.67,0,1.34,0,2,0,8.83-1,9.81-9.67,9.82-15.33,0-30.66,0-46,0-6.16,0-7.24,1.08-7.37,6.75-.17,7.18,1.11,9,7.37,9,15.83.15,31.66,0,47.48.09,7.2,0,8.15.94,8.16,8q.06,19.74,0,39.49c0,6.53-1.11,7.64-7.51,7.66C1193.1,583.68,1180.43,583.65,1167.77,583.65Z"/><path class="cls-1" d="M1392.68,202.61c-6.33,0-12.66.06-19,0-3.93-.06-6.58,1.22-6.47,5.62.08,3.59-1.85,4.49-5,4.46q-15-.13-30,0c-3.1,0-5.15-.68-5.19-4.34,0-4.54-2.83-5.81-7-5.77-12.49.11-25,.07-37.46,0-6.69,0-8.27-1.62-8.35-8.23,0-3.83,0-7.66,0-11.49,0-10.4.83-11.21,11.49-11.22,11,0,22,0,33,0,7.42,0,8.23-.84,8.42-8.35.17-6.83,1-7.72,7.92-7.75,8.32,0,16.65-.06,25,0,5.64.05,6.94,1.41,7.17,7.15a18.82,18.82,0,0,1,0,2.49c-.43,4.71,1.65,6.58,6.39,6.51,12.32-.17,24.64-.08,37,0,7.47,0,8.69,1.27,8.73,8.74,0,5.16-.12,10.32,0,15.48.13,4.7-2.17,6.7-6.64,6.7h-20Z"/><path class="cls-1" d="M459.26,583.62c-9.05,2.81-15-2.62-20.36-11.06-7.69-12-16.47-23.4-24.79-35-3.88-5.42-5.29-5.52-9.08-.25-10,13.92-20,27.85-29.78,41.92-2.25,3.25-4.81,4.66-8.71,4.51-5.82-.21-11.65-.05-17.48-.06-2.35,0-4.79.06-6.15-2.38-1.49-2.67,0-4.81,1.46-6.87q21.56-30.3,43.16-60.59,6.09-8.53,12.2-17c4.38-6.12,14.75-6.4,19.13-.3q24.88,34.68,49.6,69.49c2.41,3.38,5,6.71,7.06,10.28,2.37,4,.84,6.73-3.73,7.34a8.39,8.39,0,0,1-1,.06Z"/><path class="cls-1" d="M1202.77,236.6h54.47c9.53,0,10.06.55,10.06,10.29,0,5.5-.08,11,0,16.49.07,4.4-2,6.39-6.35,6.36-10.66-.08-21.32,0-32,0-7.51,0-8.14.47-9.63,7.64-.46,2.22-1.52,3.21-3.66,3.21-8.5,0-17,0-25.49,0-3.15,0-4-1.82-3.92-4.51.23-4.91-2.61-6.38-6.91-6.38-11.16,0-22.32,0-33.49,0-5.91,0-6.72-.83-6.77-6.6q-.11-9.75,0-19.49c.07-5.74,1.3-7,7.19-7C1165.12,236.57,1183.94,236.6,1202.77,236.6Z"/><path class="cls-1" d="M992.71,177.63c16.32,0,32.64,0,49,0,7.77,0,9.38,1.63,9.43,9.37.05,6.66-.16,13.33.07,20,.16,4.41-1.62,5.78-5.89,5.72-15.63-.21-31.25-.45-46.87-1-22.63-.78-45.3-.2-67.95-.21a43.67,43.67,0,0,1-5.49-.17c-5.36-.69-7.16-3.73-4.42-8.31,4.53-7.57,9.47-14.89,14.24-22.32,1.89-2.94,4.85-3.1,8-3.1Q967.72,177.65,992.71,177.63Z"/><path class="cls-1" d="M1008.25,304.78c0-6,0-12,0-18,0-2.55.53-5.13-3.05-6.5-2.45-.93-.12-2.85.63-4,4.64-7.31,9.41-14.54,14.14-21.8,4.09-6.28,8.26-12.51,12.23-18.87,2.51-4,5.89-5.94,10.51-4.67s4.44,5.29,4.46,9c0,11.66,0,23.32,0,35,0,2.35-.09,4.62,2.47,6.05,1.67.93,1.46,2.87,1.47,4.52,0,13-.07,26,.05,39,0,3.87-1.44,5.33-5.31,5.27-10.66-.16-21.33-.22-32,0-4.51.1-5.8-1.78-5.66-6C1008.41,317.44,1008.25,311.11,1008.25,304.78Z"/><path class="cls-1" d="M1422.16,29.54c7.49,0,15,.1,22.48,0,4-.08,5.72,1.59,5.66,5.64q-.19,13.72,0,27.47c0,3.58-1.27,5.41-5,5-4.71-.5-9.13.47-14-2.84s-11.92-1.29-18-.68a1.62,1.62,0,0,0-1.39,1.81c.13,1.26,1.23,1.59,2.22,1.52,4.85-.36,5.24,2.62,5.18,6.37-.19,13,1.58,12.82-12.7,12.76-12.32,0-24.64,0-37,0-5.88,0-6.48-.71-6.57-6.69v-.5c-.12-12.56,1-13.52,13.66-11.78,1.6.22,3,.56,3.36,2.36.58,3.24,2.85,3.72,5.56,3.68,4.16,0,8.33,0,12.49-.08,2,0,3.65-.76,3.74-3.12s-1.59-2.75-3.36-2.71c-3.6.11-4.5-1.88-4.47-5,.08-9.16.11-18.32,0-27.47-.06-4,1.57-5.75,5.63-5.67C1407.17,29.64,1414.67,29.54,1422.16,29.54Zm-.2,21.84c2.15,0,4.3.06,6.45,0,2.93-.11,4.6-1.57,4.65-4.64,0-3.29-1.66-4.91-4.84-5-4.14-.06-8.27,0-12.41,0-3,.05-4.5,1.52-4.56,4.63-.06,3.35,1.54,4.89,4.76,5C1418,51.42,1420,51.38,1422,51.38Z"/><path class="cls-1" d="M868.4,326.64c-5.83,0-11.66-.09-17.49,0-4.54.09-6.83-1.77-6.77-6.49q.15-13.24,0-26.49c0-4.8,2.18-7.1,7-7.05,3.16,0,6.34-.15,9.49,0,4.07.21,7.61-.56,10.09-4.14,1.17-1.7,3-2,4.86-2,14,0,28,0,42,0,3.77,0,4.5,1.05,2.32,4.28-8.29,12.29-16.48,24.65-24.69,37a10.2,10.2,0,0,1-9.25,4.88C880.06,326.58,874.23,326.64,868.4,326.64Z"/><path class="cls-1" d="M744.25,538.46c0,12.5,0,25,0,37.48,0,6.48-1.16,7.61-7.54,7.67-4.5,0-9-.05-13.5,0s-6.91-1.94-6.91-6.55q0-39,0-78c0-4.47,2-6.78,6.72-6.64s9.66,0,14.49,0c5.42.1,6.69,1.37,6.72,7C744.29,512.48,744.24,525.47,744.25,538.46Z"/><path class="cls-1" d="M1022.16,537.93c0-12.48,0-25,0-37.43,0-7,1-8,8.18-8,4.49,0,9,.1,13.47,0,4-.11,5.77,2,6.14,5.64.14,1.49.19,3,.19,4.49q0,35.43,0,70.87c0,8.9-1.25,10.12-10.06,10.13-3.32,0-6.65,0-10,0-6.83-.06-7.91-1.08-7.93-7.76C1022.13,563.21,1022.16,550.57,1022.16,537.93Z"/><path class="cls-1" d="M1246.45,29.54c7.5,0,15,.08,22.49,0,3.79-.05,5.45,1.55,5.41,5.37q-.15,14,0,28c0,3.34-1.26,4.83-4.71,4.81-14.49-.11-12.25,1.24-12.44-11.54,0-3-.09-6,0-9,.1-3.47-1.35-5.38-4.93-5.39-4,0-8,0-12,0-3.23,0-4.94,1.68-5,5,0,5.5,0,11,0,16.49,0,2.86,1.06,4.43,4.07,4.34s4,1.69,4,4.45c0,16.67,1.58,14.44-13.72,14.54-11.82.08-23.64.06-35.47,0-6.17,0-6.91-.85-7-6.91-.18-13,.41-13.48,13.35-12.06,1.53.17,3.21.24,3.54,2.08.68,3.8,3.37,4,6.38,4,3.83-.06,7.66,0,11.49-.07,1.93,0,3.77-.47,4-2.85.26-2.6-1.59-3-3.55-3-3.35.06-4.25-1.78-4.23-4.75.07-9.33.12-18.66,0-28-.06-4.21,2-5.52,5.85-5.45C1231.46,29.63,1239,29.53,1246.45,29.54Z"/><path class="cls-1" d="M367.22,212.64c-6.66,0-13.32-.1-20,0-3.58.07-5.14-1.3-5.11-5,.1-12,.08-24,0-36,0-4.49,2.2-6.25,6.5-6.22q18.74.09,37.47,0c4.78,0,7.08,2.14,7.06,6.92,0,11.66-.05,23.32,0,35,0,3.86-1.73,5.34-5.5,5.27C380.88,212.54,374.05,212.64,367.22,212.64Z"/><path class="cls-1" d="M686.2,48.56c0-4.33-.06-8.66,0-13,.11-6.12,3.08-7.79,8.3-4.43,7.83,5.05,15.5,10.35,23.23,15.56,5.1,3.44,10.17,6.94,15.28,10.36,1.21.81,2.44,2.26,4,1.53,1.87-.88,1.21-2.92,1.23-4.49.08-6.16.13-12.32,0-18.47-.08-4.43,1.84-6.16,6.33-6.18,11.59-.07,11.59-.22,11.59,11.38,0,6.65,0,13.31,0,20s-.19,6.82-6.62,6.84-12.66.19-19,0c-4.2-.15-5.73,1.6-5.43,5.61a62.39,62.39,0,0,1,0,7.49c-.26,5.57-3.16,7.24-7.86,4.25-6.45-4.11-12.72-8.52-19-12.82-2.87-2-5.48-4.35-9.24-4.59-2.44-.15-2.75-2.06-2.76-4,0-5,0-10,0-15Zm34.25,18.87c.11-.36.22-.71.34-1.07-3.93-2.64-7.83-5.31-11.78-7.89-1.34-.88-2.86-2.42-4.43-.94-2.05,1.93-1.15,4.65-1.11,7.08a2.64,2.64,0,0,0,2.85,2.8C711,67.47,715.74,67.43,720.45,67.43Z"/><path class="cls-1" d="M512,29.53c7.33,0,14.66.13,22-.05,4.36-.1,6.45,1.37,6.35,6-.21,9.15-.11,18.31-.05,27.47,0,3-1,4.87-4.31,4.62-17.45-1.28-34.69,3.12-52.14,2-.33,0-.66,0-1,0-11.67,0-11.74,0-12.6,11.59-.26,3.44-1.76,5-5.22,5.35-11.24,1-11.94.41-11.93-10.84,0-8.18,0-8.18,8.29-8.19,6,0,12-.11,18,0,3.42.08,4.79-1.33,4.75-4.73-.09-9,.15-18-.08-27-.12-4.81,1.81-6.54,6.51-6.38C497.69,29.71,504.85,29.53,512,29.53Zm.36,12.19c-1.5,0-3,0-4.49,0-5.82.14-6.57.9-6.64,6.7,0,1.33,0,2.66,0,4,0,3.27,1.74,4.92,4.94,5q6,.09,12,0c2.35,0,4.12-.91,4.78-3.49,2.26-8.77-.25-12.17-9.11-12.18Z"/><path class="cls-1" d="M818.24,67.56c-4.49,0-9,0-13.48.09-2.81,0-4.45-1-4.44-4,0-9.65,0-19.31,0-29,0-3.46,1.91-4.92,5.35-5.16,12-.83,12.48-.48,12.48,11.44,0,1.5.07,3,0,4.5-.14,3.6,1.6,5.11,5.15,5.06q10-.12,20,0c4.3.06,6-2.07,5.84-6.18-.1-3.32,0-6.65,0-10,0-1.9.24-4,2.44-4.4A30.9,30.9,0,0,1,864,30c1.88.42,2.22,2.32,2.22,4.06q0,14.73,0,29.45a4,4,0,0,1-1,3.24c-1.93,1.79-14.55,1.21-16-1-1.6-2.51-3.71-3-6.34-3-6.49,0-13,.07-19.47,0-3.47-.05-5.43,1.24-5.23,4.94Z"/><path class="cls-1" d="M406.34,29.53c9,0,18,.11,27,0,4.23-.08,6.07,1.53,6,5.86-.16,9.16-.11,18.33,0,27.49,0,3.33-1.19,4.86-4.67,4.83-14.72-.12-12.35,1.3-12.47-12-.13-15.14,1.26-14-14.08-14-4,0-8,.06-12,0s-5.86,1.71-5.8,5.72c.08,5.16-.09,10.33,0,15.49.08,3.42-1.37,4.77-4.76,4.74-14.51-.12-12.2,1.24-12.37-11.59-.09-6.83.15-13.67-.07-20.49-.14-4.58,1.79-6.21,6.25-6.11C388.34,29.67,397.34,29.53,406.34,29.53Z"/><path class="cls-1" d="M1145.21,29.55c7.5,0,15,.09,22.49,0,4.06-.08,5.7,1.67,5.63,5.69-.13,7.83-.16,15.66,0,23.48.1,4.43-2.09,5.88-6.12,5.86-8.66-.06-17.33,0-26,0a15.34,15.34,0,0,0-7.47,2c-4.53,2.37-9.74,1.13-14.67.74-1.08-.08-1.6-1.11-1.78-2.16-.08-.49-.11-1-.17-1.49-1.14-11.23-.44-12,10.73-12,7.49,0,15,0,22.48,0,3.07,0,5.72-.28,5.79-4.37s-2.25-5.5-6-5.49c-9,0-18-.16-27,.06-4.53.11-6.21-1.51-6.16-6.09s1.7-6.32,6.22-6.2C1130.55,29.71,1137.88,29.56,1145.21,29.55Z"/><path class="cls-1" d="M1258.14,186.76c0,5,.1,10,0,15-.15,5.62-2,7.57-7.51,7.71-6.14.16-12.3.19-18.44,0-5.7-.2-7.63-2-7.74-7.55-.21-10.47-.14-20.95,0-31.42,0-4.27,2.18-6.84,6.8-6.81,6.65,0,13.3,0,20,0,4.57,0,6.8,2.35,6.91,6.7.14,5.48,0,11,0,16.45Z"/><path class="cls-1" d="M613.61,29.53c7.15,0,14.31.15,21.46-.05,4.4-.12,6.35,1.4,6.34,6,0,4.46-1.58,6.32-6.15,6.23-9-.2-18-.06-27,0-2.2,0-4.41.09-5.54,2.49-1.59,3.35.2,6.24,4.22,6.33,7,.16,14,.23,21,0,4.71-.14,6.53,1.66,6.5,6.43,0,4.57-1.38,6.84-6.29,6.64-5.65-.24-11.32-.09-17,0-3.57,0-6.57.36-10,2.91-3.81,2.86-9.59,1.46-14.49.58-1.49-.27-1.55-2-1.55-3.36,0-9.82,0-19.64,0-29.46,0-3.41,1.75-4.73,5-4.72,7.82,0,15.65,0,23.47,0Z"/><path class="cls-1" d="M1316.12,247.37c0,5.33,0,10.65,0,16,0,4.2-1.92,6.48-6.41,6.4q-10.48-.18-21,0c-4,.07-6.11-1.83-6.17-5.56-.16-11.31-.2-22.62,0-33.93.07-3.65,2.51-5.64,6.31-5.64,7,0,14,0,21,0,4,.05,6.18,2.25,6.24,6.24C1316.19,236.39,1316.12,241.88,1316.12,247.37Z"/><path class="cls-1" d="M695.63,213c2.36-.22,3.49-.42,4.61-.42,9.23,0,9,.74,9-8.95,0-6.65,0-13.3,0-19.94,0-4.13,2-6.12,6.1-6.11,8.64,0,17.28.06,25.92,0,4.34,0,6.64,2.21,6.74,6.3.21,8.31.1,16.62.13,24.93,0,2.33-1.12,3.41-3.41,4.12a34.69,34.69,0,0,1-10.74,1.73c-10.63-.12-21.27,0-31.91-.06C700.28,214.54,698.42,214.88,695.63,213Z"/><path class="cls-1" d="M939.36,29.54c7.49,0,15,.13,22.48-.05,4.64-.1,5.53,2.38,5.52,6.31s-1.14,6-5.4,5.92c-9-.13-18-.08-27,0-5.71.05-6.6,1-6.68,6.79-.06,4.16,0,8.33,0,12.49,0,1,0,2-.07,3-.55,5.47-4.92,3.67-7.73,3.48-3.24-.21-8.79,2.69-9.13-3.47-.56-10.13-.19-20.32-.12-30.48,0-3.35,2.36-4,5.15-4Q927.86,29.57,939.36,29.54Z"/><path class="cls-1" d="M375.27,86.56c-9,0-18-.08-26.94,0-4.39,0-6.6-1.71-6.17-6.25a8.34,8.34,0,0,0,0-1c-.11-12.59.92-13.47,13.61-11.76,1.36.19,2.93.28,3.2,1.84.76,4.39,4,4.23,7.2,4.21q9.73-.06,19.46,0c2.68,0,5-.35,5.6-3.61.32-1.78,1.69-2.19,3.31-2.43,12.44-1.83,13.85-.66,13.74,11.64-.06,6.61-.73,7.31-7.56,7.34C392.23,86.6,383.75,86.56,375.27,86.56Z"/><path class="cls-1" d="M1048.62,370.68h-10.48c-3.22,0-5-1.49-5-4.81,0-7.32,0-14.64,0-22,0-3.4,1.76-5.31,5.21-5.34,7.15-.06,14.3-.05,21.46,0,3.71,0,5.43,2.07,5.43,5.68q0,10.47,0,21c0,3.68-2,5.47-5.62,5.48Z"/><path class="cls-1" d="M1144.72,370.67h-10c-3.64,0-5.58-1.79-5.59-5.48,0-7.13,0-14.27,0-21.41,0-3.43,1.91-5.2,5.31-5.22q10.71-.06,21.41,0c3.4,0,5.29,1.78,5.32,5.21.06,7.14,0,14.28,0,21.41,0,3.68-1.93,5.48-5.58,5.49Z"/><path class="cls-1" d="M1349.21,49.15c0,4.82,0,9.64,0,14.46,0,2.64-1.16,4-3.88,4l-1,0c-14.22-.06-12,1.28-12.23-11.68v-.5c0-12.51,0-12.6-12.2-13.76-4.19-.39-4.64-3-4.62-6.25s.54-5.83,4.45-5.85c8.31-.06,16.62,0,24.93,0,3.1,0,4.55,1.58,4.55,4.63C1349.2,39.18,1349.21,44.16,1349.21,49.15Z"/><path class="cls-1" d="M908.17,86.54c-7,0-14,0-21,0-6.22-.06-7-.84-7-6.85-.19-13,.39-13.48,13.31-12.12,1.53.16,3.25.19,3.58,2,.72,4.14,3.74,4,6.83,4,8.83,0,17.66.14,26.49,0,4.65-.1,6,2,6,6.35,0,4.54-1.26,6.86-6.23,6.7C922.84,86.37,915.5,86.54,908.17,86.54Z"/><path class="cls-1" d="M582.21,86.54c-7.16,0-14.32.07-21.49,0-5.74-.07-6.65-1-6.56-6.81.2-13.69-2.56-12.17,13.24-12.13,1.53,0,3.28.14,3.6,2,.73,4.13,3.71,4.07,6.82,4.06,8.83,0,17.66.13,26.49-.06,4.61-.1,6.08,1.91,6.1,6.32s-1.21,6.89-6.21,6.73C596.88,86.37,589.54,86.54,582.21,86.54Z"/><path class="cls-1" d="M1114.49,86.57c-7.67,0-15.34-.07-23,0-3.8,0-5.59-1.61-5.37-5.42,0-.49,0-1,0-1.5-.16-13,.43-13.5,13.33-12.12,1.54.17,3.24.24,3.56,2.08.73,4.14,3.76,4,6.85,4,8.66,0,17.33.1,26,0,4.61-.06,6.58,1.7,6.57,6.51s-1.63,6.68-6.43,6.52C1128.82,86.4,1121.65,86.58,1114.49,86.57Z"/><path class="cls-1" d="M1029.28,49c0,4.17,0,8.33,0,12.5a13.88,13.88,0,0,1-.07,2.5c-1.13,6.13-6,3.26-9.26,3.47-2.82.18-7.52,2-7.67-3.49-.27-10-.09-20-.08-30,0-2.82,1.41-4.33,4.27-4.39l.5,0c11.94-1,12.31-.64,12.32,11.43C1029.29,43.68,1029.28,46.35,1029.28,49Z"/><path class="cls-1" d="M402.14,213.52c2.45-1.26,4.17-2.23,4.28-4.73.18-3.88,2.6-5.36,6.38-5.33,10.46.09,20.93,0,31.4,0,3.79,0,5.95,1.63,6,5.63,0,3.5-1.69,5.35-5.1,5.36q-19.93,0-39.87-.07A14.51,14.51,0,0,1,402.14,213.52Z"/><path class="cls-1" d="M1247.83,212.54c4.81,0,9.62,0,14.43,0,2.72,0,5.1.33,5,3.87-.08,3.38.9,7.2-3.72,8.69-11.12,3.58-25.43-.48-32.79-9.37-.59-.72-1.75-1.37-1.09-2.48.58-1,1.78-.69,2.74-.69C1237.55,212.52,1242.69,212.54,1247.83,212.54Z"/><path class="cls-1" d="M787.16,76.5c0,1.49.06,3,0,4.47a5.89,5.89,0,0,1-.52,2.89c-3.23,4.74-8.14,2.15-12.33,2.56-3,.29-4.47-1.71-4.83-4.56,0-.16,0-.33-.07-.49-1.71-12.61,1.62-15.76,14.37-13.81,2.19.34,3.3,1.32,3.35,3.48,0,1.82,0,3.64,0,5.46Z"/><path class="cls-1" d="M981.15,76.83c0-9.33,0-9.33,9.62-9.3,7.49,0,7.49,0,7.51,7.42,0,.34,0,.67,0,1,0,10.83,0,10.83-10.62,10.63-5.82-.11-6.43-.74-6.51-6.76C981.14,78.83,981.15,77.83,981.15,76.83Z"/><path class="cls-1" d="M818.19,67.61c3.83,0,7.67.15,11.48-.13,4.47-.32,6.07,1.68,5.63,5.89a27.1,27.1,0,0,0,0,3c0,9.58-5,13-14.19,9.84-2.32-.81-2.91-2.51-2.91-4.66,0-4.66,0-9.32.06-14Z"/><path class="cls-1" d="M672.28,77.17c0,1.67,0,3.34,0,5,0,2.87-1.58,4-4.36,4.36-11.21,1.24-16.67-6.08-12.47-16.82a2.73,2.73,0,0,1,2.55-2c3.83-.06,7.66-.1,11.49,0,2.09.07,2.74,1.63,2.77,3.48S672.27,75.18,672.28,77.17Z"/><path class="cls-1" d="M1301.12,76.39c0-1.33.06-2.67,0-4-.19-3.29,1.14-4.74,4.62-4.91,12.76-.63,12.76-.73,12.52,12-.12,6-1,6.93-7,7.06-1,0-2,0-3,0-6.58-.06-7.07-.55-7.13-7.16C1301.1,78.39,1301.11,77.39,1301.12,76.39Z"/></svg>