<svg id="圖層_1" data-name="圖層 1" xmlns="http://www.w3.org/2000/svg" viewBox="0 0 1761.11 614.01"><defs><style>.cls-1{fill:#50e6b4;}</style></defs><title>工作區域 2 複本</title><path class="cls-1" d="M1381.69,255.71h-13.85c-16,0-32,.12-48-.07-5.54-.06-10.94.9-16.41,1.17-3.37.17-3.42,2.4-3.53,4.87-.33,7.66-.87,8.17-8.49,8.18-10.16,0-20.33,0-30.5,0-7,0-8.19,1-8.9,7.81-.31,3-1.57,4.1-4.42,4.08-8,0-16-.09-24,0-3.43.05-4.66-1.41-4.79-4.77-.26-6.15-1.34-7.11-7.56-7.15-10.83-.08-21.66,0-32.49,0-6.23,0-7.19-.73-7-6.82.16-4.77-1.46-6.58-6.3-6.32-6.32.34-12.66.18-19,.06-3.42-.06-4.84,1.38-4.77,4.76.11,5.17.12,10.34,0,15.5-.07,3.48,1.54,4.8,4.87,4.65,2.49-.11,5,0,7.5,0,3.39-.07,6.52-.17,8.37,3.77,1.33,2.85,4.57,2.23,7.2,2.23q38.74,0,77.49,0c9.93,0,10.61.67,10.62,10.39,0,18,.14,36-.09,54-.06,4.88,1.25,6.86,6.46,6.72,9.7-.28,9.7,0,9.71-9.81,0-4,0-8,0-12,0-4.21,1.95-6.4,6.43-6.4q66,.09,132,0c4.65,0,6.7,2,6.59,6.64-.12,5.33.17,10.68-.07,16-.19,4.13,1.39,5.55,5.51,5.52,21.16-.14,42.33-.07,63.49,0,1.79,0,3.66-.45,5.63.7-1.52,2-3.66,1.33-5.45,1.35-12,.07-24,0-36,0-7.45,0-8.19.79-8.21,8.42,0,4.67.1,9.33,0,14-.11,4.09,1.81,5.65,5.76,5.62,12.16-.08,24.33,0,36.49,0,8.57,0,9.83,1.33,9.84,9.86,0,6,0,12,0,18s-1.22,7.07-7.07,7.08q-34.75.08-69.5,0c-23.33,0-46.66-.17-70,.12-6.21.07-11.09-1.32-14.58-6.64-.81-1.23-2.18-2.08-3-3.3-5.41-7.7-8-6.4-12.06,1s-9.48,9.78-17.54,9c-6.27-.64-12.66,0-19-.21-5.7-.2-7.43-3.54-4.34-8.31,5.89-9.09,11.75-18.22,18-27a21.51,21.51,0,0,0,4.13-15c-.14-1.66,0-3.33,0-5,0-9.93,0-9.81-9.89-9.65-3.51.05-5.1,1.08-5.18,4.86-.14,6.37-1.14,7.18-7.36,7.24-6,.05-12-.1-18,0-4.54.1-7.1-1.71-6.7-6.45.37-4.44-1.56-5.75-5.84-5.71-10,.09-10-.08-10,10,0,4.5,0,9,0,13.49s2,6.74,6.7,6.61c6-.16,12-.18,18,.06,7.09.28,8.93,3.9,5.11,9.81-4.53,7-9.25,13.86-13.76,20.87a8.48,8.48,0,0,1-7.87,4.24c-27.16-.07-54.33,0-81.49-.06-5.8,0-6.91-1.22-7-7.18q-.09-10.24,0-20.5c.06-5.66,1.42-7.15,7.09-7.22,10.83-.13,21.66,0,32.5-.06,7.1,0,7.54-.49,7.56-7.77,0-5.84-.08-11.67,0-17.5.06-3.38-1.31-5-4.74-4.75a33.38,33.38,0,0,1-5,0c-3.83-.33-5.32,1.23-5.35,5.17,0,5.87-1.23,6.84-7.2,6.89-6.16.06-12.33-.11-18.49.06-4.32.11-6.86-1.41-6.38-6,.53-5-1.77-6.36-6.41-6.13-6.15.3-12.33-.06-18.49.1-3.71.1-5-1.49-5-5.07.11-8.66.08-17.33,0-26,0-5.48-1.3-6.83-6.8-6.89-11-.12-22,0-33-.07-6.19,0-7.27-1.14-7.33-7.33s-.08-12.67,0-19c.08-5.49,1.31-6.73,6.89-6.77,10.5-.08,21,0,31.5,0a41.93,41.93,0,0,0,4.49-.14c2-.21,3.74-1.09,3.8-3.27.07-2.77-2.29-2.41-4-2.43-6.5-.07-13-.16-19.49,0-3.66.08-5.13-1.41-5-5,.14-5.16,0-10.33,0-15.49.05-3.14-1.25-4.62-4.45-4.52s-6.33,0-9.5,0c-1.49,0-3.46,0-3.72-1.79-.76-5.26-1.38-10.68.37-15.79,1-2.76,4.08-2.42,6.58-2.42q29.5,0,59,0,26.49,0,53,0c7.7,0,8.74,1.08,8.78,8.56,0,1.34,0,2.67,0,4,0,7.37,0,7.37,7.57,7.36s7.41,0,7.43-7.57c0-5.49-.09-11,0-16.49.15-6,2-7.78,7.83-7.85,6.17-.07,12.34-.09,18.5,0,5.64.09,7.37,1.86,7.45,7.62.1,6.5.12,13,0,19.5,0,3.36,1.28,4.69,4.71,4.83,11.39.47,11.38.57,11.38-10.63,0-4.5,0-9,0-13.5.1-6,1.8-7.79,7.77-7.82,12.33-.08,24.66,0,37,0,6.86,0,7.94-1.07,8.09-7.69.32-14.3.32-14.3-14-14.3-10.34,0-20.67,0-31,0-6.07,0-7.76-1.73-7.86-7.71-.09-5-.07-10,0-15,.07-6.26,1.76-8.11,8-8.17,11.83-.12,23.66,0,35.5-.05,8.6,0,9.12-.51,9.36-8.93.17-6.11,1.2-7.14,7.5-7.17q12.49-.09,25,0c6,0,7.34,1.33,7.57,7.27.34,8.82.34,8.82,9,8.83,11.67,0,23.34,0,35,0,6.56,0,8,1.47,8.05,7.91q.07,7.75,0,15.5c-.06,6-1.34,7.44-7.32,7.49-12.16.09-24.33,0-36.49.05-7.52,0-8.22.75-8.26,8.37-.06,14.46-.82,13.66,13.51,13.62,10.34,0,20.67-.06,31,0,6.26,0,7.52,1.43,7.56,7.77,0,6.5-.08,13,0,19.49.06,3.39-1.29,4.9-4.72,4.78-3.67-.13-7.34.08-11,0s-5.21,1.62-5.21,5.1c0,4.33,0,8.67,0,13,.07,3.75,1.82,5.87,5.84,5.86q33.5,0,67,0c4.23,0,6.05-2,6-6.16-.08-4.66.11-9.34-.08-14-.11-2.73.63-4,3.56-4q12.49.17,25,0c3.51,0,4.7,1.58,4.62,4.88-.11,4.66-.26,9.34,0,14s-1.43,6.42-6.26,6.36c-19.16-.24-38.33-.15-57.49-.17-7.17,0-14.34.17-21.5-.06-4.25-.14-6.08,1.25-5.88,5.71.27,6,0,12,.07,18,.06,4.18-2,6.14-6,6.32-.83,0-1.67.05-2.5.05q-64,0-128,0c-7,0-8.49-1.58-8.55-8.57,0-5.17.21-10.34-.07-15.49-.24-4.58,1.51-6.09,6.08-6.06,25.66.17,51.33.08,77,.08,8,0,8,0,8-8,0-4,.12-8,0-12-.13-3.58,1.27-5.23,5-5.07,4,.17,7.92,0,11.88,0Zm-188.17,65.11c-8.16,0-16.32,0-24.48,0-6.25,0-7.92,1.69-8,8.06s0,12.66,0,19c0,11.69.07,11.75,11.64,10.76l.5,0c2.52,0,3.59-1.33,3.6-3.74,0-3.5,0-7,.06-10.49s1.69-5.68,5.42-5.69c7.15,0,14.32-.05,21.47,0,3.46,0,5.14,2,5.21,5.37,0,1.66.05,3.33.05,5,0,9.95,0,9.8,9.82,9.66,3.93-.05,5.28-1.57,5.22-5.36-.15-9-.22-18,0-27,.12-4.52-1.84-5.73-6-5.63C1209.84,321,1201.68,320.82,1193.52,320.82Zm184.78,68v0c6.5,0,13,0,19.49,0,3.68,0,5.72-1.74,5.81-5.36.13-5.66.12-11.33,0-17-.06-3.58-2-5.55-5.65-5.61-19.08-.31-38.21.71-57.21-2-1.83-.26-4.29-.78-5.41,1.45s.21,4.23,1.52,6c4.49,6,9.18,11.86,13.56,17.93a10.4,10.4,0,0,0,9.36,4.62C1366,388.73,1372.13,388.81,1378.3,388.81Z"/><path class="cls-1" d="M1050.82,256.71c7.83,0,15.67.13,23.5-.1,4.17-.12,5.68,1.55,5.5,5.59-.2,4.66-.24,9.35,0,14,.25,4.49-1.75,5.83-6,5.65-5.48-.24-11-.08-16.49-.05-6.44,0-6.62.2-6.63,6.85,0,17.83,0,35.67,0,53.5a30.15,30.15,0,0,1-.72,7.42c-1.82,7-4.94,10-12,9-11.2-1.6-17.8,3-23.2,12.39-5.8,10.08-13.06,19.31-19.45,29.07a13.65,13.65,0,0,1-12.52,6.66c-18-.12-36,0-54-.07-6.54,0-8-1.49-8.05-7.92-.06-8.5.07-17,0-25.5,0-4.65,2-6.63,6.67-6.59,10.17.11,20.34,0,30.5.05,4.62,0,8.63-1,11-5.36,1.22-2.2,3.18-2.69,5.49-2.67,5.5,0,11-.1,16.5,0,3,.08,5.18-.9,6.54-3.59a2.48,2.48,0,0,1,.26-.42c8.6-10,11.39-21.55,10.3-34.7-.89-10.76-.33-21.66-.11-32.49.08-4.36-1.5-6.14-5.83-5.73-4,.37-8.57-1.4-11.76.83-3.42,2.38-1.05,7.16-1.63,10.84a19.52,19.52,0,0,1-3.22,8.29q-18.37,26.81-36.69,53.64c-1.55,2.27-3.32,3.46-6.15,3.44q-22-.1-44,0c-3.52,0-4.73-.74-2.45-4.2q22.62-34.49,45-69.1c2-3.12,4.58-4.4,8-3.79,9.83,1.76,16.06-2.3,19.95-11.24,1.57-3.62,4.2-6.79,6.38-10.14,1.53-2.35,1.32-3.65-1.86-3.56-3,.08-6,0-9,0-2.67,0-3.94-.85-2.17-3.57,4.11-6.27,8.18-12.56,12.3-18.83,2.36-3.59,5.87-4.3,9.69-3.27s4.21,4.34,4.25,7.63c.06,4.5.11,9,0,13.5-.06,3.19,1.39,4.48,4.54,4.44,17.39-.21,14.27,2.14,14.52-13.42.14-8.33.07-16.66,0-25,0-5.83-.78-6.56-6.75-6.57-23.67,0-47.33,0-71,0a43.67,43.67,0,0,1-5.49-.17c-5.37-.68-7.17-3.73-4.43-8.31,4.53-7.57,9.46-14.91,14.25-22.33,1.51-2.32,3.78-3.07,6.46-3.07q51,0,102,0c6.12,0,7.81,2.06,7.83,8.94q.12,35,.14,70l-17.5.05c-2,0-4.07-.06-5.39,1.9q-6.68,10-13.34,19.95c-1.1,1.66-.91,2.94,1.38,3q8.5,0,17-.12c1.86,0,2.94-1.43,3.86-2.86Q1043.85,267.67,1050.82,256.71Z"/><path class="cls-1" d="M543.46,203.63q35,0,70,0c7.5,0,8.41.93,8.46,8.26v1c0,14.61-1.06,14,13.73,13.94q17.24-.08,34.48,0c6.74,0,8.52,1.9,8.63,8.7.28,17.58-.22,15.23-15,15.31-10.33,0-20.66,0-31,0-1.16,0-2.33-.05-3.49,0-2.85.23-6.7.43-6.5,3.86.19,3.27,4,1.82,6.25,1.83,24.32.11,48.64.08,73,.06,6.85,0,6.87,0,6.88-7q0-31.74,0-63.48c0-7.49.94-8.43,8.26-8.46,7.66,0,15.32-.06,23,0,5.45.05,7.49,1.73,7.56,7,.18,12.83.11,25.66,0,38.48a12.48,12.48,0,0,1-1.49,6.25c-5.44,8.57-11.09,17-16.85,25.38-2.19,3.18-5.82,1.85-8.85,1.91-7.49.17-7.5.07-7.52,7.45,0,11.55,0,11.56-11.81,11.56H565.14c-8.74,0-9.37-.65-9.4-9.36v-.5c0-8.82-3.63-11.42-12.31-9a3,3,0,0,0-2.45,2.73,12.14,12.14,0,0,0-.11,2c.65,15.43-1.57,13-14.08,13.14-7.49.09-15,.06-22.49,0-5.77,0-7.1-1.34-7.38-6.94-.54-11.07-.54-11.07-11.92-11.07-5.33,0-10.66-.06-16,0-2.92,0-4.26-1.26-4.25-4.2,0-14.49,0-29,.05-43.48,0-4.83,3.29-5.49,7.18-5.49Q507.72,203.67,543.46,203.63Zm-.28,48c9.49,0,19-.07,28.47,0,4.6.05,6.81-2.23,7-6.61.13-3.82.1-7.66,0-11.48s-1.79-5.91-5.82-5.91q-29.48,0-58.94,0c-4,0-5.78,2.08-5.87,5.85s-.13,7.32,0,11c.13,5.6,1.58,7.07,7.23,7.12C524.53,251.72,533.85,251.66,543.18,251.66Z"/><path class="cls-1" d="M542.42,286.67H668.91c8.5,0,9.83,1.3,9.84,9.86,0,18.67-.1,37.34.09,56,0,4.75-1.48,6.48-6.31,6.35-10.66-.29-21.33-.12-32-.08-2.81,0-5.33,0-6-3.69-.39-2.26-2.23-3.21-4.44-3.3-2-.09-4-.1-6-.1H416.64c-9.64,0-10.7-1-10.74-10.5,0-13.55,0-13.55,13.44-13.55h206c8.74,0,12.58-6,9.07-14.07a4.24,4.24,0,0,0-3.86-2.72c-2-.13-4-.14-6-.14h-208c-9.56,0-10.62-1.07-10.66-10.58,0-13.47,0-13.47,13.52-13.47Z"/><path class="cls-1" d="M765.1,316.24c-1.67.21-2,1.69-2.71,2.71q-11.67,17.16-23.21,34.4c-.89,1.33-2.72,2.65-2,4.32s3,.94,4.54,1c14,.2,14,.18,14,14,0,3,0,6,0,9,0,10-1.11,11-11.31,11.05q-7.5,0-15,.11c-.28,0-.55.29-1.69.92,7.58,3.36,14.61,6.51,21.65,9.61,2.9,1.28,5.8,2.55,8.75,3.71a6.77,6.77,0,0,1,4.77,6.8c.3,9.18-1.11,10.77-10.45,10.79-17.17,0-34.34-.06-51.5,0a23.36,23.36,0,0,1-14.5-4.4c-11.06-8-22.37-15.69-33.45-23.69a18.82,18.82,0,0,0-12-4c-10.83.23-21.67-.06-32.5.13-4.28.08-6.15-1.36-5.83-5.77.26-3.48,0-7,0-10.5,0-7.82,0-7.84,7.64-7.84h90.5c1.66,0,3.34.06,5-.06,5.58-.43,8-4.94,4.69-9.38a9.29,9.29,0,0,1-1.77-6c0-6,.42-12-.12-18-.66-7.32,1.84-13.14,6-18.91,6.67-9.15,13-18.58,19-28.15,3-4.71,6.35-6.75,12.15-6.63,19,.39,38,.27,57,.07,4.65,0,6,1.63,6,6.12-.16,21.5-.09,43,0,64.5,0,2.25-.62,4.7,1.51,6.54,1.41,1.22.45,2.45-.27,3.54-5,7.49-10,15-15,22.43-1.33,2-3,3.83-5.74,3.07-2.94-.82-3.53-3.25-3.54-5.92,0-5.5-.28-11,.06-16.49.3-4.92-1.24-7.21-6.44-6.64-2.8.3-5.67-.1-8.49.08-3.93.25-5.3-1.48-5.24-5.31.15-10.66.08-21.33,0-32C765.72,319.77,766.29,317.89,765.1,316.24Z"/><path class="cls-1" d="M376,392.68c-6.29,0-12.58.08-18.86,0s-8.17-1.93-8.18-8.1q-.11-44.73,0-89.48c0-6.83,1.78-8.38,8.76-8.4q13.5,0,27,0c6.82,0,8.06,1.23,8.07,8.27,0,21.67,0,43.33,0,65,0,7.76.87,8.68,8.57,8.69q58.5,0,117,0c7.49,0,7.49,0,7.51,7.46,0,3.17,0,6.33,0,9.5,0,6.95-.12,7.08-6.89,7.09-18.33,0-36.67.1-55-.06a18.88,18.88,0,0,0-12,3.84c-11.72,8.53-23.7,16.69-35.53,25.07a17.29,17.29,0,0,1-10.34,3.1c-18.5,0-37,0-55.49,0-3.72,0-7.61-.05-8.7-4.82-1.55-6.77-.05-10.49,5.15-12.82q14.56-6.51,29.15-13Z"/><path class="cls-1" d="M839.57,248.8c-7.83,0-15.66,0-23.5,0-1.83,0-3.69,0-5.28,1.14a4.21,4.21,0,0,0-1.71,4.39c.3,1.93,1.78,2.11,3.34,2.31,6.44.8,6.42.81,2.63,6.16-2.21,3.12-4.35,6.3-6.56,9.43-1.25,1.77-2.91,2.81-5.14,2.25-2.49-.62-3.38-2.52-3.47-4.88-.08-2-.06-4-.07-6,0-6.7-.11-6.8-6.61-6.81-10.5,0-21,0-31.49,0-1.58,0-3.7.79-4.58-.95s.87-3.14,1.87-4.31c5.64-6.6,7.08-14.15,6.9-22.72-.43-21.65-.15-43.32-.13-65,0-7.12,1-8.09,8.08-8.12q13.5,0,27,0c7,0,8,1,8,8.21,0,12.5,0,25,0,37.49,0,6.22,1.08,7.27,7.3,7.31,8,.06,16-.17,24,.09,4.5.14,7.44-1.42,9.86-5.27,9.31-14.81,19-29.39,28.27-44.21,2.51-4,5.53-5.69,10.23-5.57,9.66.24,19.33.06,29,.09,2.87,0,5.84.12,7.5,3s-.39,5.07-1.78,7.29c-15.93,25.4-32,50.72-47.74,76.23-3.72,6-8.16,9.11-15.46,8.57C853.26,248.39,846.4,248.79,839.57,248.8Z"/><path class="cls-1" d="M949.82,538.39c0,12.5,0,25,0,37.48,0,6.65-1.33,7.86-7.92,7.91-3.83,0-7.66,0-11.49,0-7.49,0-8.53-1.07-8.55-8.79,0-11.82,0-23.65-.05-35.48,0-2.22.78-5-1.89-6.25-2.28-1.09-4.12.64-5.95,1.74-8.84,5.33-17.71,10.61-26.49,16.06a8,8,0,0,1-9.29,0c-8.35-5.18-16.8-10.2-25.24-15.23-2.22-1.33-4.35-3.86-7.18-2.52-3,1.44-1.85,4.71-1.88,7.22-.1,11.66,0,23.32-.06,35,0,7-1.26,8.22-8.09,8.26-4.66,0-9.32,0-14,0-3.89,0-5.88-1.89-5.88-5.8q0-39.72,0-79.46c0-3.87,1.92-5.73,5.84-5.88,4.91-.18,9.37.4,13.76,3.21,13.75,8.8,27.84,17.06,41.61,25.82,4.05,2.57,7.24,2.75,11.36.11,13.88-8.89,28.09-17.28,42-26.17,4.75-3.05,9.68-3.31,14.84-2.79,4.23.43,4.57,3.81,4.58,7.1C949.83,512.74,949.81,525.57,949.82,538.39Z"/><path class="cls-1" d="M1418.89,538.64c0,12.66,0,25.32,0,38,0,5.88-1.24,7.06-7,7.15-4,.07-8,0-12,0-7.56,0-8.89-1.35-8.94-9.13-.06-11.66,0-23.32,0-35,0-7.67-1.31-8.43-8-4.46-8.44,5-16.91,10-25.17,15.34-3.89,2.49-7.26,2.46-11.1.08-8.77-5.45-17.65-10.73-26.52-16-5.26-3.13-7.19-2-7.22,4.12-.07,12.49,0,25,0,37.48,0,6.42-1.16,7.5-7.63,7.56-3.67,0-7.33,0-11,0-8.33,0-9.36-1.08-9.37-9.63q0-27.48,0-55c0-6.5-.08-13,0-19.49.12-5.62,1.61-6.83,7.27-7.1a20.66,20.66,0,0,1,12.71,3.32c13.76,8.78,27.87,17,41.59,25.83,4.21,2.7,7.42,2.4,11.37-.09,13.67-8.61,27.54-16.9,41.17-25.56a20.17,20.17,0,0,1,12.17-3.52c6.5.29,7.64,1.18,7.67,7.58C1418.92,513,1418.89,525.82,1418.89,538.64Z"/><path class="cls-1" d="M643.92,537.78c0,12.66,0,25.31,0,38,0,2.78.58,6-2.74,7.4a9.24,9.24,0,0,1-9-1q-22.7-15.48-45.39-31c-6.74-4.6-13.47-9.22-20.29-13.69-4.41-2.88-6.47-1.81-6.53,3.43-.11,11.82,0,23.65-.07,35.47,0,6.14-1.23,7.31-7.31,7.39-4.5.05-9,.06-13.49,0-5.63-.08-7.07-1.43-7.15-7.16-.11-8.32,0-16.65,0-25,0-16.49,0-33,0-49.46,0-3.24-.86-7.17,2.93-8.86s7.37-.45,10.77,1.88q29.71,20.28,59.54,40.38A27.67,27.67,0,0,0,608,537.5c2.11,1.09,3.85,3.91,6.61,2.39s2-4.69,2-7.27c.08-9,0-18,0-27,0-13,0-13,13.19-13,14.94,0,14.09-.8,14,14.17C643.9,517.13,643.92,527.45,643.92,537.78Z"/><path class="cls-1" d="M1167.23,583.79c-12.49,0-25,0-37.48,0-6.54,0-7.74-1.28-7.87-8,0-1.5,0-3,0-4.5.17-5.69,1.85-7.48,7.57-7.51,15.83-.08,31.65,0,47.48,0,7.39,0,7.93-.53,8-7.39,0-7.36-1-8.46-8.28-8.48-15.66,0-31.32,0-47,0-6.34,0-7.69-1.28-7.73-7.58q-.14-20,0-40c0-6.32,1.39-7.61,7.7-7.62q37.73,0,75.47,0c6.78,0,7.75,1.05,7.83,7.87.14,11.81-.19,12.15-11.83,12.15-14.5,0-29,0-43.49,0-6.53,0-7.59,1-7.7,6.91-.14,7.09,1.17,8.85,7.53,8.9,15.66.14,31.32.05,47,.08,7.71,0,8.5.81,8.51,8.68q0,19.5,0,39c0,6.41-1.14,7.49-7.66,7.51C1192.55,583.82,1179.89,583.79,1167.23,583.79Z"/><path class="cls-1" d="M868.23,326.78c-6,0-12-.06-18,0-4.32.06-6.5-1.81-6.47-6.26q.11-13.5,0-27c0-4.57,2.19-6.76,6.7-6.76,3.67,0,7.33,0,11,0a16.83,16.83,0,0,0,4-.36c1.8-.48,4-1.56,3.84-3.38-.22-2.22-2.72-1.15-4.18-1.17-10-.1-20,0-30-.08-1.4,0-3.26.67-4-1-.65-1.36.71-2.44,1.42-3.51,3.67-5.56,7.51-11,11.06-16.65a7.73,7.73,0,0,1,7.4-4c10.32.15,20.65-.06,31,.1a7.93,7.93,0,0,0,7.75-4.25c3.41-5.72,7.16-11.24,10.6-16.95a9,9,0,0,1,8.56-4.83c11.66.15,23.32.05,35,.05,2.71,0,5.42,0,6.92,2.9s-.36,4.76-1.72,6.82c-2.65,4-5.52,7.94-8,12.1-1.94,3.3-4.51,4.37-8.23,4.29-9.16-.19-18.33.09-27.48-.12-4.12-.09-5.72,1.4-5.52,5.53.24,5,.14,10,0,15-.06,3.21,1.36,4.51,4.51,4.44,4.33-.09,8.66,0,13,0,2.61,0,3.39,1.15,1.88,3.42-8.51,12.75-17,25.51-25.6,38.19-1.81,2.66-4.74,3.49-7.92,3.47C879.89,326.75,874.06,326.78,868.23,326.78Z"/><path class="cls-1" d="M1208.91,208.23c0,3.83,0,7.66,0,11.49s-1.92,5.69-5.45,5.77c-5.83.13-11.66.08-17.48-.12-3.28-.11-5.93-1.71-8.28-4.1-8.17-8.32-16.46-16.52-24.72-24.76-5.41-5.39-5.91-5.4-11.18-.15-8.14,8.11-16.37,16.14-24.35,24.41a14.84,14.84,0,0,1-11.08,4.83c-6.16.05-12.33.12-18.49,0-5.75-.12-7.12-1.51-7.17-7.13-.07-7,.07-14,0-21-.08-4.56,1.87-7.35,6.49-6.64,8.81,1.36,14.67-2.66,20.23-8.9,6.64-7.44,14.1-14.16,21.09-21.3a14.87,14.87,0,0,1,12-4.92,30.81,30.81,0,0,0,7,0c10.38-1.84,17.32,3.13,23.47,10.76,5.43,6.73,11.7,12.77,17.34,19.33a13.57,13.57,0,0,0,11.75,5.07c7.93-.29,8.83.89,8.86,8.89,0,2.83,0,5.66,0,8.5Z"/><path class="cls-1" d="M460.33,583.79c-10.59,2.73-16.5-2.72-21.87-11.15-7.67-12.06-16.45-23.41-24.78-35-3.84-5.36-5.26-5.43-9.08-.11q-15,20.88-29.79,41.92c-2.12,3-4.48,4.57-8.24,4.44-5.82-.2-11.65,0-17.48-.06-2.49,0-5.15.23-6.6-2.46s.09-4.81,1.54-6.86q16.5-23.19,33-46.37,11.16-15.65,22.35-31.27c4.34-6.08,14.75-6.27,19.13-.16q27.63,38.55,55.07,77.24c1.5,2.11,3.65,4.3,2.22,7.21-1.54,3.15-4.71,2.61-7.5,2.67S463,583.79,460.33,583.79Z"/><path class="cls-1" d="M685.9,190.23c0,5.83-.13,11.67,0,17.49.13,4.57-1.81,6.94-6.41,6.94q-19,0-38,0c-4.55,0-6.65-2.49-6.66-6.93,0-3.66,0-7.33,0-11-.1-5.9-1.13-7-7.1-7q-36.74-.06-73.47,0c-6.5,0-13-.11-19.49,0-3.6.07-5.11-1.32-5-5,.14-9,0-18,.07-27,0-1.89-.52-4.43,2.41-4.64,2.4-.18,4,1.29,4.93,3.52,1.12,2.66-.43,6.42,2.84,8.13s7.21.83,10.83.83q63,.09,125.95,0c8.48,0,9.11.65,9.13,9.07C685.91,179.9,685.9,185.07,685.9,190.23Z"/><path class="cls-1" d="M1057,423.79c-5.49,0-11,.07-16.48,0-6.54-.11-8.45-3.46-5-9,5.61-8.85,11.43-17.58,17.16-26.36,5.55-8.5,11.17-17,16.62-25.53,1.74-2.74,3.7-4.58,7.2-4.25,3,.29,4.21-1.3,4.16-4.2,0-3.32,0-6.65,0-10,0-3.59,1.59-5.73,5.35-5.75q10.73-.06,21.47,0c3.43,0,5.2,1.88,5.29,5.29.07,2.66.2,5.34,0,8-.28,4.21.36,7,5.74,6.87,4.11-.08,1.64,2.61.73,4q-11.82,18.22-23.8,36.34c-3.94,6-8.12,11.8-11.8,17.94-2.88,4.81-6.61,7.09-12.27,6.71C1066.64,423.54,1061.8,423.79,1057,423.79Z"/><path class="cls-1" d="M376.83,250.85c-7.16,0-14.33-.09-21.49,0-4,.07-5.83-1.85-6.22-5.58a4.26,4.26,0,0,1-.06-.5c-.69-18.81-.47-18.16,15.72-18,11.5.1,23,0,34.49,0,5.86,0,6.53-.77,6.62-6.72.06-3.66,0-7.33.15-11s2-5.47,5.76-5.45c10.83,0,21.66,0,32.49,0,3.38,0,5.46,1.68,5.47,5.13.08,14.66,0,29.32.06,44,0,2.66-1.23,4-3.94,4h-36c-1.54,0-3.13-.16-3.78-1.83-1.42-3.69-4.48-4.06-7.78-4.05h-21.5Z"/><path class="cls-1" d="M404.84,189.73q-27,0-54,0c-7.24,0-8.81-1.58-9-8.73-.35-15.33-.35-15.33,15.14-15.33,20.32,0,40.63-.08,60.94.06,4.9,0,8.09-1,8.1-6.76,0-3.67,2.25-6,6-6.05,10-.16,20-.09,30-.11,2.73,0,3.84,1.45,3.84,4.09,0,9.49-.09,19,0,28.47.05,4.16-2.53,4.38-5.61,4.38Q432.56,189.71,404.84,189.73Z"/><path class="cls-1" d="M842.77,390.92c0-9,.11-18,0-27-.07-3.86,1.35-5.36,5.25-5.31,11,.16,22,.14,33,0,3.72,0,5,1.55,4.94,5.11-.09,18,0,36-.08,54,0,5.24-1.68,6.85-7,6.91q-14.49.18-29,0c-5.68-.07-7-1.51-7.06-7.23C842.72,408.58,842.77,399.75,842.77,390.92Z"/><path class="cls-1" d="M1418.88,58.22c0,7.49-.09,15,0,22.47.07,3.9-1.39,6-5.46,6q-23,0-45.93,0c-3.33,0-4.84-1.61-4.83-4.91q0-23.72,0-47.44c0-3.07,1.46-4.61,4.57-4.6q23.46,0,46.93,0c3.44,0,4.67,1.85,4.66,5.05C1418.84,42.58,1418.87,50.4,1418.88,58.22ZM1391,63.82v0c-2.33,0-4.66,0-7,0-3.32,0-4.16,2-4.16,5s.94,4.89,4.21,4.9c4.33,0,8.66,0,13,0,3.42,0,4.69-1.71,4.69-5s-1.35-5-4.74-4.93C1395,63.85,1393,63.82,1391,63.82Zm0-21.88c-2.31,0-4.63-.08-6.94,0-3.12.14-4.23,2-4.18,5s1.34,4.44,4.13,4.51c4.46.11,8.93.14,13.39,0,3-.1,4.35-2,4.27-5-.07-2.76-1.47-4.36-4.22-4.52C1395.31,41.84,1393.15,41.94,1391,41.94Z"/><path class="cls-1" d="M374.7,29.68c9.17,0,18.33.08,27.49,0,4-.05,5.75,1.51,5.73,5.6q-.15,23,0,46c0,3.84-1.8,5.46-5.47,5.46q-27.48,0-55,0c-3.91,0-5.75-1.64-5.72-5.73.11-15.32.09-30.65,0-46,0-3.85,1.7-5.37,5.46-5.33C356.38,29.75,365.54,29.68,374.7,29.68Zm.16,44.05c3.66,0,7.33,0,11,0,3.33.06,4.89-1.47,4.87-4.82q-.08-10.74,0-21.5c0-3.71-1.7-5.56-5.45-5.54-7,0-14,0-21,0-3.41,0-5.34,1.54-5.34,5.11,0,7.33,0,14.66,0,22,0,3.41,1.66,4.81,4.94,4.75C367.52,73.68,371.19,73.73,374.86,73.73Z"/><path class="cls-1" d="M743.86,538.22c0,12.66,0,25.32,0,38,0,6.39-1.18,7.49-7.65,7.56-3.66,0-7.33,0-11,0-8.18,0-9.32-1.12-9.33-9.16q0-31.49,0-63c0-3.83-.06-7.67,0-11.5.13-6.06,1.46-7.4,7.34-7.48,4.5-.06,9-.07,13.5,0,5.82.09,7.07,1.28,7.1,7.08C743.91,512.56,743.86,525.39,743.86,538.22Z"/><path class="cls-1" d="M1049.76,538.21c0,12.15,0,24.29,0,36.44,0,7.54-1.62,9.08-9.06,9.11-4.33,0-8.65,0-13,0-3.85,0-5.9-1.83-5.9-5.77q0-39.68,0-79.35c0-4.21,2.11-6,6.2-6,4.82.05,9.65,0,14.47,0,5.55.07,7.09,1.4,7.22,7.13.2,9.14.08,18.29.09,27.44C1049.77,530.89,1049.76,534.55,1049.76,538.21Z"/><path class="cls-1" d="M654.81,57.7c0-7.16,0-14.32,0-21.48,0-2.1-.51-4.57,1.78-5.87,2.51-1.42,4.81-.29,7,1.17Q682,44,700.41,56.38c1.59,1.07,3.22,3.28,5.19,2.3,2.3-1.15,1.19-3.9,1.24-6,.14-5.82.1-11.65.07-17.47,0-4,1.81-5.55,5.82-5.65,12.07-.29,12.07-.41,12.07,11.9q0,19,0,37.95c0,2.45.43,5.23-2.4,6.58s-4.79-.42-6.86-1.82Q696.9,71.63,678.28,59.05c-1.44-1-2.91-2.72-4.89-1.54s-1.39,3.24-1.41,5c-.06,6.32-.09,12.65,0,19,0,3.54-1.56,5-5.09,5.21-11.29.65-12.05,0-12.05-11Z"/><path class="cls-1" d="M1186.77,57.72c0-7.49.1-15,0-22.46-.08-4.07,1.66-5.65,5.68-5.62q22.47.15,44.93,0c4.06,0,5.66,1.65,5.63,5.67q-.15,23,0,45.93c0,3.78-1.54,5.47-5.35,5.46q-22.47-.09-44.94,0c-4.14,0-6.06-1.69-6-6C1186.9,73,1186.77,65.38,1186.77,57.72Zm39-1.27c-.36-16.62,3.44-14.55-16.51-14.58-3.76,0-5.4,1.91-5.37,5.59q.07,10.74,0,21.47c0,3.35,1.56,4.86,4.87,4.81,4.16-.06,8.32,0,12.48,0,3.12,0,4.56-1.53,4.53-4.61C1225.75,65.45,1225.78,61.79,1225.78,56.45Z"/><path class="cls-1" d="M1113.89,86.72c-7.5,0-15-.1-22.48,0-4,.06-5.78-1.55-5.71-5.63.13-8,.11-16,0-24,0-3.8,1.6-5.45,5.39-5.42,9.16.07,18.32,0,27.48,0,3.15,0,6.14,0,6.18-4.48,0-4.27-2.41-5.4-6.09-5.39-8.83,0-17.66-.11-26.48.05-4.1.07-6.64-.68-6.57-5.67.06-4.58,1.41-6.68,6.32-6.62,14.65.19,29.3.16,44,0,4.61-.05,6.19,1.89,6.08,6.3-.19,7.49-.21,15,0,22.48.13,4.53-1.8,6.34-6.21,6.29-9-.09-18,0-27,0-3.33,0-6,.46-5.89,4.78.11,4.11,2.81,4.33,5.84,4.33,8.82,0,17.65,0,26.47,0,5.82.06,6.53,1.08,6.77,6.69.21,4.94-2,6.41-6.61,6.28C1128.21,86.57,1121.05,86.72,1113.89,86.72Z"/><path class="cls-1" d="M834.9,58.28c0,7.17,0,14.34,0,21.5,0,6-.82,6.78-7,6.91h-.5c-9.29.11-9.6-.2-9.61-9.32,0-3.17,0-6.34,0-9.5s-1.69-5-4.93-5c-7.17,0-14.34,0-21.5,0-3.17,0-4.48,1.67-4.47,4.7,0,4.33-.1,8.67,0,13,.08,4.14-1.73,6-6,6.17-11.3.46-12-.06-12-11.32,0-12.84,0-25.67,0-38.5,0-6.24,1-7.15,7.34-7.23h2c8.14,0,8.51.37,8.55,8.39.08,13.9-1.39,12.54,12.63,12.6,4,0,8-.12,12,0,4.39.14,6.53-1.7,6.35-6.21-.13-3.16.08-6.34,0-9.5-.13-3.87,1.74-5.21,5.47-5.34,11.67-.4,11.66-.49,11.66,11.16Z"/><path class="cls-1" d="M553.75,57.8c0-7.49.1-15,0-22.48-.08-4,1.55-5.71,5.62-5.68q22.49.16,45,0c4.5,0,5.68,2.09,5.69,6.16s-1.32,6.18-5.76,6.09c-8.15-.18-16.32-.05-24.48,0-1.33,0-2.66,0-4,.06-2.91.12-4.69,1.43-4.78,4.56-.1,3.37,1.91,4.27,4.8,4.27,7,0,14,.2,21,0,4.9-.17,6.29,2,6.31,6.62,0,4.78-1.79,6.59-6.5,6.44-6.82-.22-13.66,0-20.49-.06-3.48,0-5.21,1.31-5.21,5s1.63,5.08,5.16,5c9.16-.06,18.32.15,27.48-.06,4.69-.1,6.56,1.61,6.53,6.41,0,4.57-1.38,6.72-6.3,6.65-14.32-.18-28.64,0-43-.08-6.19,0-7-.84-7-6.88C553.71,72.46,553.75,65.13,553.75,57.8Z"/><path class="cls-1" d="M452.72,58.18c0-7.48.11-15-.05-22.45-.08-4.1,1.29-6.14,5.73-6.1,15,.13,29.93.11,44.9,0,4,0,5.68,1.67,5.63,5.69q-.18,14.46,0,28.94c.05,4.14-1.87,5.56-5.79,5.51-9.14-.11-18.3.1-27.44-.07-4.29-.08-6.22,1.62-5.84,5.89,0,.17,0,.34,0,.5-.2,10.45-2.85,12.46-13.45,10.52-3.34-.61-3.69-2.84-3.69-5.5Q452.74,69.66,452.72,58.18ZM481,41.86c-1.5,0-3,0-4.49,0-5.84.13-6.6.89-6.67,6.67,0,1.33,0,2.66,0,4,0,3.26,1.69,4.95,4.9,5,4.16,0,8.32,0,12.47-.05a4.17,4.17,0,0,0,4.31-3.4c2.3-8.71-.26-12.2-9.06-12.22Z"/><path class="cls-1" d="M879.75,57.81c0-7.48.1-15,0-22.46-.07-4,1.49-5.74,5.59-5.71q22.46.16,44.92,0c4.42,0,5.78,1.92,5.77,6.06s-1.14,6.26-5.65,6.18c-9-.16-18,.08-27-.07-4.67-.08-6.68,1.83-6.54,6.54.19,6.49.23,13,0,19.47-.18,4.68,1.93,6.08,6.3,6,8.81-.18,17.64.11,26.45-.11,4.77-.12,6.45,1.77,6.43,6.49s-1.5,6.63-6.35,6.57c-14.3-.18-28.61,0-42.92-.08-6.17,0-7-.85-7-6.89C879.71,72.46,879.75,65.14,879.75,57.81Z"/><path class="cls-1" d="M302.83,196.78c-6.65,0-13.3-.1-19.95,0-3.52.08-5.23-1.12-5.14-4.87.16-6.82.06-13.64.05-20.45,0-3.93,2-5.81,5.85-5.81q19.46,0,38.91,0c3.77,0,6.08,1.84,6.15,5.69.13,7.14.05,14.29.08,21.44,0,3.08-1.74,4-4.5,3.95C317.13,196.74,310,196.77,302.83,196.78Z"/><path class="cls-1" d="M1257.74,187c0,5.15,0,10.3,0,15.45,0,4.68-2.46,7.09-7.1,7.12q-9.72.07-19.45-.05c-4.62-.06-7.11-2.53-7.14-7.15-.08-10.63-.13-21.27,0-31.91,0-4.31,2.31-6.76,6.9-6.72,6.64.06,13.29.05,19.94,0,4.61,0,6.72,2.48,6.82,6.79.13,5.48,0,11,0,16.46Z"/><path class="cls-1" d="M1317.85,57.7c0,7.65-.07,15.29,0,22.93,0,4.2-1.84,6.18-6,6h-.5c-10.54.38-10.64.28-10.64-10.08,0-9.31,0-18.61,0-27.92,0-5.79-1-6.69-6.62-6.83a31.25,31.25,0,0,0-3.49,0c-4.56.41-6.77-1.36-6.76-6.2,0-5,2.58-6.15,7-6,7.14.2,14.3.16,21.44,0,4-.08,5.74,1.58,5.66,5.63C1317.76,42.74,1317.86,50.22,1317.85,57.7Z"/><path class="cls-1" d="M980.77,57.9c0-7.48.09-15,0-22.45-.06-3.93,1.41-5.68,5.53-5.81,11.65-.35,11.64-.48,11.64,11.15q0,19,0,37.92c0,7.78-.25,8-8.24,8-.67,0-1.33,0-2,0-6.26-.08-6.85-.64-6.89-6.87C980.73,72.54,980.76,65.22,980.77,57.9Z"/><path class="cls-1" d="M367.08,214.69c-6.15,0-12.3.1-18.45,0-5.39-.12-6.82-1.58-6.83-6.92,0-12.58-1-11,10.83-11,11.48-.06,22.95.13,34.42-.08,4.32-.08,6.2,1.44,5.78,5.78-.16,1.65,0,3.32,0,5-.2,5.39-1.91,7.21-7.25,7.31C379.39,214.78,373.24,214.69,367.08,214.69Z"/><path class="cls-1" d="M1331.67,256.68c4,0,8,.07,12,0,3.1-.07,5.3.66,5.12,4.35s.67,8.27-4.46,8.59a186.7,186.7,0,0,1-24.92,0c-5-.35-4.17-5.17-4.4-8.7-.26-3.77,2.22-4.27,5.21-4.2C1324,256.74,1327.84,256.68,1331.67,256.68Z"/></svg>