<svg id="圖層_1" data-name="圖層 1" xmlns="http://www.w3.org/2000/svg" viewBox="0 0 1761.11 614.01"><defs><style>.cls-1{fill:#50e6b4;}</style></defs><title>工作區域 2 複本 3</title><path class="cls-1" d="M1125.87,215.75c8.47,0,16.94.11,25.41,0,3.67-.07,6,.56,6.2,5,.15,3.73,3.28,4.09,6.29,4.09q18,0,36,0c8.73,0,9.83.84,9.48,9.31-.39,9.52,1.37,18.92,1.11,28.41-.17,6.25-1.13,7.35-7.29,7.39-10.66.06-21.33,0-32,0-3.21,0-6.78-.09-7.95,3.69-1.24,4-1.57,8.27.87,12.06,1.59,2.47,4.38,2,6.85,2q39,0,78,0c9.54,0,10.36.8,10.36,10.14,0,19.83.09,39.66-.06,59.49a17.32,17.32,0,0,0,3.88,11.52q6.26,7.8,12.2,15.84a9.41,9.41,0,0,0,8.08,4.13c12.83,0,25.66-.06,38.49,0,4.54,0,6.32-2.25,6.33-6.46,0-5,0-10,0-15,0-4.61-2.27-6.63-6.81-6.61q-18.75.09-37.49,0c-7.16,0-8.48-1.34-8.54-8.44,0-5,0-10,0-15,0-4.4,1.81-6.78,6.59-6.77q66,.09,132,0c4.75,0,6.57,2.24,6.46,6.78-.13,5.33,0,10.66,0,16-.06,6.19-1.18,7.38-7.28,7.41-12.33.06-24.66,0-37,0-6.87,0-7.73.91-7.77,7.84,0,4.67.15,9.34,0,14s1.73,6.27,6.22,6.22c12-.14,24-.07,36,0,8.59,0,9.89,1.34,9.91,9.8,0,5.67,0,11.33,0,17,0,7.18-1,8.15-8,8.16q-28.24,0-56.5,0c-27.33,0-54.66-.14-82,.11-6.19.06-11.1-1.24-14.61-6.57a34.36,34.36,0,0,0-3.39-3.67c-5.75-6.51-6.94-6.91-11.06.47-4.6,8.22-10.77,10.77-19.66,9.77-5.6-.64-11.32,0-17-.17-6.37-.18-8.12-3.43-4.66-8.72q9.42-14.44,19.1-28.73a15.73,15.73,0,0,0,2.85-9.34c-.09-16.66-.14-33.33,0-50,0-4.4-1.18-6.29-5.93-6.22-16.33.22-32.67.06-49,.1-6.26,0-8,1.69-8,8.06q-.14,26.25,0,52.49c0,6.15,1.31,7.35,7.33,7.41,5.67.07,11.34-.11,17,.09,7.42.26,9.33,3.84,5.37,10-4.44,6.85-9.08,13.57-13.48,20.45a8.86,8.86,0,0,1-8.21,4.55c-27.17-.1-54.33,0-81.5-.08-5.56,0-6.74-1.25-6.8-6.83-.09-7-.08-14,0-21,.06-5.57,1.46-7,7.24-7.07,11-.12,22,0,33-.07,6.2,0,6.89-.71,6.9-6.91q0-26.76,0-53.5c0-6.34-1.17-7.5-7.68-7.54-10.67-.07-21.34,0-32-.05-6.3,0-7.4-1.1-7.46-7.2s-.06-12.33,0-18.5,1.16-7.37,7.28-7.4c10.67-.07,21.33,0,32,0,6.95,0,7.81-.9,7.88-7.74.1-9.37-.53-10-9.73-10.05-10.33,0-20.66-.14-31,0-4.73.08-6.48-1.83-6.52-6.52-.1-12.3-.24-12.44-12.27-12.53-4.1,0-5.75-1.46-5.54-5.56.21-4.32,0-8.67.07-13,.11-5.71,1.83-7.5,7.53-7.54,12.33-.08,24.67,0,37,0a21.55,21.55,0,0,0,4.48-.25c3-.64,3.75-3,3.68-5.71s-2.19-2.95-4.26-2.95c-8.17,0-16.34-.2-24.5,0-4.43.13-6.5-1.24-6.18-5.95.3-4.31.12-8.66.06-13-.05-4.14,2-5.59,6-6.25,32-5.24,64.22-2.19,96.33-3,3.5-.08,6.81,0,10,2.19,2.69,1.83,6.18.79,9.31.88,4.52.12,6.74,2.13,6.59,6.8s-.09,9.33,0,14c0,2.92-1.27,4.26-4.21,4.25q-14.75-.08-29.5,0c-2.6,0-4.33-1.37-6-3.07-5.87-5.91-11.86-11.7-17.65-17.7-3-3.05-5.42-3.11-8.41,0-6.36,6.53-12.91,12.88-19.38,19.3Z"/><path class="cls-1" d="M651.77,393.66c10.45,4.6,19.86,8.76,29.29,12.86a10.88,10.88,0,0,1,5.74,14.68c-1.22,2.63-3.64,3.41-6.21,3.42q-29.51.08-59,0a16,16,0,0,1-9.26-3.32c-11.68-8.29-23.48-16.42-35.12-24.79a18.67,18.67,0,0,0-11.55-3.77q-50.49.18-101,0A17,17,0,0,0,454,396.14c-12,8.69-24.23,17.09-36.35,25.63a16.59,16.59,0,0,1-9.89,2.94c-18.66,0-37.33,0-56,0-3.76,0-7.56-.24-8.48-5.08-1.31-6.93,0-10.21,5-12.45,8.22-3.66,16.48-7.22,24.69-10.9,1.59-.71,3.51-1,5-3.49-6.42,0-12.32,0-18.22,0-7.77-.05-9.43-1.65-9.44-9.39q0-43.49,0-87c0-8.23,1.44-9.61,9.57-9.63h25c8.49,0,9.3.83,9.31,9.56q0,31.5,0,63c0,8.75.64,9.42,9.35,9.42H627.08c8.48,0,12.17-5.94,8.78-14A4.23,4.23,0,0,0,632,352c-2-.14-4-.15-6-.15H418.56c-10.31,0-11.2-.87-11.22-11,0-13,0-13,12.94-13H626.76c8.74,0,12.58-6,9.07-14.06A4.24,4.24,0,0,0,632,311c-2-.13-4-.14-6-.14H418c-9.6,0-10.64-1-10.67-10.56-.06-13.49-.06-13.49,13.5-13.49h249c9.22,0,10.36,1.11,10.37,10.33q0,42.75,0,85.5c0,8.75-1.43,10.15-10.15,10.19-5.33,0-10.66.05-16,.1A13.33,13.33,0,0,0,651.77,393.66Z"/><path class="cls-1" d="M766.31,315.49c-7.41,10.89-14.45,21.17-21.41,31.5-7.63,11.33-15.18,22.71-22.78,34.07-.83,1.25-1.63,2.52-2.54,3.71-1.54,2.05-3.24,4.07-6.2,3-2.59-1-3.1-3.26-3.11-5.73,0-.67,0-1.33,0-2,0-16.5,0-33,0-49.48a15.72,15.72,0,0,1,2.78-9.36q22.31-32.58,44.4-65.3c1.12-1.67,4.4-3.89-.51-5.34-1.69-.5-.74-2-.15-2.9,2.86-4.49,5.73-9,8.71-13.4,2.41-3.59,6-4.09,9.77-2.95,3.48,1.05,3.9,4.21,4,7.32,0,2.5.13,5,0,7.5-.15,3.46,1.48,4.72,4.83,4.67,17-.27,14,2.16,14.25-13.71.1-5.5-.08-11,0-16.49.08-3.43-1.4-4.78-4.79-4.72-7,.11-14-.1-21,.06-3.77.09-5.52-1.17-5.39-5.16.2-6,.08-12,0-18,0-2.49.3-4.46,3.21-5.42,1.61-.54,3-2.09,4.25-3.36,7.69-7.62,15.41-15.22,23-23,3.47-3.56,7.4-5.51,12.43-5.21a35.37,35.37,0,0,0,7.49,0c9.22-1.4,15.93,2.25,21.61,9.35,5.3,6.61,11.3,12.66,17,19,.75.84,2.16,1.6,1.73,2.81-.57,1.6-2.3.94-3.53,1-12.66,0-25.33.18-38,0-4.48-.08-6.52,1.29-6.1,6,.29,3.14.08,6.32.09,9.49,0,3.71,1.92,5.5,5.58,5.5,9.33,0,18.66,0,28,0a7.25,7.25,0,0,0,6.57-3.79c2.84-4.51,5.85-8.91,8.6-13.48a7.14,7.14,0,0,1,7-3.79c7.33.15,14.67-.08,22,.08,3.82.09,5.54-1.28,5.36-5.21s-.14-7.67,0-11.49c.25-5.35,2.11-7.15,7.42-7.22,6.5-.1,13,0,19.49,0,4.31,0,6.56,2.21,6.74,6.36.2,4.49.06,9,.11,13.49,0,2.93-1.44,4.68-4.27,4.09-11-2.29-16.85,3.57-21.13,12.64-1.91,4-4.62,7.71-7.09,11.47-2.07,3.15-.93,4,2.37,3.89,3.83-.13,7.66-.05,11.49,0a3.31,3.31,0,0,1,2.23.7c.68.8-.25,1.49-.77,2.1-3.45,4.05-7.33,7.21-13.1,7.11-6.33-.11-12.66,0-19,0-4,0-6.88-1.36-6.82-6,0-2.77-1.46-3.81-4.09-3.79-7.17.05-14.33.07-21.49,0-3.29,0-4.38,1.61-4.35,4.65.05,7.66,0,15.33,0,23,0,7.29-.07,7.34-7.13,7.36-6,0-12,.2-18-.06-4.33-.18-5.88,1.41-5.82,5.77.19,14,.06,28,.06,42q0,58.49,0,117c0,8.12-1.11,9.22-9.25,9.24-8.66,0-17.32.06-26,0-6.61-.06-7.85-1.33-7.85-8q0-47.24,0-94.47C767.17,320.36,767.58,318.35,766.31,315.49Z"/><path class="cls-1" d="M602.14,250.73h24c-4.39,5.58-2.5,11.39-2.74,16.89-.31,6.91-1.29,8.19-8.23,8.19q-70.74,0-141.48,0c-6.32,0-7.43-1.22-7.49-7.73-.05-4.33-.08-8.67,0-13,0-2.94-1.28-4-4.21-4.24-10.5-.69-10.71-.61-10.66,9.8.07,15.42.68,14.29-14.48,14.26-7.5,0-15,.05-22.49,0-5.37-.06-6.74-1.43-6.95-6.85-.12-3,0-6-.05-9-.05-6.95-1.09-8-8.22-8.06-8.16-.06-16.33-.17-24.49,0-4.3.12-6.54-.64-5.67-5.79.66-3.88.21-8,.08-12-.12-3.56-2-5.48-5.71-5.47q-29.49,0-59,0c-4,0-5.81,2.06-5.88,5.83-.07,4.33-.23,8.68.08,13,.21,3-.41,4.33-3.63,4.31-11.83-.1-23.66-.08-35.5,0-2.94,0-4.22-1.32-4.21-4.24.05-8.83.09-17.66,0-26.49,0-4.15,2.5-4.4,5.61-4.39,17,0,34,0,51,0,29.66,0,59.32-.06,89,.07,4.41,0,7-.79,6.71-5.95-.24-4.28,2.18-6.25,6.57-6.19,10.33.12,20.66.1,31,0,4.86,0,6.17,2.58,6.34,7,.19,4.93-2.57,5.29-6.33,5.24-9-.12-18,0-27-.06-3.36,0-5.9.3-5.75,4.72.14,4.06,1.6,6.32,5.88,6.31q18.24,0,36.49,0c2.17,0,4.34-.05,6.5,0,5.92.2,7.87,2,8,7.81.07,4.32.59,8.69-.49,12.95-.58,2.32.29,3.05,2.44,3.05q12.24,0,24.49,0c2.5,0,3.65-1.28,3.64-3.72q0-13.74,0-27.49c0-3.31-2.22-3.63-4.76-3.62-7.66,0-15.33,0-23,0-3,0-5.35-.39-5.26-4.21.08-3.59-.21-7.31,4.76-7.85a45,45,0,0,1,4.5-.11q69.24,0,138.47,0c8.43,0,8.58,0,9.39,8.32.35,3.65,2.57,3.72,5.21,3.72q23.24,0,46.49,0c1.61,0,3.75-.76,4.69.73s-.91,3-1.74,4.33c-4.16,6.82-8.55,13.52-12.59,20.41-3.18,5.42-7.39,7.9-13.89,7.74-14.49-.37-29-.14-43.49-.09C606,248.9,604,248.47,602.14,250.73Zm-27.21.87,0-.74c-6.8,0-13.6,0-20.39,0-3.16,0-4.1-1.09-2.09-3.8,6.57-8.83,4.2-19.1,3.16-28.48-.61-5.5-7.89-1.87-12.1-2.63-2.24-.41-5.36-.27-5.09,3.07.75,9.05-4.75,15.28-9.24,22-3.51,5.25-5.93,12.11-11.83,10.56Z"/><path class="cls-1" d="M209.27,187.87h-126c-7.44,0-7.88-.46-7.94-7.93-.13-14.19-.13-14.19,13.81-14.19q31,0,62,0c6.93,0,7.21-.19,8.3-6.92.6-3.68,2.6-5.82,6.29-5.85q17.49-.15,35,0c3.68,0,6.24,2.06,6.24,5.79,0,6,3.21,7.08,8.35,7.06q65-.17,130-.06c1.67,0,3.33,0,5,.08,3.18.18,4.89,1.93,5,5.1.08,4,.16,8,.05,12-.1,3.32,1.11,4.95,4.62,4.84,4.67-.14,9.34-.1,14,0,2.88.05,4.35-1.11,4.32-4.11-.05-4.22,2.29-5.91,6.33-5.89,8.5.06,17,.08,25.5,0,4,0,6.49,1.69,6.86,5.66.33,3.46,2.09,4.42,5.28,4.38,15.28-.23,12.72,1.71,13-12.48.07-4.34.11-8.67,0-13-.12-4.7,2.12-6.61,6.7-6.57,9.83.1,19.66,0,29.49.05,5.54.05,6.83,1.33,6.9,6.79.1,6.67.18,13.34,0,20-.12,3.92,1.45,5.27,5.3,5.23q20.74-.21,41.49,0c3.44,0,5.5-1.31,7.26-4.16,5.27-8.49,10.83-16.81,16.14-25.28a8.81,8.81,0,0,1,8.26-4.52c10.16.12,20.33,0,30.49.06,2.89,0,5.86.22,7.37,3.19s-.63,5.06-2,7.28c-4.06,6.5-8.12,13-12.27,19.44-1.7,2.64-1.39,4,2,3.92a85.79,85.79,0,0,1,9.49.07c5.18.52,9.08-.83,11.43-5.84,1.51-3.22,4.4-4.15,7.88-4.15q50.25.09,100.49,0c4.77,0,8.22,1.31,8.64,6.73.24,3,2.42,3.18,4.71,3.18,6.5,0,13,.11,19.5,0,3.42-.07,4.83,1.38,4.78,4.75-.1,6.33-.08,12.66,0,19,0,3.19-1.46,4.43-4.59,4.41-9.83-.08-19.67-.12-29.5,0-3.78.05-5-1.69-4.86-5.18.13-5.5-.27-11,.11-16.49.36-5.2-1.75-6.89-6.67-6.42-3.14.3-6.33,0-9.49.06-6.8,0-6.81,0-6.83,7.09,0,4.5-.09,9,0,13.5.09,4.21-2,6.22-6,6.25q-19.24.1-38.5,0c-4.27,0-6.4-2.38-6.46-6.6s0-8.66-.09-13c0-3.45-1.79-5.24-5.26-5.28-1.83,0-3.66-.05-5.5-.05-68.49,0-137-.09-205.48.14-6.9,0-13.28-2.75-20.22-2.22-4,.31-5.79,1.35-5.59,5.54.23,4.82.14,9.66,0,14.49-.14,5.06-2,6.93-7.08,7q-18.5.15-37,0c-5.42-.06-6.8-1.57-6.89-6.9-.08-4.83-.21-9.67,0-14.49.2-4.12-1.38-5.57-5.5-5.54-19.5.15-39,.06-58.5.06Z"/><path class="cls-1" d="M935.08,236.82c18.49,0,37,.09,55.47,0,9.06-.06,9.17,2.88,8.69,11.08-.14,2.39-1.82,3.1-3.83,2.95-4.38-.33-5.29,2-5.24,5.83.14,11.16,0,22.32.08,33.48a21.17,21.17,0,0,1-3.9,12.63q-33.51,48.83-66.84,97.77a13.1,13.1,0,0,1-11.71,6.27c-18.32-.08-36.65,0-55-.06-6,0-7.52-1.59-7.58-7.36-.09-8.66,0-17.33,0-26-.06-4.61,1.94-6.7,6.6-6.65,9.66.11,19.33-.22,29,.11,6.54.21,10.64-2.22,14.25-7.85,21.88-34.05,44.15-67.86,66.28-101.75.73-1.11,1.48-2.22,2.19-3.35,1.06-1.69.88-2.93-1.4-2.95-5.5,0-11,0-16.49.06-2.8.06-3.75,2.52-5,4.41C926.34,276.74,912,298,898,319.51c-3.49,5.36-7.58,7.71-14,7.47-10.49-.39-21-.07-31.49-.13-6.11,0-7.26-1.21-7.29-7.39-.06-8.49.06-17,0-25.49-.05-4.77,2.09-7.14,6.89-7.1,3.5,0,7-.2,10.5,0,4.53.29,7.57-1.66,9.91-5.38Q881,268,889.76,254.59c1.73-2.65,1.52-3.83-1.93-3.74-3.83.11-7.67,0-11.5,0-3,.06-5.4-.55-5.16-4.29s-1.43-8.57,4.44-9.57a45.56,45.56,0,0,1,7.49-.2Z"/><path class="cls-1" d="M1052.18,300.73c0,14.16,0,28.33,0,42.49a20.44,20.44,0,0,1-3.32,11.81q-20.66,31.29-41.08,62.72c-2.85,4.41-6.34,6.31-11.56,6.19-10-.24-20,0-30-.09-2.77,0-6,.62-7.47-2.65-1.43-3.06.55-5.42,2.09-7.78q22.51-34.55,45.1-69.05a19.34,19.34,0,0,0,3.39-11.21c-.11-25.32-.06-50.65-.05-76,0-2.79-.46-5.71,3.34-6.86,1.93-.58,1.66-2.7,1.68-4.33.06-4.67-.1-9.34.11-14,.23-5.31,2.13-7.07,7.5-7.14,6.33-.09,12.66-.11,19,0,5.37.09,7.11,1.9,7.25,7.31.11,3.83,0,7.66,0,11.5,0,3-.41,5.87,2.85,7.91,1.78,1.11,1.09,3.7,1.09,5.66Q1052.21,279,1052.18,300.73Z"/><path class="cls-1" d="M817.25,538V504c0-11.24,7.17-15.29,17.1-9.4,10.88,6.47,21.58,13.23,32.36,19.86,4.26,2.62,8.62,5.08,12.75,7.89,3.35,2.29,6.23,2.12,9.63,0,13.81-8.7,27.84-17,41.57-25.87a23.61,23.61,0,0,1,14.64-3.72c4,.19,5.76,2.21,5.88,5.93s.08,7.66.08,11.49q0,32.49,0,65c0,7.69-1.09,8.75-8.56,8.78-4.17,0-8.33.06-12.5,0-5.32-.1-6.83-1.48-6.88-6.89-.11-12.5,0-25-.08-37.48,0-2.09.67-4.62-1.58-6-2.47-1.46-4.42.47-6.37,1.64-7.56,4.55-15.37,8.76-22.56,13.85-6.11,4.34-11.13,4.08-17.16-.14-7.34-5.16-15.28-9.47-23-14.12-5.27-3.18-7.26-2.13-7.29,4-.08,12.32,0,24.65,0,37,0,6.93-1.27,8.09-8.21,8.13-4.33,0-8.66.06-13,0-5.43-.11-6.73-1.37-6.76-6.92C817.21,563.93,817.25,550.94,817.25,538Z"/><path class="cls-1" d="M1420.33,538.67c0,12.49,0,25,0,37.48,0,6.55-1.1,7.64-7.47,7.71q-6.24.07-12.49,0c-6.33-.08-7.9-1.54-8-8.06-.13-11.33,0-22.66-.12-34,0-2.84,1.5-6.58-1.56-8.33s-5.53,1.41-8,2.84c-7.77,4.52-15.55,9.06-23,14-4.43,2.94-8.11,2.6-12.4-.12-8.44-5.35-17.07-10.39-25.65-15.51-5.3-3.15-7.24-2.1-7.28,4-.07,12.49,0,25,0,37.47,0,6.47-1.14,7.56-7.57,7.62-4.5,0-9-.06-13.49,0s-6.89-2-6.89-6.57q0-39,0-77.95c0-4.46,2-6.63,6.72-6.69a23.23,23.23,0,0,1,13.65,3.58c13.59,8.73,27.57,16.84,41.16,25.57,4.17,2.68,7.39,2.48,11.37,0,14-8.79,28-17.37,42-26,1.84-1.14,3.58-2.43,5.79-2.85,10.67-2,13.23.05,13.23,10.79Z"/><path class="cls-1" d="M1348,250.75q32.73,0,65.46,0c6.81,0,6.88.07,6.88,7.05q0,23.24,0,46.47c0,6-1.36,7.48-7.32,7.48q-65.21.09-130.41,0c-5.36,0-7.22-1.9-7.25-7.3-.08-16.16.06-32.31-.1-48.47,0-4.33,1.94-5.31,5.8-5.29C1303.35,250.81,1325.66,250.75,1348,250.75Zm-.21,5.06c-11,0-22,.06-33,0-4.15,0-6.27,1.8-6.33,5.91-.06,4.5-.07,9,0,13.5.08,3.85,2.11,5.67,6,5.66q33.26-.07,66.49,0c4.47,0,6.39-2,6.26-6.4-.1-3.66,0-7.33,0-11-.06-6.64-1-7.61-7.48-7.64C1369.1,255.76,1358.43,255.79,1347.77,255.81Z"/><path class="cls-1" d="M645.35,538.56c0,12.32,0,24.65,0,37,0,2.77.68,6.06-2.47,7.57a9.2,9.2,0,0,1-9.49-1q-22.5-15.35-45-30.69-9.92-6.75-19.86-13.44c-1.62-1.09-3.27-2.7-5.43-1.63s-1.79,3.39-1.8,5.33c0,11.49,0,23,0,34.47,0,6.5-1.15,7.62-7.51,7.69-4.33,0-8.67,0-13,0-6-.07-7.41-1.38-7.45-7.36-.1-13.82,0-27.65-.05-41.47,0-11,0-22,0-33,0-3.09-.75-6.81,2.67-8.52s7.08-.93,10.36,1.31q17.92,12.29,35.94,24.44c9.65,6.53,19.3,13.08,29,19.52,4.45,3,6.7,1.74,6.77-3.8.15-11.49,0-23,.08-34.47,0-6.79,1-7.74,7.88-7.8,4.16,0,8.33-.06,12.49,0,5.52.1,6.79,1.31,6.82,6.84C645.4,512.58,645.35,525.57,645.35,538.56Z"/><path class="cls-1" d="M1169.14,492.74c12.49,0,25,0,37.48,0,6.55,0,7.61,1.1,7.71,7.48.21,12.28,0,12.53-12.45,12.53-14.33,0-28.65,0-43,0-6.43,0-7.5,1.07-7.59,7-.11,7,1.21,8.74,7.66,8.79,15.82.13,31.65,0,47.48.07,6.85,0,7.85,1,7.87,7.81q.06,20,0,40c0,6.2-1.17,7.37-7.29,7.38q-38.23.06-76.47,0c-5.67,0-7-1.41-7.24-7.08,0-.67,0-1.34,0-2-.07-10,.79-10.92,10.7-10.92,15.17,0,30.33,0,45.49,0,6.11,0,6.77-.76,6.83-7,.08-7.33-.9-8.78-6.9-8.82-16-.12-32,0-48-.07-6.9,0-8.09-1.19-8.12-8.21q-.09-19.23,0-38.48c0-7.39,1.13-8.49,8.33-8.5C1144.15,492.72,1156.64,492.74,1169.14,492.74Z"/><path class="cls-1" d="M970.44,171.86c6.33,0,12.66-.13,19,0,4.69.12,6.55-2.07,6.75-6.59.42-9.56.51-9.56,10.1-9.57,7.66,0,15.32-.05,23,0,5.35,0,6.69,1.46,7,6.86,0,.66,0,1.33,0,2,.12,6.62.65,7.2,7.11,7.22,11.83,0,23.65,0,35.48,0,8.41,0,12.5,6.27,9.2,14-.94,2.22-2.87,2-4.65,2-8.5,0-17,.2-25.49,0-4.37-.13-6,1.52-5.78,5.83.24,5.82,0,11.66.07,17.49,0,3.35-1.32,4.8-4.76,4.77-11.16-.1-22.32,0-33.48-.06-1.14,0-2.84.08-3.33-.58-3.54-4.85-8.63-3.46-13.28-3.48-22-.08-44,0-66-.05a36,36,0,0,1-6-.28c-4.77-.79-6.31-3.65-3.95-7.9,2.58-4.65,5.61-9.06,8.48-13.54,1.76-2.76,4.64-2.4,7.23-2.2,4.4.32,6.3-1.12,6.22-5.88-.15-8.92,1.19-10,10.07-10.06C959.11,171.85,964.78,171.86,970.44,171.86Z"/><path class="cls-1" d="M461.41,583.87c-10.48,2.77-16.15-2.91-21.41-11-7.77-12-16.48-23.4-24.8-35-4-5.54-5.33-5.6-9.39.05-9.9,13.79-19.78,27.59-29.47,41.53-2.25,3.22-4.77,4.71-8.69,4.56-5.82-.23-11.65,0-17.48-.07-2.35,0-4.79.09-6.18-2.33-1.52-2.64-.07-4.8,1.4-6.87q21.56-30.3,43.16-60.59c4-5.55,7.95-11.09,11.91-16.64a12.17,12.17,0,0,1,20,0q21.42,29.79,42.67,59.72c4.06,5.69,8.12,11.38,12.09,17.13,1.47,2.14,3.54,4.37,1.87,7.24-1.48,2.56-4.21,2.33-6.71,2.35C467.41,583.89,464.41,583.87,461.41,583.87Z"/><path class="cls-1" d="M1270.33,29.76c7.33,0,14.67.12,22-.05,4.18-.09,6.14,1.41,6,5.8-.18,7.66-.21,15.33,0,23,.13,4.24-1.66,5.47-5.65,5.43-13.66-.15-27.33-.07-41,0-7.33,0-7.33,0-7.35,7.58,0,3.33-.08,6.66,0,10s-1.34,5.31-5,5.3q-23-.06-46,0c-3.79,0-5.35-2-5.24-5.67.12-4.16-.07-8.33,0-12.5.07-3-.89-4.82-4.22-4.72s-3.85-1.94-3.82-4.6c0-3.83-.08-7.67,0-11.5s-1.7-5.92-5.71-5.81c-1.5,0-3,0-4.5,0-5.45-.09-6.56-1.27-6.65-6.28-.08-4.65,2.25-6,6.56-5.93,7.16.19,14.33.18,21.49,0,4.23-.1,6.09,1.52,6,5.86-.16,7.49.05,15-.07,22.49-.06,3.44.47,5.93,4.75,5.79,3-.1,3.41,2.21,3.28,4.51-.23,4.17,1.83,5.7,5.77,5.49,2.49-.13,5,0,7.5,0,7.25,0,7.35,0,8.73-7,.59-3,2.64-2.95,4.84-3,10-.45,10-.45,10-10.46,0-5.83.17-11.67-.05-17.5-.17-4.58,1.8-6.22,6.26-6.1C1255.66,29.91,1263,29.76,1270.33,29.76Zm-.18,12.3c-2.31,0-4.63-.12-6.94,0-2.87.18-3.89,2-3.9,4.72s1.07,4.6,3.93,4.69c4.62.14,9.26.17,13.88,0,2.78-.11,4-2,4-4.71s-1.23-4.49-4-4.7C1274.79,41.9,1272.47,42,1270.15,42.06Z"/><path class="cls-1" d="M190.24,250.87q-21.7,0-43.42,0c-5.74,0-7.2-1.22-7.36-6.92-.51-17.38-.45-17.23,15.66-17.06,11.65.11,23.29-.08,34.94.06,4.39.05,6.65-1.54,6.27-6.11-.33-4,1.64-5.18,5.39-5.13q16.47.23,32.94,0c4-.06,5.79,1.14,5.68,5.39q-.32,12.21,0,24.45c.11,4.25-1.73,5.42-5.68,5.39C219.85,250.78,205.05,250.87,190.24,250.87Z"/><path class="cls-1" d="M375.9,86.78c-8.82,0-17.64-.08-26.46,0-4.34,0-6.52-1.61-6.27-6.21.21-3.82-.12-7.66.07-11.48s-1.27-5.7-5.19-5.23c-4.67.55-6.12-1.63-6-6.09.25-7.48.17-15,0-22.46-.07-4.07,1.69-5.64,5.7-5.62q22.46.15,44.93,0c4.06,0,5.69,1.71,5.62,5.71q-.21,11.73,0,23.47c.07,3.65-1.4,5.08-5,5-6.15-.14-12.31.05-18.47,0-3.11,0-4.63,1.12-4.54,4.38.08,2.91.38,5.49,4.11,5.52,7.82,0,15.64,0,23.47,0,2.9,0,4.43-1.57,4.18-4.37-.44-4.93,2.19-5.79,6.37-5.71,12.29.23,10.79-1,10.85,11.13.06,12,0,12-11.94,12H375.9Zm-16-29.11c1.5,0,3,0,4.49,0,5.78-.13,6.68-1,6.78-6.69,0-1.5,0-3-.06-4.49-.12-2.79-1.65-4.36-4.39-4.42-4.48-.1-9-.07-13.46,0a3.76,3.76,0,0,0-3.75,2.73c-2.79,8.17.41,12.82,8.9,12.84Z"/><path class="cls-1" d="M1348.1,187.75c22,0,43.94.06,65.91-.05,4.12,0,6.57.64,6.42,5.68-.24,7.49-1,9.27-6.49,9.35-12.48.18-25,.06-37.45.1-7.35,0-8.09.57-8.18,7.86,0,3.89-1.51,5.29-5.35,5.23-9.65-.16-19.3-.2-29,0-4.22.09-6-1.22-6-5.68,0-6.45-1.2-7.41-7.74-7.43-12.31,0-24.63,0-36.94,0a8.85,8.85,0,0,1-7.58-13.41c1.3-2.19,3.5-1.6,5.4-1.61Q1314.65,187.72,1348.1,187.75Z"/><path class="cls-1" d="M745.3,538.65c0,12.49,0,25,0,37.48,0,6.51-1.15,7.64-7.5,7.7-4.67,0-9.33,0-14,0-4.34,0-6.45-2.22-6.45-6.48q0-39,0-78c0-4.45,2-6.82,6.69-6.68s9.66,0,14.49.05c5.45.1,6.73,1.36,6.76,6.92C745.34,512.66,745.3,525.66,745.3,538.65Z"/><path class="cls-1" d="M1023.21,537.89q0-18.23,0-36.44c0-8,.75-8.7,8.94-8.72,4.16,0,8.33.13,12.48,0s6.09,2,6.41,5.92c.12,1.49.15,3,.15,4.49q0,35.17,0,70.37c0,9.19-1.2,10.35-10.32,10.37-3.33,0-6.65,0-10,0-6.49-.07-7.64-1.16-7.67-7.53C1023.18,563.51,1023.21,550.7,1023.21,537.89Z"/><path class="cls-1" d="M563.66,63.18c-2.51-1.72-4.15-2.82-5.75-4-3.21-2.28-6.06-3.67-6.69,2.15a2.57,2.57,0,0,1-2.76,2.38q-5.49.09-11,0a2.88,2.88,0,0,1-3.12-3.14c-.05-9-.22-18,.06-27,.12-4.07,3.64-5.2,7.84-2.48,8.1,5.24,16,10.74,24,16.14Q574.17,52.63,582,58c2.9,2,4.26,1.13,4.27-2.28,0-6.66.08-13.32,0-20,0-4.13,1.68-5.93,6-6,11.92-.2,11.92-.34,11.92,11.55,0,5.66-.19,11.33.06,17,.19,4.42-1.63,5.86-5.89,5.71-6.82-.23-13.65,0-20.48-.08-3.58-.06-5.65,1-5.63,5.05s2.32,5,5.79,4.95c9.16-.07,18.32.12,27.47-.06,4.77-.1,5.91,2.25,5.9,6.49s-1.07,6.59-5.86,6.54c-14.65-.15-29.3-.13-44,0-4.61,0-6.85-1.69-6.5-6.5.21-2.81,0-5.66,0-8.49C555.19,64.32,555.19,64.32,563.66,63.18Z"/><path class="cls-1" d="M688.44,65c1.51-2,3.26-.75,4.87-1.81H669.53c3.64.28,3.91,2.83,3.87,5.68q-.09,6.48,0,13c0,3.32-1.54,4.94-4.85,4.89l-1,0c-10.85.39-11.27,0-11.27-10.78,0-2.16-.12-4.33,0-6.49.22-3.5-.61-5.88-4.8-5.75-2.37.08-3.07-1.68-3.07-3.71,0-8.49,0-17,.05-25.47,0-2.93,1.63-4.67,4.66-4.74,14-.31,13.18-.85,13.14,11.7,0,1.5,0,3,0,4.5,0,3,1.33,4.68,4.48,4.67,7.16,0,14.32,0,21.48,0,3.24,0,4.89-1.73,4.93-5,0-3.82.06-7.65.09-11.48,0-2.81,1.38-4.35,4.25-4.41a4.07,4.07,0,0,0,.5,0c12-1,12.34-.64,12.34,11.39,0,5.66.16,11.32-.05,17-.15,4,1.07,5.75,5.36,5.69,6.53-.09,6.55.15,6.57,6.81,0,3.83.16,7.67-.13,11.48-.31,4.06-3.21,5.82-6.62,3.63C709,79.05,698.81,72,688.44,65Z"/><path class="cls-1" d="M1138.78,64.76h-27.94c-3.27,0-6.57-.16-6.5,4.66s3.56,4.41,6.71,4.43c8.66,0,17.32.12,26,0,4.71-.07,6.42,1.94,6.43,6.63s-1.87,6.45-6.54,6.39q-21.74-.26-43.47,0c-4.83.06-6.61-1.9-6.33-6.56.23-3.81.17-7.66,0-11.48-.14-3.57,1.21-5.28,4.93-5.1,3,.15,6-.06,9,0s4.23-1.32,4.18-4.24q-.1-6.24,0-12.49c0-3.29-1.48-5-4.77-5l-.5,0c-19.25-.05-16.46-1.76-16.64,15.32-.07,6.45-.16,6.59-6.86,6.58-11.29,0-10.22.93-10.27-10.17,0-6.16.09-12.32,0-18.48-.06-3.74,1.44-5.49,5.31-5.47,15.15.07,30.31.09,45.46,0,4.2,0,5.53,2,5.47,5.84-.12,7.66.09,15.32-.07,23-.08,3.79,1.24,5.56,5.2,5.36,3.79-.2,7.6,0,11.4,0C1138.9,64.16,1138.84,64.46,1138.78,64.76Z"/><path class="cls-1" d="M461.38,29.75c7.16,0,14.33.17,21.48-.06,4.62-.14,6.65,1.4,6.61,6.3,0,4.7-2.07,6.06-6.41,6-8.82-.18-17.65,0-26.48,0-1.83,0-3.76-.06-5.1,1.48a5.11,5.11,0,0,0-.75,5.2c.65,1.94,2.39,2.15,4.1,2.16,6.83,0,13.66,0,20.48.06,6.54,0,7.47.67,7,7.17-.36,4.71,1.09,6.13,5.68,5.83,5.47-.37,11-.18,16.48,0,2.12.05,5.38-1,5.54,2.5.18,4-3.26,3.5-5.85,3.52-8.83.07-17.66.2-26.48,0-4.76-.13-6.47,1.66-6.44,6.42.07,10.42-2.85,12.51-13.4,10.5-2.67-.51-3.61-2.08-3.62-4.53,0-4-.27-8,0-12,.33-4.66-1.22-6.84-6.18-6.37-3.3.32-6.66,0-10,.08s-4.94-1.11-4.89-4.62c.11-8.16.08-16.33,0-24.49,0-3.62,1.7-5.07,5.21-5,7.67.07,15.33,0,23,0Z"/><path class="cls-1" d="M993.28,29.76c7.34,0,14.67.15,22-.05,4.58-.13,6.24,1.8,6.13,6.25q-.3,11.25,0,22.5c.11,4.2-1.67,5.66-5.68,5.45-3.82-.2-7.67.11-11.49-.07s-5.07,1.47-4.93,5.06c.16,4.33,0,8.67,0,13,0,3.34-1.59,4.68-4.87,4.92-11.79.85-12.25.51-12.25-11.06s0-11.72-11.54-11.82c-4.08,0-5.64-1.42-5.58-5.54s.91-6.72,5.79-6.62c9.16.18,18.33,0,27.5,0,3,0,5.73-.23,5.82-4.34s-2.2-5.54-6-5.52c-9.17,0-18.34-.16-27.5,0-4.54.1-5.68-2-5.64-6.09s1.2-6.28,5.7-6.18c7.49.17,15,.05,22.49.05Z"/><path class="cls-1" d="M254.44,29.76c9,0,18,.11,27-.05,4.27-.08,6,1.62,5.93,5.91-.16,7.83-.12,15.66,0,23.49,0,3.38-1.3,4.81-4.73,4.78-14.53-.11-12.23,1.23-12.44-11.54,0-1.66-.05-3.33,0-5,.05-3.8-1.92-5.42-5.58-5.41-6.83,0-13.66,0-20.49,0-4,0-5.83,1.79-5.74,5.77.08,3.5,0,7,0,10.5,0,1,.24,2.2-.22,2.95-3.2,5.24-8.35,1.87-12.58,2.62-2.79.49-4.33-1-4.31-4q.08-12.49,0-25c0-3.64,1.75-5,5.24-5C235.78,29.81,245.11,29.77,254.44,29.76Z"/><path class="cls-1" d="M787.45,29.77c7.49,0,15,.12,22.48-.05,4.67-.11,5.48,2.44,5.48,6.34S814.21,42,810,41.94c-8.83-.13-17.66-.06-26.49,0-6.3,0-7.08.88-7.16,7.32,0,1.67,0,3.33,0,5,0,8.33,0,8.42,8.43,9.5,2.55.33,3.46,1.61,3.46,3.93,0,4.66,0,9.32,0,14,0,3.21-1.68,4.92-4.92,5l-1,0c-11.28.6-11.92,0-11.92-11.29v-4c0-7,0-7.14-6.87-7.57-2.88-.18-4.29-1.24-4.28-4.2q.07-12.5,0-25c0-3.66,1.81-5,5.28-5C772.12,29.82,779.79,29.77,787.45,29.77Z"/><path class="cls-1" d="M716.85,230.84c6.14,0,12.3-.13,18.44,0s8,3.7,4.71,8.84c-6.67,10.31-12.51,21.15-19.91,31-1.75,2.32-3.29,4.92-6.76,3.72-3.17-1.1-3.06-4-3.07-6.69,0-4-.15-8,0-12,.16-3.7-1.47-5-5-4.93-6.48.15-13,0-19.44,0-3.48,0-4.34-1.12-2.2-4a3.43,3.43,0,0,0,.54-.84C690,230.05,702.51,228.51,716.85,230.84Z"/><path class="cls-1" d="M36.59,187.87c-6.81,0-13.63-.12-20.44,0-3.67.08-5.12-1.44-5-5,.17-3.82.05-7.65.06-11.47,0-3.65,1.85-5.59,5.51-5.6q19.71,0,39.4,0c3.82,0,5.82,2,6,5.83,0,.17,0,.33,0,.5-.16,19.23,2.52,15.29-14.64,15.72C43.91,188,40.25,187.87,36.59,187.87Z"/><path class="cls-1" d="M1392.11,86.77c-7.32,0-14.65-.11-22,0-4.15.08-6.24-1.41-6.05-5.8s.09-8.66.05-13c0-2.89,1.24-4.33,4.19-4.26a50.15,50.15,0,0,0,6.49-.06c4.52-.48,7.41.38,6.59,6-.43,2.91,1.63,4.11,4.39,4.11,4.16,0,8.32-.05,12.48,0,3.69.07,5.28-1.83,4.84-5.27-.47-3.73.83-5,4.63-4.88,14.58.34,12.41-1.6,12.55,12.43.1,10.66,0,10.66-10.72,10.66C1403.76,86.78,1397.94,86.77,1392.11,86.77Z"/><path class="cls-1" d="M1097.74,370.92c-3.33,0-6.66-.06-10,0-3.65.08-5.64-1.42-5.61-5.27.06-7.16,0-14.31,0-21.46,0-3.39,1.69-5.37,5.15-5.4,7.32-.06,14.64-.08,22,0,3.19,0,4.92,1.92,5,5.07q.12,11,0,22c0,3.17-1.84,4.93-5,5-3.82.08-7.65,0-11.47,0Z"/><path class="cls-1" d="M1194.17,370.89c-3.49,0-7,0-10.46,0-3.68,0-5.49-1.93-5.49-5.57,0-7,0-13.95,0-20.92,0-4,2.12-5.68,5.94-5.66q10.21,0,20.42,0c3.92,0,5.77,2,5.76,5.85,0,6.8,0,13.61,0,20.41,0,4.22-2.15,6-6.21,5.92-3.32-.06-6.64,0-10,0Z"/><path class="cls-1" d="M909.32,86.76c-7.33,0-14.65-.08-22,0-4.39.06-6.45-1.73-6.21-6.27.22-4.15.1-8.32.05-12.48,0-2.88,1.19-4.34,4.17-4.27a65,65,0,0,0,7-.05c4.07-.33,6.41.88,6,5.49-.31,3.88,2.25,4.65,5.49,4.63,9,0,18,.13,27-.06,4.59-.1,6.78,1.39,6.58,6.3-.24,5.82-.76,6.63-6.63,6.68C923.63,86.81,916.47,86.77,909.32,86.76Z"/><path class="cls-1" d="M1242.3,187.77c4.16,0,8.32.06,12.47,0,2.83,0,4.44,1,4.41,4,0,3.82.06,7.65-.07,11.47s-2.34,6.25-6.27,6.32c-7,.13-14,.09-20.95-.07-3.92-.09-6.15-2.35-6.33-6.29s-.12-7.64-.16-11.46c0-3,1.62-4.06,4.43-4C1234,187.83,1238.14,187.77,1242.3,187.77Z"/><path class="cls-1" d="M1242.1,250.78c4.32,0,8.65,0,13,0,1.72,0,3.61.2,3.84,2.32.49,4.46.76,9-.24,13.39-.55,2.44-2.51,3.4-4.91,3.4q-11.48,0-23,0c-2,0-3.72-.59-4.43-2.59-1.66-4.68-1.2-9.52-.68-14.31.23-2.09,2.22-2.2,3.92-2.21C1233.78,250.76,1237.94,250.78,1242.1,250.78Z"/><path class="cls-1" d="M877.34,47.28c0,3.67,0,7.34,0,11,0,1,.24,2.22-.23,3-3.28,5.08-8.4,1.82-12.65,2.54-2.85.48-4.26-1.15-4.24-4.11q.07-12.49,0-25c0-3.32,1.55-4.69,4.86-4.92,12-.84,12.27-.61,12.27,11.53Z"/><path class="cls-1" d="M819.21,74.29c0-10.65,0-10.41,10.78-10.64,5.13-.12,6.82,1.76,6.41,6.65-.32,3.78-.13,7.61-.08,11.42,0,3.31-1.64,4.68-4.81,5C820.11,88,819.21,87.09,819.21,74.29Z"/><path class="cls-1" d="M1319.3,74.67v1.5c0,10.55-.35,10.74-11,10.67-4.48,0-6.44-1.65-6.21-6.2.22-4.15,0-8.33.08-12.49,0-1.68,0-3.72,2.08-4.05a43.51,43.51,0,0,1,12.94,0c1.82.27,2,2,2,3.58,0,2.33,0,4.67,0,7Z"/><path class="cls-1" d="M985.63,225.9c-7.49.25-14.79.16-19.74-6.87-.55-.77-1.73-1.36-1.18-2.48s1.74-.77,2.69-.77c9.14,0,18.28,0,27.42,0,2.35,0,4.35.37,4.49,3.37s-.51,5.56-3.76,6.1A93.52,93.52,0,0,1,985.63,225.9Z"/></svg>