<svg id="圖層_1" data-name="圖層 1" xmlns="http://www.w3.org/2000/svg" viewBox="0 0 1761.11 614.01"><defs><style>.cls-1{fill:#50e6b4;}</style></defs><title>工作區域 2 複本 4</title><path class="cls-1" d="M801.2,325.77c7.58.89,7.59.89,7.59,8.13q0,40.75,0,81.49c0,7.51-1.26,8.77-8.68,8.8-8.84,0-17.67.06-26.5,0-6.67-.06-7.9-1.3-7.91-7.91,0-27.67,0-55.33-.07-83,0-2.39,1.38-5.79-2.39-6.74s-6.56.1-8.89,3.64c-11.28,17.12-22.8,34.07-34.25,51.07a47,47,0,0,1-3.26,4.42c-1.27,1.47-2.9,2.29-4.9,1.54a4.63,4.63,0,0,1-3.06-4.2c-.14-1.49-.13-3-.13-4.5,0-15.49-.13-31,.06-46.49.05-4.34-1.43-6-5.79-5.78a166.08,166.08,0,0,1-18,0c-5.26-.33-6.49,1.91-6.42,6.74.22,16.33.1,32.66.07,49,0,8.8-1.42,10.2-10.08,10.25-5.33,0-10.67,0-16,.08a6.62,6.62,0,0,0-1.29.42c1.11,2,3.16,2.3,4.82,3,8.23,3.64,16.51,7.16,24.75,10.77,4.82,2.1,6.18,5.76,4.82,12.63-.9,4.54-4.44,5-8.06,5q-28,.08-56,0a18.79,18.79,0,0,1-11.19-3.65c-11.39-8.13-23-16-34.29-24.23a20,20,0,0,0-12.45-4.11q-50,.21-100,0a18.41,18.41,0,0,0-11.56,3.65c-11.85,8.63-24,16.9-35.93,25.36a16.64,16.64,0,0,1-9.88,3c-18.66,0-37.32,0-56,0-3.74,0-7.57-.18-8.54-5-1.42-7,0-10.3,5.37-12.7,8.06-3.59,16.17-7.09,24.23-10.69,1.61-.72,3.49-1.06,5.21-3.53-6.51,0-12.39,0-18.27,0-7.82-.05-9.49-1.64-9.51-9.3-.05-16.83.11-33.67-.1-50.5-.06-4.79,1.58-6.43,6.36-6.3,10.33.29,20.66.07,31,.1,6.43,0,6.59.19,6.6,6.86,0,9,0,18,0,27,0,7,1,8.08,8.16,8.08q61.74,0,123.48,0,50.25,0,100.49,0c9.4,0,12.33-4.09,9.67-13.34a4.39,4.39,0,0,0-4.32-3.47c-2-.11-4-.12-6-.12h-208c-9.24,0-10.39-1.15-10.44-10.3-.07-13.75-.07-13.75,13.74-13.75H630.46l0-.85c-2.4,0-4.8-.06-7.19,0-4.24.11-4.57-1.6-2.41-4.77,8.36-12.25,16.65-24.54,25-36.81q13.49-19.85,27-39.68a15.76,15.76,0,0,0,2.85-9.39c-.06-5.33.11-10.67,0-16-.11-3.61.87-5.91,5-5.48,4,.41,5.3-1.52,5.3-5.28,0-4.09,2.36-5.84,6.46-5.8q15.24.15,30.49,0c4.48-.05,7.12,1.6,6.85,6.37-.21,3.89,1.84,5,5.26,4.71a32,32,0,0,1,4.49,0c3.46.26,5.42-.91,5.2-4.75-.28-4.82,2.45-6.33,6.88-6.33q71.74.07,143.48,0c2.78,0,5.39.26,6.45,3.49,1.65,5-.14,7.65-5.44,7.65-29.16,0-58.32.19-87.48-.12-5.66-.06-8.87,1.88-11.52,6.59-4,7.11-8.63,13.86-12.85,20.85-2.85,4.71-6.7,6.87-12.37,6.78-15-.24-30-.11-45-.06-7,0-8.05,1.09-8.05,8.19,0,21.16.11,42.32-.1,63.49-.05,4.83,1.58,6.43,6.34,6.26,8.49-.3,17-.13,25.49-.05,2.71,0,3.77-.08,3.55-3.75-.63-10.13-.34-20.31-.3-30.48,0-3.62,2.18-5.47,5.71-5.6a103.33,103.33,0,0,1,11-.05c4.91.35,8.18-1.66,10.75-5.73,9-14.38,18.45-28.55,27.27-43.06,3.23-5.31,6.87-7.74,13.25-7.43,10.64.51,21.33.14,32,.14,2.72,0,5.43,0,6.93,2.91s-.36,4.77-1.73,6.82q-26.73,40.16-53.51,80.29C804.25,322.05,802.82,323.67,801.2,325.77Z"/><path class="cls-1" d="M1054.55,236.25H1109c9.06,0,9.8.74,9.81,9.55,0,5.67-.11,11.33,0,17,.1,4.65-2,6.65-6.63,6.6-10.83-.1-21.66,0-32.5,0-3.19,0-6.78-.18-8,3.54-1.36,4-1.61,8.26.7,12.08,1.65,2.72,4.66,2.16,7.28,2.16q39,0,78,0c9.17,0,10,.86,10,10,0,8,0,16,0,24,0,2.69-.25,5.07-3.79,5.22-2.4.09-3,1.79-3,3.81,0,17.5,0,35,.07,52.49,0,3.84,2.1,5.71,6,5.66,6-.08,12-.12,18,.05,7.76.24,9.63,3.8,5.46,10.2-4.36,6.71-8.92,13.28-13.2,20a9.21,9.21,0,0,1-8.62,4.74c-27-.11-54,0-81-.07-5.86,0-7-1.2-7-7.11q-.11-10.24,0-20.5c0-5.86,1.42-7.26,7.51-7.31,10.83-.1,21.66,0,32.49-.06,6.54,0,7.13-.61,7.15-7.18q0-24.5,0-49c0-2.94-.11-5.78,3.94-6.23,1.57-.17,2-1.59,1.87-3.06a2.57,2.57,0,0,0-2.72-2.39c-1.49-.1-3-.12-4.49-.13-15.5,0-31,0-46.5,0-3.64,0-7.06.07-8.79,4.09-.6,1.37-1.92,1.77-3.32,1.83s-2.67,0-4,.07c-15,.23-13.12-2.07-13,12.88a30.65,30.65,0,0,1-5.27,18.27c-13.41,19.9-26.47,40-39.52,60.17a11.48,11.48,0,0,1-10.79,5.73c-10.16-.17-20.33,0-30.5-.07-2.61,0-5.58.56-7.22-2.25s.08-5.41,1.64-7.81c14.93-22.89,29.79-45.82,44.83-68.63,2.58-3.92,4.42-7.81,3.85-12.55s1.7-6.11,6.14-5.93c6.32.27,12.66.11,19,0,1.71,0,4.17.55,4.37-2.07s-2-3.41-4.06-3.51c-5-.23-10-.2-15-.22-7.17,0-14.33-.06-21.5,0-4.14,0-6.14-1.9-6.11-6.07,0-6.83.1-13.67,0-20.5-.08-4.67,2.07-6.63,6.67-6.59,11.17.1,22.33.07,33.5,0,5.91,0,6.9-1.11,7-7.08,0-1.5-.06-3,0-4.5.2-4.64-2.47-6.16-6.58-6.17q-15.5,0-31,0c-9.58,0-9.58,0-9.59-9.83,0-5.33,0-10.67,0-16,.07-6.09,1.22-7.27,7.42-7.28C1016.89,236.22,1035.72,236.25,1054.55,236.25Z"/><path class="cls-1" d="M800.78,189.25q-52.72,0-105.46,0c-4.48,0-8.34-.32-9.57-5.71-.59-2.59-3-2.37-5-2.24-4,.27-5.29-1.64-5.15-5.39.19-4.66,0-9.33.07-14,.1-5.46,1.34-6.71,6.91-6.75,9.83-.07,19.66,0,29.49-.05,4.6,0,6.78,1.93,6.69,6.59-.1,5,.07,10,0,15-.06,3.2,1.35,4.46,4.5,4.45q23.49-.1,47,0c2.89,0,4.58-1.45,6-3.71,4.11-6.47,8.41-12.82,12.44-19.33,2-3.29,4.62-4.92,8.57-4.87,10.16.14,20.33,0,30.49.07,2.88,0,5.83.26,7.32,3.26,1.35,2.7-.52,4.76-1.82,6.86-2.89,4.67-5.78,9.34-8.72,14-1.52,2.41-1.11,4,1.92,3.66,6.9-.67,14.35,2.39,20.61-3.08,1.39-1.21,3.53-.74,5.35-.74,33,0,66,.15,99-.17,5.38-.05,8.65,3.8,13.27,4.9,1.46.34,1.13,2.6,1.14,4.07,0,6.16,0,12.33,0,18.49,0,3.87.33,7.67-3.89,10-1.59.87-1.27,3-1.27,4.61q0,51,0,102c0,2.13-.25,4.72,2.86,4.91,4.79.29,3.1,2.46,1.56,4.72q-11.5,17-23,33.9c-7.88,11.56-15.93,23-23.65,34.68-3.18,4.79-7.19,6.94-12.91,6.89-17.65-.14-35.31,0-53-.06-7.56,0-8.83-1.28-8.86-8.63,0-8.16-.06-16.33,0-24.49,0-5.54,1.31-6.81,6.8-6.85,10-.08,20-.15,30,0,5.52.09,9.33-1.86,12.3-6.76,6-10,11.56-20.6,19.38-29,5.93-6.4,5.57-12.76,5.58-19.81q.06-44.73,0-89.47c0-3.49-.23-6.73-2-10-2.19-4-.82-8.83-.92-13.29-.18-7.89-.73-8.56-8.6-8.57Z"/><path class="cls-1" d="M1339.93,423.31c-22.49,0-45-.3-67.47.18-7.26.15-11.81-2.71-16-8-8.54-10.58-8.53-9.2-15.44,1.23-3.25,4.91-6.89,7-12.72,6.64-7.14-.43-14.32,0-21.48-.15-6.64-.14-8.32-3.42-4.66-9,6.21-9.48,12.45-18.93,18.83-28.29a16.55,16.55,0,0,0,3-9.82c-.1-14.66.08-29.32-.11-44-.06-4.55,1.49-6.25,6.09-6.06,7.15.3,14.34.3,21.49,0,4.7-.19,6.6,1.33,6.43,6.22-.3,8.32,0,16.67-.13,25a15.77,15.77,0,0,0,3.57,10.61q6.36,8,12.48,16.25a9.47,9.47,0,0,0,8.07,4.14c12.83,0,25.66-.07,38.49,0,4.52,0,6.34-2.21,6.35-6.43,0-4.83.1-9.67,0-14.5-.12-5.58-1.59-7.05-7.26-7.09-12.33-.08-24.66,0-37,0-7.19,0-8.52-1.34-8.57-8.4,0-5.17,0-10.33,0-15.5,0-4.26,2.08-6.31,6.51-6.31q66,.09,132,0c4.69,0,6.64,2.12,6.53,6.71-.13,5.66-.12,11.33,0,17,.09,4.7-2.16,6.57-6.73,6.54-12.66-.09-25.33-.05-38,0-6.28,0-7.29,1.05-7.36,7.24-.06,4.5,0,9,0,13.5,0,6.73.57,7.25,7.56,7.27,11.67,0,23.33,0,35,0,8.15,0,9.5,1.46,9.52,9.68,0,6,0,12,0,18s-1.17,7.26-7.39,7.27Q1375.68,423.35,1339.93,423.31Z"/><path class="cls-1" d="M1308.54,214.29h-13c-3.31,0-6.55.22-9.41-2.29-1.65-1.45-4.16-.82-6.31-.83h-69c-1.67,0-3.34.05-5-.06-6.88-.44-8.71-3.64-5.2-9.48,3.34-5.56,6.88-11,10.5-16.41,2-2.92,1.54-4.18-2.09-3.92a2.78,2.78,0,0,1-.5,0c-16.64-.42-16.61-.41-25.28,13.91-3,5-6.39,9.77-9.23,14.85-1.79,3.19-4.06,4.34-7.64,4.3-13.83-.15-27.66,0-41.48-.12-4,0-6.45.71-6.16,5.41.22,3.49-2,5.27-5.28,5.34-6,.12-12,0-18-.16-4.42-.12-7.27-3.11-9.86-6.17-2.81-3.33-6.12-4.59-10.5-4.44-8.16.28-16.33,0-24.49.11-3.65.07-5.07-1.4-5-5,.13-7.67-.08-15.33.07-23,.07-3.6-1.25-5.11-5-5-15.26.22-12.9-1.62-13.09,12.4q-.11,7.5,0,15c0,2.25-.48,4.78,2.77,5.61,2,.5,1,1.71.19,2.59-4.15,4.72-8.56,8.75-15.61,8.34-6-.34-12-.06-18-.11-4.17,0-5.64-2.09-6.64-6.32-2.43-10.23-1.43-20.48-1.64-30.73-.15-6.77.07-6.85,7.06-6.87,5.67,0,11.33-.12,17,0a9.92,9.92,0,0,0,7.94-3.34c5.91-6.11,12-12,18-18.06a14.22,14.22,0,0,1,11.18-4.59,40.22,40.22,0,0,0,8,0c9.47-1.52,16.29,2.4,22,9.66,3.47,4.44,7.6,8.38,11.43,12.54,1.49,1.63,2.93,3.2-.61,4.15-1.85.5-1.87,2.18-1.88,3.68,0,5.83,0,11.66,0,17.49,0,3.72,1.93,5.49,5.59,5.49,9.33,0,18.66,0,28,0a7.29,7.29,0,0,0,6.56-3.8c4.13-6.45,8.27-12.9,12.5-19.29,1.77-2.67,1.37-4.08-2-3.77-4.47.41-6-1.65-5.66-5.87.21-2.32,0-4.68.32-7,.46-3.17,2.38-5.13,5.73-5.16,7.17-.06,14.33-.08,21.49,0,4.79.05,6.08,3.22,6.32,7.34.64,11.13,1.54,11.82,12.46,10.51,2.14-.26,3.5-1,3.59-3.27.2-5.32,3.67-6.59,8.15-6.59q18.25,0,36.49,0c7.19,0,8.09-.91,8.27-8,.19-7.27,1-8.07,8.08-8.1,8.33,0,16.66-.06,25,0,5.38.05,6.72,1.44,7,6.82,0,.67,0,1.34,0,2,.13,6.77.6,7.25,7.58,7.26,10.5,0,21,0,31.49,0,12.43,0,14,1.24,14.73,13.68.47,8.3.06,16.65.12,25,0,3.23-1.54,4.42-4.63,4.36C1320.2,214.22,1314.37,214.29,1308.54,214.29Z"/><path class="cls-1" d="M1256.49,311.23q-31.74,0-63.48,0c-7.89,0-9.22-1.37-9.22-9.4q0-34.24,0-68.48c0-7.65,1.43-9.07,9-9.09,12,0,24-.13,36,0,4.72.07,7.89-1.09,7.88-6.47,0-2.86,1.76-3.64,4.27-3.63,10.5,0,21,0,31.49,0,2.91,0,4.36,1.22,4.29,4.16-.11,4.64,2.55,6,6.72,5.93,12.33-.09,24.66-.06,37,0,7.24,0,8.37,1.21,8.37,8.48q0,34.72,0,69.47c0,8-1,9-8.85,9Q1288.23,311.27,1256.49,311.23Zm-.56-31c11.17,0,22.33-.06,33.5,0,4.42,0,6.43-1.92,6.32-6.34-.11-4.16-.09-8.33,0-12.49s-1.67-6.22-5.93-6.21q-33.49,0-67,0c-4,0-5.79,2-5.88,5.83-.08,4-.13,8,0,12,.13,6,1.36,7.17,7.54,7.2C1234.94,280.29,1245.43,280.26,1255.93,280.25Z"/><path class="cls-1" d="M453.8,214.18c23.64,0,47.29.09,70.93-.07,4.75,0,7.75.65,7.19,6.43-.46,4.69,2.7,5.82,6.76,5.8,13.32-.06,26.64,0,40,0,8.46,0,9.91,1.52,10,9.81.27,16.35-.9,14.16-14.15,14.22-11.32,0-22.64,0-34,0-7.29,0-8.69,1.55-8.73,8.88,0,3.17-.09,6.33,0,9.49.12,4.45-2.17,6.38-6.39,6.45-1.17,0-2.33,0-3.5,0H384.07c-8.74,0-9.39-.65-9.4-9.35,0-15.15.15-30.31-.08-45.46-.07-4.74,1.45-6.39,6.28-6.35C405.18,214.28,429.49,214.18,453.8,214.18Zm-.67,37c9.5,0,19-.07,28.48,0,4.6,0,6.77-2.26,6.94-6.63.14-3.33.13-6.66.06-10-.13-6.1-1.35-7.35-7.38-7.37-15.66-.05-31.31-.09-47,0-17.38.1-16.54-2.59-16.36,16.85,0,5.58,1.58,7,7.25,7.09C434.48,251.23,443.81,251.17,453.13,251.17Z"/><path class="cls-1" d="M452.35,286.18H578.76c8.57,0,9.88,1.28,9.92,9.77,0,8.33-.09,16.65.05,25,0,3.7-1.12,5.49-5.15,5.43-11.66-.16-23.32-.11-35,0-3,0-4-1-3.93-4.08.08-12,0-12-12-12H326.36c-9.44,0-10.5-1.08-10.53-10.68-.05-13.37-.05-13.37,13.11-13.37Z"/><path class="cls-1" d="M1124.54,492.17c12.66,0,25.32,0,38,0,6.13,0,7.2,1.19,7.32,7.37.22,12.32-.09,12.64-12.35,12.64-14.32,0-28.64,0-43,0-6.54,0-7.6,1-7.72,6.9-.13,7.1,1.17,8.86,7.53,8.91,15.82.14,31.64.12,47.46,0,4.45,0,8,.53,8.16,6.17.08,3.14,2.67,2.91,4.83,2.92,10.66,0,21.32.17,32,0,4.45-.09,6.27,1.26,6.16,5.95-.26,11,0,22-.1,33,0,6.09-1.2,7.23-7.42,7.24q-38,.06-76,0c-6.22,0-7.48-1.34-7.63-7.7,0-1.5,0-3,0-4.5.14-6,1.81-7.76,7.8-7.78,15.66-.07,31.31,0,47,0,7.5,0,11.12-6.09,7.71-13-1.44-2.93-4.29-2.84-7-2.84q-22.23-.06-44.46,0c-8.38,0-8.44,0-11.26-7.77-.94-2.6-3-2.27-4.94-2.28-10.49-.05-21,0-31.47,0-6.17,0-6.39-.24-6.4-6.56,0-10.33-.07-20.65,0-31,.06-6.28,1.41-7.55,7.74-7.57C1099.23,492.15,1111.89,492.17,1124.54,492.17Z"/><path class="cls-1" d="M815.74,559.33c0-5.66,0-11.32,0-17,0-3.49-9-10.55-12.44-9.82-.32.06-.79.13-.9.34-3.69,7.27-10.42,4.15-15.88,4.3-13.75.39-13.76.13-13.76-13.56,0-8,0-16,0-24,0-6.2,1.22-7.23,7.23-7.51a20.15,20.15,0,0,1,12.26,3.2c14.07,8.89,28.37,17.42,42.46,26.29,3.58,2.25,6.48,2.26,10.06,0,14.07-8.9,28.38-17.42,42.38-26.41,4.74-3,9.64-3.37,14.82-2.92,4.23.37,4.74,3.62,4.75,7,0,10.49-.7,21,.3,31.45.63,6.68-1.89,9.82-7.15,12.49a142,142,0,0,0-12.45,7.39,7.86,7.86,0,0,1-9.29,0c-6.06-3.8-12.25-7.4-18.41-11.05a16,16,0,0,0-4-1.94c-9.4-2.38-12-.39-12,9.14s.06,19.32,0,29c-.06,6.26-1.43,7.52-7.75,7.57q-6.24.06-12.49,0c-6.65-.06-7.69-1.12-7.73-8C815.71,570,815.74,564.66,815.74,559.33Z"/><path class="cls-1" d="M1376.2,516.45c0,6.65-.2,13.31.12,19.94.1,2-.74,2.7-2,3.47-6,3.66-12,7.23-17.9,10.93-3.07,1.92-5.94,1.64-8.9-.16-5.83-3.55-11.84-6.83-17.49-10.64-4.39-3-9.09-2.8-13.92-2.61-3.44.13-3.26,2.7-3.26,5,0,10.82,0,21.65,0,32.47,0,7.48-.9,8.36-8.3,8.4-4.16,0-8.32.06-12.48,0-5.5-.12-7.12-1.67-7.17-7.25-.11-11,0-22-.06-33,0-4-8.32-11.18-12.22-10.54-.62.1-1.55.4-1.71.84-1.86,5.24-6.28,3.84-10.06,3.92-4.83.11-9.66-.06-14.49,0-3.18.07-4.52-1.35-4.5-4.49.06-11.48,0-23,.06-34.46,0-4.28,2.23-6.19,6.61-6.27a23,23,0,0,1,13.65,3.53c13.58,8.73,27.57,16.82,41.14,25.57,4.38,2.83,7.72,2.4,11.8-.17,13.52-8.53,27.28-16.66,40.71-25.32a22.63,22.63,0,0,1,13.64-3.6c4.36.14,6.45,2,6.4,6.37-.08,6,0,12,0,18Z"/><path class="cls-1" d="M455.89,181.3q-66.48,0-133,0c-4.33,0-7.39-.22-7.2-6,.29-8.33,1.15-10.15,7.39-10.17,22.83-.08,45.66,0,68.49-.05,7,0,7.28-.22,8.34-6.88.62-4,2.88-5.92,6.75-5.94q17-.09,34,0c4.12,0,6.83,2,6.85,6.29,0,5.87,3.47,6.6,8.24,6.6q65-.14,130,0c1.84,0,3.68,0,5.5.13a4.52,4.52,0,0,1,4.48,4.49c.08.83.09,1.67.1,2.5.21,9,.21,9-9,9Z"/><path class="cls-1" d="M359.78,243.5c0,8,.06,16,0,24-.06,5.52-1.32,6.79-6.83,6.83q-15,.12-30,0c-5.6,0-6.91-1.42-7.1-7.2-.09-2.83,0-5.66,0-8.49-.05-7.06-1.08-8.19-8-8.22-13.15-.06-26.3,0-39.45,0-8.42,0-9.37-1-9.49-9.46-.19-14.34,0-14.59,14.24-14.59,12,0,24-.14,36,.06,4.84.08,7.33-1.55,6.78-6.62-.47-4.46,1.69-5.74,5.9-5.66,10.65.21,21.31.27,31.95,0,4.94-.13,6.35,1.81,6.19,6.45C359.58,228.18,359.78,235.85,359.78,243.5Z"/><path class="cls-1" d="M898.71,265c0,8.33-.06,16.66,0,25a19.44,19.44,0,0,1-3.57,11.72q-7.3,10.43-14.35,21a7.13,7.13,0,0,1-6.57,3.61q-22.23-.13-44.46,0c-3.86,0-4.91-.82-2.53-4.45q28.18-43,56.22-86.18a30.4,30.4,0,0,1,2.09-2.8c2.48-3,5.8-3.17,9.13-2.2s3.94,3.84,4,6.81c.06,9.16,0,18.32,0,27.47Z"/><path class="cls-1" d="M357.37,583.29h-9c-2.38,0-4.77-.06-6-2.59s0-4.51,1.41-6.44q11.72-16.5,23.46-33c.68-.95,1.35-1.9,2-2.86,1.26-1.85.17-3.11-1.09-4.32-1.48-1.41-3.27-1.53-4.35.07-2.27,3.4-5.56,3.14-8.91,3.13-7.49,0-15,0-22.48,0-1.26,0-2.87.47-3.59-1-.59-1.25.61-2.14,1.26-3,9.06-12.76,18.09-25.54,27.26-38.22,3-4.17,14-4.42,17-.24,9.65,13.16,19,26.51,28.57,39.75,1.32,1.83.92,3.33-.26,5Q388,560,373.47,580.62a6.29,6.29,0,0,1-5.6,2.66C364.37,583.26,360.87,583.28,357.37,583.29Z"/><path class="cls-1" d="M1626.29,181.18q32.7,0,65.41,0c7,0,7.08.08,7.12,6.82.09,14.25.09,14.25-14.07,14.25-10.15,0-20.31,0-30.46,0-6.44,0-7.31.72-7.48,7.05-.1,3.59-1.38,5.08-5,5-10-.14-20-.12-30,0-3.48,0-5.1-1.06-5.24-4.83-.24-6.47-1.26-7.23-7.94-7.24-12.15,0-24.3,0-36.45,0-6.72,0-8.4-1.6-8.37-8.19.06-15-1.67-12.75,12.56-12.83C1586.34,181.09,1606.32,181.18,1626.29,181.18Z"/><path class="cls-1" d="M618.75,243.37c0-8,0-16,0-24,0-2.29-.34-4.89,3.09-5.24.95-.1,1.35-.46,1-1.65-2.49-8.3-.53-16.83-1.16-25.23-.12-1.65.22-3.68-.62-4.85-3.54-5,.47-5.08,3.37-5.15,9-.21,18-.07,26.95-.06.33,0,.78-.09,1,.08,5.2,4.61,11.61,3.8,17.8,4.09,1.85.09,2.46,1.59,2.47,3.2,0,8,.18,16-.06,24-.13,4.44-3.35,5.59-7.31,5.68-7.27.17-7.28.25-7.62,7.38a19.3,19.3,0,0,1-3.25,10.31c-8.73,12.78-17.36,25.62-26,38.45-1.54,2.29-3.17,4.54-6.4,3.52s-3.24-3.86-3.24-6.57Q618.74,255.34,618.75,243.37Z"/><path class="cls-1" d="M1426,181.18c11,0,22,.12,33-.06,3.8-.06,6.88.8,9.17,3.91,3,4.12,7,5.53,12.11,5.32,7.62-.31,8.61,1,8.64,8.6,0,3.66-.06,7.33,0,11,0,2.85-1.11,4.35-4.11,4.34q-15.49-.06-31,0c-2.41,0-4-1.4-5.55-3-5.64-5.66-11.37-11.24-17-17-2.81-2.89-5.23-2.88-8,0-5.58,5.73-11.35,11.27-16.93,17a9.16,9.16,0,0,1-7.07,3c-11-.09-22-.14-33,0-4,.06-5.9-1.19-5.67-5.42s.11-8.33.05-12.49,1.86-6.21,6-6.17c1.83,0,3.68-.18,5.5,0,4.32.44,7.86-.83,10.51-4.36,2.85-3.78,6.58-5,11.33-4.84C1404.64,181.39,1415.3,181.18,1426,181.18Z"/><path class="cls-1" d="M564.33,536.73c-5,.57-4.54,3.62-4.54,6.41,0,11,0,22,0,33,0,5.88-1.27,7.1-7,7.19q-7,.11-14,0c-5.36-.08-6.89-1.45-6.95-6.82-.14-11-.19-22,0-33,.08-4.27-1.1-5.78-5.75-6.46-10.37-1.51-20.54,1.18-30.85.44-5-.35-6.71-1.66-6.55-6.68.31-10,.06-20,.11-29.95,0-3-.52-6.43,2.78-8s6.79-1,9.93,1.19q18.15,12.38,36.34,24.69Z"/><path class="cls-1" d="M567.57,537.41c5.78.18,6.11-2.6,6.08-5.9q-.12-16,0-31.95c0-6.24,1.12-7.31,7.27-7.39q6.24-.09,12.48,0c6.36.08,7.42,1.15,7.45,7.73,0,10.48.1,21,0,31.45,0,3.69.58,6.29,5.09,5.91a7.92,7.92,0,0,1,4.67,1.54c1.14.69,2.39,1.55,3.72.77,8.41-4.95,17.54-1.36,26.29-2.24,2.27-.23,3.21,1.44,3.21,3.56,0,12.48.19,25-.1,37.44-.13,5.19-6.24,6.85-11.68,3.29-6.41-4.18-12.68-8.57-19-12.88q-20.61-14.07-41.22-28.15C570.83,539.93,569.94,539.2,567.57,537.41Z"/><path class="cls-1" d="M1418.81,57.77c0,7.49-.12,15,0,22.47.1,4.34-1.88,6-6,6q-22.47-.08-44.94,0c-3.83,0-5.33-1.75-5.31-5.49q.11-23,0-45.94c0-4,1.63-5.66,5.66-5.63q22.47.15,44.94,0c4,0,5.72,1.61,5.65,5.65C1418.71,42.46,1418.81,50.11,1418.81,57.77Zm-28.16,15.47v0c2.17,0,4.33,0,6.49,0,3.51,0,4.58-1.93,4.54-5.11,0-3-1.18-4.77-4.38-4.77-4.16,0-8.33,0-12.49,0-3.61-.09-5.08,1.57-5,5.15,0,3.39,1.59,4.87,4.89,4.79C1386.65,73.2,1388.65,73.24,1390.65,73.24Zm0-22.22c2.15,0,4.3.08,6.45,0,3-.14,4.51-1.73,4.5-4.76s-1.49-4.71-4.48-4.78c-4.3-.11-8.6-.09-12.9,0-3,.06-4.41,1.71-4.42,4.76s1.37,4.67,4.4,4.78C1386.35,51.07,1388.5,51,1390.65,51Z"/><path class="cls-1" d="M374.63,29.19c9.16,0,18.33.08,27.49,0,4,0,5.75,1.51,5.72,5.6q-.15,23,0,46c0,3.84-1.8,5.46-5.47,5.46q-27.74,0-55.47,0c-3.42,0-5.2-1.58-5.19-5.19q.07-23.25,0-46.48c0-3.86,1.69-5.38,5.45-5.34C356.3,29.26,365.47,29.19,374.63,29.19Zm-.15,44c3.83,0,7.66,0,11.49,0,3.06,0,4.67-1.35,4.67-4.5,0-7.5,0-15,0-22.49,0-3.31-1.9-4.83-5.09-4.84q-10.75,0-21.5,0c-3.49,0-5.17,1.8-5.16,5.29q0,11,0,22c0,3.13,1.54,4.57,4.62,4.54C367.14,73.2,370.81,73.23,374.48,73.23Z"/><path class="cls-1" d="M724.72,57.86c0,7.16,0,14.32,0,21.47,0,2.31.27,4.86-2.27,6.17s-4.5-.09-6.46-1.41q-18.83-12.74-37.64-25.46c-1.46-1-2.92-2.71-4.9-1.69s-1.5,3.18-1.52,5c-.06,6.16-.17,12.32,0,18.48.12,4.34-1.81,6.13-6,5.82-.33,0-.66,0-1,0-9.88.12-10.18-.16-10.18-9.88,0-13.31,0-26.63,0-39.95,0-2.39-.79-5.3,2.08-6.67s5.13.28,7.37,1.8c12.13,8.21,24.25,16.44,36.42,24.58,1.55,1,3.1,3.28,5.2,2,1.7-1.07.92-3.38.94-5.15.08-6,.08-12,.05-18,0-3.86,1.59-5.66,5.69-5.79,12.21-.36,12.2-.48,12.2,11.76Z"/><path class="cls-1" d="M1186.7,57.24c0-7.49.1-15,0-22.47-.07-4.06,1.66-5.65,5.68-5.62q22.47.15,44.94,0c4,0,5.66,1.64,5.63,5.67q-.15,23,0,45.93c0,3.77-1.54,5.47-5.35,5.46q-22.47-.09-44.93,0c-4.14,0-6.07-1.68-6-6C1186.82,72.55,1186.7,64.9,1186.7,57.24Zm39,0c0-3.49-.09-7,0-10.48.13-3.87-1.8-5.43-5.46-5.39s-7.32,0-11,0-5.5,1.76-5.48,5.5q.08,10.73,0,21.46c0,3.29,1.39,5,4.77,4.91,4,0,8-.07,12,0,3.52.08,5.26-1.41,5.17-5S1225.72,60.9,1225.72,57.24Z"/><path class="cls-1" d="M1113.34,86.23c-7.33,0-14.66-.1-22,0-4,.06-5.8-1.51-5.73-5.61.13-7.82.15-15.65,0-23.47-.1-4.25,1.6-6,5.89-6,8.49.15,17,.13,25.47,0,3.24-.05,7.55,1.28,7.67-4.41.1-4.24-1.57-5.39-8-5.4-8.33,0-16.66-.19-25,0-4.6.14-6.12-1.66-6.08-6.16s1.83-6.17,6.28-6.13q22,.23,44,0c4.59-.05,6.21,1.84,6.1,6.28q-.3,11.24,0,22.47c.13,4.52-1.77,6.37-6.19,6.32-9-.09-18,0-27,0-3.32,0-6,.43-5.91,4.76.09,4.1,2.78,4.35,5.81,4.35,8.83,0,17.65-.05,26.48,0,5.83.06,6.54,1.07,6.79,6.67.21,4.92-2,6.43-6.59,6.3C1128,86.07,1120.67,86.23,1113.34,86.23Z"/><path class="cls-1" d="M834.83,57.72c0,7.5-.13,15,0,22.49.1,4.34-1.85,6.13-6,6-.33,0-.67,0-1,0-9.85.21-10.16-.1-10.18-9.75,0-15.21,1.41-14.13-13.9-14.12-4,0-8,.08-12,0-3.61-.08-5.14,1.62-5.06,5.16.09,4-.12,8,0,12,.16,4.56-1.62,6.67-6.41,6.77-11,.21-11.53-.13-11.53-11.27,0-12.83,0-25.66,0-38.49,0-6.32,1-7.22,7.26-7.31C786.73,29,786.73,29,786.74,39.5c0,10.67,0,10.67,10.55,10.67,4.5,0,9,0,13.5,0,6-.07,6.82-1,6.9-7.1,0-3.16,0-6.33.07-9.49,0-2.86,1.5-4.29,4.34-4.33l1,0c11.73-.59,11.73-.59,11.73,11Z"/><path class="cls-1" d="M553.68,57.52c0-7.66.08-15.32,0-23,0-3.82,1.61-5.4,5.4-5.38q22.74.12,45.47,0c4.28,0,5.36,2.12,5.39,5.93s-.93,6.38-5.54,6.29c-8.49-.16-17-.05-25.48,0a27.85,27.85,0,0,0-4.48.23c-2.59.42-3.52,2.21-3.51,4.68,0,2.73,1.52,3.91,4.09,3.93,7,0,14,0,21,.07,6.13,0,6.89.78,6.91,6.36,0,5.74-.73,6.53-6.68,6.58-6.67,0-13.33.07-20,0-3.34,0-5.36,1-5.42,4.79s1.73,5.31,5.45,5.28c9.16-.09,18.33.14,27.48-.08,5-.12,6.25,2.19,6.23,6.71s-1.46,6.39-6.08,6.34c-14.66-.15-29.32-.11-44,0-4.35,0-6.42-1.62-6.29-6.22C553.83,72.51,553.68,65,553.68,57.52Z"/><path class="cls-1" d="M452.65,57.71c0-7.65.1-15.3,0-23-.07-4.07,1.7-5.64,5.7-5.61q22.45.15,44.9,0c4,0,5.7,1.64,5.65,5.67q-.19,14.47,0,28.94c.05,4.13-1.84,5.58-5.77,5.53-9.15-.11-18.3.1-27.44-.07-4.28-.08-6.25,1.59-5.86,5.88,0,.16,0,.33,0,.5-.21,10.47-2.81,12.45-13.43,10.53-3.34-.6-3.72-2.82-3.71-5.48,0-.33,0-.66,0-1Q452.64,68.69,452.65,57.71Zm28-16.35v.14c-2.33,0-4.66-.1-7,0a3.81,3.81,0,0,0-3.8,3.28c-2.12,9.14.28,12.27,9.59,12.28,2.5,0,5,0,7.48-.09s4-1.13,4.6-3.7c2-9.06-.23-11.94-9.4-12Z"/><path class="cls-1" d="M879.68,57.74c0-7.65.1-15.31,0-23-.07-4.05,1.64-5.66,5.67-5.63,15,.1,30,.13,44.92,0,4.49,0,5.68,2.08,5.69,6.15s-1.29,6.18-5.74,6.1c-8.81-.17-17.63-.09-26.45,0-6,0-6.85,1-6.9,7.06,0,6.49.09,13,0,19.47-.08,3.82,1.53,5.42,5.35,5.38,9.15-.1,18.31.14,27.45-.08,4.86-.11,6.34,1.94,6.35,6.57s-1.67,6.55-6.43,6.49c-14.31-.18-28.62,0-42.93-.08-6.08,0-6.87-.89-6.91-7C879.64,72.05,879.67,64.89,879.68,57.74Z"/><path class="cls-1" d="M280.27,326.29c-5.5,0-11-.09-16.49,0-3.3.08-5-1.09-4.94-4.59.09-9.49-.1-19,.11-28.49.12-5.33,2.08-7,7.55-7,9.83-.07,19.66.07,29.49-.06,4.71-.07,6.71,2.19,6.72,6.65,0,9.49-.06,19,.06,28.49,0,3.59-1.32,5.15-5,5C291.94,326.17,286.1,326.29,280.27,326.29Z"/><path class="cls-1" d="M433.64,537.19c10.84-3.63,17.95,3.25,24,13.52,4.79,8.15,10.88,15.54,16.31,23.32,1.41,2,3.21,4.14,1.7,6.83s-4.15,2.42-6.66,2.43c-5.83,0-11.66-.09-17.49,0a8.35,8.35,0,0,1-7.63-3.77q-13.71-19.37-27.61-38.6c-1.79-2.48-1.77-3.86,1.8-3.79C422.56,537.25,427.06,537.19,433.64,537.19Z"/><path class="cls-1" d="M1167.68,246.74v16c0,4.42-1.91,6.79-6.65,6.69-7-.16-14-.12-21,0-3.7.05-5.85-1.77-5.9-5.27-.18-11.47-.22-23,0-34.42.07-3.4,2.42-5.39,6-5.4,7,0,14-.05,21,0,4.24,0,6.5,2.23,6.55,6.48C1167.72,236.09,1167.67,241.42,1167.68,246.74Z"/><path class="cls-1" d="M743.78,559.68c0,5.83,0,11.66,0,17.49,0,4.15-2,6.13-6.13,6.1-5,0-10,0-15,0-4.52.05-6.83-2.07-6.83-6.64,0-11.66,0-23.33,0-35,0-3.16,1.36-4.52,4.53-4.47q9.49.15,19,0c3.19,0,4.52,1.36,4.48,4.51C743.71,547.68,743.77,553.68,743.78,559.68Z"/><path class="cls-1" d="M949.73,559.24c0,5.81,0,11.63,0,17.44,0,4.45-2,6.78-6.68,6.64-5.15-.15-10.3-.06-15.45,0-3.69,0-5.67-1.95-5.71-5.47-.11-12.3-.06-24.59-.07-36.88,0-2.43,1.19-3.7,3.66-3.7,6.81,0,13.62,0,20.44,0,3.16,0,3.85,1.93,3.84,4.58C949.71,547.61,949.74,553.42,949.73,559.24Z"/><path class="cls-1" d="M1418.81,559.81c0,5.66-.06,11.33,0,17,.06,4.3-1.74,6.57-6.22,6.5-5-.07-10-.09-15,0-4.39.09-6.6-2.14-6.64-6.31-.12-12-.08-24-.08-36,0-2.37,1.09-3.77,3.61-3.77,6.83,0,13.66,0,20.49,0,3.19,0,3.84,1.94,3.83,4.6C1418.78,547.81,1418.8,553.81,1418.81,559.81Z"/><path class="cls-1" d="M1021.71,559.24c0-5.66.11-11.32,0-17-.09-3.54,1.15-5.22,4.89-5.12,6.15.16,12.31.14,18.47,0,3.49-.08,4.7,1.54,4.67,4.84-.07,11.14.07,22.29-.07,33.43-.07,6-1.92,7.74-7.81,7.83-4.49.06-9-.08-13.47,0s-6.76-1.93-6.67-6.59C1021.8,570.88,1021.71,565.06,1021.71,559.24Z"/><path class="cls-1" d="M700.78,515.75c0,5.49-.1,11,.05,16.46.09,3.53-1.16,5.22-4.9,5.12-6.15-.16-12.31-.13-18.46,0-3.48.07-4.71-1.52-4.69-4.82.08-11.15,0-22.29.08-33.43.06-5.4,1.58-6.81,6.88-6.89,5-.08,10,0,15,0,4.16,0,6.1,2,6.08,6.12C700.75,504.1,700.78,509.93,700.78,515.75Z"/><path class="cls-1" d="M978.72,515.58c0-5.66.06-11.31,0-17-.07-4.32,1.76-6.53,6.22-6.47,5.32.08,10.64.06,16,0,3.2,0,5.21,1.57,5.42,4.64.85,12.45.36,24.91.26,37.37,0,2.3-1.64,3.08-3.73,3.08-6.65,0-13.3,0-19.94,0-3,0-4.2-1.37-4.17-4.26C978.77,527.21,978.73,521.39,978.72,515.58Z"/><path class="cls-1" d="M1317.78,57.22c0,7.64-.07,15.29,0,22.93,0,4.2-1.86,6.17-6,6h-.49c-10.54.38-10.64.28-10.65-10.09,0-9.3,0-18.61,0-27.91,0-5.79-1-6.69-6.63-6.83a31.25,31.25,0,0,0-3.49,0c-4.56.41-6.76-1.37-6.75-6.21,0-5,2.59-6.14,7-6,7.3.2,14.62.12,21.93.05,3.56,0,5.17,1.55,5.14,5.11C1317.73,41.93,1317.78,49.57,1317.78,57.22Z"/><path class="cls-1" d="M1080.66,354.33V343.85c0-3.63,1.73-5.63,5.44-5.65,7.15,0,14.31,0,21.46,0,3.45,0,5.18,2,5.2,5.38,0,7.15,0,14.3,0,21.46,0,3.42-1.9,5.22-5.32,5.24-7.32,0-14.64,0-22,0-3.33,0-4.82-1.79-4.81-5Z"/><path class="cls-1" d="M1192.67,338.19h10.45c3.6,0,5.66,1.69,5.67,5.41q.06,10.7,0,21.41c0,3.4-1.8,5.27-5.23,5.29-7.14,0-14.28,0-21.41,0-3.38,0-5.37-1.66-5.4-5.13q-.11-10.95,0-21.9c0-3.48,2.11-5.06,5.46-5.08S1189.18,338.19,1192.67,338.19Z"/><path class="cls-1" d="M997.83,58c0,7.49-.1,15,0,22.45.07,3.9-1.33,5.73-5.47,5.88-11.64.42-11.7.48-11.7-11.1,0-13.14.12-26.28-.06-39.41-.06-4.56,1.34-6.65,6.25-6.65,11,0,11-.18,11,10.87Z"/><path class="cls-1" d="M1520.66,181.2c4.16,0,8.32.07,12.48,0,3.13-.08,4.6,1.23,4.56,4.42-.07,5.49,0,11,0,16.46,0,4.39-2.24,6.93-6.69,7-6.65.1-13.31.07-20,0-4.66-.07-7-2.66-7.06-7.24-.08-5.49,0-11-.07-16.47,0-2.93,1.41-4.19,4.31-4.14C1512.35,181.26,1516.51,181.2,1520.66,181.2Z"/><path class="cls-1" d="M277.05,181.29c-6.65,0-13.31-.16-19.95.06-4.17.15-5.78-1.56-5.42-5.59.15-1.65,0-3.32.06-5,0-3.67,1.91-5.55,5.55-5.55q19.69,0,39.4,0c3.82,0,5.81,2.08,6,5.86.08,1.83,0,3.66.07,5.49.18,3.38-1.35,4.79-4.75,4.73C291,181.21,284,181.29,277.05,181.29Z"/></svg>