<svg xmlns="http://www.w3.org/2000/svg" width="35" height="35" viewBox="0 0 35 35">
    <path fill="#50E6B4" fill-rule="evenodd" d="M4.441 22.01c-.373 0-.707-.14-1-.42-.294-.28-.441-.621-.441-1.022 0-.4.147-.74.44-1.02.294-.28.628-.421 1.001-.421h21.822l-4.645-4.645a1.423 1.423 0 0 1-.44-1.04c0-.401.147-.735.44-1.002.267-.293.6-.44 1.001-.44.4 0 .748.147 1.041.44l7.087 7.087c0 .027.007.047.02.06l.06.06c.027 0 .04.014.04.04l.04.04v.04l.06.06c.014.014.02.027.02.04v.02l.04.04v.04l.04.04v.08l.04.04v.121l.04.04v.56l-.04.04v.1c0 .014-.006.027-.02.04l-.02.02v.08h-.02c-.013 0-.02.008-.02.02v.061l-.04.04v.02c0 .013-.006.02-.02.02-.013 0-.02.007-.02.02v.04c0 .013-.006.02-.02.02h-.02v.04h-.04v.04l-.04.04v.02c0 .014-.013.02-.04.02a.466.466 0 0 0-.08.12h-.06c-.013 0-.02.007-.02.02v.02l-.04.04h-.04v.04h-.04l-.04.04h-.04v.04h-.08l-.04.04h-.08v.04h-.12l-.04.04h-.16l-.04.04H4.44z"/>
</svg>
