<svg xmlns="http://www.w3.org/2000/svg" width="35" height="35" viewBox="0 0 35 35">
    <path fill="#D70050" fill-rule="evenodd" d="M30.706 22.01H5.281l-.04-.04h-.16l-.04-.04h-.12l-.04-.04h-.04l-.04-.04h-.08v-.04h-.04l-.04-.04H4.6v-.04h-.04l-.08-.08h-.04a.466.466 0 0 0-.08-.12c-.027 0-.04-.007-.04-.02v-.02l-.04-.04v-.04h-.04v-.04l-.04-.04v-.02c0-.014-.007-.02-.02-.02h-.02v-.041l-.04-.04v-.06c0-.013-.008-.02-.02-.02h-.02v-.04c0-.027-.008-.04-.02-.04-.014 0-.021-.007-.021-.02v-.14l-.04-.04v-.56l.04-.041v-.16c.027 0 .04-.007.04-.02v-.06l.04-.04v-.04l.04-.04v-.04l.04-.04v-.02c0-.014.007-.02.02-.02.014 0 .02-.007.02-.02v-.02l.04-.04c0-.027.007-.04.02-.04h.02v-.04h.04l.02-.02c.014-.014.02-.034.02-.06l7.127-7.088c.267-.293.6-.44 1.001-.44.4 0 .734.147 1.001.44.294.294.44.634.44 1.021 0 .387-.146.728-.44 1.021l-4.644 4.645h21.821c.4 0 .74.14 1.021.42.28.28.42.621.42 1.021 0 .4-.14.741-.42 1.021-.28.28-.62.42-1.02.42z"/>
</svg>
