<svg xmlns="http://www.w3.org/2000/svg" width="368" height="80" viewBox="0 0 368 80">
    <g fill="none" fill-rule="evenodd">
        <path d="M0 0h368v80H0z" opacity=".409"/>
        <path fill="#FFF" fill-rule="nonzero" d="M234.086 13H176.611v3.961h3.344c.627 0 1.045 0 1.463.209l1.254.625c.418.417.627.834.836 1.46.209.625.209 1.46.209 2.502v27.521c0 2.502-.21 4.587-.836 6.463-.627 1.668-1.254 3.128-2.3 4.17-.835 1.043-2.09 1.877-3.134 2.294a11.861 11.861 0 0 1-3.762.625h-1.463-.21c-.626-.208-1.044-.417-1.671-.834-.418-.417-1.045-1.042-1.463-1.668-.418-.625-.836-1.668-1.254-2.71l-16.72-44.201h-10.869l-16.72 43.992c-.418 1.043-.836 2.085-1.463 2.71-.418.626-.836 1.252-1.463 1.669-.418.417-1.045.625-1.672.834-.418.208-1.045.208-1.881.208H116v3.962h20.691V62.83h-3.344c-.418 0-.836 0-1.254-.208-.418-.209-.836-.209-1.045-.626-.418-.208-.627-.625-.836-.834-.209-.417-.209-.834-.209-1.25 0-.626.21-1.252.418-2.086.21-.834.418-1.46.627-2.085l2.3-6.463h19.436l2.717 7.506c.21.417.21.834.418 1.46.21.625.21 1.25.21 1.667 0 .417 0 1.043-.21 1.251-.209.417-.418.626-.836.834-.418.209-.627.417-1.045.417-.836.417-1.254.417-1.672.417h-3.135v3.962H175.566c1.672 0 3.344 0 5.016-.209a22.09 22.09 0 0 0 5.016-1.251c1.672-.625 2.926-1.25 4.389-2.293a12.707 12.707 0 0 0 3.344-3.336c1.045-1.251 1.672-2.92 2.299-4.587.627-1.668.836-3.753.836-6.047V21.757a7.76 7.76 0 0 1 .418-2.502c.209-.626.418-1.043.836-1.46.418-.417.836-.625 1.254-.625h18.81L200.646 67h11.704l3.971-12.718h20.691L240.983 67h11.705l-18.602-54zm-99.485 31.691l4.807-12.718c.21-.834.627-1.876 1.045-2.71.418-1.043.627-1.877 1.045-2.92.418-1.042.627-1.876 1.045-2.71.21-.834.627-1.668.836-2.502.21.834.418 1.877.627 2.71.21 1.043.627 1.877.836 2.92.21 1.042.627 1.876.836 2.919.21 1.042.627 1.876.836 2.71l4.18 12.301h-16.093zm84.855-.208l2.09-6.464s.836-2.919 1.045-3.336c.21-.625.836-2.71 1.045-3.544.21-.834.836-2.71 1.045-3.753l2.3-7.089 2.298 7.298c.418 1.25.627 1.876.836 2.919.21 1.042.627 1.667.627 2.084l3.762 11.676h-15.048v.209z"/>
    </g>
</svg>
