<svg xmlns="http://www.w3.org/2000/svg" xmlns:xlink="http://www.w3.org/1999/xlink" width="110" height="110" viewBox="0 0 110 110">
    <defs>
        <path id="a" d="M.164.323H3.7v1.523H.164z"/>
        <path id="c" d="M.362.355h6.565v3.407H.362z"/>
    </defs>
    <g fill="none" fill-rule="evenodd">
        <path fill="#FFF" d="M77 38.663A6.345 6.345 0 0 1 83.339 45 6.344 6.344 0 0 1 77 51.337 6.346 6.346 0 0 1 70.66 45 6.345 6.345 0 0 1 77 38.663M77 53c4.412 0 8-3.589 8-8s-3.589-8-8-8c-4.41 0-8 3.588-8 8 0 4.411 3.59 8 8 8"/>
        <path fill="#FFF" d="M77 43.768A2.235 2.235 0 0 1 79.233 46 2.235 2.235 0 0 1 77 48.232 2.235 2.235 0 0 1 74.767 46 2.235 2.235 0 0 1 77 43.768M77 50c2.205 0 4-1.795 4-4s-1.795-4-4-4-4 1.795-4 4 1.795 4 4 4M39.5 31.686c1.554 0 3.014.605 4.113 1.703a5.775 5.775 0 0 1 1.703 4.111 5.775 5.775 0 0 1-1.703 4.11 5.777 5.777 0 0 1-4.113 1.703h-.001a5.776 5.776 0 0 1-4.112-1.702 5.775 5.775 0 0 1-1.703-4.111 5.821 5.821 0 0 1 5.816-5.814M39.498 45h.002c2.003 0 3.887-.78 5.303-2.196A7.451 7.451 0 0 0 47 37.5c0-2.003-.78-3.887-2.197-5.304A7.451 7.451 0 0 0 39.5 30c-4.136 0-7.5 3.365-7.5 7.5a7.45 7.45 0 0 0 2.197 5.304A7.45 7.45 0 0 0 39.498 45"/>
        <path fill="#FFF" d="M39 35.824A2.18 2.18 0 0 1 41.178 38 2.18 2.18 0 0 1 39 40.176 2.18 2.18 0 0 1 36.822 38c0-1.2.978-2.176 2.178-2.176M39 42a4.005 4.005 0 0 0 4-4c0-2.205-1.794-4-4-4s-4 1.795-4 4c0 2.206 1.795 4 4 4M59.897 75a.937.937 0 0 0 .175-.016c.137-.026 13.642-2.734 11.745-15.25-.07-.468-.53-.793-1.016-.725-.491.068-.831.503-.76.971.69 4.558-.803 8.172-4.438 10.741-2.786 1.969-5.848 2.574-5.88 2.58-.486.093-.802.544-.706 1.008.085.408.46.691.88.691"/>
        <path fill="#FFF" d="M82.989 62.278c-.754.759-1.925 1.375-3.213 1.69-2.727.666-4.954-.187-5.249-1.366-.197-.793.41-1.553.79-1.935.754-.76 1.925-1.376 3.214-1.69 2.726-.666 4.953.186 5.247 1.366.198.793-.41 1.553-.789 1.935m-20.95 21.316c-.755-1.08-1.22-2.31-1.277-3.373-.029-.536.024-1.502.703-1.968.232-.159.528-.238.866-.238 1.137 0 2.749.893 3.98 2.656.755 1.08 1.22 2.31 1.278 3.373.029.535-.025 1.503-.702 1.968-1.01.691-3.25-.13-4.848-2.418m23.426-23.73l-.01-.02c-.638-2.29-3.838-3.414-7.345-2.557-1.618.395-3.055 1.162-4.045 2.159-1.099 1.107-1.54 2.376-1.242 3.573.454 1.82 2.505 2.926 5.058 2.926.738 0 1.519-.093 2.314-.287 1.608-.393 3.036-1.153 4.025-2.14.12 4.644-1.632 13.647-14.892 21.18.02-.241.028-.488.014-.747-.076-1.396-.64-2.913-1.588-4.271-2.08-2.979-5.283-4.235-7.287-2.858-1.024.701-1.542 1.94-1.458 3.491.074 1.397.638 2.914 1.587 4.272C62.105 86.745 64.204 88 66.011 88c.638 0 1.237-.164 1.763-.493.003-.002.006-.002.01-.003 6.51-3.281 14.818-9.075 17.426-18.044 1.581-5.439.31-9.428.255-9.596M49.883 83.881c-.409 1.043-1.075 1.79-1.928 2.159-2.687 1.168-6.747-1.578-8.862-5.997-1.073-2.242-1.519-4.58-1.256-6.584.244-1.856 1.066-3.177 2.316-3.72.42-.182.874-.27 1.348-.27 2.562 0 5.732 2.54 7.516 6.267a13.84 13.84 0 0 1 1.15 3.553l-2.879 3.48a.815.815 0 0 0 .146 1.18c.161.123.355.182.546.182.26 0 .519-.11.693-.32l1.645-1.989c-.052.747-.193 1.444-.435 2.06zM62.81 66.726a.808.808 0 0 0 .105-.881.885.885 0 0 0-.782-.48L39.297 65c-.487-.014-.89.363-.897.827-.008.465.38.847.868.856l21.054.335-8.737 10.558c-.24-.847-.561-1.7-.963-2.538-2.598-5.428-7.518-8.429-11.2-6.83-1.828.794-3.013 2.585-3.335 5.042-.303 2.31.194 4.97 1.401 7.49C39.614 85.185 43.295 88 46.58 88c.73 0 1.44-.139 2.108-.429 1.287-.558 2.272-1.63 2.849-3.1.535-1.365.69-2.991.487-4.71L62.81 66.727zM57.5 26.857l4.816 2.563-4.816 2.484-4.816-2.484 4.816-2.563zm5.86 30.269l-5.04 2.6V33.428l5.04-2.6v26.298zM51.64 30.829l5.04 2.6v26.297l-5.04-2.6V30.829zm-1.176 27.637l6.68 3.447.016.005c.04.02.081.034.124.047.014.004.027.01.04.013a.753.753 0 0 0 .35 0c.015-.002.028-.01.042-.013a.798.798 0 0 0 .124-.047l.016-.005 6.68-3.447a.884.884 0 0 0 .464-.79V29.432c0-.012-.004-.024-.004-.037a1.019 1.019 0 0 0-.018-.147l-.013-.06a.873.873 0 0 0-.06-.162c-.004-.007-.006-.015-.01-.021a.89.89 0 0 0-.11-.161c-.01-.014-.024-.025-.036-.038a.79.79 0 0 0-.107-.094c-.01-.007-.017-.016-.026-.023-.01-.006-.02-.009-.03-.014-.014-.01-.026-.02-.041-.028l-6.68-3.555a.774.774 0 0 0-.73 0l-6.68 3.555c-.015.008-.027.02-.041.028-.01.005-.02.008-.03.014-.01.007-.017.016-.026.023a.791.791 0 0 0-.107.095c-.012.012-.025.023-.037.037a.89.89 0 0 0-.11.16l-.008.022a.866.866 0 0 0-.06.163c-.006.019-.01.039-.014.059-.01.049-.015.097-.018.147 0 .013-.004.025-.004.037v28.244c0 .337.18.644.464.79zM25.874 53.114l6.056 2.597 1.505 7.15-6.055-2.596-1.506-7.15zm5.705-5.396l6.135 2.63-5.204 3.87-6.135-2.63 5.204-3.87zM35.04 62.82l-1.547-7.346 5.293-3.937 1.547 7.345-5.293 3.938zm-.3 2.145l.05-.016a.782.782 0 0 0 .194-.102c.001 0 .004 0 .005-.002l6.688-4.975a.81.81 0 0 0 .306-.815l-1.91-9.064v-.005a.827.827 0 0 0-.059-.17c-.006-.014-.015-.027-.023-.04-.016-.03-.031-.061-.052-.09l-.017-.02c-.013-.017-.028-.032-.042-.048a.797.797 0 0 0-.24-.18c-.01-.005-.02-.013-.03-.017l-7.83-3.357a.774.774 0 0 0-.772.091L24.32 51.13l-.018.019a.785.785 0 0 0-.125.125l-.026.03a.822.822 0 0 0-.092.162l-.004.016c-.006.013-.008.026-.013.04a.814.814 0 0 0-.027.419v.004l1.908 9.064c.054.256.228.47.465.571l7.829 3.357.019.006a.78.78 0 0 0 .103.032l.037.01c.048.01.097.015.146.015h.003c.054 0 .109-.006.164-.018.018-.004.034-.012.052-.017zM29.707 16.589l-.041.222a.468.468 0 0 1-.504.367 12.455 12.455 0 0 0-1.506-.02c-.304.015-.542-.24-.488-.524l.03-.154a.459.459 0 0 1 .408-.366c.535-.05 1.083-.065 1.647-.052.288.007.505.257.454.527zm1.808 2.715l-.04.225a.47.47 0 0 1-.52.37 13.832 13.832 0 0 0-1.47-.08c-.291 0-.512-.247-.462-.52l.028-.16a.46.46 0 0 1 .435-.372 13.92 13.92 0 0 1 1.595.016c.278.018.48.26.434.521zm-2.244-6.203a.49.49 0 0 1 .677.077l3.832 4.717c.192.236.57.23.754-.014l.144-.19a.484.484 0 0 1 .753-.013l.12.146c.128.16.13.38.003.541l-.47.598a.43.43 0 0 0 .004.541l1.814 2.234a.433.433 0 0 1-.084.627l-.266.195a.486.486 0 0 1-.66-.08l-1.448-1.783a.484.484 0 0 0-.745.004s-1.567 1.982-1.687 2.139c-.104.136-.156.196-.24.244-.093.054-.233.06-.37-.02l-.324-.192a.433.433 0 0 1-.106-.67 56.705 56.705 0 0 0 2.172-2.562.431.431 0 0 0-.001-.546l-4.21-5.18a.434.434 0 0 1 .117-.649l.221-.164zm-3.767 4.049a16 16 0 0 1-.7 1.016.323.323 0 0 0 .007.398l1.04 1.28c.16.196.455.232.66.081l1.006-.74a.486.486 0 0 1 .659.08l.115.143a.432.432 0 0 1-.084.626l-.427.314c-.299.22-.214.667.146.78.535.171 1.066.284 1.592.339.26.026.446.25.416.498l-.06.492a.348.348 0 0 1-.44.284 45.76 45.76 0 0 1-1.047-.322c-.33-.11-.414.061-.25.249l2.884 3.54a.322.322 0 0 1-.063.466l-.316.232a.485.485 0 0 1-.659-.08l-2.975-3.662c.126.354.221.647.283.9.138.555.236 1.17.294 1.829.026.273-.21.506-.499.488l-.467-.028a.459.459 0 0 1-.438-.474c.027-.63-.004-1.258-.095-1.887-.055-.332-.17-.787-.352-1.367-.094-.301-.477-.42-.739-.229l-.687.506a.487.487 0 0 1-.66-.08l-.114-.142a.433.433 0 0 1 .084-.627l1.185-.872a.433.433 0 0 0 .084-.627l-.646-.796a.483.483 0 0 0-.724-.021c-.144.16-.291.315-.44.467a.488.488 0 0 1-.47.12l-.264-.07c-.348-.092-.46-.512-.2-.75a9.578 9.578 0 0 0 1.06-1.113c.358-.38.74-.91 1.15-1.581a.48.48 0 0 1 .457-.223l.41.04s.16.01.264.14c.105.129.098.26.02.383zM44.983 9.66c-.024-.107-.03-.202-.054-.309l-.474-2.164c-.043-.194-.057-.276-.122-.567a.421.421 0 0 1 .305-.506l.445-.104c.22-.05.437.091.487.317l.055.255.546 2.48c.023.107.032.214.053.308l4.565-1.066c.22-.051.438.09.487.316l.069.316a.42.42 0 0 1-.306.502l-3.981.929c-.279.065-.405.397-.25.643.73 1.153 1.537 2.032 2.423 2.637.857.69 2.002 1.192 3.449 1.512.266.06.401.367.268.612l-.337.62c-.136.253-.344.324-.587.26-1.373-.357-2.51-1.037-3.597-1.985a9.787 9.787 0 0 1-1.375-1.44c-.219-.278-.655-.156-.715.195-.204 1.033-.743 2.115-1.62 3.236-.585.776-1.276 1.453-2.09 2.222-.203.192-.451.118-.6.036l-.305-.171a.513.513 0 0 1-.073-.837c.752-.626 1.239-1.1 1.669-1.618.833-.943 1.36-1.829 1.594-2.66.2-.714.29-1.489.269-2.307a.413.413 0 0 0-.498-.401l-4.073.951a.471.471 0 0 1-.563-.365l-.035-.16a.516.516 0 0 1 .377-.615l4.594-1.073zM93.596 39.975l-.482-.174a.407.407 0 0 1-.27-.363 12.729 12.729 0 0 1 .301-3.456.408.408 0 0 1 .553-.277l.327.132a.407.407 0 0 1 .24.47c-.22.985-.264 2.066-.125 3.24.035.3-.26.531-.544.428zm7.11-7.623c-.69-.72-1.42-1.566-2.209-2.54l.034.164c.024.151.02.238-.025.27-.1.069-.244.05-.426-.042l-2.074-.45a.407.407 0 0 0-.494.424c.02.278.034.546.043.81a.41.41 0 0 0 .348.389c.838.122 1.631.182 2.378.19a.406.406 0 0 1 .393.307l.18.728c.04.185-.025.302-.084.357-.083.076-.16.177-.388.14a29.333 29.333 0 0 1-3.343-.718c-.38-.103-.672.339-.426.643.443.549.885 1.09 1.327 1.626.21.254.626.166.712-.152l.02-.077a.406.406 0 0 1 .512-.28l.304.09c.202.06.327.263.284.467-.217 1.018-.566 2.116-1.047 3.306a.413.413 0 0 1-.538.223l-.418-.173a.403.403 0 0 1-.212-.543c.137-.299.262-.593.381-.879a.396.396 0 0 0-.063-.41c-.53-.63-1.156-1.363-1.864-2.213a.413.413 0 0 0-.55-.075l-3.074 2.133a.41.41 0 0 1-.57-.1l-.243-.345a.403.403 0 0 1 .1-.564l2.94-2.04a.402.402 0 0 0 .08-.59c-.825-.98-1.728-2.068-2.706-3.265l-.064-.078a.403.403 0 0 1 .005-.519l.287-.335a.41.41 0 0 1 .637.02c.61.799 1.22 1.584 1.826 2.349a.418.418 0 0 0 .21.14c.336.095.66.183.967.255.266.063.52-.15.5-.42a31.557 31.557 0 0 0-.331-2.85.407.407 0 0 1 .476-.465l.341.062c.168.031.3.163.329.331l.104.606c.03.174.17.308.347.332l1.177.158c.36.048.6-.355.383-.643a94.669 94.669 0 0 1-1.636-2.24.408.408 0 0 1-.06-.348l.065-.225a.41.41 0 0 1 .728-.12l.382.541c1.716 2.428 3.453 4.554 5.225 6.352.09.092.13.22.108.347l-.05.294a.41.41 0 0 1-.7.21l-.538-.565zm-9.674-.601c.044.168-.01.322-.087.397a.423.423 0 0 1-.326.138c-.184-.005-.35-.024-.505-.04a7.662 7.662 0 0 1-1.237-.234 12.345 12.345 0 0 1-1.633-.59.404.404 0 0 1-.244-.385l.014-.413a.41.41 0 0 1 .576-.357c.578.252 1.074.424 1.494.52.42.104.89.163 1.414.172.183.003.345.12.394.296l.14.496z"/>
        <path fill="#FFF" d="M97.815 32.111a.5.5 0 1 1-.63.778.5.5 0 0 1 .63-.778M77.11 20.861a.388.388 0 0 1-.554.11l-1.582-1.13a.432.432 0 0 1-.105-.582l.411-.634a.388.388 0 0 1 .555-.111l1.582 1.132c.182.13.23.39.105.581l-.411.634zm1.716-1.395l-3.348-2.393a.387.387 0 0 0-.554.11l-1.855 2.858a.431.431 0 0 0 .105.582l.266.19c.159.113.375.07.483-.097a.338.338 0 0 1 .482-.095l1.71 1.222a.32.32 0 0 1 .078.432.32.32 0 0 0 .078.432l.309.22c.18.13.43.081.553-.11l1.797-2.77a.43.43 0 0 0-.104-.581zM86.011 17.522l1.754-2.344a.473.473 0 0 1 .62-.108l.398.248c.2.124.254.372.122.557l-.096.133-1.66 2.22a.384.384 0 0 0 .117.563l1.54.955a.383.383 0 0 1 .116.563l-.177.239a.474.474 0 0 1-.62.106l-1.539-.954a.475.475 0 0 0-.619.107l-3.752 5.015a.473.473 0 0 1-.62.108l-.4-.249c-.204-.126-.256-.379-.117-.564l3.752-5.015a.384.384 0 0 0-.118-.564L83.09 17.53c-.204-.126-.257-.379-.118-.564l.178-.238a.474.474 0 0 1 .62-.107l1.623 1.007c.203.126.48.078.62-.107"/>
        <path fill="#FFF" d="M82.656 17.025a.5.5 0 1 1-.312.95.5.5 0 0 1 .312-.95M82.933 15.708l-.112.13c-.144.169-.424.212-.632.1l-3.997-2.167c-.218-.118-.254-.346-.088-.542l.062-.071c.118-.139.397-.227.652-.088l3.94 2.135c.227.122.314.34.175.503M78.943 18.692l-.063.121c-.102.195-.306.246-.455.113l-2.282-2.025c-.15-.133-.188-.398-.086-.593l.063-.12c.102-.196.306-.247.455-.114l2.282 2.025c.149.133.188.398.086.593M80.943 16.692l-.063.121c-.102.195-.306.246-.455.113L78.143 14.9c-.15-.133-.188-.398-.086-.593l.063-.122c.102-.194.306-.245.455-.112l2.282 2.025c.15.133.188.398.086.593M82.943 14.692l-.063.122c-.102.194-.306.245-.455.112l-2.281-2.025c-.15-.133-.189-.399-.087-.593l.063-.121c.102-.195.306-.246.455-.113l2.281 2.025c.15.133.189.399.087.593M63.99 8.44l-.041.196a.445.445 0 0 1-.532.353l-4.073-.918c-.254-.057-.392-.311-.329-.603l.023-.107a.457.457 0 0 1 .555-.348l4.008.903c.263.059.442.28.39.525M61.992 10.427l-.024.172c-.038.275-.211.45-.387.389l-2.326-.806c-.175-.06-.286-.334-.247-.61l.024-.17c.038-.276.212-.45.386-.39l2.327.806c.175.06.286.334.247.61M61.992 12.427l-.023.172c-.04.276-.212.45-.388.389l-2.326-.806c-.175-.062-.286-.333-.247-.61l.024-.17c.038-.276.211-.45.386-.39l2.327.806c.175.061.286.333.247.61"/>
        <g transform="translate(61 5)">
            <mask id="b" fill="#fff">
                <use xlink:href="#a"/>
            </mask>
            <path fill="#FFF" d="M3.693 1.42l-.021.097a.42.42 0 0 1-.48.322L.57 1.262A.52.52 0 0 1 .176.644l.007-.03C.223.43.463.287.67.333l2.667.587c.275.06.396.314.355.5" mask="url(#b)"/>
        </g>
        <path fill="#FFF" d="M61.514 15.803a.42.42 0 0 1-.5.328l-1.216-.275a.431.431 0 0 1-.32-.513l.165-.77a.42.42 0 0 1 .5-.33l1.217.275c.226.051.37.281.32.513l-.166.772zm1.156-2.023l-3.413-.77a.42.42 0 0 0-.501.328l-.746 3.476a.43.43 0 0 0 .32.513l.33.075a.366.366 0 0 0 .437-.286.366.366 0 0 1 .436-.286l1.374.31a.32.32 0 0 1 .238.382.32.32 0 0 0 .238.38l.384.088a.42.42 0 0 0 .5-.329l.723-3.367a.43.43 0 0 0-.32-.514zM69.785 7.638c.239.046.39.257.337.469l-.552 2.23c-.087.352-.072.534.054.559l.719.14c.07.014.15-.008.228-.083.059-.063.161-.27.31-.632.095-.23.4-.33.638-.207l.261.135c.201.104.277.331.174.517-.329.59-.622.954-.866 1.08-.308.17-.698.194-1.177.1l-.634-.124c-.86-.168-1.18-.665-.976-1.491l.387-1.562c.052-.212-.099-.421-.337-.468l-.857-.169c-.224-.043-.449.073-.517.268-.238.686-.486 1.19-.744 1.513-.314.375-.759.733-1.325 1.076a.485.485 0 0 1-.6-.076l-.199-.222c-.178-.199-.126-.436.073-.543.464-.252.806-.525 1.04-.803.248-.25.53-.93.826-2.041.055-.209.29-.341.524-.295l3.213.63zM69.827 12.815c.076.016.156.01.228-.02a.486.486 0 0 1 .176-.05c.078.017.157.086.219.178l.478.666c.06.091.083.174.067.25-.013.06-.106.12-.276.172a.43.43 0 0 0-.228.177c-.62.954-1.22 1.681-1.803 2.175a.395.395 0 0 0 .033.628c.46.312 1.024.621 1.686.93.256.12.315.457.112.653l-.292.28c-.161.155-.329.179-.465.108-.965-.506-1.744-1.019-2.35-1.559a.408.408 0 0 0-.41-.079c-.69.244-1.496.402-2.407.492a.407.407 0 0 1-.408-.23l-.149-.316a.404.404 0 0 1 .36-.572 7.972 7.972 0 0 0 1.524-.184.4.4 0 0 0 .256-.6 12.115 12.115 0 0 1-.893-1.84.4.4 0 0 1 .249-.524l.148-.05a.411.411 0 0 1 .51.234c.3.715.642 1.324 1.017 1.826a.407.407 0 0 0 .58.078l.003-.002c.397-.312.812-.78 1.244-1.411a.402.402 0 0 0-.25-.619l-2.87-.625a.403.403 0 0 1-.311-.48l.04-.185a.406.406 0 0 1 .486-.306l3.696.805zM64.988 8.606a.494.494 0 0 1-.595.38.496.496 0 0 1-.38-.594.5.5 0 0 1 .975.214"/>
        <path fill="#FFF" d="M64.988 8.606a.494.494 0 0 1-.595.38.497.497 0 0 1-.38-.594.5.5 0 0 1 .975.214M64.988 16.606a.494.494 0 0 1-.595.38.497.497 0 0 1-.38-.595.5.5 0 0 1 .975.215M10.67 56.142c-.002.09.005.202.017.337s.044.28.096.432c.051.152.127.304.226.454.099.15.234.285.406.406.172.12.387.22.645.3.26.079.573.121.942.127.356.004.676-.026.96-.093a1.83 1.83 0 0 0 .723-.336c.2-.157.353-.361.459-.613.106-.252.16-.563.164-.934l.014-1.349-4.639-.063-.014 1.332zm5.31.006c-.01.927-.252 1.637-.726 2.131-.474.493-1.192.734-2.152.72a4.809 4.809 0 0 1-1.334-.186 2.507 2.507 0 0 1-.974-.536 2.274 2.274 0 0 1-.598-.91c-.135-.368-.2-.801-.196-1.302L10.021 54l5.979.082-.02 2.066zM12.892 63.016c.126-.08.231-.181.315-.301a1.27 1.27 0 0 0 .188-.411c.04-.154.052-.319.033-.496a1.355 1.355 0 0 0-.136-.482 1.117 1.117 0 0 0-.272-.347 1.06 1.06 0 0 0-.368-.205 1.183 1.183 0 0 0-.427-.054l.26 2.462c.146-.03.282-.085.407-.166m-2.423.487c-.25-.293-.4-.683-.451-1.17a2.488 2.488 0 0 1 .053-.909c.072-.264.186-.493.345-.688.158-.194.355-.35.592-.467.236-.118.498-.2.786-.249.289-.038.559-.022.81.046a1.834 1.834 0 0 1 1.148.923c.124.233.201.496.232.789.04.382.004.707-.11.976a1.86 1.86 0 0 1-.469.675c-.2.18-.423.315-.672.406a2.74 2.74 0 0 1-.72.165l-.34-3.208a1.385 1.385 0 0 0-.466.127c-.145.07-.269.167-.372.292-.104.126-.18.279-.231.46a1.65 1.65 0 0 0-.04.618c.032.298.12.535.262.71a.859.859 0 0 0 .599.304l.073.696c-.437-.038-.78-.204-1.029-.496M14.498 68.861c.19-.105.35-.233.481-.387.132-.153.223-.331.274-.535a1.41 1.41 0 0 0-.01-.67 1.354 1.354 0 0 0-.304-.615 1.337 1.337 0 0 0-.495-.343 1.673 1.673 0 0 0-.609-.115 2.694 2.694 0 0 0-1.273.307c-.195.103-.36.231-.49.384a1.316 1.316 0 0 0-.277.54c-.054.208-.049.442.013.703.062.262.163.468.305.62.14.15.306.26.496.328s.396.1.62.098c.222-.002.445-.03.668-.083a2.36 2.36 0 0 0 .601-.232zm.974-3.104l-.617.146.004.018c.282.065.512.217.69.457.177.24.305.52.38.841.085.357.093.682.027.977-.067.294-.19.556-.368.783-.18.227-.402.42-.669.577a3.158 3.158 0 0 1-.885.35 3.27 3.27 0 0 1-.947.089 2.211 2.211 0 0 1-.847-.213 1.9 1.9 0 0 1-.663-.54 2.215 2.215 0 0 1-.402-.877 2.293 2.293 0 0 1-.038-.828c.02-.15.062-.295.124-.439a1.23 1.23 0 0 1 .266-.387l-.004-.018-2.344.555L9 66.491 15.292 65l.18.757z"/>
        <path fill="#FFF" d="M14.966 72.069a.94.94 0 0 1-.27-.296 5.527 5.527 0 0 1-.238-.424c-.077-.15-.157-.3-.24-.452a1.893 1.893 0 0 0-.275-.387.837.837 0 0 0-.346-.225c-.13-.044-.283-.033-.457.03a.59.59 0 0 0-.392.427.814.814 0 0 0-.012.299c.014.107.042.216.082.326.085.232.188.419.311.562.123.142.252.248.386.319.134.07.266.11.396.118.13.01.244-.004.342-.04l.713-.257zM13.2 74c-.115-.096-.212-.25-.29-.466a.649.649 0 0 1-.007-.49c.063-.143.21-.257.44-.341a1.782 1.782 0 0 1-.744-.493 2.371 2.371 0 0 1-.455-.776 2.377 2.377 0 0 1-.135-.574c-.02-.19-.006-.365.041-.525a1.05 1.05 0 0 1 .256-.435c.124-.13.293-.232.507-.31.241-.087.454-.117.638-.09.183.026.349.09.494.19.145.1.274.229.387.385.113.155.219.318.318.488.109.18.204.352.287.519.083.167.166.31.25.429.084.12.173.205.27.257.097.053.212.055.343.008a.741.741 0 0 0 .34-.221.634.634 0 0 0 .132-.301.987.987 0 0 0-.013-.342 2.535 2.535 0 0 0-.098-.344c-.108-.298-.255-.525-.44-.683-.184-.158-.437-.188-.755-.091l-.257-.704c.268-.084.51-.11.728-.076.217.034.411.113.585.238.172.124.322.284.45.478.126.194.233.413.322.655.07.193.126.39.168.59.042.2.05.393.02.578a1.041 1.041 0 0 1-.221.502c-.119.149-.302.268-.549.357l-2.185.792c-.164.06-.281.113-.35.16-.07.047-.085.126-.045.236.022.06.06.128.112.203L13.2 74zM18.22 73.738l-.828.467.006.019c.394.01.72.11.981.302.26.19.467.502.621.931l-.685.386a2.504 2.504 0 0 0-.418-.742 1.124 1.124 0 0 0-.52-.36 1.187 1.187 0 0 0-.613-.014 2.62 2.62 0 0 0-.71.288l-1.75.985-.304-.784L17.934 73l.287.738z"/>
        <path fill="#FFF" d="M20.286 76.973l-.55.294-.418-.736-2.348 1.258a.794.794 0 0 0-.165.112.2.2 0 0 0-.064.123.348.348 0 0 0 .032.165c.026.064.066.143.12.238l.16.279-.55.294-.264-.465a2.476 2.476 0 0 1-.196-.421.655.655 0 0 1-.034-.336.56.56 0 0 1 .162-.287c.088-.091.22-.184.396-.278l2.406-1.29-.358-.629.548-.294.358.629 1.134-.608.345.608-1.134.608.42.736zM21.084 78.584l-.54.398.01.015c.617-.025 1.111.228 1.486.759.165.233.267.48.306.74.04.26-.027.512-.2.757.288-.02.56.033.815.16.255.127.47.314.645.562.134.19.235.377.303.56.068.182.097.36.09.533a1.09 1.09 0 0 1-.15.499c-.092.16-.233.31-.422.449L20.737 86l-.44-.62 2.408-1.776c.114-.083.213-.171.299-.264a.815.815 0 0 0 .181-.3.68.68 0 0 0 .018-.351 1.105 1.105 0 0 0-.197-.416c-.216-.307-.471-.485-.765-.535-.294-.05-.584.03-.867.24l-2.287 1.685-.438-.62 2.407-1.775c.119-.087.22-.178.304-.273a.885.885 0 0 0 .18-.304.672.672 0 0 0 .018-.341 1.04 1.04 0 0 0-.185-.391 1.121 1.121 0 0 0-.434-.386 1.258 1.258 0 0 0-.476-.126 1.257 1.257 0 0 0-.738.194l-2.287 1.686-.438-.62L20.672 78l.412.584zM25.301 87.128a1.09 1.09 0 0 0-.235-1.207 1.134 1.134 0 0 0-.38-.264 1.068 1.068 0 0 0-.416-.083c-.14 0-.28.027-.415.08a1.342 1.342 0 0 0-.379.226l1.585 1.621c.103-.112.183-.237.24-.373m-1.709 1.856c-.367-.057-.707-.245-1.02-.566a2.029 2.029 0 0 1-.465-.691 1.59 1.59 0 0 1-.1-.712c.02-.239.095-.475.222-.706.128-.231.296-.454.504-.668.216-.206.445-.363.688-.469.242-.106.488-.164.735-.171a1.77 1.77 0 0 1 1.348.553c.245.25.397.51.455.775.057.265.054.525-.008.779-.063.254-.171.492-.323.712-.153.22-.32.409-.498.566l-2.065-2.112a1.55 1.55 0 0 0-.31.383 1.09 1.09 0 0 0-.142.442c-.014.155.008.313.067.475.06.162.163.319.313.472.192.197.396.313.61.351.213.039.433-.012.658-.15l.449.458c-.378.243-.751.336-1.118.279M28.224 88.455l-.43.566.013.011c.555-.231 1.08-.128 1.572.308.218.194.376.387.472.58.097.194.146.388.149.582.003.195-.038.388-.123.579a2.85 2.85 0 0 1-.346.575L27.75 94l-.545-.484 1.833-2.413c.168-.22.24-.448.22-.683-.023-.235-.139-.445-.349-.631a1.42 1.42 0 0 0-.495-.302.978.978 0 0 0-.485-.036 1.163 1.163 0 0 0-.453.193c-.143.1-.276.23-.398.39l-1.53 2.014-.547-.484L27.71 88l.514.455zM32.99 91.125l-.304.562-.62-.528-1.303 2.406a.933.933 0 0 0-.083.193.284.284 0 0 0 0 .154.39.39 0 0 0 .091.149c.047.05.11.109.19.177l.235.2-.305.562-.39-.332a2.434 2.434 0 0 1-.322-.323.815.815 0 0 1-.162-.319.814.814 0 0 1 .009-.365c.032-.134.095-.291.193-.47l1.336-2.467-.53-.451.305-.562.53.451.629-1.162.511.436-.63 1.161.62.528zM35.692 96.603c-.023.235-.01.45.038.643.047.195.125.367.233.517.108.15.238.27.39.358.153.088.312.135.477.142a.985.985 0 0 0 .482-.104c.156-.077.303-.199.442-.367.138-.169.259-.382.362-.642.104-.26.167-.507.19-.742.022-.235.01-.451-.037-.648a1.466 1.466 0 0 0-.231-.521 1.242 1.242 0 0 0-.391-.358 1.027 1.027 0 0 0-.477-.143.966.966 0 0 0-.483.11c-.157.079-.304.203-.443.37-.138.17-.26.383-.362.643-.104.259-.168.507-.19.742m.028-1.922c.183-.23.389-.403.618-.52a1.48 1.48 0 0 1 .738-.16c.264.01.537.096.82.259.286.165.514.368.682.608.17.24.288.504.355.79.068.288.084.59.049.905a3.6 3.6 0 0 1-.242.947 3.19 3.19 0 0 1-.461.815c-.182.227-.387.4-.615.516-.23.116-.474.169-.734.157-.26-.01-.534-.098-.821-.264a2.144 2.144 0 0 1-1.041-1.39 2.64 2.64 0 0 1-.05-.901c.033-.314.113-.628.239-.943a3.24 3.24 0 0 1 .463-.819M39.501 95.75l.181-.63.563.276.185-.646c.101-.352.257-.58.466-.685.21-.105.466-.083.767.065.052.026.11.06.173.104.064.044.119.09.164.138l-.178.62a.767.767 0 0 0-.142-.123 1.387 1.387 0 0 0-.152-.088c-.134-.066-.247-.083-.34-.052-.092.032-.166.142-.22.333l-.173.603.646.317-.18.628-.647-.316L39.55 100l-.55-.268 1.064-3.707-.563-.276zM46.397 101.193c.094.02.215.037.36.05a2.097 2.097 0 0 0 1.002-.165 1.63 1.63 0 0 0 .51-.355c.161-.161.31-.374.445-.637.134-.264.24-.595.319-.993.075-.385.105-.738.09-1.058a2.063 2.063 0 0 0-.213-.852 1.66 1.66 0 0 0-.559-.622c-.247-.167-.565-.29-.957-.371l-1.427-.293-.98 5.007 1.41.29zm1.048-5.744c.98.202 1.686.61 2.116 1.224.43.615.544 1.441.342 2.477a5.39 5.39 0 0 1-.46 1.405 2.736 2.736 0 0 1-.76.944 2.412 2.412 0 0 1-1.082.459c-.416.071-.889.052-1.417-.057L44 101.453 45.261 95l2.184.449zM55.189 99.283a1.059 1.059 0 0 0-.234-.359 1.228 1.228 0 0 0-.368-.253 1.361 1.361 0 0 0-.484-.115 1.397 1.397 0 0 0-.504.054 1.192 1.192 0 0 0-.4.21 1.17 1.17 0 0 0-.417.738l2.488.153c0-.148-.027-.29-.081-.428m-.014 2.462c-.34.196-.756.28-1.247.249a2.472 2.472 0 0 1-.889-.203 1.66 1.66 0 0 1-.951-1.112 2.698 2.698 0 0 1-.086-.814c.022-.29.093-.553.211-.788a1.916 1.916 0 0 1 1.146-.974c.256-.084.531-.117.828-.098.385.024.7.114.942.27.245.156.435.347.571.573.138.226.227.47.265.728.04.26.046.505.017.735l-3.242-.2c-.018.167-.006.327.032.48.039.153.11.291.212.414.104.122.24.223.407.303.168.08.37.127.603.141.302.019.553-.027.755-.138a.903.903 0 0 0 .424-.538l.703.043c-.127.423-.36.732-.7.929"/>
        <path fill="#FFF" d="M56.682 101.095a.638.638 0 0 0 .224.22c.09.054.192.09.305.11.112.02.227.029.345.023a1.92 1.92 0 0 0 .286-.034c.1-.019.19-.05.273-.093a.491.491 0 0 0 .272-.479c-.006-.162-.068-.283-.184-.363a1.392 1.392 0 0 0-.434-.186 6.617 6.617 0 0 0-.562-.117 2.685 2.685 0 0 1-.563-.155c-.173-.07-.32-.17-.439-.304-.119-.134-.183-.324-.192-.57a.985.985 0 0 1 .395-.852c.12-.091.26-.161.416-.21.154-.048.31-.076.464-.082.2-.009.385.002.555.032.17.03.321.088.454.174a.975.975 0 0 1 .325.358c.083.152.136.344.158.575l-.58.025a.605.605 0 0 0-.298-.492.83.83 0 0 0-.26-.097 1.205 1.205 0 0 0-.285-.022 1.578 1.578 0 0 0-.262.033.824.824 0 0 0-.24.089.496.496 0 0 0-.171.155.406.406 0 0 0-.06.244.367.367 0 0 0 .118.265.811.811 0 0 0 .276.167c.11.042.235.077.372.103.138.026.276.054.413.083.148.028.291.065.432.108.141.044.266.104.376.181.11.077.2.176.271.296.07.121.109.273.117.456a1.14 1.14 0 0 1-.111.583 1.094 1.094 0 0 1-.334.385c-.14.1-.3.172-.477.216-.179.044-.356.07-.534.078a2.28 2.28 0 0 1-.562-.044 1.316 1.316 0 0 1-.479-.199 1.08 1.08 0 0 1-.342-.386 1.469 1.469 0 0 1-.16-.598l.58-.024c.01.138.043.254.102.348M60.282 97.633L61 101.92l-1.01.08-.717-4.287 1.009-.08zm-1.139-.69L59 96.08l1.009-.08.144.862-1.01.08zM65.618 101.159c.13-.14.225-.306.287-.498.061-.192.096-.4.102-.626a3.486 3.486 0 0 0-.045-.66 3.01 3.01 0 0 0-.161-.588 1.74 1.74 0 0 0-.282-.488 1.007 1.007 0 0 0-.405-.3.875.875 0 0 0-.534-.023 1.04 1.04 0 0 0-.501.263c-.13.128-.228.28-.294.458a1.864 1.864 0 0 0-.112.586c-.008.214.006.431.043.652.035.21.088.415.158.616s.162.377.276.527c.114.15.25.26.407.332a.836.836 0 0 0 .551.033c.21-.05.38-.145.51-.284m1.165 1.893c-.227.445-.651.742-1.271.889-.18.043-.368.062-.563.059a1.48 1.48 0 0 1-.55-.113 1.208 1.208 0 0 1-.449-.33c-.13-.15-.22-.35-.272-.599l.638-.151a.598.598 0 0 0 .167.324c.084.08.179.137.286.174.109.037.221.055.34.055.12 0 .234-.013.338-.038.21-.05.38-.136.51-.257s.231-.269.301-.444c.069-.175.107-.375.113-.6a3.773 3.773 0 0 0-.055-.725l-.051-.305-.016.004a1.355 1.355 0 0 1-.392.75c-.2.188-.425.311-.675.37-.29.07-.553.067-.789-.008a1.535 1.535 0 0 1-.625-.379 2.172 2.172 0 0 1-.452-.667 3.555 3.555 0 0 1-.26-.876 4.276 4.276 0 0 1-.053-.869c.012-.304.068-.591.167-.861.102-.27.254-.508.458-.715.204-.207.474-.35.81-.43.244-.058.48-.047.707.033.227.08.419.235.577.465l.008-.002-.112-.664.6-.142.713 4.244c.128.76.078 1.362-.148 1.808M67.67 95.648l.225.657.017-.005c.125-.594.509-.99 1.152-1.189.285-.088.535-.123.751-.107.215.016.405.073.568.17.162.098.3.231.41.4.11.17.203.367.28.592L72 98.892l-.714.22-.954-2.806c-.087-.256-.234-.435-.442-.537-.207-.101-.448-.11-.722-.025a1.554 1.554 0 0 0-.533.271 1.07 1.07 0 0 0-.306.395c-.066.15-.099.313-.098.487 0 .175.033.355.096.542l.796 2.34-.713.221L67 95.855l.67-.207zM74.9 95.565a.999.999 0 1 1 0 0M76.397 92.453L76 91.856 80.219 89l.396.597-1.758 1.191L82 95.525l-.702.475-3.143-4.737zM83.8 90.73a.942.942 0 0 1-.174.346c-.089.12-.187.238-.294.357-.107.12-.212.242-.317.367a1.82 1.82 0 0 0-.25.38.876.876 0 0 0-.091.395.716.716 0 0 0 .164.416.521.521 0 0 0 .487.228.703.703 0 0 0 .262-.084 1.37 1.37 0 0 0 .256-.18 1.7 1.7 0 0 0 .391-.47c.086-.16.139-.313.159-.46.02-.147.014-.283-.017-.407a.846.846 0 0 0-.139-.307l-.438-.58zm2.2 1.028c-.048.138-.152.278-.314.42-.137.12-.277.173-.42.161-.144-.011-.286-.112-.428-.3-.003.315-.07.6-.201.85a2.29 2.29 0 0 1-.987.981 1.161 1.161 0 0 1-.465.129.902.902 0 0 1-.453-.1 1.237 1.237 0 0 1-.421-.373 1.37 1.37 0 0 1-.271-.565 1.222 1.222 0 0 1 .016-.52c.042-.168.115-.33.215-.484.1-.155.209-.305.325-.452a6.47 6.47 0 0 1 .362-.433c.118-.13.216-.253.293-.37a.825.825 0 0 0 .141-.334.418.418 0 0 0-.098-.321.685.685 0 0 0-.293-.245.534.534 0 0 0-.299-.028c-.1.02-.196.06-.291.121a2.291 2.291 0 0 0-.268.2 1.546 1.546 0 0 0-.456.628c-.08.223-.03.467.15.733l-.53.464a1.658 1.658 0 0 1-.285-.653 1.413 1.413 0 0 1 .028-.62c.056-.202.148-.392.277-.572.13-.18.285-.35.468-.51.146-.127.298-.242.458-.345.16-.103.325-.171.492-.204a.898.898 0 0 1 .5.047c.165.063.324.196.475.396l1.343 1.783c.1.134.182.226.244.276.061.05.134.038.218-.035a.908.908 0 0 0 .141-.168l.334.443zM84.782 86.24L88 89.491l-.556.508-3.218-3.252.556-.509zm-1.135-.078L83 85.508l.556-.508.647.654-.556.508zM92.458 85.882l-3.522-1.73-.012.014 2.264 3.191-.554.643L86 86.06l.566-.656 3.678 1.718.012-.014-2.348-3.263.56-.65 3.624 1.781.012-.014-2.275-3.347.528-.615L93 85.253z"/>
        <path fill="#FFF" d="M92.625 79.466c.007.12-.014.255-.065.405-.05.15-.11.302-.176.458-.067.155-.131.314-.195.475a2.064 2.064 0 0 0-.129.466.951.951 0 0 0 .027.424c.04.133.132.252.274.357.094.069.185.105.274.11a.504.504 0 0 0 .252-.053.728.728 0 0 0 .223-.175 1.965 1.965 0 0 0 .427-.871c.035-.19.042-.361.019-.514a1.11 1.11 0 0 0-.132-.4.837.837 0 0 0-.219-.256l-.58-.426zm2.375.256c-.006.154-.065.33-.178.527-.095.167-.212.27-.35.308-.14.038-.303-.012-.49-.15.085.315.103.62.051.916a2.625 2.625 0 0 1-.653 1.319c-.127.133-.261.23-.403.29a.852.852 0 0 1-.457.06 1.126 1.126 0 0 1-.505-.226 1.301 1.301 0 0 1-.417-.467 1.32 1.32 0 0 1-.134-.524 1.852 1.852 0 0 1 .065-.555c.052-.189.11-.377.179-.564.07-.2.142-.385.218-.556.075-.17.133-.328.173-.47a.936.936 0 0 0 .037-.382.421.421 0 0 0-.183-.286.635.635 0 0 0-.348-.142.513.513 0 0 0-.29.078.904.904 0 0 0-.242.221 2.664 2.664 0 0 0-.196.293c-.156.273-.24.535-.252.783-.012.25.105.476.35.678l-.367.645a1.595 1.595 0 0 1-.457-.55 1.51 1.51 0 0 1-.15-.627c-.006-.22.027-.441.098-.666.072-.224.17-.447.298-.67.1-.177.212-.345.334-.503.122-.158.258-.282.408-.373a.862.862 0 0 1 .486-.129c.174.006.361.082.562.23l1.78 1.305c.133.098.236.161.31.19.071.028.137-.009.195-.11.031-.056.06-.128.085-.217l.443.324zM93.327 76.324l.674.324.008-.016c-.37-.527-.399-1.094-.086-1.7.14-.27.294-.475.463-.618.17-.142.352-.236.546-.28.194-.046.397-.045.61.001.211.046.433.124.663.235L99 75.613l-.347.673-2.877-1.383c-.264-.126-.51-.153-.74-.079-.23.075-.411.24-.545.499a1.51 1.51 0 0 0-.178.582c-.011.181.017.352.086.51.069.158.17.301.307.428.135.128.3.239.49.33l2.402 1.154-.348.673L93 76.957l.327-.633zM93.688 71L93 70.798 94.47 66l.687.203-.612 2L100 69.807l-.244.798L94.3 69zM98.416 63.721c-.142.032-.27.09-.382.175-.113.085-.21.193-.292.325a1.29 1.29 0 0 0-.168.458c-.032.18-.033.348-.004.505a1.196 1.196 0 0 0 .455.746c.117.09.247.157.39.202l.433-2.426a1.134 1.134 0 0 0-.432.015m2.433.386c.156.364.191.786.105 1.266-.06.337-.16.619-.3.844a1.648 1.648 0 0 1-.518.532 1.608 1.608 0 0 1-.69.236 2.708 2.708 0 0 1-.815-.039 2.158 2.158 0 0 1-.756-.327 2.027 2.027 0 0 1-.834-1.276 2.19 2.19 0 0 1-.003-.83c.067-.375.192-.671.373-.887.183-.216.393-.375.632-.476.239-.1.49-.15.75-.15.261 0 .504.032.73.096l-.565 3.16c.163.044.323.058.479.042a.996.996 0 0 0 .433-.147c.132-.082.248-.2.345-.353.098-.154.168-.344.208-.573.053-.294.035-.55-.051-.765a.949.949 0 0 0-.485-.498l.123-.686c.403.189.683.466.839.83M97.821 60.031c-.146.166-.23.398-.255.7-.019.257.006.476.076.658.07.181.171.331.3.448.13.118.283.208.46.271.175.064.36.105.551.125a1.9 1.9 0 0 0 .522-.019c.17-.03.325-.09.463-.176.138-.087.252-.207.344-.362a1.29 1.29 0 0 0 .162-.565c.027-.352-.033-.635-.18-.85-.147-.215-.367-.36-.658-.435l.056-.729c.466.127.815.364 1.046.711.23.348.325.797.282 1.35-.025.33-.094.617-.207.86a1.658 1.658 0 0 1-.447.597c-.185.152-.4.26-.646.322-.244.062-.51.078-.795.05a2.538 2.538 0 0 1-.79-.209 1.852 1.852 0 0 1-.62-.447c-.171-.19-.3-.418-.386-.685a2.375 2.375 0 0 1-.09-.913 2.92 2.92 0 0 1 .13-.683c.069-.21.163-.391.284-.545.122-.153.268-.275.44-.364.174-.09.374-.136.602-.141l-.056.737a.911.911 0 0 0-.588.294"/>
        <g transform="translate(95 54)">
            <mask id="d" fill="#fff">
                <use xlink:href="#c"/>
            </mask>
            <path fill="#FFF" d="M.362 3.11l2.502-.048v-.015a1.078 1.078 0 0 1-.379-.207 1.26 1.26 0 0 1-.257-.307 1.553 1.553 0 0 1-.21-.72 1.461 1.461 0 0 1 .107-.655C2.205.983 2.32.84 2.47.73c.15-.11.329-.189.539-.237a3.49 3.49 0 0 1 .699-.078l3.117-.06.02.652-3.208.061c-.294.006-.524.082-.69.228-.167.147-.246.345-.238.596.006.199.048.37.126.515.078.144.186.264.324.358.137.095.297.165.479.21.18.045.38.065.593.061l2.677-.051.02.652-6.545.125-.02-.652z" mask="url(#d)"/>
        </g>
        <path fill="#FFF" d="M19.818 31.546c-.066-.034-.09-.085-.09-.085l-1.36 2.27a.304.304 0 0 0-.037.215c.055.278.431.335.571.088.518-.914.996-1.786 1.426-2.627-.118.044-.233.09-.348.136-.076.03-.11.03-.162.003m-2.836-2.4l-2.718 4.533a.2.2 0 0 0 .072.276.205.205 0 0 0 .279-.07l2.717-4.533a.2.2 0 0 0-.072-.275.205.205 0 0 0-.278.07m.406-1.339l.847.497c.23.135.308.433.171.661L14.79 35a.483.483 0 0 1-.655.166l-.763-.448a.485.485 0 0 1-.172-.666l3.658-6.103a.397.397 0 0 1 .531-.14m3.032 1.59l.14.082a.302.302 0 0 1 .107.416l-.062.104c-.097.161.061.354.24.292.301-.103.613-.195.932-.278a.306.306 0 0 1 .383.277l.021.367a.308.308 0 0 1-.25.317c-.15.029-.3.061-.445.092a.305.305 0 0 0-.21.159l-1.013 1.968a.302.302 0 0 0 .117.4l.033.019a.31.31 0 0 0 .42-.107l1.718-2.864a.309.309 0 0 1 .42-.106l.14.082a.302.302 0 0 1 .108.416l-1.744 2.91c-.057.095-.042.267.08.339l.032.02c.096.056.259.018.33-.1l2.29-3.822a.31.31 0 0 1 .422-.107l.22.129a.302.302 0 0 1 .108.417l-5.392 8.993a.389.389 0 0 1-.529.134l-.081-.048a.384.384 0 0 1-.137-.529l2.248-3.75a.254.254 0 0 0-.09-.348.258.258 0 0 0-.351.09l-1.652 2.755c-.087.145-.294.276-.531.137l-.028-.016c-.201-.118-.197-.369-.11-.513l1.662-2.772c.057-.096.053-.302-.163-.38a.29.29 0 0 0-.314.131l-1.225 2.382c-.02.041-.052.09-.052.09-.082.163-.295.31-.513.225l-.21-.108a.392.392 0 0 1-.16-.55c.192-.321.331-.558.51-.87a.301.301 0 0 0 .033-.207l-.008-.049c-.053-.275-.423-.34-.567-.099l-.581.97a.387.387 0 0 1-.526.132l-.009-.005a.376.376 0 0 1-.134-.52L20 29.506a.31.31 0 0 1 .421-.106m-8.125.78l-.147-.086a.377.377 0 0 1-.137-.52l.194-.325c.107-.153.303-.264.528-.132.045.026.11.056.11.056l.216.127 2.443-4.075c.057-.096.26-.323.511-.176l.056.033c.299.175.233.417.143.568l-2.335 3.896a.2.2 0 0 0 .07.276l.139.08a.205.205 0 0 0 .279-.07l2.084-3.475c.056-.095.26-.26.497-.152l.032.018c.262.154.2.396.127.52l-4.72 7.873c-.155.258-.427.195-.524.139a.38.38 0 0 1-.134-.523l1.841-3.071a.2.2 0 0 0-.072-.276l-.137-.08a.204.204 0 0 0-.279.07l-2.303 3.842c-.058.096-.278.32-.57.149a.403.403 0 0 1-.147-.564l2.306-3.846a.2.2 0 0 0-.071-.275m7.94-2.718l.974.572a.384.384 0 0 1 .137.527l-.185.308a.42.42 0 0 1-.57.145l-.306-.179a.31.31 0 0 0-.422.106l-4.42 7.372a.302.302 0 0 0 .109.417l.312.184a.402.402 0 0 1 .143.552l-.189.315c-.137.229-.389.221-.559.122l-.864-.507a.48.48 0 0 1-.17-.662l5.478-9.138a.39.39 0 0 1 .532-.134"/>
    </g>
</svg>
