<svg xmlns="http://www.w3.org/2000/svg" xmlns:xlink="http://www.w3.org/1999/xlink" width="368" height="80" viewBox="0 0 368 80">
    <defs>
        <path id="a" d="M.454.43h42.678v47.258H.454z"/>
        <path id="c" d="M.234.281h19.188v23.613H.234z"/>
    </defs>
    <g fill="none" fill-rule="evenodd">
        <path d="M0 0h368v80H0z" opacity=".409"/>
        <g transform="translate(58.818 18.205)">
            <mask id="b" fill="#fff">
                <use xlink:href="#a"/>
            </mask>
            <path fill="#FFF" d="M16.597 47.685c-3.19.054-6.22-.645-9.219-1.658-1.23-.416-1.247-.956-.74-1.947.61-1.192 1.195-2.412 1.637-3.673.417-1.19.948-1.28 2.105-.869 8.4 2.982 15.939 1.414 22.287-4.827 7.434-7.307 8.053-19.036 1.724-27.32-.772-1.012-1.207-1.039-2.145-.195-2.052 1.846-2.057 1.753-.65 4.027 3.736 6.033 3.906 12.242.171 18.242-3.627 5.824-9.131 8.39-15.996 7.84-.552-.044-1.82.456-1.503-1.053.215-1.017-.095-2.144 1.783-2.07 7.814.31 13.897-5.682 13.727-13.3-.17-7.56-6.625-13.215-14.414-12.626C8.4 8.782 2.892 15.54 3.799 22.574c.23 1.785-1.1 1.246-1.884 1.544-1.338.507-1.16-.652-1.264-1.29-1.386-8.514 4.728-17.25 13.203-18.92 4.485-.884 8.715-.225 12.562 2.269 1.03.668 1.493.446 2.111-.45C29.642 4.116 30.9 2.603 32.02.995c.52-.747.865-.7 1.543-.171 11.601 9.048 12.866 27.663 2.629 38.347-5.362 5.596-11.858 8.458-19.595 8.514" mask="url(#b)"/>
        </g>
        <path fill="#FFF" d="M131.268 36.576c1.682 0 3.365.028 5.047-.012.817-.02 1.22.077 1.018 1.094-1.018 5.16-1.974 10.333-2.923 15.508-.118.648-.43.983-1.032 1.146-4.789 1.298-9.61 2.233-14.586 1.206-7.67-1.584-11.759-7.297-10.812-15.081 1.218-10.034 8.46-16.746 18.708-17.307 3.255-.18 6.493-.093 9.696.655 1.307.306 2.005.666 1.252 2.195-.638 1.296-1.027 2.722-1.445 4.116-.276.925-.602 1.203-1.655.878-3.321-1.027-6.688-1.191-10.096-.238-6.527 1.823-8.508 9.707-7.023 13.968 1.158 3.324 6.029 5.412 9.253 3.996.505-.222.61-.582.692-1.039.197-1.102.386-2.208.638-3.298.24-1.039-.082-1.381-1.172-1.359-2.987.06-2.988.017-2.4-2.884.72-3.544.72-3.544 4.316-3.544h2.524zM75.716 35.183c-2.523-.026-4.53 1.891-4.564 4.358-.034 2.513 1.89 4.462 4.429 4.489 2.55.027 4.55-1.867 4.598-4.353.047-2.431-1.975-4.468-4.463-4.494m-.453-22.174c3.712-.057 6.913.647 10.032 1.84.897.343 1.235.645.78 1.688-1.084 2.484-1.018 2.513-3.579 1.738-12.28-3.715-25.135 4.814-26.578 17.576-.595 5.254.69 9.971 3.586 14.335.618.93 1.057 1.047 1.923.268 2.001-1.798 4.057-3.538 6.163-5.211.87-.692.923-1.242.463-2.233-1.448-3.122-.714-6.724 1.71-9.153 2.388-2.392 6.039-3.08 9.172-1.729 3.037 1.31 5.006 4.385 4.958 7.741-.089 6.116-6.618 10.043-12.058 7.18-.996-.524-1.41-.5-2.093.432-2.948 4.022-6.033 7.945-8.992 11.961-.72.978-1.178 1.227-2.181.329-8.287-7.416-11.42-16.612-8.498-27.296 2.921-10.678 10.285-17.023 21.2-19.152 1.44-.281 2.89-.35 3.992-.314M147.643 46.432c.177 1.3.26 2.727 1.817 3.1 1.403.335 2.322-.608 2.969-1.704.48-.809.89-1.695 1.133-2.6.45-1.67.762-3.377 1.112-5.072.377-1.827-.093-2.248-1.933-1.735a4.889 4.889 0 0 0-2.03 1.141c-2.002 1.857-2.819 4.241-3.068 6.87m5.918 5.37c-1.49 2.065-3.009 3.427-5.122 3.946-4.797 1.174-8.762-1.984-8.96-7.079-.357-9.211 5.743-17.023 17.852-16.289 1.671.101 3.323.422 4.976.726 1.355.248 1.575.82 1.319 2.049a455.402 455.402 0 0 0-2.377 12.19c-.406 2.258-.636 4.551-.54 6.852.039.922-.202 1.304-1.198 1.253a48.295 48.295 0 0 0-4.705-.001c-1.092.052-1.563-.206-1.269-1.397.14-.571.024-1.206.024-2.25M287.861 44.647c1.386-3.547 2.83-7.045 4.104-10.605.473-1.322 1.103-1.84 2.523-1.736 1.841.134 3.7.064 5.55.02.862-.02.941.312.65.993-4.042 9.45-8.238 18.804-15.847 26.088-2.492 2.386-5.287 4.32-8.422 5.763-.935.43-1.514.378-1.334-.87a.61.61 0 0 0 0-.168c-.433-3.173-.022-5.968 3.28-7.525.337-.159.583-.517.862-.79 2.19-2.148 3.076-4.413 2.008-7.647-1.575-4.772-2.533-9.747-3.838-14.613-.285-1.062-.01-1.257.965-1.233 1.962.05 3.927.051 5.889-.001.934-.025 1.233.344 1.368 1.243.497 3.322 1.088 6.63 1.643 9.943.063.373-.025.805.6 1.138M267.12 41.766c.035-1.581-.11-3.084-1.907-3.693-1.41-.477-2.949.35-3.953 2.108-1.047 1.833-1.53 3.834-1.528 5.93.002 1.46.36 2.81 1.983 3.325 1.601.51 2.723-.31 3.577-1.506 1.306-1.83 1.746-3.954 1.829-6.164m-15.544 4.25c.002-9.08 7.407-15.371 16.273-13.827 4.03.702 6.828 3.592 7.397 7.638 1.355 9.65-6.937 17.478-16.44 15.522-4.59-.945-7.232-4.354-7.23-9.334"/>
        <path fill="#FFF" d="M245.693 25.606c3.362 0 6.726.054 10.086-.026 1.388-.033 2.202.127 1.55 1.772-.161.41-.175.876-.262 1.315-.694 3.486-.694 3.486-4.17 3.486-1.176 0-2.358.068-3.529-.02-1.026-.076-1.352.347-1.461 1.307-.778 6.897-1.624 13.787-2.38 20.686-.124 1.136-.365 1.698-1.676 1.623a51.931 51.931 0 0 0-6.217 0c-1.453.09-1.484-.433-1.212-1.619 1.55-6.761 2.992-13.548 4.562-20.305.313-1.352.103-1.771-1.33-1.7-2.181.108-4.371.005-6.556.04-.804.012-1.117-.176-.9-1.054.344-1.411.663-2.838.84-4.276.128-1.042.626-1.254 1.56-1.244 3.698.038 7.396.015 11.095.015M172.278 34.606c4.104 0 4.097-.001 3.332 3.998a415.332 415.332 0 0 0-1.28 6.933c-.241 1.386-.21 2.759 1.27 3.476 1.095.53 2.586-.271 3.482-1.7.707-1.124.834-2.425 1.091-3.677.505-2.465.973-4.939 1.414-7.416.197-1.101.529-1.78 1.901-1.651 1.667.155 3.36.07 5.04.024.86-.023 1.267.2 1.066 1.14-.813 3.829-1.151 7.762-2.33 11.506-2.307 7.332-7.78 9.465-14.401 8.346-4.873-.823-7.283-5.112-6.298-10.514.541-2.972 1.092-5.942 1.581-8.923.177-1.074.48-1.769 1.782-1.564.766.12 1.566.022 2.35.022"/>
        <g transform="translate(299.364 31.53)">
            <mask id="d" fill="#fff">
                <use xlink:href="#c"/>
            </mask>
            <path fill="#FFF" d="M13.47.283c1.688-.004 3.346.174 4.97.683.83.26 1.226.543.822 1.52-.532 1.288-.563 2.927-1.404 3.903-.964 1.117-2.353-.454-3.629-.323-.883.09-1.798-.155-2.66.197-1.111.457-1.293 1.328-.31 2.012 1.002.699 2.15 1.186 3.228 1.777 2.436 1.334 4.308 3.028 4.087 6.152-.219 3.124-1.856 5.228-4.654 6.419-4.175 1.775-8.39 1.592-12.606.064-.958-.347-1.34-.808-.895-1.862.54-1.284.574-3.064 1.493-3.828.951-.791 2.39.641 3.69.813 1.107.145 2.207.473 3.33.256.599-.115 1.25-.309 1.418-1.017.17-.713-.298-1.178-.838-1.503-.715-.43-1.491-.761-2.22-1.172-2.515-1.417-4.808-3.01-4.614-6.382.199-3.43 2.177-5.503 5.206-6.758C9.673.494 11.55.259 13.47.283" mask="url(#d)"/>
        </g>
        <path fill="#FFF" d="M203.62 32.21a15.32 15.32 0 0 1 5.127.665c.818.246 1.238.547.82 1.535-.543 1.281-.56 2.955-1.421 3.888-1.01 1.095-2.462-.444-3.798-.347-1.198.087-2.81-.392-3.242 1.003-.453 1.467 1.288 1.665 2.208 2.252.752.479 1.606.793 2.358 1.272 4.165 2.653 4.38 8.281.264 11.04-4.626 3.1-9.614 2.789-14.631.938-.69-.255-.933-.668-.656-1.419.503-1.362.566-3.125 1.49-4.03 1.043-1.026 2.432.603 3.762.72 1.22.107 2.423.546 3.652.168 1.311-.404 1.506-1.283.516-2.22-.663-.628-1.524-.92-2.318-1.33-2.761-1.43-5.09-3.19-4.74-6.78.341-3.503 2.545-5.47 5.651-6.603 1.641-.6 3.357-.873 4.957-.751M224.107 32.16c1.58-.07 3.123.16 4.655.545 1.06.268 1.538.703 1.025 1.887-.51 1.177-.52 2.698-1.295 3.597-.968 1.12-2.306-.355-3.532-.258-.834.066-1.686-.025-2.51.09-.534.074-1.102.321-1.185 1.016-.07.598.314.956.753 1.21.92.53 1.874 1 2.81 1.503 2.425 1.3 4.508 2.91 4.379 6.005-.137 3.288-1.838 5.587-4.888 6.809-4.15 1.662-8.313 1.469-12.461-.056-.882-.324-1.256-.795-.848-1.78.534-1.288.598-3.031 1.514-3.83.98-.853 2.382.63 3.678.751 1.216.115 2.41.6 3.654.17 1.3-.449 1.504-1.308.5-2.232-.672-.618-1.535-.908-2.336-1.307-3.567-1.775-5.13-4.028-4.734-6.971.393-2.923 2.128-4.87 4.755-6.059 1.923-.87 3.96-1.192 6.066-1.09M186.12 32.55c-1.224-.063-2.89.33-3.55-.312-.726-.704.188-2.27.376-3.457.464-2.933.496-2.927 3.472-2.927 1.345 0 2.69.03 4.033-.01.792-.023.982.33.836 1.025-.333 1.587-.695 3.169-.972 4.765-.127.741-.533.876-1.169.862-1.007-.025-2.016-.007-3.024-.007l-.002.061M172.754 32.49c-3.98 0-3.98 0-3.225-3.857.545-2.78.545-2.78 3.433-2.78 1.287.001 2.575.047 3.859-.014.92-.045 1.235.28 1.015 1.167-.12.487-.22.98-.311 1.474-.74 4.01-.739 4.01-4.771 4.01"/>
    </g>
</svg>
