<svg xmlns="http://www.w3.org/2000/svg" xmlns:xlink="http://www.w3.org/1999/xlink" width="368" height="80" viewBox="0 0 368 80">
    <defs>
        <path id="a" d="M0 .13h37.47v58.958H0z"/>
        <path id="c" d="M.21.2h33.258v59.336H.21z"/>
    </defs>
    <g fill="none" fill-rule="evenodd">
        <path d="M0 0h368v80H0z" opacity=".409"/>
        <path fill="#FFF" d="M177.388 31.134c0 3.85.026 7.7-.02 11.55-.01.9.254 1.163 1.154 1.157 5.507-.038 11.014.013 16.52-.032 3.319-.027 4.533-1.317 4.544-4.689.016-5.312.017-10.624 0-15.936-.012-3.417-1.136-4.597-4.556-4.627-5.457-.048-10.916.012-16.374-.036-1.064-.01-1.3.377-1.287 1.356.047 3.752.019 7.505.019 11.257zm-7.61 7.71c0-8.874.022-17.75-.027-26.623-.007-1.17.329-1.463 1.472-1.456 7.8.049 15.603.056 23.404.014 4.182-.023 7.743 1.194 10.4 4.6 1.443 1.85 2.137 3.944 2.154 6.234.047 6.24.09 12.482-.004 18.721-.095 6.271-4.95 11.024-11.235 11.085-5.705.055-11.41.042-17.115-.014-1.135-.01-1.488.271-1.468 1.446.073 4.339.033 8.68.027 13.019-.003 2.713-1.173 3.936-3.738 3.93-2.564-.006-3.85-1.243-3.859-3.895-.029-8.435-.01-16.87-.011-25.306v-1.755z"/>
        <g transform="translate(127 10.678)">
            <mask id="b" fill="#fff">
                <use xlink:href="#a"/>
            </mask>
            <path fill="#FFF" d="M.005 29.544c0-8.341-.003-16.682.001-25.023C.008 1.01 1.71-.385 5.11.32 6.61.63 7.464 1.548 7.59 3.149c.09 1.115.062 2.242.063 3.363.004 8.536.035 17.073-.032 25.609-.01 1.325.373 1.61 1.635 1.596a918.158 918.158 0 0 1 18.877-.001c1.296.013 1.728-.268 1.717-1.661-.07-8.926-.035-17.853-.035-26.78 0-.439-.006-.878.008-1.316.087-2.619 1.275-3.827 3.76-3.83 2.578-.003 3.873 1.243 3.875 3.872.015 17.073.015 34.145 0 51.218-.003 2.68-1.243 3.88-3.844 3.868-2.576-.01-3.75-1.121-3.78-3.759-.047-4.194-.065-8.39.011-12.584.022-1.201-.376-1.438-1.485-1.43-6.39.05-12.78.074-19.169-.015-1.384-.019-1.583.448-1.562 1.657.07 3.999-.044 8 .045 11.998.092 4.22-2.91 4.543-5.608 3.848-1.599-.411-2.04-1.846-2.052-3.357-.026-3.024-.01-6.048-.01-9.072V29.544" mask="url(#b)"/>
        </g>
        <g transform="translate(207.78 10.093)">
            <mask id="d" fill="#fff">
                <use xlink:href="#c"/>
            </mask>
            <path fill="#FFF" d="M16.853 37.476c-2.451 5.174-4.817 10.177-7.192 15.175-.794 1.67-1.529 3.375-2.447 4.974-.954 1.663-2.679 2.246-4.39 1.708C.482 58.6-.429 56.454.68 54.052c2.222-4.816 4.5-9.606 6.753-14.408 1.55-3.304 3.064-6.626 4.67-9.903.476-.97.469-1.744 0-2.725C8.745 19.991 5.447 12.937 2.14 5.889c-.7-1.493-.969-2.983.264-4.36C3.53.27 4.945-.054 6.528.387 7.864.759 8.556 1.82 9.114 2.998c2.31 4.883 4.626 9.763 6.942 14.643.23.483.471.959.809 1.645 1.256-2.633 2.445-5.11 3.62-7.592 1.376-2.902 2.738-5.81 4.112-8.714.555-1.173 1.251-2.236 2.595-2.6 1.586-.43 3.013-.104 4.131 1.141 1.075 1.198 1.06 2.581.425 3.96-1.364 2.961-2.776 5.9-4.162 8.85-2.03 4.316-4.032 8.645-6.097 12.945-.376.783-.364 1.409 0 2.18 3.807 8.05 7.583 16.115 11.367 24.177 1.302 2.777.484 5.053-2.062 5.75-1.95.533-3.671-.327-4.715-2.49-2.178-4.514-4.303-9.054-6.45-13.583-.896-1.888-1.795-3.773-2.776-5.834" mask="url(#d)"/>
        </g>
    </g>
</svg>
