<svg xmlns="http://www.w3.org/2000/svg" xmlns:xlink="http://www.w3.org/1999/xlink" width="356" height="110" viewBox="0 0 356 110">
    <defs>
        <path id="a" d="M.064 0H30.6v18.922H.064z"/>
        <path id="c" d="M0 55h340V0H0z"/>
    </defs>
    <g fill="none" fill-rule="evenodd" transform="translate(8 24)">
        <path fill="#FFF" d="M6.784 43h30.438c.516 0 .891-.513.747-1.03l-4.832-17.382a.783.783 0 0 0-.75-.588H16.113a.767.767 0 0 0-.682.42L6.1 41.803c-.294.537.088 1.196.683 1.196M27.412 5.57L30.97 18a.786.786 0 0 1-.753 1H19.785a.784.784 0 0 1-.684-1.166l6.87-12.427a.784.784 0 0 1 1.44.163M39.032 25.028l4.788 17.388c.097.34.397.584.745.584h15.658c.654 0 1.014-.79.601-1.318L47.282 24.298a.766.766 0 0 0-.6-.298h-6.91c-.514 0-.886.51-.74 1.028M62 31.256v-6.514c0-.408-.347-.742-.77-.742h-5.46c-.646 0-1.005.731-.597 1.21l5.459 6.51c.456.55 1.368.234 1.368-.464"/>
        <g transform="translate(32)">
            <mask id="b" fill="#fff">
                <use xlink:href="#a"/>
            </mask>
            <path fill="#FFF" d="M29.799 0H.866a.81.81 0 0 0-.773 1.027l4.94 17.32a.795.795 0 0 0 .764.575h24.002a.8.8 0 0 0 .8-.799V.805A.802.802 0 0 0 29.8 0" mask="url(#b)"/>
        </g>
        <mask id="d" fill="#fff">
            <use xlink:href="#c"/>
        </mask>
        <path fill="#FFF" d="M1.707 52.442h5.579v-.873H1.707v.873zM6.921 47H3.206c-.608 0-1.1.21-1.485.639 0 .003 0 .006-.004.006-.36.395-.042 1.006.505 1.006l4.699-.026c.24 0 .365.177.365.53v.78h-5.62c-1.12.027-1.679.558-1.666 1.583v.975c0 1 .572 1.495 1.707 1.507l5.65-.013c1.097 0 1.643-.49 1.643-1.451v-3.38c0-.588-.193-1.093-.583-1.517C8.035 47.21 7.532 47 6.921 47zM14.278 52.349H12.43c-.454 0-.681-.198-.681-.593v-3.462c0-.662-.305-1.086-.915-1.266-.417-.126-.834.192-.834.6v4.128c0 .64.235 1.18.706 1.607.477.42 1.049.637 1.724.637h2.905c.468 0 .804-.462.608-.865-.265-.52-.818-.786-1.665-.786M21.282 52.349h-1.854c-.455 0-.676-.198-.676-.593v-3.462c0-.662-.307-1.086-.92-1.266-.411-.126-.832.192-.832.6v4.128c0 .64.24 1.18.709 1.607.473.42 1.044.637 1.719.637h2.903c.47 0 .812-.462.61-.865-.262-.52-.815-.786-1.66-.786M26.991 47.81c-.12-1.161-1.991-1.037-1.991.136v5.029c0 .074 0 .145.01.215.113 1.162 1.99 1.035 1.99-.134v-5.03c0-.078-.007-.15-.009-.215M35.283 52.442h-5.566c-.004 0-.008-.003-.008-.01v-.857c0-.006.004-.006.008-.006h5.566c.003 0 .007 0 .007.006v.856c0 .008-.004.01-.007.01M34.917 47h-3.709c-.607 0-1.104.21-1.484.638-.364.396-.066 1.013.489 1.013l4.704-.027c.245 0 .373.178.373.531v.777c0 .004-.004.01-.007.01h-5.615c-1.121.02-1.676.55-1.668 1.576v.975c0 1 .572 1.495 1.71 1.507l5.653-.013c1.089 0 1.637-.49 1.637-1.452v-3.38c0-.587-.193-1.093-.574-1.517-.39-.428-.891-.638-1.51-.638M43.255 48.284v3.42l-4.001-4.251c-.427-.445-1.141-.603-1.683-.278-.38.223-.571.598-.571 1.122v5.064c0 .415.428.74.842.61.605-.19.907-.623.907-1.298v-3.422l3.998 4.292c.427.449 1.142.602 1.684.284.379-.227.569-.598.569-1.122v-5.07a.649.649 0 0 0-.837-.606c-.607.182-.908.599-.908 1.255M51.449 52.371h-2.97c-.471 0-.71-.195-.71-.582v-2.57c0-.392.239-.583.71-.583h2.943v.025h.838c.63 0 1.142-.213 1.535-.634.005-.01.008-.014.013-.014.366-.384.04-.997-.515-1.001L48.479 47c-.689 0-1.276.213-1.754.633A2.022 2.022 0 0 0 46 49.22v2.57c0 .627.24 1.156.725 1.58.478.424 1.065.63 1.754.63l2.97-.013V54h.845c.625 0 1.14-.208 1.532-.634l.011-.01c.371-.397.067-1.011-.5-1.008l-1.888.005v.018z" mask="url(#d)"/>
        <path fill="#FFF" d="M55.608 52.367v-1.058h.4l2.893-.015c.573.028 1.035-.167 1.394-.595l.012-.018c.336-.396.036-1.007-.472-1.007h-4.227v-1.047h3.078c.63.022.993.022 1.103 0h.09l.014-.008c.378-.092.692-.293.953-.604l.014-.011c.333-.391.033-1.004-.479-1.004h-4.817C54.521 47 54 47.548 54 48.645v3.722c0 .899.717 1.633 1.608 1.633h3.82c.57 0 1.033-.218 1.393-.641 0 0 0-.006.006-.01.338-.388.034-1.008-.476-1.008l-1.692.013-3.051.013zM82.849 39.274a50.938 50.938 0 0 1 3.133 1.647l-.843 1.042a37.293 37.293 0 0 0-3.004-1.72l.714-.97zm-.788-1.171h1.96v-.97h-1.96v.97zm0-1.904h1.96v-.952h-1.96v.952zm-2.088-5.324h2.693v-.824h-2.693v.824zm-1.227 7.228h1.85v-.97h-1.85v.97zm0-1.904h1.85v-.951h-1.85v.951zm-1.32 2.928h7.933v-4.904h-7.932v4.904zm1.137-7.265v-1.811H77.28v-1.007h1.283v-.933h1.41v.933h2.693v-.933h1.465v.933h1.448v1.007H84.13v1.811h-5.568zm2.088 8.382c-1.099.585-2.473 1.225-3.444 1.682-.183-.31-.513-.768-.751-1.079.897-.402 2.253-1.08 3.023-1.555l1.172.952zM86 32.466v1.172h-9.141c-.037 2.671-.367 6.13-2.107 8.362-.238-.31-.843-.842-1.172-1.025 1.648-2.16 1.795-5.27 1.795-7.758v-6.77h4.873a14.141 14.141 0 0 0-.421-1.063L81.439 25c.238.44.458 1.007.622 1.446h3.774v1.262h-8.976v4.758H86zM73.049 35.01v4.85c0 .877-.184 1.353-.642 1.61-.513.292-1.227.347-2.345.347-.055-.439-.256-1.189-.494-1.647.696.018 1.374.018 1.576.018.22 0 .31-.073.31-.328v-4.32l-2.088.66L69 34.551c.678-.183 1.52-.44 2.455-.695v-3.605h-2.217v-1.574h2.217v-3.55h1.594v3.55h1.776v1.574H73.05v3.11l1.593-.475.201 1.555-1.794.568zM101.931 31.911c.442-.683 1.013-1.829 1.27-2.587l1.105.388a39.646 39.646 0 0 1-1.528 2.569l-.847-.37zm-.24.814h2.854V28.88h-2.854v3.845zm-3.11 7.095h4.97v-1.146h-4.97v1.146zm0-2.384h4.97v-1.274h-4.97v1.274zm.238-8.13c.516.776 1.031 1.847 1.197 2.55l-.995.406c-.128-.72-.625-1.81-1.123-2.624l.921-.332zm-1.326 3.419h2.891V28.88h-2.89v3.845zm-.46 2.143h8.139V42h-1.62v-.887H98.58V42h-1.547v-7.132zm8.967-7.17v6.209h-9.887v-6.209h2.375a13.476 13.476 0 0 0-1.215-2.033l1.454-.61c.516.63 1.068 1.497 1.326 2.07l-1.197.573h3.094c.496-.757 1.122-1.885 1.435-2.698l1.768.592c-.497.72-.994 1.496-1.473 2.106H106zM95.395 36.05l.294 1.516a255.63 255.63 0 0 1-5.137 2.087l-.552-1.7c.608-.184 1.307-.443 2.099-.72V31.08h-1.842v-1.59H92.1v-4.213h1.565v4.213h1.767v1.59h-1.767v5.599l1.73-.63zM121.568 29.685h-2.83l-.07.695h2.847l.053-.695zm-.196 2.397l.072-.787h-2.865c-.036.275-.072.53-.09.787h2.883zm-6.869-2.397l-.09.695h2.884l.054-.695h-2.848zm-.303 2.397h2.901c.036-.256.072-.512.089-.787h-2.9l-.09.787zm-.249 6.423h8.08v-.732h-8.08v.732zm0-1.629h8.08v-.713h-8.08v.713zm0-1.592h8.08v-.695h-8.08v.695zm-1.904-5.6h-1.496v-3.018h6.657a13.22 13.22 0 0 0-.659-1.245l1.424-.421c.374.476.73 1.135.962 1.666h6.496v3.019h-1.567v-1.666h-11.817v1.666zm8.507 9.754a69.898 69.898 0 0 1 4.877 1.482L124.31 42c-1.247-.494-3.347-1.208-5.375-1.775l.693-.787h-3.612l1.05.732c-1.46.805-3.88 1.5-5.874 1.811a11.913 11.913 0 0 0-.89-1.17c1.727-.24 3.862-.824 5.09-1.373h-3.043v-5.782h11.355v5.782h-3.15zM126 30.215v1.244h-3.061l-.142 1.537h-10.18l.195-1.537H110v-1.244h2.972l.178-1.463h10.038l-.142 1.463H126zM137.592 36.09h5.334v-1.025h-5.334v1.024zm0-2.087h5.334v-.97h-5.334v.97zm7.445-6.24h-9.296v-1.41h3.814c-.13-.365-.259-.73-.407-1.042L140.74 25c.223.42.445.915.593 1.354h3.704v1.41zm.481 3.349h-10.314v-1.427h2.444a18.1 18.1 0 0 0-.5-1.52l1.389-.31c.259.549.518 1.262.63 1.738l-.352.092h2.61c.223-.568.52-1.263.667-1.794l1.574.311c-.259.513-.481 1.025-.722 1.483h2.574v1.427zm-1.759 9.24c.222 0 .426-.018.537-.054.111-.055.204-.165.26-.384.055-.238.073-.75.092-1.465.315.275.907.568 1.352.715-.037.714-.111 1.445-.24 1.737a1.263 1.263 0 0 1-.723.623c-.278.11-.778.164-1.13.164h-1.222c-.444 0-1-.128-1.315-.384-.333-.256-.463-.585-.463-1.61v-2.489h-1.5c-.333 2.526-1.259 3.953-4.685 4.795-.13-.403-.555-1.025-.889-1.336 2.945-.567 3.667-1.555 3.926-3.459h-1.74V31.9h8.555v5.306H142.5v2.58c0 .257.018.421.13.477.092.072.221.09.407.09h.722zm-8.685-2.89a264.695 264.695 0 0 1-5.5 2.177L129 37.9c.63-.2 1.389-.438 2.222-.732V31.13h-1.926v-1.61h1.926v-4.154h1.685v4.154h1.685v1.61h-1.685v5.435l1.815-.659.352 1.556zM159.655 35.205c.161-1.22.322-2.404.43-3.392h-5.704c-.25 1.202-.482 2.369-.715 3.392h5.99zm5.345 4.18V41h-16v-1.615h10.03c.143-.825.25-1.704.392-2.619h-8.009c.662-2.351 1.466-6.173 1.949-9.169h-3.808V26h14.928v1.597h-9.296c-.161.843-.34 1.758-.5 2.656h5.72l.304-.072 1.25.143c-.231 2.494-.75 6.137-1.197 9.061H165zM174.25 35.706h1.911v-1.132h-1.911v1.132zm0-2.19h1.911v-1.131h-1.911v1.132zm0 6.792c1.107-.11 2.25-.222 3.375-.352 1.464-2.097 1.91-4.899 2.054-8.277h-1.894v-1.392h-3.535v.965h3.322v5.587h-3.322v.947h3.357v1.261h-3.357v1.261zm-3.357-4.602h1.839v-1.132h-1.839v1.132zm0-2.19h1.839v-1.131h-1.839v1.132zM185 30.084s-.018.594-.018.798c-.197 7.665-.357 10.3-.928 11.098-.34.557-.715.705-1.269.798-.535.074-1.356.074-2.196.02-.035-.465-.214-1.17-.465-1.634.822.074 1.554.074 1.876.074.304 0 .464-.056.643-.297.392-.52.571-2.877.714-9.261h-2.107c-.232 4.937-1.036 8.872-4.108 11.321-.25-.39-.803-1.003-1.195-1.281.106-.074.214-.166.32-.259-2.57.315-5.142.593-7.052.779L169 40.773c1.036-.075 2.321-.185 3.732-.315v-1.411h-3.25v-1.261h3.25v-.947h-3.197v-5.587h3.197v-.965h-3.678v-1.28h3.678v-1.04a67.18 67.18 0 0 1-3.178.186 5.332 5.332 0 0 0-.393-1.244c2.642-.148 5.804-.482 7.66-.909l.786 1.3c-.946.204-2.125.39-3.357.52v1.187h3.607v1.076h1.875c.017-1.262.017-2.58.017-3.972h1.59c0 1.374-.018 2.71-.035 3.972H185zM197.783 33.455c.587 1.442 1.392 2.718 2.453 3.81a11.009 11.009 0 0 0 2.671-3.81h-5.124zm7.284-1.185c-.732 2.553-1.958 4.57-3.569 6.123 1.263.962 2.764 1.684 4.502 2.146-.384.333-.86 1.018-1.098 1.461-1.847-.536-3.404-1.368-4.739-2.497-1.465 1.11-3.166 1.924-4.996 2.46-.184-.444-.604-1.183-.916-1.554a14.613 14.613 0 0 0 4.703-2.09c-1.208-1.35-2.14-2.941-2.836-4.79l.238-.074h-.732v-1.573h3.77v-2.534h-4.1v-1.573h4.1V25h1.683v2.775h4.228v1.573h-4.228v2.534h2.599l.293-.056 1.098.444zm-9.864 2.257l-2.086.61v4.866c0 .888-.184 1.35-.713 1.609-.532.259-1.355.315-2.6.296-.072-.407-.292-1.128-.512-1.554.806.019 1.574.019 1.794 0 .274 0 .366-.092.366-.351v-4.385c-.714.204-1.373.388-2.014.555L189 34.527c.695-.166 1.537-.37 2.452-.592v-3.718H189.2v-1.591h2.25V25h1.666v3.607h1.921v1.61h-1.921v3.255l1.885-.499.201 1.554zM220.446 27.945h4.282v-1.519h-4.282v1.519zm-.454 9.666c.164 0 .418-.036.581-.092.037.333.09.925.127 1.222-.2.074-.453.093-.726.093h-.508c-1.215 0-1.433-.482-1.433-1.871v-4.889h1.234V37c0 .463.017.611.163.611h.562zm-.816-8.648c-.29-.648-.925-1.685-1.524-2.425l1.053-.575c.616.704 1.27 1.685 1.578 2.333l-1.107.667zm-4.263 3.111c-.019 3.519-.219 5.89-1.615 7.315-.145-.296-.544-.796-.853-1.019 1.089-1.204 1.216-3.148 1.234-6.296h1.234zm-1.978-6.518c-.925 1.555-2.359 3.277-3.702 4.37-.217-.352-.616-.963-.906-1.277 1.18-.926 2.43-2.427 3.066-3.649l1.542.556zm12.046 6.759h-1.523v7.537c0 .888-.145 1.37-.69 1.63-.562.295-1.397.315-2.63.315-.055-.464-.273-1.186-.49-1.667.835.018 1.65.018 1.887.018.254-.018.326-.073.326-.296v-7.537h-1.85v-1.333h-2.83v10.944h-1.489V30.982h-2.54v-1.445a23.745 23.745 0 0 1-1.305 2.39V42h-1.56v-7.889c-.436.518-.89.982-1.344 1.408-.144-.37-.652-1.204-.943-1.556 1.47-1.278 2.904-3.222 3.756-5.204l1.524.5-.054.13h2.466v-4.278h1.488v4.278h2.866v1.37H225l-.019 1.556zM233.636 28.066c1.34.309 2.79.671 4.186 1.052 1.083-.327 2.056-.671 2.827-1.052h-7.013zm7.637 3.32c-.973-.344-2.222-.725-3.543-1.125-1.506.454-3.048.817-4.48 1.125h8.023zM245 39.914v1.379h-13.457v-1.379h5.765v-1.488h-4.076v-1.325h4.076v-1.324h-3.451c-.533.889-1.157 1.705-1.819 2.304-.128-.308-.55-1.143-.825-1.488-.166 1.87-.643 3.938-1.91 5.407-.257-.308-.973-.906-1.303-1.07 1.468-1.742 1.634-4.19 1.634-6.024v-3.52h2.35c-.24-.253-.533-.562-.753-.725a69.413 69.413 0 0 0 4.498-.944 66.04 66.04 0 0 0-3.856-.943l.937-.708h-3.03v-1.325h6.536a9.73 9.73 0 0 0-.844-1.179l1.193-.562c.458.508.991 1.198 1.285 1.741h6.223v1.325h-2.735l.807.508a27.84 27.84 0 0 1-2.587 1.07c1.229.345 2.368.708 3.268 1.017l-.845.725h2.662v1.38h-13.457v2.158c0 .527-.019 1.089-.073 1.67.973-.907 1.835-2.213 2.331-3.593l1.468.417c-.128.345-.275.672-.44 1.016h2.736v-1.342h1.688v1.342h4.755v1.343h-4.755v1.324h4.278v1.325h-4.278v1.488H245zM257.24 28.872c-.269-.264-.665-.546-1.114-.828-.503.37-1.043.722-1.546.969-.197-.176-.63-.582-.917-.758a7.982 7.982 0 0 0 1.474-.81 9.788 9.788 0 0 0-1.132-.582l.809-.687c.377.176.809.388 1.204.617.306-.247.557-.529.755-.775l1.133.299c-.27.352-.576.705-.935 1.04a8.72 8.72 0 0 1 1.097.775l-.827.74zm-5.95 3.242h3.074a5.211 5.211 0 0 0-.845-.81h-2.265l.036.81zm-1.348 3.366h-1.582v-3.366h1.366l-.323-5.216c1.042-.175 2.588-.616 3.523-.898l.72.97c-.774.281-1.745.528-2.644.686l.054.705h2.463v1.058h-2.409l.055.81h2.426v1.04a10.44 10.44 0 0 0 1.51-.829c-.377-.229-.79-.458-1.168-.634l.809-.687c.395.193.845.423 1.258.67.324-.283.594-.564.81-.864l1.132.352a9.27 9.27 0 0 1-.988 1.075c.485.318.88.617 1.185.9l-.845.757c-.287-.282-.7-.599-1.204-.934-.521.405-1.097.74-1.618 1.04h6.275c.017-.265.053-.53.09-.812h-2.391V30.23h2.462l.072-.81h-2.445V28.36h2.517l.035-.793h-2.641v-1.075h4.278c-.09 1.78-.252 4.036-.396 5.621h1.366v3.366h-1.653v-2.132h-12.099v2.132zM264 38.705h-6.993v1.692c0 .775-.18 1.162-.809 1.374-.647.229-1.564.229-2.967.229-.089-.423-.323-1.004-.54-1.393.99.036 2.033.036 2.302.036.288 0 .378-.07.378-.3v-1.638H248v-1.34h7.37v-.634c.792-.317 1.673-.74 2.428-1.198h-6.436v-1.199h8.143l.36-.087.953.846c-1.043.792-2.445 1.55-3.811 2.132v.14H264v1.34zM282.674 35.148h1.392v4.74h-1.392v-.648h-1.265v3.667h-1.465V35h1.465v2.76h1.265v-2.612zm1.282-.296c-.074-.26-.183-.611-.275-.981-3.078.481-3.553.611-3.847.777-.055-.351-.256-1.093-.366-1.5.275-.055.604-.37.952-.87.201-.222.605-.778 1.026-1.482-1.282.13-1.612.223-1.795.334a22.512 22.512 0 0 0-.384-1.482c.238-.037.457-.26.713-.592.276-.334 1.118-1.649 1.613-2.945l1.136.574c-.55 1.112-1.21 2.204-1.832 3.037l1.227-.074c.257-.463.531-.981.751-1.481l1.136.592c-.806 1.556-1.74 3.093-2.675 4.297l1.96-.26c-.128-.388-.274-.76-.403-1.11l.971-.315c.422.962.916 2.277 1.136 3.055l-1.044.426zm-5.056.166v2.796c0 1.835-.55 3.908-3.243 5.186-.164-.333-.64-.944-.915-1.185 1.593-.723 2.272-1.63 2.564-2.575h-2.473v-4.222h1.393v2.779h1.263v-2.779h1.41zm-.33-3.444c.33.981.733 2.278.898 3.037l-1.063.352c-.054-.26-.128-.593-.22-.926-3.095.39-3.554.5-3.847.648-.072-.352-.238-1.11-.366-1.518.294-.074.641-.39 1.062-.889.184-.204.587-.704 1.027-1.352-1.1.111-1.41.204-1.594.296-.055-.352-.257-1.13-.385-1.574.22-.055.477-.296.733-.63.238-.351 1.136-1.666 1.63-3.018l1.265.556a21.212 21.212 0 0 1-2.015 3.277l1.153-.055c.33-.5.66-1.074.935-1.611l1.153.61c-.934 1.593-2.05 3.167-3.113 4.352l2.05-.203c-.09-.389-.218-.74-.329-1.093l1.027-.259zm-6.356 6.537v-2.425h-1.796v2.685l1.796-.26zm-1.795-3.851h1.795v-2.334h-1.795v2.334zm0-3.76h1.795v-2.296h-1.795V30.5zm3.224-2.296v14.685h-1.429v-3.315c-1.393.241-2.766.5-3.884.703l-.33-1.536 1.026-.149V28.204h-.805v-1.556h6.063v1.556h-.641zM298.49 40.493h1.984v-2.977h-1.983v2.977zm-.77-11.72h3.613v-1.396h-3.614v1.395zm3.613 2.641V30h-3.614c0 .447-.035.93-.088 1.414h3.702zm-6.315 9.08H297v-2.978h-1.982v2.977zm2.385-7.834c-.298 1.192-.877 2.381-1.947 3.256-.228-.334-.808-.911-1.14-1.135 1.718-1.376 1.912-3.367 1.912-5.004V26h6.72v7.925c0 .82-.177 1.229-.703 1.47-.543.242-1.368.28-2.508.28-.088-.447-.369-1.061-.597-1.452.842.037 1.632.02 1.86.02.245 0 .333-.076.333-.318V32.66h-3.93zm-5.841 7.833h1.964v-2.977h-1.964v2.977zm-1.089-8.13h2.737V30.67h-2.737v1.693zm0-3.014h2.738v-1.693h-2.737v1.693zm0 5.34h-1.49v-8.39h5.701v7.422h-4.21v.967zM304 40.492V42h-16v-1.507h2.035v-4.335h12.035v4.335H304z" mask="url(#d)"/>
        <g fill="#FFF" mask="url(#d)">
            <path d="M71.288 53.053c0 .028-.007.05-.02.07a.138.138 0 0 1-.069.048.802.802 0 0 1-.13.03 1.35 1.35 0 0 1-.204.011c-.079 0-.146-.003-.202-.012a.793.793 0 0 1-.132-.029.137.137 0 0 1-.069-.048.12.12 0 0 1-.02-.07V46.87c0-.027.008-.05.022-.07a.157.157 0 0 1 .075-.047.816.816 0 0 1 .132-.03c.054-.008.119-.012.194-.012.082 0 .15.004.204.012a.752.752 0 0 1 .13.03.14.14 0 0 1 .07.047c.012.02.019.043.019.07v6.183zM76.994 53.059a.112.112 0 0 1-.02.066.15.15 0 0 1-.063.048.424.424 0 0 1-.123.03 1.69 1.69 0 0 1-.197.01c-.081 0-.149-.004-.2-.01a.42.42 0 0 1-.124-.03.148.148 0 0 1-.064-.048.112.112 0 0 1-.02-.066v-2.624c0-.256-.02-.462-.058-.617a1.274 1.274 0 0 0-.173-.404.742.742 0 0 0-.292-.258.908.908 0 0 0-.415-.09 1.04 1.04 0 0 0-.61.218c-.202.147-.415.36-.638.642v3.133a.112.112 0 0 1-.02.066.15.15 0 0 1-.064.048.424.424 0 0 1-.122.03c-.053.006-.12.01-.202.01-.078 0-.144-.004-.196-.01a.462.462 0 0 1-.126-.03.132.132 0 0 1-.063-.048.118.118 0 0 1-.018-.066v-4.481c0-.027.005-.05.015-.067a.129.129 0 0 1 .06-.05.32.32 0 0 1 .112-.03 1.74 1.74 0 0 1 .182-.008c.072 0 .132.003.179.008a.279.279 0 0 1 .11.03.156.156 0 0 1 .057.05c.012.018.018.04.018.067v.592c.248-.282.497-.49.744-.62.247-.131.497-.196.749-.196.295 0 .543.05.744.152.202.1.365.236.489.405.125.17.214.368.268.595.054.227.081.5.081.82v2.733zM80.98 52.73c0 .096-.006.173-.019.23a.25.25 0 0 1-.059.123.375.375 0 0 1-.118.075.908.908 0 0 1-.18.057 2.175 2.175 0 0 1-.439.052c-.23 0-.426-.03-.59-.092a.948.948 0 0 1-.402-.278 1.157 1.157 0 0 1-.229-.473 2.837 2.837 0 0 1-.071-.675v-2.618h-.62c-.048 0-.087-.028-.117-.08a.56.56 0 0 1-.044-.26c0-.062.004-.115.012-.158a.45.45 0 0 1 .032-.108.124.124 0 0 1 .123-.077h.614v-1.065c0-.024.006-.045.017-.064a.138.138 0 0 1 .064-.054.43.43 0 0 1 .125-.032c.053-.006.118-.009.197-.009.081 0 .149.003.201.009a.407.407 0 0 1 .123.032.16.16 0 0 1 .064.054c.013.019.02.04.02.064v1.065h1.134c.027 0 .05.006.07.018.019.011.037.031.05.059a.368.368 0 0 1 .033.108c.006.043.01.096.01.159 0 .12-.015.205-.044.259-.03.052-.07.08-.119.08h-1.135v2.499c0 .308.046.542.136.7.09.157.251.236.484.236a.828.828 0 0 0 .201-.023 1.605 1.605 0 0 0 .275-.094.21.21 0 0 1 .089-.023c.016 0 .032.005.046.013.015.008.027.024.035.047a.6.6 0 0 1 .022.094c.006.04.01.09.01.15M85.203 50.38c.01-.432-.084-.77-.284-1.016-.2-.245-.495-.368-.887-.368-.201 0-.378.038-.53.115a1.143 1.143 0 0 0-.38.303 1.392 1.392 0 0 0-.237.44 1.87 1.87 0 0 0-.094.526h2.412zm.816.244c0 .129-.032.222-.096.276a.33.33 0 0 1-.22.083h-2.912c0 .249.025.473.074.672.05.199.132.37.247.513.115.142.265.252.45.328.183.076.41.114.676.114.21 0 .398-.017.562-.052a3.334 3.334 0 0 0 .724-.234.481.481 0 0 1 .175-.052c.023 0 .044.006.062.017a.12.12 0 0 1 .042.053c.01.022.017.055.022.097a1.419 1.419 0 0 1 .002.263.91.91 0 0 1-.012.085.226.226 0 0 1-.068.125.738.738 0 0 1-.16.09 2.328 2.328 0 0 1-.345.121c-.14.04-.303.076-.488.107a3.536 3.536 0 0 1-.592.047c-.364 0-.683-.05-.956-.154a1.774 1.774 0 0 1-.69-.457 1.974 1.974 0 0 1-.422-.762 3.594 3.594 0 0 1-.143-1.065c0-.386.05-.732.147-1.04.099-.306.24-.567.425-.78.185-.215.409-.38.67-.494.263-.115.556-.171.88-.171.347 0 .643.056.887.168.244.114.445.266.602.457.157.19.272.415.347.672.073.256.11.531.11.823v.15zM90.138 48.871c0 .073-.001.135-.004.184a.467.467 0 0 1-.02.117.168.168 0 0 1-.037.065.081.081 0 0 1-.061.023.267.267 0 0 1-.096-.023 2.205 2.205 0 0 0-.288-.087.91.91 0 0 0-.19-.02.608.608 0 0 0-.242.05.959.959 0 0 0-.248.164 2.068 2.068 0 0 0-.273.304c-.095.126-.2.28-.314.463v2.948a.11.11 0 0 1-.02.067.154.154 0 0 1-.064.047.444.444 0 0 1-.122.03c-.053.006-.12.01-.202.01a1.69 1.69 0 0 1-.196-.01.479.479 0 0 1-.126-.03.135.135 0 0 1-.063-.047.123.123 0 0 1-.018-.067v-4.481a.14.14 0 0 1 .015-.068.13.13 0 0 1 .059-.05.323.323 0 0 1 .113-.03c.046-.004.106-.006.182-.006.072 0 .132.002.179.007a.28.28 0 0 1 .11.03.155.155 0 0 1 .057.05c.011.017.018.04.018.067v.652c.12-.18.234-.326.34-.438.107-.113.208-.202.303-.267a.929.929 0 0 1 .282-.134c.094-.025.188-.037.283-.037a1.442 1.442 0 0 1 .474.08.34.34 0 0 1 .101.049c.02.017.032.032.039.048a.289.289 0 0 1 .017.056.605.605 0 0 1 .01.103c.002.044.002.105.002.181M93.683 51.017h-.693c-.222 0-.416.02-.58.057-.163.039-.3.095-.407.17a.699.699 0 0 0-.239.269.818.818 0 0 0-.076.36c0 .233.073.418.219.556.146.137.35.206.612.206.213 0 .41-.055.592-.164.182-.11.372-.278.572-.503v-.95zm.806 2.047c0 .04-.013.07-.04.09a.292.292 0 0 1-.107.044c-.046.01-.113.015-.202.015-.085 0-.153-.005-.204-.015a.253.253 0 0 1-.11-.045c-.023-.02-.034-.05-.034-.09v-.447c-.194.209-.409.371-.647.487a1.694 1.694 0 0 1-.754.174c-.233 0-.443-.03-.631-.092a1.361 1.361 0 0 1-.482-.266 1.194 1.194 0 0 1-.309-.429 1.424 1.424 0 0 1-.11-.577c0-.251.05-.471.151-.657.102-.186.248-.34.438-.463s.422-.215.697-.276c.276-.061.585-.092.929-.092h.61v-.349c0-.173-.019-.325-.055-.457a.79.79 0 0 0-.174-.332.743.743 0 0 0-.312-.199 1.444 1.444 0 0 0-.472-.067c-.2 0-.38.024-.538.072-.159.048-.298.1-.417.159-.12.059-.22.111-.3.16a.418.418 0 0 1-.18.072.118.118 0 0 1-.068-.02.166.166 0 0 1-.052-.06.32.32 0 0 1-.032-.102.916.916 0 0 1-.01-.137c0-.083.006-.149.018-.197a.28.28 0 0 1 .083-.136c.044-.044.12-.094.229-.152a2.47 2.47 0 0 1 .373-.16 3.4 3.4 0 0 1 .462-.119 2.68 2.68 0 0 1 .506-.047c.318 0 .587.036.81.109.223.073.404.18.54.321.138.142.238.316.3.525.063.21.094.454.094.733v3.022zM99.458 52.376c0 .057-.001.106-.005.147a.413.413 0 0 1-.047.18.504.504 0 0 1-.078.094c-.041.042-.11.093-.209.155a2.011 2.011 0 0 1-.332.164 2.44 2.44 0 0 1-.4.117c-.144.03-.293.044-.447.044-.318 0-.6-.053-.845-.159a1.579 1.579 0 0 1-.616-.466 2.115 2.115 0 0 1-.38-.751 3.667 3.667 0 0 1-.13-1.028c0-.441.054-.82.16-1.138.107-.316.252-.576.438-.78.185-.202.402-.351.653-.45a2.22 2.22 0 0 1 1.59-.002c.11.043.21.093.297.15.086.056.15.104.189.144a.61.61 0 0 1 .081.095c.015.023.027.05.037.082.01.031.016.067.02.107.003.04.004.09.004.149 0 .13-.014.22-.044.27-.029.053-.066.078-.108.078-.05 0-.106-.027-.17-.082a2.677 2.677 0 0 0-.242-.181 1.867 1.867 0 0 0-.357-.183 1.352 1.352 0 0 0-.493-.081c-.39 0-.69.152-.897.455-.208.304-.313.744-.313 1.322 0 .289.028.542.082.76.054.216.133.399.238.545a.983.983 0 0 0 .386.325c.152.072.327.107.523.107.187 0 .35-.03.491-.09.141-.059.263-.124.367-.196.103-.07.19-.136.26-.194.07-.058.125-.087.165-.087.022 0 .042.007.058.02a.15.15 0 0 1 .042.067c.012.032.02.072.025.12.005.048.007.105.007.171M105.032 47.064c0 .193-.036.324-.108.393-.072.07-.205.105-.398.105-.19 0-.32-.034-.39-.102-.071-.068-.106-.197-.106-.386 0-.192.036-.323.108-.394.071-.069.204-.104.397-.104.19 0 .321.034.391.103.07.068.106.196.106.385zm-.35 1.384c.1 0 .167.023.202.067a.31.31 0 0 1 .055.197v4.347a.11.11 0 0 1-.02.067.145.145 0 0 1-.066.047.473.473 0 0 1-.126.03 1.846 1.846 0 0 1-.393 0 .469.469 0 0 1-.125-.03.145.145 0 0 1-.066-.047.11.11 0 0 1-.02-.067V49.13h-2.285v2.499c0 .308.045.542.135.7.09.157.252.236.485.236a.828.828 0 0 0 .2-.023 1.739 1.739 0 0 0 .276-.094.21.21 0 0 1 .088-.023c.017 0 .032.005.047.013s.026.024.034.047a.56.56 0 0 1 .022.094c.007.04.01.09.01.15 0 .096-.006.172-.02.226a.275.275 0 0 1-.058.125.347.347 0 0 1-.118.077.903.903 0 0 1-.18.057 2.307 2.307 0 0 1-.44.052c-.229 0-.425-.03-.589-.092a.952.952 0 0 1-.403-.278 1.157 1.157 0 0 1-.228-.473 2.841 2.841 0 0 1-.072-.675v-2.618h-.618c-.05 0-.089-.028-.118-.08a.562.562 0 0 1-.044-.26c0-.062.004-.115.012-.158a.453.453 0 0 1 .032-.108.126.126 0 0 1 .051-.06.148.148 0 0 1 .072-.017h.613v-1.065c0-.024.006-.046.018-.065a.141.141 0 0 1 .064-.053.431.431 0 0 1 .125-.032c.053-.006.118-.01.197-.01.081 0 .149.004.201.01a.407.407 0 0 1 .123.032.16.16 0 0 1 .064.053c.013.02.02.041.02.065v1.065h2.844zM110.016 50.823c0-.243-.022-.471-.067-.687a1.699 1.699 0 0 0-.22-.568 1.1 1.1 0 0 0-.417-.386 1.373 1.373 0 0 0-.655-.141c-.241 0-.448.043-.622.13a1.15 1.15 0 0 0-.429.365 1.655 1.655 0 0 0-.25.56 2.876 2.876 0 0 0-.081.707c0 .246.022.477.067.692.044.216.118.405.223.565.104.161.243.29.418.384.175.094.394.142.655.142.238 0 .444-.044.62-.13.175-.086.318-.207.43-.364a1.58 1.58 0 0 0 .248-.557c.054-.216.08-.453.08-.712m.84-.055c0 .365-.047.702-.142 1.009a2.228 2.228 0 0 1-.425.793 1.92 1.92 0 0 1-.708.52 2.427 2.427 0 0 1-.985.187c-.364 0-.68-.054-.95-.164-.271-.11-.496-.269-.676-.478a2.032 2.032 0 0 1-.403-.762 3.56 3.56 0 0 1-.133-1.015c0-.365.047-.701.14-1.008.094-.307.234-.572.423-.795.188-.221.423-.394.705-.517s.61-.184.987-.184c.364 0 .68.055.95.164.271.109.496.27.677.478.18.209.315.463.405.761.09.3.135.636.135 1.011M116.16 53.059a.112.112 0 0 1-.02.066.15.15 0 0 1-.064.048.424.424 0 0 1-.123.03c-.053.006-.118.01-.197.01-.081 0-.149-.004-.2-.01a.42.42 0 0 1-.124-.03.148.148 0 0 1-.064-.048.11.11 0 0 1-.02-.066v-2.624c0-.256-.02-.462-.058-.617a1.274 1.274 0 0 0-.173-.404.742.742 0 0 0-.292-.258.909.909 0 0 0-.415-.09 1.04 1.04 0 0 0-.61.218c-.202.147-.415.36-.638.642v3.133a.112.112 0 0 1-.02.066.15.15 0 0 1-.063.048.424.424 0 0 1-.123.03c-.052.006-.12.01-.202.01-.078 0-.144-.004-.196-.01a.462.462 0 0 1-.125-.03.13.13 0 0 1-.064-.048.118.118 0 0 1-.017-.066v-4.481c0-.027.005-.05.014-.067a.13.13 0 0 1 .059-.05.326.326 0 0 1 .113-.03c.046-.005.106-.008.182-.008.072 0 .132.003.18.008a.279.279 0 0 1 .11.03.156.156 0 0 1 .057.05c.01.018.017.04.017.067v.592c.248-.282.497-.49.744-.62.247-.131.497-.196.749-.196.295 0 .543.05.745.152.2.1.364.236.488.405.125.17.214.368.268.595.054.227.081.5.081.82v2.733zM124.595 47.11c0 .062-.003.117-.01.163a.37.37 0 0 1-.032.112.134.134 0 0 1-.125.082h-1.789v5.586a.12.12 0 0 1-.02.07c-.012.02-.035.036-.068.048a.802.802 0 0 1-.13.03 1.35 1.35 0 0 1-.204.012c-.079 0-.146-.004-.202-.013a.81.81 0 0 1-.132-.029.135.135 0 0 1-.069-.048.12.12 0 0 1-.02-.07v-5.586h-1.788a.133.133 0 0 1-.071-.02.137.137 0 0 1-.052-.062.447.447 0 0 1-.032-.112 1.08 1.08 0 0 1 0-.33.518.518 0 0 1 .032-.118.14.14 0 0 1 .052-.065.133.133 0 0 1 .07-.02h4.423c.026 0 .05.007.071.02.021.014.04.036.054.065.014.03.025.069.032.117.007.048.01.104.01.167M127.786 50.38c.01-.432-.085-.77-.284-1.016-.2-.245-.496-.368-.888-.368-.2 0-.377.038-.529.115a1.134 1.134 0 0 0-.38.303 1.384 1.384 0 0 0-.238.44 1.87 1.87 0 0 0-.093.526h2.412zm.816.244c0 .129-.033.222-.097.276a.33.33 0 0 1-.22.083h-2.911c0 .249.024.473.073.672.05.199.132.37.248.513.115.142.264.252.449.328.184.076.41.114.676.114.21 0 .398-.017.563-.052a3.314 3.314 0 0 0 .723-.234.483.483 0 0 1 .176-.052.11.11 0 0 1 .061.017c.018.012.032.03.042.053.01.022.018.055.022.097a1.419 1.419 0 0 1 .003.263.91.91 0 0 1-.013.085.226.226 0 0 1-.068.125.738.738 0 0 1-.16.09 2.339 2.339 0 0 1-.344.121c-.14.04-.304.076-.489.107a3.536 3.536 0 0 1-.592.047 2.7 2.7 0 0 1-.955-.154 1.767 1.767 0 0 1-.69-.457 1.969 1.969 0 0 1-.423-.762 3.594 3.594 0 0 1-.143-1.065c0-.386.05-.732.148-1.04.098-.306.24-.567.425-.78.184-.215.408-.38.67-.494.262-.115.556-.171.88-.171.347 0 .643.056.886.168.244.114.445.266.603.457.157.19.272.415.346.672.074.256.11.531.11.823v.15zM133.315 52.376c0 .057-.002.106-.005.147a.497.497 0 0 1-.046.18.504.504 0 0 1-.08.094c-.04.042-.11.093-.208.155-.099.06-.21.116-.332.164a2.415 2.415 0 0 1-.847.161c-.318 0-.599-.053-.845-.159a1.585 1.585 0 0 1-.617-.466 2.115 2.115 0 0 1-.378-.751 3.667 3.667 0 0 1-.13-1.028c0-.441.053-.82.16-1.138.106-.316.252-.576.437-.78.184-.202.402-.351.653-.45a2.22 2.22 0 0 1 1.59-.002c.11.043.21.093.297.15.086.056.149.104.189.144a.376.376 0 0 1 .137.284c.004.04.006.09.006.149 0 .13-.015.22-.044.27-.03.053-.066.078-.108.078-.05 0-.107-.027-.17-.082a2.714 2.714 0 0 0-.243-.181 1.886 1.886 0 0 0-.357-.183 1.352 1.352 0 0 0-.494-.081c-.389 0-.689.152-.896.455-.208.304-.312.744-.312 1.322 0 .289.027.542.081.76.053.216.133.399.239.545a.976.976 0 0 0 .385.325c.153.072.327.107.523.107.186 0 .35-.03.49-.09a1.99 1.99 0 0 0 .367-.196c.103-.07.19-.136.261-.194.07-.058.126-.087.164-.087a.09.09 0 0 1 .059.02c.017.013.03.035.043.067.01.032.02.072.023.12.006.048.008.105.008.171M138.5 53.059a.112.112 0 0 1-.02.066.16.16 0 0 1-.063.048.428.428 0 0 1-.123.03c-.053.006-.118.01-.197.01-.082 0-.149-.004-.201-.01a.431.431 0 0 1-.124-.03.147.147 0 0 1-.063-.048.11.11 0 0 1-.02-.066v-2.624c0-.256-.02-.462-.059-.617a1.305 1.305 0 0 0-.172-.404.742.742 0 0 0-.292-.258.909.909 0 0 0-.415-.09c-.203 0-.406.072-.61.218a3.35 3.35 0 0 0-.638.642v3.133a.109.109 0 0 1-.02.066.155.155 0 0 1-.064.048.417.417 0 0 1-.122.03c-.053.006-.12.01-.202.01-.078 0-.144-.004-.196-.01a.45.45 0 0 1-.125-.03.133.133 0 0 1-.064-.048.118.118 0 0 1-.018-.066v-6.652c0-.027.006-.05.018-.07a.133.133 0 0 1 .064-.05.468.468 0 0 1 .125-.03c.052-.006.118-.01.196-.01.082 0 .15.004.202.01a.434.434 0 0 1 .122.03c.03.013.051.03.065.05.013.02.019.043.019.07v2.684c.233-.25.466-.434.703-.556a1.54 1.54 0 0 1 .712-.181c.295 0 .543.05.744.152.202.1.365.236.49.405.124.17.213.368.267.595.054.227.08.502.08.825v2.728zM144.089 53.059a.112.112 0 0 1-.02.066.16.16 0 0 1-.063.048.424.424 0 0 1-.123.03c-.052.006-.118.01-.197.01-.082 0-.149-.004-.201-.01a.424.424 0 0 1-.123-.03.15.15 0 0 1-.063-.048.11.11 0 0 1-.02-.066v-2.624c0-.256-.02-.462-.06-.617a1.305 1.305 0 0 0-.171-.404.742.742 0 0 0-.293-.258.909.909 0 0 0-.415-.09c-.203 0-.406.072-.61.218a3.35 3.35 0 0 0-.638.642v3.133a.109.109 0 0 1-.02.066.154.154 0 0 1-.063.048.424.424 0 0 1-.123.03c-.053.006-.12.01-.202.01-.078 0-.144-.004-.196-.01a.454.454 0 0 1-.125-.03.133.133 0 0 1-.064-.048.118.118 0 0 1-.018-.066v-4.481c0-.027.005-.05.015-.067a.13.13 0 0 1 .06-.05.318.318 0 0 1 .112-.03c.046-.005.107-.008.182-.008.072 0 .131.003.18.008a.283.283 0 0 1 .11.03.16.16 0 0 1 .057.05c.011.018.016.04.016.067v.592c.25-.282.498-.49.745-.62a1.59 1.59 0 0 1 .75-.196c.294 0 .542.05.743.152.202.1.365.236.49.405.124.17.213.368.267.595.054.227.081.5.081.82v2.733zM149.143 50.823c0-.243-.022-.471-.067-.687a1.7 1.7 0 0 0-.22-.568 1.1 1.1 0 0 0-.417-.386 1.371 1.371 0 0 0-.655-.141c-.24 0-.448.043-.621.13a1.14 1.14 0 0 0-.43.365 1.647 1.647 0 0 0-.25.56 3.396 3.396 0 0 0-.015 1.4c.045.215.12.404.223.564.105.161.244.29.419.384.176.094.394.142.654.142.239 0 .445-.044.62-.13.176-.086.32-.207.432-.364.112-.155.195-.341.248-.557.052-.216.079-.453.079-.712m.84-.055c0 .365-.047.702-.143 1.009a2.227 2.227 0 0 1-.424.793 1.92 1.92 0 0 1-.708.52 2.423 2.423 0 0 1-.985.187c-.363 0-.68-.054-.95-.164-.271-.11-.496-.269-.677-.478a2.044 2.044 0 0 1-.402-.762 3.576 3.576 0 0 1-.133-1.015c0-.365.047-.701.14-1.008.094-.307.234-.572.423-.795.188-.221.423-.394.705-.517s.61-.184.987-.184c.364 0 .681.055.951.164.27.109.496.27.676.478.18.209.315.463.405.761.09.3.135.636.135 1.011M152.289 53.059a.112.112 0 0 1-.02.066.16.16 0 0 1-.063.048.428.428 0 0 1-.123.03c-.052.006-.12.01-.202.01-.078 0-.144-.004-.196-.01a.45.45 0 0 1-.125-.03.133.133 0 0 1-.064-.048.118.118 0 0 1-.017-.066v-6.652c0-.027.005-.05.017-.07a.133.133 0 0 1 .064-.05.468.468 0 0 1 .125-.03c.052-.006.118-.01.196-.01.083 0 .15.004.202.01a.446.446 0 0 1 .123.03c.029.013.05.03.064.05.013.02.019.043.019.07v6.652zM157.361 50.823c0-.243-.021-.471-.066-.687a1.69 1.69 0 0 0-.221-.568 1.1 1.1 0 0 0-.416-.386 1.371 1.371 0 0 0-.655-.141c-.241 0-.448.043-.622.13a1.14 1.14 0 0 0-.429.365 1.647 1.647 0 0 0-.25.56 3.396 3.396 0 0 0-.015 1.4c.044.215.119.404.223.564.104.161.244.29.418.384.176.094.394.142.655.142.239 0 .445-.044.62-.13.175-.086.319-.207.432-.364.112-.155.195-.341.247-.557.053-.216.08-.453.08-.712m.84-.055c0 .365-.047.702-.143 1.009a2.227 2.227 0 0 1-.424.793 1.92 1.92 0 0 1-.708.52 2.423 2.423 0 0 1-.985.187c-.364 0-.68-.054-.951-.164a1.74 1.74 0 0 1-.676-.478 2.044 2.044 0 0 1-.403-.762 3.576 3.576 0 0 1-.132-1.015c0-.365.047-.701.14-1.008.094-.307.234-.572.423-.795.188-.221.423-.394.705-.517.281-.123.61-.184.987-.184.364 0 .68.055.95.164.271.109.496.27.676.478.18.209.316.463.406.761.09.3.135.636.135 1.011M162.125 49.962c0-.306-.083-.544-.248-.715-.166-.17-.4-.256-.705-.256a.983.983 0 0 0-.41.08.806.806 0 0 0-.29.219.92.92 0 0 0-.172.321c-.038.12-.057.248-.057.38 0 .296.083.528.249.697.165.17.397.255.695.255.16 0 .3-.026.417-.078a.788.788 0 0 0 .293-.214.913.913 0 0 0 .172-.316c.037-.12.056-.244.056-.373m.408 3.55a.505.505 0 0 0-.234-.446c-.155-.104-.366-.16-.63-.167l-1.145-.04a2.087 2.087 0 0 0-.258.237c-.068.075-.121.146-.16.214a.712.712 0 0 0-.081.202.889.889 0 0 0-.023.204c0 .215.109.379.324.49.217.111.519.167.905.167.246 0 .451-.024.616-.072.166-.049.3-.112.4-.192a.711.711 0 0 0 .22-.274.824.824 0 0 0 .066-.323m.86-4.73c0 .116-.016.2-.047.251-.03.052-.071.077-.12.077h-.634c.114.12.195.252.24.396.046.145.07.295.07.451 0 .258-.042.488-.124.687a1.379 1.379 0 0 1-.35.506 1.577 1.577 0 0 1-.544.315 2.09 2.09 0 0 1-1.21.038 1.07 1.07 0 0 1-.377-.182.781.781 0 0 0-.145.204.591.591 0 0 0-.056.264c0 .116.053.212.16.289a.763.763 0 0 0 .425.124l1.154.05c.22.006.42.037.604.092s.343.133.477.233c.134.103.24.226.314.375.076.147.113.319.113.515a1.351 1.351 0 0 1-.518 1.078c-.175.14-.399.252-.67.333a3.373 3.373 0 0 1-.964.122c-.357 0-.66-.03-.911-.092a1.965 1.965 0 0 1-.617-.251.98.98 0 0 1-.349-.38 1.086 1.086 0 0 1-.108-.481c0-.11.014-.216.04-.32.026-.102.067-.2.12-.293.054-.093.122-.182.201-.267.08-.084.174-.168.278-.25a.877.877 0 0 1-.356-.314.777.777 0 0 1-.115-.409c0-.202.04-.383.122-.543.082-.159.184-.302.305-.428a1.468 1.468 0 0 1-.24-.415 1.575 1.575 0 0 1-.089-.56c0-.256.042-.485.127-.687a1.461 1.461 0 0 1 .897-.835c.211-.074.442-.112.691-.112a2.88 2.88 0 0 1 .702.085h1.337c.055 0 .097.027.125.083a.575.575 0 0 1 .042.25M165.546 53.059a.109.109 0 0 1-.02.066.154.154 0 0 1-.063.048.424.424 0 0 1-.123.03c-.052.006-.12.01-.201.01-.079 0-.145-.004-.197-.01a.457.457 0 0 1-.125-.03.13.13 0 0 1-.064-.048.118.118 0 0 1-.017-.066v-4.481c0-.024.005-.046.017-.065a.128.128 0 0 1 .064-.05.478.478 0 0 1 .125-.03c.052-.006.118-.01.197-.01.082 0 .149.004.201.01a.443.443 0 0 1 .123.03c.03.014.05.03.064.05.013.02.019.041.019.065v4.48zm.094-5.995c0 .193-.036.324-.108.393-.072.07-.205.105-.398.105-.19 0-.32-.034-.391-.102-.07-.068-.106-.197-.106-.386 0-.193.036-.324.109-.393.072-.07.204-.105.398-.105.19 0 .32.034.39.102.071.069.106.197.106.386zM170.304 50.38c.01-.432-.085-.77-.284-1.016-.199-.245-.496-.368-.888-.368a1.136 1.136 0 0 0-.91.419 1.401 1.401 0 0 0-.236.44 1.87 1.87 0 0 0-.094.525h2.412zm.816.244c0 .129-.032.222-.096.276a.33.33 0 0 1-.22.083h-2.912c0 .249.024.473.074.672.05.199.132.37.247.513.115.142.265.252.45.328.183.076.409.114.675.114.211 0 .399-.017.563-.052a3.334 3.334 0 0 0 .724-.234.48.48 0 0 1 .175-.052.11.11 0 0 1 .061.017c.019.012.032.03.043.053a.35.35 0 0 1 .021.097 1.218 1.218 0 0 1-.009.348.239.239 0 0 1-.069.125.734.734 0 0 1-.16.09 2.312 2.312 0 0 1-.343.121c-.142.04-.304.076-.49.107a3.534 3.534 0 0 1-.591.047c-.363 0-.683-.05-.956-.154a1.776 1.776 0 0 1-.69-.457 1.963 1.963 0 0 1-.423-.762 3.58 3.58 0 0 1-.142-1.065c0-.386.049-.732.148-1.04.097-.306.24-.567.424-.78.185-.215.409-.38.671-.494a2.17 2.17 0 0 1 .88-.171c.346 0 .642.056.886.168.244.114.444.266.602.457.157.19.273.415.346.672.074.256.11.531.11.823v.15zM175.431 51.839c0 .229-.042.433-.125.612-.084.18-.202.33-.356.453a1.587 1.587 0 0 1-.55.279 2.466 2.466 0 0 1-.703.094 2.576 2.576 0 0 1-1.12-.25.855.855 0 0 1-.172-.113.287.287 0 0 1-.079-.14.958.958 0 0 1-.024-.243c0-.063.003-.117.01-.16a.58.58 0 0 1 .024-.105.117.117 0 0 1 .042-.057.113.113 0 0 1 .061-.017c.036 0 .09.023.16.067.07.045.157.094.26.147.103.054.225.102.366.148.141.044.304.066.487.066.137 0 .262-.015.373-.044a.904.904 0 0 0 .29-.132.6.6 0 0 0 .19-.222.723.723 0 0 0 .065-.318.52.52 0 0 0-.096-.32.923.923 0 0 0-.253-.228 2.069 2.069 0 0 0-.353-.177 33.53 33.53 0 0 1-.406-.162 4.209 4.209 0 0 1-.407-.191 1.569 1.569 0 0 1-.356-.262 1.201 1.201 0 0 1-.254-.368 1.258 1.258 0 0 1-.096-.513c0-.176.034-.345.101-.505.067-.161.168-.303.303-.423.134-.122.302-.219.503-.292.201-.073.437-.11.705-.11a2.328 2.328 0 0 1 .673.104c.096.031.176.064.244.098.067.035.117.066.152.092.035.027.057.05.068.07.012.02.02.042.025.067a1.265 1.265 0 0 1 .022.227c0 .056-.002.105-.007.146a.399.399 0 0 1-.024.103.143.143 0 0 1-.042.057.088.088 0 0 1-.054.017c-.03 0-.073-.018-.128-.054a1.744 1.744 0 0 0-.216-.117 2.35 2.35 0 0 0-.312-.118 1.412 1.412 0 0 0-.41-.054c-.138 0-.26.015-.364.047a.715.715 0 0 0-.258.134.58.58 0 0 0-.152.207.641.641 0 0 0-.052.259c0 .13.033.238.098.326a.976.976 0 0 0 .256.232c.104.066.224.126.358.179l.41.164c.14.057.278.12.413.19.136.07.257.154.361.254.105.099.19.218.254.358.063.139.095.305.095.498M180.28 53.059a.112.112 0 0 1-.02.066.154.154 0 0 1-.064.048.428.428 0 0 1-.122.03c-.053.006-.12.01-.202.01-.079 0-.145-.004-.196-.01a.45.45 0 0 1-.126-.03.133.133 0 0 1-.064-.048.121.121 0 0 1-.017-.066v-4.481c0-.024.006-.046.017-.065a.13.13 0 0 1 .064-.05.47.47 0 0 1 .126-.03c.051-.006.117-.01.196-.01.082 0 .149.004.202.01a.447.447 0 0 1 .122.03c.03.014.051.03.064.05.013.02.02.041.02.065v4.48zm.094-5.995c0 .193-.037.324-.11.393-.071.07-.203.105-.397.105-.19 0-.32-.034-.39-.102-.071-.068-.107-.197-.107-.386 0-.193.036-.324.11-.393.07-.07.204-.105.397-.105.19 0 .32.034.39.102.071.069.107.197.107.386zM185.887 53.059a.112.112 0 0 1-.019.066.154.154 0 0 1-.064.048.428.428 0 0 1-.122.03c-.053.006-.119.01-.198.01-.082 0-.148-.004-.2-.01a.435.435 0 0 1-.124-.03.146.146 0 0 1-.063-.048.107.107 0 0 1-.02-.066v-2.624c0-.256-.02-.462-.06-.617a1.305 1.305 0 0 0-.171-.404.742.742 0 0 0-.292-.258.907.907 0 0 0-.416-.09c-.202 0-.405.072-.609.218-.203.147-.415.36-.639.642v3.133a.109.109 0 0 1-.019.066.152.152 0 0 1-.064.048.417.417 0 0 1-.122.03c-.053.006-.12.01-.202.01-.079 0-.144-.004-.196-.01a.453.453 0 0 1-.126-.03.13.13 0 0 1-.064-.048.115.115 0 0 1-.017-.066v-4.481c0-.027.005-.05.015-.067a.127.127 0 0 1 .059-.05.318.318 0 0 1 .113-.03c.045-.005.106-.008.181-.008.072 0 .132.003.18.008a.281.281 0 0 1 .11.03.16.16 0 0 1 .057.05c.012.018.017.04.017.067v.592c.249-.282.497-.49.744-.62.248-.131.498-.196.75-.196.294 0 .543.05.744.152.201.1.365.236.49.405.123.17.213.368.266.595.055.227.081.5.081.82v2.733zM194.918 53.053c0 .028-.007.05-.02.07a.14.14 0 0 1-.069.048.795.795 0 0 1-.13.03c-.054.008-.12.011-.199.011a1.35 1.35 0 0 1-.206-.012.795.795 0 0 1-.128-.029c-.033-.013-.056-.028-.069-.048a.12.12 0 0 1-.02-.07v-2.857h-2.893v2.857c0 .028-.007.05-.02.07a.136.136 0 0 1-.069.048.806.806 0 0 1-.13.03 1.35 1.35 0 0 1-.204.011c-.078 0-.146-.003-.201-.012a.8.8 0 0 1-.133-.029c-.033-.013-.056-.028-.069-.048a.124.124 0 0 1-.02-.07V46.87c0-.027.007-.05.02-.07a.136.136 0 0 1 .07-.047.751.751 0 0 1 .132-.03c.055-.008.123-.012.201-.012.082 0 .15.004.204.012a.755.755 0 0 1 .13.03.138.138 0 0 1 .07.047.13.13 0 0 1 .019.07v2.579h2.893V46.87c0-.027.007-.05.02-.07a.134.134 0 0 1 .07-.047.744.744 0 0 1 .127-.03 1.41 1.41 0 0 1 .206-.012c.079 0 .145.004.2.012a.745.745 0 0 1 .13.03.142.142 0 0 1 .068.047.13.13 0 0 1 .02.07v6.183zM197.626 53.059a.112.112 0 0 1-.019.066.154.154 0 0 1-.064.048.428.428 0 0 1-.122.03c-.053.006-.12.01-.202.01-.079 0-.145-.004-.197-.01a.45.45 0 0 1-.125-.03.133.133 0 0 1-.064-.048.121.121 0 0 1-.017-.066v-4.481c0-.024.006-.046.017-.065a.131.131 0 0 1 .064-.05.47.47 0 0 1 .125-.03c.052-.006.118-.01.197-.01.082 0 .149.004.202.01a.447.447 0 0 1 .122.03c.03.014.05.03.064.05.013.02.02.041.02.065v4.48zm.094-5.995c0 .193-.036.324-.108.393-.072.07-.205.105-.398.105-.19 0-.32-.034-.391-.102-.07-.068-.106-.197-.106-.386 0-.193.036-.324.11-.393.07-.07.203-.105.397-.105.19 0 .32.034.39.102.07.069.106.197.106.386zM201.854 49.962c0-.306-.083-.544-.249-.715-.165-.17-.4-.256-.704-.256a.98.98 0 0 0-.41.08.807.807 0 0 0-.29.219.926.926 0 0 0-.172.321c-.038.12-.057.248-.057.38 0 .296.083.528.248.697.166.17.397.255.696.255.16 0 .3-.026.417-.078a.784.784 0 0 0 .292-.214.913.913 0 0 0 .172-.316c.038-.12.057-.244.057-.373m.407 3.55a.505.505 0 0 0-.232-.446c-.157-.104-.367-.16-.632-.167l-1.144-.04a2.062 2.062 0 0 0-.259.237c-.067.075-.12.146-.16.214a.724.724 0 0 0-.08.202.889.889 0 0 0-.023.204c0 .215.109.379.324.49.216.111.518.167.904.167.246 0 .452-.024.617-.072.165-.049.299-.112.4-.192a.707.707 0 0 0 .22-.274.824.824 0 0 0 .065-.323m.86-4.73c0 .116-.015.2-.046.251-.031.052-.071.077-.12.077h-.634c.114.12.194.252.24.396.046.145.07.295.07.451 0 .258-.042.488-.124.687a1.385 1.385 0 0 1-.35.506 1.57 1.57 0 0 1-.544.315 2.085 2.085 0 0 1-1.211.038 1.067 1.067 0 0 1-.376-.182.783.783 0 0 0-.145.204.591.591 0 0 0-.056.264c0 .116.053.212.16.289a.764.764 0 0 0 .425.124l1.154.05c.22.006.421.037.604.092.184.055.342.133.477.233.134.103.239.226.314.375.076.147.113.319.113.515a1.347 1.347 0 0 1-.518 1.078c-.175.14-.398.252-.671.333a3.373 3.373 0 0 1-.963.122c-.356 0-.66-.03-.911-.092a1.963 1.963 0 0 1-.617-.251.984.984 0 0 1-.349-.38 1.092 1.092 0 0 1-.107-.481c0-.11.013-.216.039-.32.025-.102.066-.2.12-.293.054-.093.122-.182.201-.267.081-.084.173-.168.278-.25a.877.877 0 0 1-.356-.314.777.777 0 0 1-.115-.409c0-.202.04-.383.122-.543.082-.159.184-.302.305-.428a1.459 1.459 0 0 1-.24-.415 1.585 1.585 0 0 1-.09-.56c0-.256.043-.485.128-.687.085-.203.204-.373.354-.513s.332-.247.543-.322c.211-.074.442-.112.69-.112a2.875 2.875 0 0 1 .703.085h1.337c.055 0 .096.027.125.083a.582.582 0 0 1 .042.25M208.272 53.059a.109.109 0 0 1-.019.066.154.154 0 0 1-.064.048.424.424 0 0 1-.122.03c-.053.006-.118.01-.197.01-.082 0-.149-.004-.201-.01a.431.431 0 0 1-.123-.03.145.145 0 0 1-.064-.048.107.107 0 0 1-.02-.066v-2.624c0-.256-.02-.462-.059-.617a1.284 1.284 0 0 0-.172-.404.74.74 0 0 0-.292-.258.907.907 0 0 0-.415-.09 1.04 1.04 0 0 0-.61.218c-.203.147-.415.36-.638.642v3.133a.11.11 0 0 1-.02.066.154.154 0 0 1-.064.048.424.424 0 0 1-.122.03c-.053.006-.12.01-.202.01-.078 0-.144-.004-.196-.01a.457.457 0 0 1-.126-.03.13.13 0 0 1-.063-.048.115.115 0 0 1-.018-.066v-6.652a.13.13 0 0 1 .018-.07.13.13 0 0 1 .063-.05.476.476 0 0 1 .126-.03c.052-.006.118-.01.196-.01.082 0 .15.004.202.01a.441.441 0 0 1 .122.03c.03.013.051.03.064.05.014.02.02.043.02.07v2.684c.233-.25.467-.434.703-.556.236-.121.472-.181.712-.181.295 0 .543.05.744.152.202.1.365.236.49.405.123.17.213.368.267.595.054.227.08.502.08.825v2.728zM210.864 53.059a.112.112 0 0 1-.019.066.154.154 0 0 1-.064.048.424.424 0 0 1-.123.03c-.052.006-.12.01-.201.01a1.66 1.66 0 0 1-.196-.01.453.453 0 0 1-.126-.03.13.13 0 0 1-.064-.048.118.118 0 0 1-.017-.066v-6.652c0-.027.005-.05.017-.07a.13.13 0 0 1 .064-.05.472.472 0 0 1 .126-.03c.051-.006.117-.01.196-.01.082 0 .149.004.201.01a.441.441 0 0 1 .123.03c.03.013.05.03.064.05.013.02.02.043.02.07v6.652zM214.679 53.183l-.59 1.648c-.02.053-.07.093-.15.122-.08.028-.202.042-.365.042a1.28 1.28 0 0 1-.207-.013.284.284 0 0 1-.12-.041.108.108 0 0 1-.047-.08.257.257 0 0 1 .025-.12l.609-1.558a.25.25 0 0 1-.083-.065.257.257 0 0 1-.055-.094l-1.577-4.282a.5.5 0 0 1-.04-.164.12.12 0 0 1 .04-.095.254.254 0 0 1 .128-.048 3.005 3.005 0 0 1 .467-.005c.055.005.1.015.132.028a.14.14 0 0 1 .071.057c.015.025.03.06.048.103l1.262 3.594h.015l1.218-3.614c.02-.063.044-.105.071-.123a.326.326 0 0 1 .126-.04c.055-.007.136-.011.24-.011.092 0 .168.004.227.011a.273.273 0 0 1 .13.048.118.118 0 0 1 .042.095c0 .04-.01.09-.03.15l-1.587 4.455zM223.159 48.528c0-.253-.056-.466-.168-.64-.11-.175-.298-.3-.56-.376a1.507 1.507 0 0 0-.277-.05 4.269 4.269 0 0 0-.406-.014h-.712v2.17h.826c.222 0 .414-.027.577-.082.161-.055.297-.13.405-.229a.896.896 0 0 0 .239-.346c.05-.133.076-.277.076-.433m1.272 4.525c0 .027-.005.05-.015.07-.01.02-.03.037-.064.05a.515.515 0 0 1-.137.03 2.455 2.455 0 0 1-.444 0 .454.454 0 0 1-.131-.032.186.186 0 0 1-.076-.063.367.367 0 0 1-.047-.1l-.585-1.518a5.759 5.759 0 0 0-.213-.475 1.554 1.554 0 0 0-.263-.374 1.083 1.083 0 0 0-.36-.244 1.271 1.271 0 0 0-.495-.087h-.565v2.743c0 .027-.008.05-.022.07a.149.149 0 0 1-.069.048.732.732 0 0 1-.128.03 1.417 1.417 0 0 1-.203.012c-.082 0-.15-.004-.205-.013a.79.79 0 0 1-.13-.03c-.033-.011-.055-.027-.068-.047a.122.122 0 0 1-.02-.07V47.09c0-.13.034-.22.1-.272a.35.35 0 0 1 .214-.077h1.352a5.418 5.418 0 0 1 .687.04c.247.044.463.111.651.204a1.447 1.447 0 0 1 .762.844c.064.184.096.388.096.61 0 .216-.029.41-.086.58-.057.171-.14.322-.248.453a1.633 1.633 0 0 1-.388.341 2.48 2.48 0 0 1-.507.244c.106.047.2.106.285.177.086.071.165.157.239.256.074.1.143.214.209.344.065.13.13.275.196.439l.57 1.418c.046.12.076.204.088.252.013.047.02.085.02.111M228.643 50.38c.01-.432-.085-.77-.284-1.016-.2-.245-.496-.368-.888-.368-.2 0-.377.038-.529.115a1.134 1.134 0 0 0-.38.303 1.393 1.393 0 0 0-.238.44 1.886 1.886 0 0 0-.093.526h2.412zm.816.244c0 .129-.032.222-.097.276a.328.328 0 0 1-.22.083h-2.911c0 .249.024.473.073.672.05.199.132.37.248.513.115.142.265.252.45.328.183.076.409.114.675.114.211 0 .398-.017.564-.052a3.326 3.326 0 0 0 .722-.234.48.48 0 0 1 .175-.052c.024 0 .044.006.063.017a.12.12 0 0 1 .042.053c.01.022.017.055.021.097.006.04.008.092.008.151a1.028 1.028 0 0 1-.017.197.254.254 0 0 1-.025.068.279.279 0 0 1-.044.057.715.715 0 0 1-.16.09 2.339 2.339 0 0 1-.344.121 4.78 4.78 0 0 1-.489.107 3.534 3.534 0 0 1-.592.047c-.363 0-.682-.05-.955-.154a1.777 1.777 0 0 1-.69-.457 1.963 1.963 0 0 1-.423-.762 3.58 3.58 0 0 1-.143-1.065c0-.386.05-.732.148-1.04.098-.306.24-.567.425-.78.185-.215.408-.38.67-.494a2.17 2.17 0 0 1 .88-.171c.347 0 .643.056.887.168.244.114.444.266.602.457.157.19.272.415.346.672.074.256.111.531.111.823v.15zM233.52 51.017h-.693c-.223 0-.416.02-.58.057a1.18 1.18 0 0 0-.407.17.695.695 0 0 0-.239.269.812.812 0 0 0-.076.36c0 .233.073.418.218.556.146.137.35.206.613.206.212 0 .41-.055.591-.164.182-.11.373-.278.573-.503v-.95zm.806 2.047c0 .04-.014.07-.04.09a.293.293 0 0 1-.108.044c-.046.01-.113.015-.202.015-.084 0-.152-.005-.203-.015a.25.25 0 0 1-.11-.045c-.024-.02-.035-.05-.035-.09v-.447c-.193.209-.41.371-.646.487a1.695 1.695 0 0 1-.754.174c-.233 0-.443-.03-.632-.092a1.359 1.359 0 0 1-.481-.266 1.206 1.206 0 0 1-.31-.429 1.431 1.431 0 0 1-.11-.577c0-.251.05-.471.152-.657.101-.186.247-.34.437-.463s.423-.215.698-.276c.275-.061.585-.092.929-.092h.609v-.349c0-.173-.018-.325-.055-.457a.79.79 0 0 0-.174-.332.748.748 0 0 0-.312-.199 1.441 1.441 0 0 0-.471-.067c-.2 0-.38.024-.538.072-.16.048-.298.1-.419.159a4.015 4.015 0 0 0-.299.16.413.413 0 0 1-.18.072.118.118 0 0 1-.068-.02.163.163 0 0 1-.052-.06.331.331 0 0 1-.032-.102.863.863 0 0 1-.009-.137.91.91 0 0 1 .017-.197.28.28 0 0 1 .084-.136c.043-.044.12-.094.228-.152.108-.058.233-.111.374-.16.14-.047.294-.087.46-.119.168-.032.337-.047.507-.047.318 0 .588.036.811.109.223.073.403.18.54.321.138.142.238.316.3.525.062.21.094.454.094.733v3.022zM236.926 53.059a.11.11 0 0 1-.02.066.15.15 0 0 1-.063.048.432.432 0 0 1-.122.03c-.053.006-.12.01-.202.01-.079 0-.145-.004-.197-.01a.45.45 0 0 1-.125-.03.131.131 0 0 1-.064-.048.122.122 0 0 1-.017-.066v-6.652c0-.027.006-.05.017-.07a.13.13 0 0 1 .064-.05.468.468 0 0 1 .125-.03c.052-.006.118-.01.197-.01.082 0 .149.004.202.01a.45.45 0 0 1 .122.03c.03.013.051.03.064.05.013.02.02.043.02.07v6.652zM239.538 53.059a.11.11 0 0 1-.02.066.152.152 0 0 1-.063.048.432.432 0 0 1-.123.03c-.052.006-.12.01-.202.01-.078 0-.144-.004-.196-.01a.45.45 0 0 1-.125-.03.129.129 0 0 1-.064-.048.118.118 0 0 1-.017-.066v-4.481c0-.024.005-.046.017-.065a.127.127 0 0 1 .064-.05.47.47 0 0 1 .125-.03c.052-.006.118-.01.196-.01.082 0 .15.004.202.01a.451.451 0 0 1 .123.03c.029.014.05.03.063.05.014.02.02.041.02.065v4.48zm.094-5.995c0 .193-.037.324-.109.393-.072.07-.204.105-.398.105-.19 0-.32-.034-.39-.102-.071-.068-.106-.197-.106-.386 0-.193.036-.324.108-.393.072-.07.205-.105.398-.105.19 0 .32.034.391.102.07.069.106.197.106.386zM244.115 51.839c0 .229-.043.433-.126.612-.084.18-.202.33-.356.453a1.581 1.581 0 0 1-.55.279 2.468 2.468 0 0 1-.703.094 2.581 2.581 0 0 1-1.12-.25.883.883 0 0 1-.172-.113.29.29 0 0 1-.078-.14.955.955 0 0 1-.025-.243c0-.063.003-.117.01-.16a.626.626 0 0 1 .023-.105.122.122 0 0 1 .043-.057.114.114 0 0 1 .06-.017c.037 0 .09.023.16.067.071.045.158.094.261.147.103.054.225.102.366.148.141.044.303.066.487.066.137 0 .262-.015.373-.044a.902.902 0 0 0 .29-.132.592.592 0 0 0 .19-.222.717.717 0 0 0 .065-.318.517.517 0 0 0-.096-.32.915.915 0 0 0-.253-.228 2.069 2.069 0 0 0-.353-.177 28.562 28.562 0 0 1-.406-.162 4.16 4.16 0 0 1-.407-.191 1.571 1.571 0 0 1-.357-.262 1.2 1.2 0 0 1-.253-.368 1.258 1.258 0 0 1-.095-.513c0-.176.033-.345.1-.505.067-.161.168-.303.303-.423.134-.122.302-.219.503-.292.202-.073.437-.11.705-.11a2.35 2.35 0 0 1 .673.104c.095.031.176.064.243.098.067.035.118.066.153.092.035.027.057.05.068.07.012.02.02.042.025.067a1.265 1.265 0 0 1 .022.227c0 .056-.002.105-.007.146a.398.398 0 0 1-.024.103.143.143 0 0 1-.042.057.09.09 0 0 1-.054.017c-.03 0-.073-.018-.128-.054a1.712 1.712 0 0 0-.217-.117 2.32 2.32 0 0 0-.31-.118 1.412 1.412 0 0 0-.412-.054c-.137 0-.258.015-.364.047a.713.713 0 0 0-.257.134.58.58 0 0 0-.153.207.649.649 0 0 0-.051.259c0 .13.033.238.098.326a.974.974 0 0 0 .255.232c.106.066.225.126.36.179l.41.164c.139.057.277.12.412.19.136.07.257.154.361.254.105.099.19.218.253.358.065.139.097.305.097.498M249.658 47.064c0 .193-.036.324-.108.393-.072.07-.204.105-.399.105-.19 0-.319-.034-.39-.102-.07-.068-.106-.197-.106-.386 0-.192.036-.323.108-.394.073-.069.205-.104.399-.104.19 0 .32.034.39.103.07.068.106.196.106.385zm-.348 1.384c.097 0 .164.023.2.067a.31.31 0 0 1 .054.197v4.347a.117.117 0 0 1-.02.067.15.15 0 0 1-.065.047.482.482 0 0 1-.126.03 1.84 1.84 0 0 1-.393 0 .485.485 0 0 1-.126-.03.146.146 0 0 1-.065-.047.11.11 0 0 1-.02-.067V49.13h-2.285v2.499c0 .308.045.542.135.7.09.157.252.236.484.236a.828.828 0 0 0 .202-.023 1.796 1.796 0 0 0 .275-.094.206.206 0 0 1 .088-.023c.017 0 .032.005.047.013s.027.024.034.047a.52.52 0 0 1 .022.094c.007.04.01.09.01.15 0 .096-.006.172-.02.226a.28.28 0 0 1-.058.125.345.345 0 0 1-.118.077.922.922 0 0 1-.18.057 2.354 2.354 0 0 1-.44.052c-.228 0-.425-.03-.589-.092a.952.952 0 0 1-.403-.278 1.15 1.15 0 0 1-.228-.473 2.772 2.772 0 0 1-.072-.675v-2.618h-.619c-.048 0-.088-.028-.117-.08a.568.568 0 0 1-.045-.26.89.89 0 0 1 .013-.158.454.454 0 0 1 .032-.108.128.128 0 0 1 .05-.06.147.147 0 0 1 .072-.017h.614v-1.065c0-.024.006-.046.018-.065a.146.146 0 0 1 .063-.053.438.438 0 0 1 .126-.032c.052-.006.118-.01.197-.01.081 0 .149.004.2.01a.403.403 0 0 1 .124.032c.03.015.05.033.064.053.013.02.02.041.02.065v1.065h2.845zM254.549 52.376c0 .057-.002.106-.005.147a.413.413 0 0 1-.047.18.512.512 0 0 1-.079.094c-.04.042-.11.093-.208.155a2.024 2.024 0 0 1-.332.164 2.472 2.472 0 0 1-.4.117 2.2 2.2 0 0 1-.447.044c-.318 0-.6-.053-.845-.159a1.583 1.583 0 0 1-.617-.466 2.1 2.1 0 0 1-.378-.751 3.667 3.667 0 0 1-.13-1.028c0-.441.053-.82.16-1.138.106-.316.251-.576.437-.78.184-.202.402-.351.653-.45a2.219 2.219 0 0 1 1.59-.002 1.616 1.616 0 0 1 .486.294c.04.04.066.07.08.095.015.023.028.05.038.082.01.031.016.067.02.107.003.04.004.09.004.149 0 .13-.015.22-.044.27-.03.053-.065.078-.108.078-.05 0-.106-.027-.17-.082a2.663 2.663 0 0 0-.242-.181 1.894 1.894 0 0 0-.357-.183 1.354 1.354 0 0 0-.494-.081c-.39 0-.689.152-.896.455-.209.304-.313.744-.313 1.322 0 .289.028.542.081.76.055.216.134.399.24.545a.977.977 0 0 0 .385.325c.152.072.326.107.523.107.186 0 .35-.03.491-.09.14-.059.264-.124.367-.196.102-.07.19-.136.26-.194.07-.058.125-.087.164-.087a.09.09 0 0 1 .059.02c.017.013.03.035.042.067.011.032.02.072.024.12.005.048.008.105.008.171M260.62 47.597h-.004l-1.097 3.211h2.212l-1.111-3.211zm2.737 5.282c.026.073.04.132.042.177.001.044-.011.08-.037.102-.026.023-.07.038-.13.045-.061.006-.142.01-.243.01a2.95 2.95 0 0 1-.244-.008.534.534 0 0 1-.137-.025.139.139 0 0 1-.07-.047.348.348 0 0 1-.04-.074l-.546-1.57h-2.643l-.521 1.55a.2.2 0 0 1-.11.132.45.45 0 0 1-.133.032c-.058.006-.132.01-.224.01a1.74 1.74 0 0 1-.234-.013c-.06-.008-.103-.024-.127-.046-.024-.024-.036-.058-.034-.104a.603.603 0 0 1 .041-.175l2.133-5.985a.262.262 0 0 1 .051-.09.22.22 0 0 1 .093-.055.71.71 0 0 1 .158-.026c.063-.006.145-.008.243-.008.104 0 .191.002.26.008a.784.784 0 0 1 .168.026.233.233 0 0 1 .098.058c.022.024.04.055.053.092l2.133 5.984zM268.415 53.059a.126.126 0 0 1-.017.066.129.129 0 0 1-.061.048.409.409 0 0 1-.116.03c-.047.006-.105.01-.174.01a1.43 1.43 0 0 1-.184-.01.369.369 0 0 1-.113-.03.12.12 0 0 1-.057-.048.15.15 0 0 1-.014-.066v-.593c-.253.282-.501.488-.747.617-.246.13-.495.194-.747.194-.295 0-.543-.05-.745-.149a1.308 1.308 0 0 1-.489-.406 1.647 1.647 0 0 1-.267-.597 3.633 3.633 0 0 1-.081-.83v-2.717c0-.027.006-.05.017-.067a.147.147 0 0 1 .066-.05.4.4 0 0 1 .128-.03 2.15 2.15 0 0 1 .393 0 .373.373 0 0 1 .125.03c.031.014.054.031.066.05.014.018.02.04.02.067v2.608c0 .263.019.473.057.63.037.158.095.292.172.404a.796.796 0 0 0 .292.258.879.879 0 0 0 .413.092c.203 0 .406-.073.607-.218a3.46 3.46 0 0 0 .64-.643v-3.131c0-.027.007-.05.018-.067a.145.145 0 0 1 .067-.05.381.381 0 0 1 .125-.03c.05-.005.117-.008.2-.008.078 0 .142.003.195.008a.346.346 0 0 1 .123.03.2.2 0 0 1 .067.05c.014.018.021.04.021.067v4.48zM272.643 49.962c0-.306-.083-.544-.249-.715-.165-.17-.4-.256-.704-.256a.98.98 0 0 0-.41.08.807.807 0 0 0-.29.219.926.926 0 0 0-.172.321c-.038.12-.057.248-.057.38 0 .296.083.528.248.697.166.17.397.255.696.255.16 0 .3-.026.417-.078a.784.784 0 0 0 .292-.214.913.913 0 0 0 .172-.316c.038-.12.057-.244.057-.373m.407 3.55a.505.505 0 0 0-.232-.446c-.157-.104-.367-.16-.632-.167l-1.144-.04a2.062 2.062 0 0 0-.259.237c-.067.075-.12.146-.16.214a.726.726 0 0 0-.08.202.889.889 0 0 0-.023.204c0 .215.109.379.324.49.216.111.518.167.904.167.246 0 .452-.024.617-.072.165-.049.3-.112.4-.192a.707.707 0 0 0 .22-.274.824.824 0 0 0 .065-.323m.86-4.73c0 .116-.015.2-.046.251-.031.052-.071.077-.12.077h-.634c.114.12.195.252.241.396.045.145.068.295.068.451 0 .258-.041.488-.123.687a1.385 1.385 0 0 1-.35.506 1.573 1.573 0 0 1-.544.315 2.09 2.09 0 0 1-1.211.038 1.067 1.067 0 0 1-.376-.182.794.794 0 0 0-.145.204.591.591 0 0 0-.056.264c0 .116.053.212.16.289a.764.764 0 0 0 .425.124l1.154.05c.22.006.421.037.604.092.184.055.342.133.477.233.135.103.239.226.314.375.075.147.113.319.113.515a1.347 1.347 0 0 1-.518 1.078c-.175.14-.398.252-.671.333a3.37 3.37 0 0 1-.963.122c-.356 0-.66-.03-.911-.092a1.968 1.968 0 0 1-.617-.251.984.984 0 0 1-.349-.38 1.092 1.092 0 0 1-.107-.481c0-.11.013-.216.039-.32.025-.102.066-.2.12-.293.054-.093.122-.182.201-.267.081-.084.173-.168.278-.25a.877.877 0 0 1-.356-.314.777.777 0 0 1-.115-.409c0-.202.04-.383.122-.543.082-.159.184-.302.305-.428a1.459 1.459 0 0 1-.24-.415 1.585 1.585 0 0 1-.09-.56c0-.256.043-.485.128-.687.085-.203.204-.373.354-.513s.332-.247.543-.322a2.07 2.07 0 0 1 .69-.112 2.875 2.875 0 0 1 .703.085h1.337c.055 0 .097.027.125.083a.575.575 0 0 1 .042.25M281.813 53.059a.112.112 0 0 1-.02.066.154.154 0 0 1-.064.048.424.424 0 0 1-.122.03c-.053.006-.118.01-.197.01-.082 0-.149-.004-.201-.01a.462.462 0 0 1-.126-.03.153.153 0 0 1-.067-.048.115.115 0 0 1-.019-.066v-2.724c0-.19-.016-.362-.049-.517a1.203 1.203 0 0 0-.157-.404.733.733 0 0 0-.275-.258.819.819 0 0 0-.394-.09c-.186 0-.373.072-.562.218a3.92 3.92 0 0 0-.621.642v3.133a.107.107 0 0 1-.02.066.142.142 0 0 1-.067.048.458.458 0 0 1-.124.03 1.69 1.69 0 0 1-.197.01c-.076 0-.14-.004-.194-.01a.463.463 0 0 1-.128-.03.137.137 0 0 1-.064-.048.125.125 0 0 1-.017-.066v-2.724c0-.19-.019-.362-.054-.517a1.285 1.285 0 0 0-.162-.404.735.735 0 0 0-.663-.348c-.188 0-.376.072-.566.218-.19.147-.396.36-.619.642v3.133a.112.112 0 0 1-.02.066.155.155 0 0 1-.063.048.417.417 0 0 1-.123.03 1.75 1.75 0 0 1-.201.01c-.08 0-.145-.004-.197-.01a.45.45 0 0 1-.125-.03.13.13 0 0 1-.064-.048.115.115 0 0 1-.017-.066v-4.481c0-.027.004-.05.014-.067a.128.128 0 0 1 .06-.05.318.318 0 0 1 .112-.03c.046-.005.107-.008.182-.008.072 0 .132.003.18.008a.286.286 0 0 1 .11.03.164.164 0 0 1 .057.05c.011.018.016.04.016.067v.592c.25-.282.491-.49.726-.62.233-.131.47-.196.71-.196.183 0 .348.022.494.064.145.044.273.104.385.182.111.078.206.17.285.279.078.108.144.228.196.36.147-.162.288-.3.42-.412.133-.113.26-.204.383-.274.124-.07.243-.12.36-.152a1.34 1.34 0 0 1 .35-.047c.286 0 .525.05.718.152.193.1.35.236.47.405.118.17.204.368.254.595.05.227.077.467.077.72v2.833zM286.552 50.38c.01-.432-.085-.77-.284-1.016-.2-.245-.496-.368-.888-.368-.2 0-.377.038-.529.115a1.136 1.136 0 0 0-.38.303 1.401 1.401 0 0 0-.238.44 1.887 1.887 0 0 0-.094.526h2.413zm.816.244c0 .129-.032.222-.097.276a.328.328 0 0 1-.22.083h-2.912c0 .249.025.473.074.672.05.199.132.37.248.513.115.142.265.252.45.328.183.076.408.114.674.114.212 0 .399-.017.564-.052a3.306 3.306 0 0 0 .723-.234.48.48 0 0 1 .175-.052.11.11 0 0 1 .062.017c.018.012.032.03.042.053a.35.35 0 0 1 .022.097 1.218 1.218 0 0 1-.01.348.24.24 0 0 1-.068.125.734.734 0 0 1-.16.09 2.331 2.331 0 0 1-.344.121c-.14.04-.303.076-.489.107a3.534 3.534 0 0 1-.592.047c-.363 0-.682-.05-.956-.154a1.777 1.777 0 0 1-.69-.457 1.975 1.975 0 0 1-.423-.762 3.595 3.595 0 0 1-.142-1.065c0-.386.05-.732.148-1.04.098-.306.24-.567.425-.78.185-.215.408-.38.67-.494.262-.115.556-.171.88-.171.347 0 .642.056.887.168.244.114.444.266.602.457.157.19.272.415.346.672.073.256.11.531.11.823v.15zM292.71 53.059a.109.109 0 0 1-.02.066.154.154 0 0 1-.064.048.424.424 0 0 1-.122.03c-.053.006-.118.01-.197.01-.082 0-.149-.004-.201-.01a.431.431 0 0 1-.123-.03.145.145 0 0 1-.064-.048.107.107 0 0 1-.02-.066v-2.624c0-.256-.02-.462-.059-.617a1.284 1.284 0 0 0-.172-.404.74.74 0 0 0-.292-.258.907.907 0 0 0-.415-.09 1.04 1.04 0 0 0-.61.218c-.203.147-.415.36-.638.642v3.133a.11.11 0 0 1-.02.066.154.154 0 0 1-.064.048.424.424 0 0 1-.122.03c-.053.006-.12.01-.202.01-.078 0-.144-.004-.196-.01a.457.457 0 0 1-.126-.03.13.13 0 0 1-.063-.048.115.115 0 0 1-.018-.066v-4.481c0-.027.005-.05.015-.067a.126.126 0 0 1 .06-.05.313.313 0 0 1 .112-.03c.046-.005.107-.008.182-.008.071 0 .131.003.18.008a.283.283 0 0 1 .11.03.162.162 0 0 1 .056.05c.012.018.017.04.017.067v.592c.25-.282.497-.49.745-.62.247-.131.497-.196.75-.196.294 0 .542.05.743.152.202.1.365.236.49.405.123.17.213.368.267.595.054.227.08.5.08.82v2.733zM296.697 52.73c0 .096-.007.173-.02.23a.254.254 0 0 1-.059.123.36.36 0 0 1-.118.075.917.917 0 0 1-.179.057 2.189 2.189 0 0 1-.44.052c-.23 0-.426-.03-.589-.092a.945.945 0 0 1-.403-.278 1.14 1.14 0 0 1-.228-.473 2.815 2.815 0 0 1-.071-.675v-2.618h-.62c-.05 0-.088-.028-.118-.08a.565.565 0 0 1-.045-.26c0-.062.005-.115.013-.158a.452.452 0 0 1 .032-.108.126.126 0 0 1 .051-.06.149.149 0 0 1 .072-.017h.615v-1.065c0-.024.005-.045.017-.064a.139.139 0 0 1 .063-.054.438.438 0 0 1 .126-.032c.052-.006.118-.009.196-.009.082 0 .15.003.201.009a.41.41 0 0 1 .124.032c.029.016.05.033.063.054.013.019.02.04.02.064v1.065h1.135c.026 0 .048.006.068.018a.14.14 0 0 1 .052.059.322.322 0 0 1 .032.108c.007.043.01.096.01.159 0 .12-.015.205-.044.259-.03.052-.07.08-.118.08H295.4v2.499c0 .308.045.542.135.7.09.157.252.236.484.236a.823.823 0 0 0 .201-.023 1.58 1.58 0 0 0 .276-.094.204.204 0 0 1 .087-.023c.017 0 .032.005.048.013.015.008.026.024.034.047a.566.566 0 0 1 .022.094c.007.04.01.09.01.15M300.92 50.38c.01-.432-.085-.77-.284-1.016-.199-.245-.496-.368-.888-.368a1.136 1.136 0 0 0-.91.419 1.401 1.401 0 0 0-.236.44 1.87 1.87 0 0 0-.094.525h2.412zm.816.244c0 .129-.032.222-.096.276a.33.33 0 0 1-.22.083h-2.912c0 .249.024.473.074.672.05.199.132.37.247.513.115.142.265.252.45.328.183.076.409.114.675.114.211 0 .399-.017.563-.052a3.334 3.334 0 0 0 .724-.234.48.48 0 0 1 .175-.052c.023 0 .044.006.062.017a.12.12 0 0 1 .042.053.35.35 0 0 1 .021.097 1.218 1.218 0 0 1-.009.348.239.239 0 0 1-.069.125.734.734 0 0 1-.16.09 2.312 2.312 0 0 1-.343.121c-.142.04-.304.076-.49.107a3.534 3.534 0 0 1-.591.047c-.363 0-.683-.05-.956-.154a1.776 1.776 0 0 1-.69-.457 1.963 1.963 0 0 1-.423-.762 3.58 3.58 0 0 1-.142-1.065c0-.386.049-.732.148-1.04.097-.306.24-.567.424-.78.185-.215.409-.38.671-.494a2.17 2.17 0 0 1 .88-.171c.346 0 .642.056.886.168.244.114.444.266.602.457.157.19.273.415.346.672.074.256.11.531.11.823v.15zM306.243 49.907a3.233 3.233 0 0 0-.636-.63 1.095 1.095 0 0 0-.641-.217.902.902 0 0 0-.526.15c-.144.1-.26.23-.351.393-.09.163-.156.347-.197.553a3.21 3.21 0 0 0-.061.627c0 .226.017.446.052.663.034.215.093.407.179.574.085.168.197.303.339.404.14.1.317.152.53.152.108 0 .212-.015.313-.045.1-.03.202-.08.307-.15.105-.07.214-.16.329-.27.114-.112.236-.25.363-.412v-1.792zm.816 3.152a.142.142 0 0 1-.017.07.12.12 0 0 1-.06.046.446.446 0 0 1-.11.028 1.3 1.3 0 0 1-.34 0 .485.485 0 0 1-.112-.028.132.132 0 0 1-.064-.047.126.126 0 0 1-.02-.07v-.592a3.013 3.013 0 0 1-.724.598c-.25.142-.525.213-.823.213-.324 0-.601-.064-.83-.192a1.57 1.57 0 0 1-.558-.517 2.312 2.312 0 0 1-.312-.767 4.241 4.241 0 0 1-.098-.928c0-.385.04-.733.123-1.044a2.35 2.35 0 0 1 .363-.793c.16-.22.36-.388.597-.505a1.83 1.83 0 0 1 .823-.177c.259 0 .495.056.71.171.215.115.426.284.636.506v-2.604c0-.023.006-.046.017-.068.011-.021.034-.037.067-.049a.694.694 0 0 1 .125-.03c.05-.008.115-.012.194-.012.082 0 .15.004.201.012a.59.59 0 0 1 .123.03c.03.012.052.028.067.05a.123.123 0 0 1 .022.067v6.632zM314.497 48.528c0-.253-.056-.466-.167-.64-.111-.175-.298-.3-.56-.376a1.5 1.5 0 0 0-.278-.05 4.269 4.269 0 0 0-.405-.014h-.713v2.17h.826c.222 0 .415-.027.577-.082.162-.055.297-.13.406-.229a.892.892 0 0 0 .238-.346c.05-.133.076-.277.076-.433m1.272 4.525c0 .027-.004.05-.014.07-.01.02-.031.037-.064.05a.507.507 0 0 1-.138.03 2.451 2.451 0 0 1-.444 0 .454.454 0 0 1-.13-.032.189.189 0 0 1-.076-.063.381.381 0 0 1-.047-.1l-.585-1.518a5.761 5.761 0 0 0-.213-.475 1.568 1.568 0 0 0-.263-.374 1.086 1.086 0 0 0-.36-.244 1.273 1.273 0 0 0-.495-.087h-.566v2.743c0 .027-.007.05-.021.07a.15.15 0 0 1-.07.048.735.735 0 0 1-.127.03 1.421 1.421 0 0 1-.203.012 1.43 1.43 0 0 1-.205-.013.79.79 0 0 1-.13-.03c-.033-.011-.056-.027-.069-.047a.121.121 0 0 1-.02-.07V47.09c0-.13.035-.22.101-.272a.348.348 0 0 1 .213-.077h1.352a5.418 5.418 0 0 1 .688.04c.246.044.462.111.65.204a1.446 1.446 0 0 1 .762.844c.064.184.096.388.096.61 0 .216-.028.41-.086.58-.057.171-.14.322-.248.453a1.624 1.624 0 0 1-.388.341c-.15.096-.319.178-.506.244.105.047.2.106.285.177.085.071.165.157.238.256.074.1.143.214.209.344.066.13.13.275.197.439l.57 1.418c.046.12.075.204.087.252a.43.43 0 0 1 .02.111M319.982 50.38c.01-.432-.085-.77-.285-1.016-.199-.245-.495-.368-.887-.368-.2 0-.377.038-.529.115a1.136 1.136 0 0 0-.38.303 1.401 1.401 0 0 0-.238.44 1.887 1.887 0 0 0-.094.526h2.413zm.816.244c0 .129-.032.222-.097.276a.328.328 0 0 1-.22.083h-2.912c0 .249.025.473.074.672.05.199.132.37.247.513.116.142.265.252.45.328.184.076.41.114.675.114.212 0 .399-.017.564-.052a3.326 3.326 0 0 0 .723-.234.48.48 0 0 1 .175-.052.11.11 0 0 1 .062.017c.018.012.032.03.042.053a.35.35 0 0 1 .022.097 1.228 1.228 0 0 1 .003.263c-.004.032-.007.06-.012.085a.24.24 0 0 1-.07.125.715.715 0 0 1-.16.09 2.331 2.331 0 0 1-.343.121c-.14.04-.304.076-.489.107a3.534 3.534 0 0 1-.592.047c-.363 0-.682-.05-.956-.154a1.777 1.777 0 0 1-.69-.457 1.975 1.975 0 0 1-.423-.762 3.595 3.595 0 0 1-.142-1.065c0-.386.05-.732.148-1.04.098-.306.24-.567.425-.78.185-.215.408-.38.67-.494a2.17 2.17 0 0 1 .88-.171c.346 0 .642.056.887.168.244.114.444.266.602.457.157.19.272.415.346.672.073.256.11.531.11.823v.15zM324.858 51.017h-.693c-.222 0-.416.02-.579.057-.164.039-.3.095-.408.17a.695.695 0 0 0-.238.269.818.818 0 0 0-.076.36c0 .233.072.418.218.556.146.137.35.206.612.206.213 0 .41-.055.592-.164.182-.11.373-.278.572-.503v-.95zm.806 2.047c0 .04-.013.07-.04.09a.293.293 0 0 1-.108.044c-.046.01-.112.015-.2.015-.086 0-.154-.005-.205-.015a.246.246 0 0 1-.11-.045c-.023-.02-.035-.05-.035-.09v-.447c-.192.209-.409.371-.645.487-.238.116-.49.174-.755.174a2.02 2.02 0 0 1-.63-.092 1.357 1.357 0 0 1-.483-.266 1.206 1.206 0 0 1-.31-.429 1.431 1.431 0 0 1-.11-.577c0-.251.05-.471.152-.657a1.28 1.28 0 0 1 .437-.463c.191-.123.423-.215.699-.276.274-.061.584-.092.928-.092h.61v-.349c0-.173-.018-.325-.055-.457a.794.794 0 0 0-.174-.332.75.75 0 0 0-.312-.199 1.444 1.444 0 0 0-.472-.067c-.2 0-.38.024-.537.072-.16.048-.299.1-.419.159-.119.059-.22.111-.3.16a.417.417 0 0 1-.179.072.117.117 0 0 1-.068-.02.159.159 0 0 1-.052-.06.32.32 0 0 1-.032-.102.922.922 0 0 1-.01-.137c0-.083.006-.149.017-.197a.288.288 0 0 1 .084-.136c.044-.044.12-.094.228-.152.108-.058.233-.111.374-.16.14-.047.294-.087.461-.119.168-.032.336-.047.507-.047.318 0 .588.036.81.109.223.073.403.18.54.321.138.142.239.316.3.525.063.21.094.454.094.733v3.022zM328.265 53.059a.109.109 0 0 1-.02.066.154.154 0 0 1-.063.048.424.424 0 0 1-.123.03c-.052.006-.12.01-.201.01a1.66 1.66 0 0 1-.197-.01.453.453 0 0 1-.125-.03.13.13 0 0 1-.064-.048.118.118 0 0 1-.017-.066v-6.652c0-.027.005-.05.017-.07a.13.13 0 0 1 .064-.05.472.472 0 0 1 .125-.03c.052-.006.118-.01.197-.01.082 0 .149.004.201.01a.441.441 0 0 1 .123.03c.03.013.05.03.064.05.013.02.019.043.019.07v6.652zM330.876 53.059a.11.11 0 0 1-.02.066.155.155 0 0 1-.063.048.432.432 0 0 1-.123.03c-.052.006-.12.01-.202.01-.078 0-.144-.004-.196-.01a.457.457 0 0 1-.126-.03.13.13 0 0 1-.063-.048.118.118 0 0 1-.017-.066v-4.481c0-.024.005-.046.017-.065a.128.128 0 0 1 .063-.05.478.478 0 0 1 .126-.03c.052-.006.118-.01.196-.01.082 0 .15.004.202.01a.451.451 0 0 1 .123.03c.029.014.05.03.063.05.014.02.02.041.02.065v4.48zm.094-5.995c0 .193-.037.324-.109.393-.072.07-.204.105-.398.105-.19 0-.32-.034-.39-.102-.07-.068-.106-.197-.106-.386 0-.193.036-.324.108-.393.072-.07.205-.105.398-.105.19 0 .32.034.391.102.07.069.106.197.106.386zM334.976 52.73c0 .096-.007.173-.02.23a.254.254 0 0 1-.059.123.362.362 0 0 1-.117.075.937.937 0 0 1-.18.057 2.222 2.222 0 0 1-.44.052c-.229 0-.425-.03-.589-.092a.945.945 0 0 1-.402-.278 1.146 1.146 0 0 1-.23-.473 2.815 2.815 0 0 1-.07-.675v-2.618h-.62c-.049 0-.088-.028-.117-.08a.565.565 0 0 1-.045-.26c0-.062.005-.115.013-.158a.452.452 0 0 1 .032-.108.124.124 0 0 1 .122-.077h.615v-1.065c0-.024.005-.045.017-.064a.139.139 0 0 1 .064-.054.438.438 0 0 1 .125-.032c.052-.006.118-.009.197-.009.082 0 .149.003.2.009a.41.41 0 0 1 .124.032c.029.016.05.033.064.054.012.019.02.04.02.064v1.065h1.134c.026 0 .05.006.07.018.02.011.036.031.05.059a.332.332 0 0 1 .033.108c.006.043.01.096.01.159a.56.56 0 0 1-.045.259c-.029.052-.069.08-.118.08h-1.135v2.499c0 .308.045.542.135.7.09.157.252.236.485.236a.822.822 0 0 0 .2-.023 1.58 1.58 0 0 0 .276-.094.204.204 0 0 1 .088-.023c.017 0 .032.005.048.013.014.008.025.024.033.047a.607.607 0 0 1 .023.094c.006.04.01.09.01.15M338.363 53.183l-.589 1.648c-.02.053-.07.093-.15.122-.08.028-.202.042-.366.042-.085 0-.154-.004-.206-.013a.288.288 0 0 1-.121-.041.109.109 0 0 1-.046-.08.246.246 0 0 1 .024-.12l.61-1.558a.245.245 0 0 1-.084-.065.25.25 0 0 1-.054-.094l-1.577-4.282a.503.503 0 0 1-.04-.164.12.12 0 0 1 .04-.095.253.253 0 0 1 .128-.048 2.997 2.997 0 0 1 .467-.005.47.47 0 0 1 .132.028.142.142 0 0 1 .071.057c.015.025.03.06.047.103l1.262 3.594h.016l1.217-3.614c.02-.063.044-.105.072-.123a.331.331 0 0 1 .126-.04c.055-.007.136-.011.24-.011.092 0 .167.004.226.011a.269.269 0 0 1 .13.048.117.117 0 0 1 .042.095c0 .04-.01.09-.03.15l-1.587 4.455z"/>
        </g>
    </g>
</svg>
