<svg xmlns="http://www.w3.org/2000/svg" xmlns:xlink="http://www.w3.org/1999/xlink" width="253" height="110" viewBox="0 0 253 110">
    <defs>
        <path id="a" d="M.831.566h16.89V17.82H.831z"/>
        <path id="c" d="M0 1.083h20.69v20.906H0z"/>
        <path id="e" d="M.23.283H20.9V21.15H.23z"/>
        <path id="g" d="M0 46.434h234.973V1.175H0z"/>
    </defs>
    <g fill="none" fill-rule="evenodd" transform="translate(9 31)">
        <path fill="#FFF" d="M12.74 4.915c-.416-.68-1.04-1.208-1.643-1.7l.568-.397c.583.493 1.206 1.002 1.696 1.588l-.621.509zm-8.132 5.521H7.38V7.92H4.608v2.516zm-.7.66h4.17V7.258h-4.17v3.836zm4.604 1.417c-1.717.473-3.454.964-5.151 1.493l-.397-.7c.925-.151 3.227-.813 5.548-1.53v.737zm1.15-9.544c.02.7.058 1.398.133 2.117h4.756v.68h-4.72c.115 1.796.586 3.402 1.116 4.877.679-.927 1.546-2.873 1.85-3.725l.658.266c-.622 1.455-1.282 2.872-2.17 4.214.68 1.246 1.323 2.21 1.643 2.36.15.077.283-.036.36-.13l.716-1.229.622.416c-.453.662-.679 2.004-1.829 1.757-.774-.17-1.379-1.55-2.02-2.437-1.207 1.7-3.396 3.212-3.908 3.514l-.603-.49a13.644 13.644 0 0 0 4.191-3.743c-.643-1.793-1.19-3.665-1.34-5.65H2.698v-.68h6.343l-.115-2.06.736-.057zM2.248 15.933h12.795V2.46H2.247v13.473zM1.51 1.78h14.267v16.288h-.735v-1.475H2.247l-.019 1.475H1.51V1.78zM27.097 1.609c.83.945 1.659 1.928 2.337 2.872l-.62.415c-.699-.98-1.455-2.003-2.303-2.909l.586-.378zm-3.624 5.556c1.547 2.985 2.773 5.611 3.377 7.822l-.678.305c-.887-2.78-1.983-5.122-3.36-7.843l.661-.284zM21.17 5.653h14.72v-.699H21.17v.7zM36.813 16.88v.716H20.17v-.716h8.397c1.943-3.441 2.906-6.257 4.04-9.998l.716.244c-1.227 4.198-2.603 7.562-3.924 9.754h7.414zM52.907 6.578l-9.171.02V7.73h9.17V6.578zm-9.87-.661h10.567v2.497H43.019l.018-2.497zm12.192 5.972V9.962H41.491v2.04h-.7V9.281h15.135v2.59l-.697.018zM40.754 2.706h7.208V1.419h.7v1.287h7.283v.68H48.64v1.02l5.758.019v.661l-12.154.019v-.662l5.718-.018v-1.02h-7.19l-.018-.7zM54.228 14.8c-.47-.378-.888-.757-1.396-1.078l-4.192.264v1.305l5.813-.019v.68H48.64v1.361l8.154-.019v.698h-16.87v-.698l8.02.02v-1.361l-5.681-.02v-.68h5.682v-1.267l-3.361.189-1.886.228-.096-.795c1.265-.51 2.472-1.151 3.662-1.852l-3.755-.037v-.68h11.644v.68H47.49c-1.226.738-2.377 1.55-3.736 1.908.32.04.641-.075.964-.094l7.188-.378c-.453-.322-1.019-.605-1.528-.83l.51-.454c1.282.718 2.64 1.454 3.792 2.474l-.452.455zM75.68 10.661c-.15-.757-.34-1.513-.605-2.229l.586-.134c.244.718.434 1.455.623 2.192l-.604.171zm-1.793.038c-.077-.737-.15-1.474-.302-2.174l.603-.056c.134.718.208 1.454.284 2.192l-.585.038zM75.793 7.9c-.095-.263-.189-.452-.302-.697-1.056.15-2.095.434-3.152.642l-.207-.549c.811-.794 1.47-1.739 2.114-2.627l-1.944.151-.15-.302c.64-.982 1.169-2.023 1.6-3.08l.551.302c-.359.833-.793 1.625-1.265 2.4.528-.018 1.095-.075 1.64-.094.23-.36.472-.737.644-1.079l.546.361c-.81 1.303-1.717 2.607-2.811 3.723.66-.077 1.473-.284 2.19-.398-.097-.283-.247-.53-.36-.793l.546-.189c.304.623.624 1.303.906 1.983l-.546.246zm-3.415 2.968l-.568-.134c.21-.623.454-2.114.471-2.322l.55.168c-.096.777-.284 1.514-.453 2.288zm-3.359-1.021h1.736V8.242h-1.736v1.606zm.717-7.048c-.264-.454-.529-.91-.888-1.324l.528-.225c.321.432.604.85.85 1.284l-.49.265zm-1.397 7.672h3.095V7.619H68.34v2.853zm-.02-4.006h3.134v-.625H68.32v.625zm-.018-1.473h3.17v-.625H68.3v.625zm-.585-1.531v-.624l4.321-.02v.644h-4.321zm-.548 7.218c-.15-.738-.34-1.436-.565-2.174l.565-.15c.189.529.415 1.453.566 2.23l-.566.094zm-1.812.113c.039-.793-.093-1.399-.168-2.172l.603-.02c.094.775.15 1.455.19 2.134l-.625.058zm9.683 6.86c-.114.397-.284 1.114-1.397 1.06l-2.925-.152-.301-.682 3.394.228c.605.037.72-1.173.887-1.986h-10.32l.621-2.588h9.36v-1.34h-9.87v-.626h10.57v2.59h-9.494l-.32 1.342h10.304a20.273 20.273 0 0 1-.51 2.153zm-7.795-9.714L67 7.297c-1.02.19-2.077.358-3.094.588l-.247-.399c.753-.7 1.886-2.285 2.151-2.665a18.36 18.36 0 0 0-1.904.398l-.208-.434c.678-1.059 1.206-2.269 1.715-3.442l.547.286a35.88 35.88 0 0 1-1.397 2.87c.53-.092 1.058-.208 1.605-.244.285-.34.472-.737.7-1.097l.507.285c-.886 1.454-1.641 2.531-2.641 3.704a42.13 42.13 0 0 0 1.944-.361l-.282-.737.583-.244.832 1.964-.567.17zM63.867 11l-.548-.114c.225-.53.454-1.908.508-2.4l.568.152c-.15.774-.303 1.606-.528 2.362zm-1.169-6.463a35.38 35.38 0 0 0-2.208-2.192l.47-.548c.605.548 1.567 1.568 2.151 2.211l-.413.53zm-2.304 14.06l-.566-.323c1.454-3.38 1.715-4.553 2.547-7.293l.641.302a50.365 50.365 0 0 1-2.622 7.313zm1.679-9.732c-.772-.85-1.473-1.551-2.303-2.212l.455-.473c.83.737 1.471 1.363 2.302 2.136l-.454.549z"/>
        <g transform="translate(78.618 .609)">
            <mask id="b" fill="#fff">
                <use xlink:href="#a"/>
            </mask>
            <path fill="#FFF" d="M17.117 17.82C15.23 16.57 10.549 12.148 9.21 7.804c-1.512 5.27-4.776 7.65-7.702 9.975l-.678-.566c5.189-3.741 7.17-6.764 7.775-10.941h-7.19v-.758h7.265c.133-1.662.133-3.306.114-4.95h.812c.037 1.682-.04 3.307-.115 4.97h7.738v.738H9.436c1.643 5.026 4.434 8.143 8.285 10.941l-.604.605z" mask="url(#b)"/>
        </g>
        <path fill="#FFF" d="M105.809 4.425c.528-.36 1.093-.7 1.623-1.114-.473-.36-.983-.625-1.473-.908l.414-.473c.568.283 1.094.623 1.644.926.507-.36.961-.755 1.415-1.209.207.058.376.208.565.322-.415.452-.926.887-1.377 1.264.45.342.944.662 1.415.984l-.435.49c-.49-.301-.98-.716-1.49-1-.566.358-1.114.774-1.697 1.154l-.604-.436zm2.358 1.964c.453-.32.925-.641 1.34-1.02.226.058.414.228.603.36-.471.377-.905.738-1.396 1.077l1.754 1.266-.508.471h-.077L108.09 7.24c-.736.416-1.471.85-2.208 1.248-.19-.114-.32-.34-.49-.471.68-.397 1.395-.738 2.055-1.192-.49-.34-1.035-.623-1.565-.927l.472-.471c.565.282 1.133.604 1.68.943l.132.02zm-8.001 5.292V9.037h1.434l-.49-6.331c1.394-.321 2.772-.682 3.998-1.381.247.133.454.34.68.474-1.187.622-2.51 1.038-3.85 1.359.04.417.02.85.077 1.267l3.208.018-.019.662-3.115.02c.021.491.076 1.038.115 1.55l3.02-.021v.68h-2.946c.019.586.057 1.173.094 1.739h11.08l.132-1.719-2.91-.02.02-.68 2.945.02.131-1.549h-3.055l-.021-.663h3.115l.114-1.417h-3.53v-.679h4.36l-.491 6.707h1.434l-.019 2.704h-.753V9.735H100.92v1.984l-.754-.038zm8.112 6.122c0 .379-.3.738-.865.757-.36.019-1.021.076-1.55 0l-.376-.718c.472.019 1.094.075 1.566.019.34-.058.491-.247.491-.474v-2.626h-7.642v-.679h7.622l.02-.72c1.13-.434 2.246-.981 3.338-1.454l-8.339-.037v-.68h9.793v.754c-.642.304-1.32.605-1.904.927-.7.264-1.454.624-2.133.927l.018.264h7.643l.019.68h-7.68l-.021 3.06z"/>
        <g transform="translate(0 24.109)">
            <mask id="d" fill="#fff">
                <use xlink:href="#c"/>
            </mask>
            <path fill="#FFF" d="M8.596 8.254c-1.12.427-1.814.573-2.08.442a.62.62 0 0 1-.287-.4c-.088-.441.067-.706.464-.796 2.433-.544 4.158-1.793 5.174-3.742H8.662C7.482 4.91 6.672 5.465 6.229 5.42a.861.861 0 0 1-.377-.31c-.103-.192-.13-.362-.086-.51-.017-.161.086-.294.31-.397a5.121 5.121 0 0 0 1.501-1.154c.105-.132.208-.25.31-.352 0-.016.007-.022.007-.022.103-.119.2-.244.303-.376.441-.782.73-1.18.864-1.196.16-.045.33-.016.506.087.147.074.25.2.31.378.03.102-.065.397-.286.885h9.485c.514.046.889.186 1.126.422.22.205.34.45.353.728.074.576-.244 1.152-.949 1.728-.413.31-1.004.598-1.77.864-.192.087-.36.125-.508.11a.62.62 0 0 1-.397-.287c-.119-.193-.155-.362-.113-.511a.71.71 0 0 1 .289-.397c.884-.326 1.48-.6 1.791-.82.057-.132.043-.25-.044-.355-.118-.118-.34-.177-.663-.177H13.7c1.813 2.556 3.915 4.037 6.302 4.451.221.045.384.14.485.287.06.148.081.318.067.509a.626.626 0 0 1-.286.4c-.15.089-.332.111-.553.066-2.785-.517-5.085-2.103-6.898-4.76a9.265 9.265 0 0 1-4.222 3.543zm-3.98 6.86h12.401v-1.703H4.616v1.704zm12.401-3.008v-1.04c-.014-.282-.086-.489-.219-.622-.177-.16-.43-.236-.752-.22H5.435c-.282.015-.494.097-.643.244a.834.834 0 0 0-.177.598v1.04h12.402zM4.615 16.42v.91c-.015.323.052.576.199.752.148.147.353.22.62.22h10.612c.308 0 .553-.094.73-.286a.99.99 0 0 0 .241-.686v-.91H4.615zm2.831 3.19c.03.028.05.065.066.11a.74.74 0 0 1 0 .509.912.912 0 0 1-.42.353c-1.636.65-3.566 1.114-5.794 1.396-.219.03-.396-.007-.53-.11a.545.545 0 0 1-.264-.444.594.594 0 0 1 .11-.487c.102-.163.273-.25.507-.265 1.814-.207 3.429-.56 4.844-1.063h-.907c-.59-.029-1.025-.184-1.306-.465-.309-.31-.455-.692-.441-1.151v-7.328c.015-.545.163-.973.441-1.284.325-.31.762-.465 1.306-.465h11.673c.516 0 .913.163 1.193.487.25.341.384.762.4 1.262v7.328c0 .486-.141.871-.422 1.151-.324.31-.714.465-1.17.465h-1.239c.014 0 .045.009.09.024 3.122.544 4.804 1.017 5.04 1.417.073.132.087.293.043.486-.06.192-.161.318-.31.376a.81.81 0 0 1-.553.024 47.491 47.491 0 0 0-3.139-.823c-1.871-.381-2.837-.602-2.896-.662a.623.623 0 0 1-.131-.466c0-.148.05-.271.154-.376H7.446zM5.191 2.275c.206 0 .361.051.462.155a.703.703 0 0 1 .178.486.856.856 0 0 1-.178.465.581.581 0 0 1-.462.199H1.034C.813 3.567.651 3.508.55 3.404a.698.698 0 0 1-.177-.487.842.842 0 0 1 .177-.464.705.705 0 0 1 .485-.177h4.157zm.485 3.407a.718.718 0 0 1 .4.29.86.86 0 0 1 .107.51.607.607 0 0 1-.262.42 1.65 1.65 0 0 0-.333.22C2.67 8.778.94 9.494.394 9.273a.6.6 0 0 1-.333-.376c-.074-.206-.08-.383-.022-.532a.624.624 0 0 1 .397-.31c2.123-.722 3.693-1.467 4.71-2.235a.848.848 0 0 1 .53-.136z" mask="url(#d)"/>
        </g>
        <path fill="#FFF" d="M35.04 32.427v-4.824h-2.364c-.236 0-.42-.067-.553-.2a.85.85 0 0 1-.177-.464c.03-.208.095-.362.2-.465.132-.12.308-.179.53-.179h7.208c.5-.013.913.141 1.237.466.31.325.471.673.488 1.04.204 9.742.448 15.04.727 15.897.162.398.295.604.4.618.338-.028.625-1.173.86-3.431 0-.221.073-.398.221-.531a.739.739 0 0 1 .465-.155.59.59 0 0 1 .443.223.727.727 0 0 1 .176.531c-.325 2.774-.73 4.433-1.215 4.98-.236.236-.486.346-.751.331h-.097c-.957-.176-1.547-.95-1.783-2.322-.369-1.24-.626-6.378-.775-15.409 0-.282-.073-.494-.22-.642a.938.938 0 0 0-.687-.288h-3.027v4.824a60.767 60.767 0 0 1-.133 2.747 1.117 1.117 0 0 0-.022.242c1.135-.426 2.034-.817 2.697-1.172a.697.697 0 0 1 .53-.09.857.857 0 0 1 .354.334c.088.192.112.361.067.51-.131.368-1.215.913-3.251 1.636-.206.06-.397.135-.574.223-.442 3.334-1.415 6.155-2.92 8.458-.544.662-.957.994-1.237.994a.702.702 0 0 1-.442-.221c-.235-.34-.2-.664.11-.973 1.342-1.372 2.389-3.986 3.14-7.837-2.094.574-3.258.796-3.494.664a.484.484 0 0 1-.286-.422.942.942 0 0 1 .045-.509c.1-.133.25-.222.44-.264a37.654 37.654 0 0 0 3.494-.886c.117-2.156.176-3.299.176-3.434zm-8.51 7.485c-.25-.016-.428.052-.531.197-.119.121-.176.29-.176.513v2.987c.013.28.071.494.176.642.09.133.265.199.53.199h2.476c.25-.015.45-.09.596-.221.134-.147.208-.355.222-.62v-2.987a.736.736 0 0 0-.2-.513c-.132-.131-.339-.197-.618-.197H26.53zm3.757-4.496c.207 0 .362.053.465.156a.713.713 0 0 1 .178.488.87.87 0 0 1-.178.465.593.593 0 0 1-.465.2h-4.774c-.223-.015-.385-.074-.486-.178a.703.703 0 0 1-.178-.487.856.856 0 0 1 .178-.466.705.705 0 0 1 .486-.178h4.774zm0-3.098c.207 0 .362.05.465.155a.707.707 0 0 1 .178.487.88.88 0 0 1-.178.466.597.597 0 0 1-.465.2h-4.774c-.223-.017-.385-.077-.486-.178a.713.713 0 0 1-.178-.488.845.845 0 0 1 .178-.465.7.7 0 0 1 .486-.177h4.774zm0-6.2c.207 0 .362.054.465.157a.712.712 0 0 1 .178.486.862.862 0 0 1-.178.465.593.593 0 0 1-.465.2h-4.863c-.22-.015-.383-.074-.486-.178a.705.705 0 0 1-.178-.487.863.863 0 0 1 .178-.466.704.704 0 0 1 .486-.176h4.863zm-4.199 19.638c-.575-.015-.982-.178-1.218-.487a1.665 1.665 0 0 1-.352-1.108v-3.962c-.015-.471.133-.849.441-1.13.295-.308.671-.464 1.13-.464h3.448c.486-.014.868.132 1.148.445.28.307.426.692.444 1.149v3.962a1.726 1.726 0 0 1-.444 1.13 1.56 1.56 0 0 1-1.148.465h-3.449zm5.26-16.536c.207 0 .362.05.466.153a.709.709 0 0 1 .176.487.878.878 0 0 1-.176.465.588.588 0 0 1-.466.199h-6.72c-.221-.014-.384-.073-.485-.178a.7.7 0 0 1-.178-.486.842.842 0 0 1 .178-.464.704.704 0 0 1 .485-.176h6.72zM57.439 28.133h-8.247c-.22-.014-.382-.072-.486-.176a.704.704 0 0 1-.177-.486.858.858 0 0 1 .177-.467.7.7 0 0 1 .486-.177H66.97c.206 0 .36.053.464.156a.71.71 0 0 1 .176.488.851.851 0 0 1-.176.463.593.593 0 0 1-.464.2h-8.137v15.341h9.109c.205 0 .361.053.463.154a.715.715 0 0 1 .178.49.851.851 0 0 1-.178.464.596.596 0 0 1-.463.2H48.307c-.219-.017-.38-.076-.485-.177a.709.709 0 0 1-.178-.488.851.851 0 0 1 .178-.465.702.702 0 0 1 .485-.178h9.132V28.133zM82.226 27.426c-.22 0-.381.05-.486.155a.765.765 0 0 0-.153.486v2.303c.014.208.072.34.176.398a.758.758 0 0 0 .463.133h7.34c.192 0 .318-.051.376-.155a.657.657 0 0 0 .155-.376v-2.303a1.411 1.411 0 0 0-.11-.465c-.09-.118-.229-.176-.42-.176h-7.34zm-.708 4.782c-.382-.03-.685-.141-.904-.332a1.148 1.148 0 0 1-.333-.864V27.38c0-.338.112-.628.333-.863.233-.265.537-.399.904-.399h8.692c.352 0 .645.134.883.4.206.25.31.539.31.862v3.63c0 .298-.118.576-.354.843-.208.22-.487.339-.84.354h-8.69zm3.538 8.413h-5.638c-.22-.017-.382-.075-.486-.178a.712.712 0 0 1-.176-.488.834.834 0 0 1 .176-.463.702.702 0 0 1 .486-.178h5.638v-3.52c-3.035.25-4.686.267-4.953.045a.64.64 0 0 1-.197-.465c0-.208.05-.377.155-.51a.625.625 0 0 1 .464-.178c4.2-.028 7.627-.464 10.28-1.306.206-.058.385-.044.531.045.132.074.227.206.287.397a.98.98 0 0 1-.043.51c-.164.37-1.638.753-4.423 1.152-.295.031-.561.074-.796.132v3.698h5.262c.207 0 .361.05.464.154a.707.707 0 0 1 .179.487.886.886 0 0 1-.179.467.593.593 0 0 1-.464.199H86.36v3.564h4.996c.206 0 .363.052.465.155a.707.707 0 0 1 .176.486.85.85 0 0 1-.176.465.598.598 0 0 1-.465.2H79.95c-.22-.016-.384-.075-.486-.176a.714.714 0 0 1-.177-.489.836.836 0 0 1 .177-.465.702.702 0 0 1 .486-.176h5.106V40.62zm-8.688 5.002a.694.694 0 0 1-.198.51.717.717 0 0 1-.465.2.857.857 0 0 1-.464-.18c-.119-.13-.177-.307-.177-.53v-9.984c-1.49 3.334-2.497 5.025-3.029 5.07-.162.045-.33.013-.507-.088a1.024 1.024 0 0 1-.267-.422.72.72 0 0 1 .154-.553c1.519-2.126 2.676-4.37 3.471-6.73h-2.63c-.221-.016-.383-.075-.486-.177a.709.709 0 0 1-.179-.489.845.845 0 0 1 .179-.463.7.7 0 0 1 .486-.177h2.808v-3.785c-.986.163-1.82.287-2.497.376a.683.683 0 0 1-.487-.134.66.66 0 0 1-.221-.465.63.63 0 0 1 .131-.463.628.628 0 0 1 .465-.245c2.595-.34 4.49-.71 5.683-1.108a.752.752 0 0 1 .508 0c.147.076.25.199.309.378.06.191.06.362 0 .507-.03.164-.162.274-.398.334-.56.207-1.29.406-2.189.597v4.008h2.433c.205 0 .36.051.463.154a.709.709 0 0 1 .176.486.864.864 0 0 1-.176.468.596.596 0 0 1-.463.198h-2.433v.575a113.559 113.559 0 0 1 2.853 3.81.486.486 0 0 1 .11.463c-.014.178-.11.318-.286.42-.177.12-.334.156-.466.111-.147-.029-.294-.153-.441-.376a31.648 31.648 0 0 0-1.77-2.59v10.294z"/>
        <g transform="translate(95.046 25.284)">
            <mask id="f" fill="#fff">
                <use xlink:href="#e"/>
            </mask>
            <path fill="#FFF" d="M17.674 7.234h-3.252c-.205-.015-.36-.073-.463-.177-.105-.104-.155-.25-.155-.445a.56.56 0 0 1 .155-.419.629.629 0 0 1 .463-.176h3.252V4.665h-3.252c-.205-.015-.36-.075-.463-.176-.105-.104-.155-.252-.155-.444 0-.176.05-.317.155-.42a.635.635 0 0 1 .463-.18h3.252v-.662c0-.191-.075-.383-.222-.574-.163-.193-.385-.288-.663-.288h-2.455c-.236-.016-.406-.074-.508-.179a.745.745 0 0 1-.177-.442.654.654 0 0 1 .177-.42.787.787 0 0 1 .508-.179h2.81c.574.018 1.024.187 1.347.51.323.355.485.799.485 1.33v5.8c.68.043 1.174.337 1.484.883.368.591.264 1.648-.31 3.167-.09.236-.207.384-.353.444a.634.634 0 0 1-.489.023c-.396-.15-.523-.445-.374-.888.397-.974.5-1.593.309-1.86-.222-.295-.561-.441-1.016-.441H3.302c-.398 0-.708.118-.928.354-.191.223-.288.516-.288.885v1.46a.717.717 0 0 1-.2.532.842.842 0 0 1-.463.177c-.206-.03-.361-.095-.463-.197a.79.79 0 0 1-.177-.511v-1.881c-.016-.635.184-1.15.596-1.55.236-.265.538-.428.907-.487V2.76c-.059-.515.051-.95.33-1.305.281-.367.686-.561 1.216-.575a9.47 9.47 0 0 0 1.37-.155c.46-.06.863-.141 1.217-.245.222-.042.407-.014.553.09.132.073.222.207.267.399v.155c-.03.412-.598.694-1.704.84-.043 0-.073.008-.088.022-1.033.12-1.6.243-1.701.376-.121.164-.172.385-.157.666v.418h2.962c.194 0 .34.053.444.157.103.102.155.25.155.442a.571.571 0 0 1-.155.422.568.568 0 0 1-.444.198H3.59v1.261h3.052c.192 0 .34.054.442.155.103.104.156.252.156.443a.567.567 0 0 1-.156.421.563.563 0 0 1-.442.199H3.59v1.218h8.779a5.214 5.214 0 0 1-.243-.155 13.32 13.32 0 0 0-1.527-1.128.703.703 0 0 0-.265.155c-1.43.84-2.344 1.173-2.741.995a.871.871 0 0 1-.289-.377.936.936 0 0 1 .068-.464.709.709 0 0 1 .418-.31c.62-.221 1.197-.466 1.727-.73-.856-.517-1.305-.841-1.35-.975a.652.652 0 0 1 .022-.442.798.798 0 0 1 .376-.331c.19-.046.863.316 2.01 1.084.474-.353.938-.753 1.395-1.195a.346.346 0 0 1 .176-.134c-.059-.043-.118-.088-.176-.133-.413-.324-.87-.65-1.37-.974a.57.57 0 0 0-.156.11c-1.429.859-2.342 1.21-2.74 1.063a.743.743 0 0 1-.287-.354.701.701 0 0 1 .02-.464.69.69 0 0 1 .421-.331 14.786 14.786 0 0 0 1.636-.73c-.959-.606-1.46-.96-1.504-1.064a.662.662 0 0 1 .023-.443A.806.806 0 0 1 8.388.7c.221-.058.951.318 2.187 1.13.488-.384.974-.826 1.46-1.329.163-.146.317-.22.464-.22.163.015.31.074.444.177a.632.632 0 0 1 .176.42c-.014.209-.517.753-1.505 1.639.856.56 1.305.96 1.35 1.196a.564.564 0 0 1-.11.442 1.936 1.936 0 0 1-.199.176.654.654 0 0 1 .198.135.627.627 0 0 1 .176.42c-.014.266-.485.753-1.415 1.461.988.678 1.505 1.128 1.55 1.35a.69.69 0 0 1-.135.467c-.118.087-.205.154-.265.197h4.91V7.234zm-4.07 10.294c.032 1.032-.199 1.817-.685 2.348-.426.455-.87.795-1.326 1.017-.488.237-1.313.31-2.476.22-1.179-.088-2.507-.472-3.979-1.15a.616.616 0 0 1-.397-.287.689.689 0 0 1-.046-.489.622.622 0 0 1 .287-.397c.134-.074.295-.09.488-.045 1.458.636 2.631.982 3.516 1.042.867.072 1.53.02 1.988-.156.339-.132.67-.4.995-.796.206-.313.302-.708.288-1.198a1.99 1.99 0 0 0-.53-1.24H.893c-.222-.013-.385-.073-.486-.177a.707.707 0 0 1-.177-.486.835.835 0 0 1 .177-.464.7.7 0 0 1 .486-.178h9.151c-.396-.266-.596-.53-.596-.797 0-.338.179-.537.53-.597 2.978-.695 4.54-1.113 4.688-1.262.073-.087.067-.155-.022-.2a.555.555 0 0 0-.242-.045H5.05c-.208 0-.361-.065-.463-.197a.68.68 0 0 1-.155-.422c0-.191.051-.34.155-.442a.677.677 0 0 1 .463-.156h10.148c.531.045.87.134 1.017.267.208.145.34.331.398.553.073.206.06.442-.045.709-.132.282-.427.553-.884.819-.825.353-2.189.775-4.09 1.262.251.163.473.331.664.508h8.003c.205 0 .363.05.464.154a.715.715 0 0 1 .177.488.858.858 0 0 1-.177.466.593.593 0 0 1-.464.198h-6.942c.176.34.274.717.286 1.13z" mask="url(#f)"/>
        </g>
        <path fill="#FFF" d="M133.682 39.912a.851.851 0 0 1 .177-.465.66.66 0 0 1 .486-.2.788.788 0 0 1 .508.245c1.312 1.298 2.662 3.04 4.047 5.224.103.191.145.376.132.553a.727.727 0 0 1-.287.422 1.01 1.01 0 0 1-.486.087c-.162-.03-.31-.14-.443-.332-1.371-2.153-2.675-3.838-3.913-5.047a.673.673 0 0 1-.221-.487zm-6.655-11.578c-4.348.147-6.664.08-6.942-.2a.658.658 0 0 1-.2-.486c.016-.223.075-.4.18-.533a.788.788 0 0 1 .506-.176c6.766.266 12.278-.2 16.537-1.396a.718.718 0 0 1 .575.066c.133.09.228.23.287.423.045.22.023.404-.064.552a.73.73 0 0 1-.421.31c-1.622.4-4.556.842-8.8 1.328a.666.666 0 0 1-.065.09c-.694 1.106-1.756 2.53-3.184 4.27 1.237.754 1.886 1.262 1.946 1.53a.532.532 0 0 1-.09.464.828.828 0 0 1-.375.31c-.176.044-.361 0-.553-.133a37.71 37.71 0 0 0-5.04-3.054.938.938 0 0 1-.42-.354.68.68 0 0 1-.023-.512.827.827 0 0 1 .33-.374c.4-.163 1.46.332 3.185 1.482a36.4 36.4 0 0 0 2.631-3.607zm-2.699 10.98a.828.828 0 0 1 .512.087.845.845 0 0 1 .286.4.925.925 0 0 1-.11.576c-.297.472-.575.913-.842 1.326-2.196 2.718-3.522 4.075-3.978 4.075a.703.703 0 0 1-.486-.2.67.67 0 0 1-.177-.463.786.786 0 0 1 .243-.51c1.903-1.816 3.271-3.46 4.111-4.937.119-.192.265-.31.441-.354zm-4.508-1.372c-.237 0-.42-.045-.554-.133a.777.777 0 0 1-.197-.467c0-.22.05-.383.155-.486a.811.811 0 0 1 .53-.222l7.783-.31c1.945-2.007 3.81-4.278 5.592-6.818.103-.191.244-.309.421-.353.16-.046.331-.016.508.089.146.117.242.25.287.397.132.56-1.547 2.766-5.04 6.619l7.494-.31a23.381 23.381 0 0 0-1.923-2.28c-.149-.16-.222-.332-.222-.509 0-.163.067-.31.199-.441a.655.655 0 0 1 .487-.2c.176.014.339.095.487.242 1.296 1.344 2.652 3.151 4.067 5.424.089.177.125.353.112.53a.71.71 0 0 1-.288.423.988.988 0 0 1-.487.087c-.177-.043-.331-.161-.464-.353a67.273 67.273 0 0 0-1.15-1.77l-7.429.374v8.058a.7.7 0 0 1-.198.513.724.724 0 0 1-.463.197.857.857 0 0 1-.466-.179c-.119-.131-.177-.307-.177-.53V37.52l-9.064.422zM158.224 32.54c-.883 1.74-2.151 3.1-3.802 4.072-.236.134-.427.17-.574.113a.738.738 0 0 1-.466-.865c.045-.148.163-.272.354-.376.635-.369 1.18-.739 1.636-1.108.664-.692 1.35-1.667 2.056-2.922h-3.692a.54.54 0 0 1-.399-.154.568.568 0 0 1-.13-.377c0-.147.044-.271.13-.376a.654.654 0 0 1 .4-.133h.951l.53-2.39a.72.72 0 0 1 .288-.466c.131-.087.294-.11.486-.066.176.03.317.11.42.243.087.163.11.354.066.576l-.465 2.103h1.77c.31-1.386.485-2.457.53-3.21h-4.222a.54.54 0 0 1-.4-.155.563.563 0 0 1-.132-.377c0-.146.045-.273.133-.376a.652.652 0 0 1 .399-.133h8.401c.146 0 .271.045.376.133.087.103.131.23.131.376 0 .149-.044.272-.131.377a.515.515 0 0 1-.376.155h-2.964c-.089 1.344-.265 2.412-.53 3.21h3.757a.56.56 0 0 1 .378.133c.09.105.134.23.134.376 0 .15-.045.273-.134.377a.51.51 0 0 1-.378.154h-4.066a2.673 2.673 0 0 0-.266.665l.008-.023a.74.74 0 0 1 .436-.177.69.69 0 0 1 .44.177c.118.118.177.289.177.51v2.147c.015.295.096.508.244.642.147.09.33.14.554.156h.131c1.267-.03 1.925-.266 1.97-.708.013-1.094.072-1.662.175-1.706.088-.119.25-.17.486-.155.134.015.242.095.333.244.045.147.066.295.066.442-.03.325-.045.554-.045.686-.03 1.003-.288 1.685-.774 2.037-.265.134-.64.2-1.127.2-1.475 0-2.389-.156-2.743-.465-.337-.324-.5-.782-.486-1.373V32.45c-.028.017-.044.045-.044.09zm-11.165 8.39v.554c0 .25.052.45.154.597.119.131.295.2.53.2h10.57c.236-.029.427-.097.575-.2.133-.164.206-.361.22-.597v-.554h-12.05zm12.05-1.04v-.754a.663.663 0 0 0-.198-.486c-.134-.132-.333-.2-.598-.2h-10.57c-.219-.013-.396.045-.53.179-.102.116-.154.286-.154.507v.755h12.05zm-11.873 3.43c-.545-.014-.927-.163-1.149-.441a1.519 1.519 0 0 1-.33-1.04v-2.947c0-.427.139-.782.417-1.062.267-.294.62-.434 1.062-.42h11.696c.441 0 .802.141 1.082.42.251.297.385.652.4 1.062v2.947c-.015.413-.156.759-.421 1.04a1.442 1.442 0 0 1-1.06.441h-11.697zm-2.21-13.592v.686c0 .192.05.317.155.377.103.073.243.11.42.11h5.263c.16-.029.272-.073.33-.133a.484.484 0 0 0 .133-.354v-.686h-6.3zm6.301-.953v-.509a1.065 1.065 0 0 0-.11-.42.444.444 0 0 0-.353-.155H145.6c-.193-.016-.339.029-.443.133-.087.102-.132.25-.132.442v.509h6.301zm.509 4.87c-1.637.548-3.935.843-6.898.885.014.268.096.468.243.6.09.044.208.086.353.131 3.744-.013 5.725-.063 5.947-.153.163-.118.272-.554.332-1.306 0-.09.008-.14.023-.157zm-6.987-1.791c-.353-.015-.627-.112-.818-.29a.951.951 0 0 1-.31-.773v-2.924c0-.294.098-.551.29-.773.234-.252.514-.368.838-.355h1.901c.03-.059.067-.118.111-.178.25-.34.429-.65.53-.93.089-.206.206-.337.353-.399a.647.647 0 0 1 .466 0c.16.077.272.185.332.334.044.161-.068.552-.332 1.173h3.36c.324 0 .582.118.774.355.19.235.286.494.286.773v2.924a1.283 1.283 0 0 1-.309.751c-.19.208-.44.312-.75.312h-6.722zm6.5.686a.917.917 0 0 1 .487.042c.117.076.204.2.265.377 0 .135-.008.275-.021.422a.992.992 0 0 1 .374-.023.357.357 0 0 1 .31.244c.029.074.043.274.043.597a.687.687 0 0 0-.021.113c-.03.886-.287 1.49-.773 1.814-.265.117-.642.184-1.13.2-1.724.044-3.52.044-5.394 0-.573-.03-1.025-.185-1.347-.466-.355-.325-.523-.798-.51-1.417v-1.837c.016-.221.074-.398.179-.532a.687.687 0 0 1 .462-.197.85.85 0 0 1 .467.176c.131.132.198.315.198.553v.707c2.683-.072 4.82-.331 6.412-.773zm11.406 11.689c.194 0 .34.05.444.155.104.103.155.25.155.442 0 .176-.05.318-.155.42a.567.567 0 0 1-.444.2h-19.188c-.206-.014-.36-.073-.465-.177-.103-.104-.155-.25-.155-.443 0-.178.052-.315.155-.42a.628.628 0 0 1 .465-.177h19.188z"/>
        <mask id="h" fill="#fff">
            <use xlink:href="#g"/>
        </mask>
        <path fill="#FFF" d="M179.145 34.622h4.532v-7.196h-4.532v7.196zm-.023 1.304c-.178 3.852-1.194 6.796-3.052 8.835-.53.5-.927.744-1.194.73a.55.55 0 0 1-.419-.244.618.618 0 0 1-.111-.177c-.074-.208.23-.664.907-1.373 1.71-2.111 2.564-4.7 2.564-7.771h-2.166c-.222-.015-.384-.074-.486-.176a.703.703 0 0 1-.177-.488.844.844 0 0 1 .177-.464.699.699 0 0 1 .486-.176h2.188v-7.196h-1.48c-.223-.014-.386-.074-.487-.179a.697.697 0 0 1-.177-.486.858.858 0 0 1 .177-.465.698.698 0 0 1 .486-.178h9.994c.205 0 .36.053.462.157a.707.707 0 0 1 .179.486.867.867 0 0 1-.179.465.591.591 0 0 1-.462.2h-1.373v7.196h1.901c.208 0 .363.05.467.152a.72.72 0 0 1 .176.488.88.88 0 0 1-.176.464.592.592 0 0 1-.467.2h-1.9v9.697a.69.69 0 0 1-.198.509.708.708 0 0 1-.465.2.833.833 0 0 1-.464-.178c-.119-.131-.176-.309-.176-.53v-9.698h-4.555zm-8.823-2.477c-.25-.018-.426.05-.53.197-.118.12-.177.29-.177.508v8.568c.016.281.074.495.176.643.09.133.268.2.53.2h1.946c.251-.014.45-.09.599-.222.132-.147.205-.354.221-.62v-8.569a.736.736 0 0 0-.199-.508c-.134-.133-.34-.197-.62-.197h-1.946zm-.441 11.421c-.575-.014-.98-.177-1.216-.486a1.677 1.677 0 0 1-.355-1.108v-7.061c-.543.928-.928 1.4-1.147 1.417a.636.636 0 0 1-.488-.113c-.163-.131-.25-.272-.265-.418a.897.897 0 0 1 .133-.531 34.672 34.672 0 0 0 1.791-3.213c.028-.235.11-.426.242-.575.62-1.49 1.06-3.216 1.328-5.18h-2.455c-.22-.014-.383-.074-.486-.176a.703.703 0 0 1-.176-.486.836.836 0 0 1 .176-.467.7.7 0 0 1 .486-.177h6.81c.206 0 .359.053.463.156a.705.705 0 0 1 .177.488.844.844 0 0 1-.177.463.59.59 0 0 1-.464.2h-3.052c-.322 1.727-.69 3.239-1.103 4.537h2.696c.486-.013.87.134 1.15.442.279.312.427.694.442 1.154v9.54c-.015.444-.163.82-.441 1.13a1.57 1.57 0 0 1-1.151.464h-2.918zM198.47 28.311a9.916 9.916 0 0 1-.464 2.812c-.589 1.609-1.731 2.7-3.425 3.276-.989.368-2.153.604-3.494.709-.22.014-.407-.029-.553-.133a.56.56 0 0 1-.244-.444c-.059-.442.155-.687.64-.729 2.449-.208 4.114-.753 4.998-1.639.78-.798 1.195-2.08 1.24-3.852h-3.739c-.398 0-.706.12-.93.354-.19.222-.286.517-.286.886v1.637c0 .222-.067.4-.198.53a.84.84 0 0 1-.463.178c-.208-.028-.363-.095-.465-.197a.784.784 0 0 1-.176-.511v-2.059c-.017-.633.183-1.15.595-1.548.385-.384.893-.576 1.525-.576h7.077v-1.218c0-.22.05-.384.153-.487a.706.706 0 0 1 .485-.178.856.856 0 0 1 .467.178.666.666 0 0 1 .198.487v1.218h7.185c.443-.015.797.066 1.061.243.236.15.426.354.575.62.369.59.265 1.616-.308 3.078-.09.236-.208.382-.355.442a.616.616 0 0 1-.487.022c-.396-.146-.522-.442-.374-.886.382-.945.486-1.535.309-1.77-.222-.297-.561-.443-1.017-.443h-4.024v4.36c-.016.342.074.578.265.71.163.104.362.163.597.177h3.027c1.357-.014 2.036-.31 2.036-.886 0-.885.065-1.395.2-1.527.131-.117.337-.17.617-.155.163.014.294.12.399.31.059.163.088.45.088.863-.014 1.195-.332 2.014-.95 2.458-.34.146-.803.227-1.393.242h-4.178c-.606-.015-1.092-.183-1.46-.509-.368-.34-.553-.84-.553-1.505v-4.538h-4.201zm-6.301 9.209c-.235 0-.42-.065-.553-.2a.871.871 0 0 1-.177-.464c.03-.204.098-.362.2-.464.133-.119.31-.176.53-.176h5.77c.031-.445.045-.909.045-1.396v-.798c.015-.22.073-.397.176-.531a.723.723 0 0 1 .465-.2c.176.016.33.075.465.177.133.134.199.318.199.554v.798l-.045 1.396h5.217c.518.013.95.204 1.305.573.28.311.42.694.42 1.153v5.512c0 .47.11.82.331 1.038.237.193.576.296 1.018.313h.84c.5-.017.847-.14 1.04-.376.206-.268.316-.605.331-1.018v-2.658c0-.208.043-.376.133-.51.104-.148.272-.22.508-.22.25 0 .421.065.508.2a.96.96 0 0 1 .155.53v3.077c-.03.458-.118.85-.264 1.172-.385.695-1.047 1.062-1.991 1.107h-1.637c-.927-.072-1.575-.418-1.943-1.039-.236-.4-.349-.82-.331-1.263v-5.312c0-.295-.068-.517-.2-.665-.193-.206-.451-.31-.774-.31h-4.755c-.354 3.365-1.775 5.831-4.266 7.395-1.09.618-2.307 1.068-3.647 1.35-.236.06-.429.06-.575 0a.595.595 0 0 1-.377-.398.906.906 0 0 1 .022-.531c.073-.162.228-.29.464-.376 1.447-.326 2.632-.761 3.561-1.307.486-.338.93-.686 1.325-1.04 1.193-1.21 1.923-2.909 2.19-5.093h-5.683zM226.771 32.563v3.851c-.015 3.159-1.392 5.962-4.133 8.412-.192.134-.377.193-.553.176a.687.687 0 0 1-.465-.242c-.057-.076-.089-.131-.089-.177-.162-.326.266-.93 1.284-1.815 1.768-1.875 2.653-3.994 2.653-6.354v-7.993c-.03-.487.109-.937.419-1.35.294-.4.67-.604 1.129-.618.617-.077 2.1-.29 4.442-.644 1.74-.355 2.675-.478 2.808-.376a.607.607 0 0 1 .265.465c0 .147-.008.274-.02.376-.267.502-2.523 1.005-6.766 1.506a.892.892 0 0 0-.707.376 1.144 1.144 0 0 0-.267.774v2.325h7.56c.207 0 .363.054.465.155a.712.712 0 0 1 .178.486.85.85 0 0 1-.178.467.598.598 0 0 1-.464.2h-2.077v13.06a.69.69 0 0 1-.2.51.714.714 0 0 1-.463.2.86.86 0 0 1-.466-.18c-.117-.13-.176-.307-.176-.53v-13.06h-4.179zm-5.15-1.33h-4.49v3.675c0 .531-.027 1.173-.087 1.926h4.422c.264 0 .464-.065.595-.2.15-.132.223-.331.223-.596v-4.142c0-.205-.068-.36-.2-.464a.598.598 0 0 0-.464-.2zm-4.687 7.262c-.208 2.11-.738 4.294-1.592 6.552-.133.192-.288.295-.465.31a.714.714 0 0 1-.532-.11c-.323-.236-.367-.576-.131-1.018 1.076-2.627 1.614-5.734 1.614-9.321v-6.575c-.031-.487.11-.936.42-1.35.294-.399.67-.607 1.127-.62a61.923 61.923 0 0 0 3.072-.441c.916-.179 1.77-.364 2.567-.555.263-.059.47-.036.617.066.178.117.274.265.29.444a.933.933 0 0 1-.112.552c-.192.206-1.488.531-3.89.973-1.505.192-2.345.408-2.52.642a1.24 1.24 0 0 0-.268.799v1.085h4.866c.5-.015.89.132 1.17.442.265.295.406.671.422 1.13v4.758c0 .562-.163 1.02-.488 1.374-.294.324-.758.494-1.392.51h-4.754c-.014.1-.021.22-.021.353z" mask="url(#h)"/>
    </g>
</svg>
