<svg xmlns="http://www.w3.org/2000/svg" xmlns:xlink="http://www.w3.org/1999/xlink" width="267" height="110" viewBox="0 0 267 110">
    <defs>
        <path id="a" d="M.184.225h28.47v28.47H.183z"/>
        <path id="c" d="M0 53h247V1H0z"/>
    </defs>
    <g fill="none" fill-rule="evenodd" transform="translate(10 29)">
        <path fill="#191455" d="M217 15c0-7.18 6.044-13 13.5-13S244 7.82 244 15s-6.044 13-13.5 13S217 22.18 217 15"/>
        <g transform="translate(216)">
            <mask id="b" fill="#fff">
                <use xlink:href="#a"/>
            </mask>
            <path fill="#FFF" d="M14.419 2.26c-6.728 0-12.2 5.473-12.2 12.2 0 6.727 5.472 12.2 12.2 12.2 6.727 0 12.2-5.473 12.2-12.2 0-6.727-5.473-12.2-12.2-12.2m0 26.435C6.569 28.695.184 22.31.184 14.46.184 6.61 6.569.225 14.419.225c7.849 0 14.234 6.386 14.234 14.235 0 7.85-6.385 14.235-14.234 14.235" mask="url(#b)"/>
        </g>
        <path fill="#191455" d="M213 52c-3.3 0-6-2.714-6-6.03V8.03c0-3.316 2.7-6.03 6-6.03s6 2.714 6 6.03v37.94c0 3.316-2.7 6.03-6 6.03"/>
        <path fill="#FFF" d="M213 3.05c-2.737 0-4.964 2.243-4.964 5v37.9c0 2.757 2.227 5 4.964 5 2.737 0 4.964-2.243 4.964-5V8.05c0-2.757-2.227-5-4.964-5M213 53c-3.86 0-7-3.162-7-7.05V8.05c0-3.888 3.14-7.05 7-7.05s7 3.162 7 7.05v37.9c0 3.888-3.14 7.05-7 7.05"/>
        <path fill="#191455" d="M199.317 12.898c-1.053-3.158.604-6.626 3.683-7.706l8.169-2.867c3.079-1.08 6.46.62 7.514 3.778 1.053 3.157-.604 6.625-3.684 7.706l-8.168 2.865c-3.079 1.081-6.46-.619-7.514-3.776"/>
        <path fill="#FFF" d="M213.076 3.057c-.525 0-1.06.087-1.583.27l-8.162 2.855a4.907 4.907 0 0 0-2.81 2.541 5.077 5.077 0 0 0-.243 3.827 4.941 4.941 0 0 0 2.485 2.874 4.777 4.777 0 0 0 3.744.247l8.162-2.854a4.904 4.904 0 0 0 2.81-2.54 5.077 5.077 0 0 0 .243-3.828c-.695-2.08-2.606-3.392-4.646-3.392M204.926 18a6.796 6.796 0 0 1-3.049-.73 6.974 6.974 0 0 1-3.504-4.053c-1.235-3.69.697-7.719 4.306-8.981l8.162-2.855c3.607-1.261 7.55.712 8.786 4.402 1.235 3.69-.697 7.719-4.306 8.98l-8.163 2.855a6.737 6.737 0 0 1-2.232.382"/>
        <path fill="#FFF" d="M213.054 3.061l-.353.01a3.18 3.18 0 0 0-.175.013l-.08.008a3.605 3.605 0 0 0-.169.023l-.053.007a5.76 5.76 0 0 0-.448.094 5.029 5.029 0 0 0-3.74 4.87v7.03l6.573-2.277c2.028-.702 3.376-2.639 3.354-4.819l-.004-.15 1.014-.112-1.016.056 1.015-.086-1.016.06a7.597 7.597 0 0 0-.015-.188l1.007-.16-1.012.107a4.046 4.046 0 0 0-.027-.209l-.004-.03a5.378 5.378 0 0 0-.03-.174l-.012-.058a5.066 5.066 0 0 0-2.282-3.277 4.985 4.985 0 0 0-2.208-.723l-.319-.015zM206 18V8.086c0-3.222 2.154-6.042 5.239-6.859.13-.033.228-.056.326-.078l.07-.013c.08-.017.173-.034.266-.049l.08-.012c.08-.013.17-.023.258-.034h.001l.098-.01.246-.02.117-.005c.072-.003.144-.005.216-.005l.16-.001.43.019a7.046 7.046 0 0 1 3.136 1.021 7.14 7.14 0 0 1 3.186 4.482l.03.141c.022.11.041.22.058.332l.005.03c.016.103.028.205.039.308l.007.064c.009.09.015.18.02.27v.01l-1.016.051 1.018-.026.004.086c.003.058.004.131.006.205.03 3.077-1.871 5.806-4.731 6.797L206 18z"/>
        <path fill="#191455" d="M246 36.5c0 8.56-6.94 15.5-15.5 15.5-8.56 0-15.5-6.94-15.5-15.5 0-8.561 6.94-15.5 15.5-15.5 8.56 0 15.5 6.939 15.5 15.5"/>
        <path fill="#FFF" d="M230.5 22.045c-7.97 0-14.455 6.485-14.455 14.455s6.484 14.455 14.455 14.455c7.97 0 14.455-6.485 14.455-14.455s-6.484-14.455-14.455-14.455m0 30.955c-9.098 0-16.5-7.402-16.5-16.5 0-9.098 7.402-16.5 16.5-16.5 9.098 0 16.5 7.402 16.5 16.5 0 9.098-7.402 16.5-16.5 16.5"/>
        <path fill="#191455" d="M230.5 21c-3.575 0-6.87 1.173-9.5 3.145A13.52 13.52 0 0 0 230.5 28a13.52 13.52 0 0 0 9.5-3.855A15.792 15.792 0 0 0 230.5 21"/>
        <path fill="#FFF" d="M222.177 24.246c2.197 1.78 4.932 2.748 7.823 2.748 2.89 0 5.626-.967 7.823-2.748a14.574 14.574 0 0 0-7.823-2.24c-2.812 0-5.492.77-7.823 2.24M230 29c-3.852 0-7.468-1.473-10.181-4.149l-.819-.807.922-.694C222.834 21.16 226.319 20 230 20c3.68 0 7.166 1.159 10.078 3.35l.922.694-.82.807C237.469 27.527 233.853 29 230 29M10.554 5.778H0V4h23v1.778H12.567V50h-2.013"/>
        <mask id="d" fill="#fff">
            <use xlink:href="#c"/>
        </mask>
        <path fill="#FFF" d="M75 50h2V4h-2zM108.646 51h-.686c-4.285 0-8.278-1.113-11.98-3.34-3.703-2.227-6.625-5.185-8.767-8.876C85.07 35.094 84 31.165 84 27c0-6.557 2.391-12.196 7.175-16.918C95.958 5.362 101.678 3 108.334 3c4.45 0 8.672 1.155 12.666 3.464v2.289c-3.91-2.639-8.133-3.959-12.666-3.959-6.115 0-11.356 2.175-15.723 6.526-4.368 4.35-6.553 9.567-6.553 15.65 0 6.082 2.185 11.309 6.553 15.68 4.367 4.371 9.608 6.556 15.723 6.556 4.533 0 8.756-1.32 12.666-3.959v2.29c-3.785 2.31-7.904 3.463-12.354 3.463M162.952 4H165v46h-2.048V32.459h-31.904V50H129V4h2.048v26.68h31.904zM175 50h2V4h-2zM44.97 3L22 50h1.904L44.785 7.223 65.851 50H68z" mask="url(#d)"/>
    </g>
</svg>
