<svg xmlns="http://www.w3.org/2000/svg" xmlns:xlink="http://www.w3.org/1999/xlink" width="368" height="80" viewBox="0 0 368 80">
    <defs>
        <path id="a" d="M.129.1H35.7v26.337H.129z"/>
        <path id="c" d="M0 79.6h185.12V.1H0z"/>
        <path id="e" d="M.005.217h7.33V5.2H.004z"/>
        <path id="g" d="M.19.217h7.329V5.2H.189z"/>
        <path id="i" d="M.028.218h4.975V5.2H.028z"/>
        <path id="k" d="M.35.206h7.388V5.2H.35z"/>
    </defs>
    <g fill="none" fill-rule="evenodd">
        <g transform="translate(91 -1.7)">
            <path fill="#62AEB2" d="M52.787 19.26l.35-.644c-3.235-1.723-6.562-2.853-9.908-3.331a29.635 29.635 0 0 0-4.15-.297c-11.04 0-20.916 6.64-24.577 16.523l3.553 1.316c3.112-8.404 11.561-14.05 21.023-14.05 1.191 0 2.409.087 3.617.259 6.415.916 12.579 4.415 18.32 10.4l2.093-2.008c-2.826-3.02-6.275-5.979-10.32-8.167"/>
            <path fill="#62AEB2" d="M26.884 63.507C17.368 59.084 11.22 49.73 11.22 39.675c0-5.087 1.49-10.01 4.31-14.236a26.825 26.825 0 0 1 3.767-4.484l1.747 1.826a24.248 24.248 0 0 0-3.412 4.06 23.05 23.05 0 0 0-3.886 12.834c0 9.215 5.442 17.47 14.203 21.542l-1.065 2.29zM73.237 42.777l-1.095-2.556a38.09 38.09 0 0 0-.406-.772c-1.918 3.632-12.008 21.366-28.599 23.735-1.355.194-2.752.637-4.073.637-3.864-.002-7.57-.815-11.015-2.418l-1.265 2.318c3.844 1.788 7.976 2.696 12.282 2.698 1.46 0 2.96-.109 4.454-.322 16.008-2.287 26.111-16.928 29.832-23.37l-.115.05z"/>
            <path fill="#E47128" d="M76.746 55.12c-3.245 4.411-6.827 8.23-10.67 11.35l.928 1.14c3.8-3.084 7.35-6.828 10.577-11.138 6.603 9.01 17.59 19.698 33.517 21.972l.378-2.642c-16.279-2.324-27.182-13.834-33.664-23.63-.306-.462-1.066 2.949-1.066 2.949"/>
            <path fill="#E5AD24" d="M119.288 66.1a30.882 30.882 0 0 1-6.388-.248c-4.89-.7-9.631-2.652-14.089-5.804l-1.386 1.96c4.772 3.373 9.864 5.466 15.135 6.22 1.587.227 3.187.342 4.756.342.661 0 1.317-.026 1.972-.066v-2.403z"/>
            <path fill="#E47128" d="M74.505 42.234l-1.268.543-1.096-2.555c-.82-1.616-3.894-7.304-9.033-12.794l-2.092 2.008c4.507 4.696 7.215 9.352 8.17 11.136l3.845 6.71 3.286-1.885-1.812-3.163z"/>
            <path fill="#62AEB2" d="M117.316 63.966c-1.362 0-2.743-.1-4.105-.296-17.122-2.445-27.14-19.83-28.974-23.29l2.649-1.405c1.051 1.983 10.732 19.44 26.751 21.728a25.95 25.95 0 0 0 3.68.265v2.998z"/>
            <path fill="#00878F" d="M141.175 32.995c-1.141-3.706-3.27-7.125-6.157-9.888-3.784-3.62-8.588-5.933-13.895-6.69l.485-3.397c6.02.859 11.477 3.49 15.782 7.607 3.31 3.168 5.752 7.095 7.065 11.358l-3.28 1.01z"/>
            <path fill="#00878F" d="M95.338 22.08l-1.617-1.842c5.824-5.115 12.16-8.191 18.836-9.143a33.675 33.675 0 0 1 4.746-.34c8.128 0 15.744 3.003 21.442 8.456l-1.695 1.77c-5.24-5.013-12.253-7.775-19.747-7.775-1.457 0-2.938.106-4.4.315-6.195.884-12.105 3.764-17.565 8.558"/>
            <path fill="#E5AD24" d="M82.887 45.95l-8.5-4.044 2.021-4.25c1.313-2.76 6.277-12.363 15.016-20.035l3.538-3.105 6.21 7.075-3.537 3.105C90.057 31.348 85.705 40.027 84.91 41.7l-2.023 4.25z"/>
            <path fill="#00878F" d="M10.928 51.025a28.108 28.108 0 0 1-2.366-11.35c0-7.822 3.16-15.152 8.899-20.641a30.388 30.388 0 0 1 6.725-4.861l1.382 2.596a27.44 27.44 0 0 0-6.074 4.39c-5.153 4.929-7.991 11.504-7.991 18.516 0 3.54.713 6.961 2.118 10.17l-2.693 1.18z"/>
            <path fill="#E5AD24" d="M21.058 22.797l-1.775-1.858c5.254-5.024 12.284-7.792 19.795-7.792 1.464 0 2.949.106 4.413.315 3.586.513 7.125 1.703 10.519 3.539l-1.222 2.26c-3.127-1.69-6.377-2.786-9.66-3.255a28.791 28.791 0 0 0-4.05-.29c-6.845 0-13.245 2.515-18.02 7.08M3.463 39.675H1.894c0-9.659 3.892-18.7 10.958-25.458l1.084 1.133C7.182 21.81 3.463 30.45 3.463 39.675"/>
            <path fill="#00878F" d="M65.543 12.858c-6.34-5.067-13.287-8.17-20.652-9.221a41.36 41.36 0 0 0-5.813-.415c-7.629 0-14.953 2.145-21.181 6.205l-1.142-1.753C23.323 3.393 31.042 1.13 39.078 1.13c2.027 0 4.083.147 6.109.436 7.74 1.105 15.028 4.354 21.662 9.657l-1.306 1.635z"/>
            <g transform="translate(76)">
                <mask id="b" fill="#fff">
                    <use xlink:href="#a"/>
                </mask>
                <path fill="#00878F" d="M4.256 26.437L.129 23.525C6.73 14.166 18.139 2.506 34.987.1l.714 5C20.635 7.254 10.285 17.892 4.256 26.438" mask="url(#b)"/>
            </g>
            <path fill="#62AEB2" d="M84.981 27.04l-2.92-2.208c5.779-7.644 15.625-17.179 29.717-19.19a39.187 39.187 0 0 1 5.526-.394c4.75 0 9.35.866 13.674 2.575l-1.345 3.404c-3.894-1.538-8.043-2.318-12.33-2.318-1.66 0-3.345.12-5.007.358C99.438 11.1 90.345 19.945 84.98 27.04"/>
            <path fill="#62AEB2" d="M79.094 33l-4.086-1.662 1.215-2.986.104-.165c5.275-8.35 16.844-22.745 35.051-25.343 1.966-.28 3.96-.422 5.925-.422v4.411c-1.757 0-3.54.128-5.3.379C96.464 9.429 86.124 20.995 80.16 30.379l-1.067 2.622z"/>
            <path fill="#62AEB2" d="M79.024 28.48l-2.114-2.594c-3.513-4.98-7.447-9.225-11.694-12.62l1.96-2.451c4.463 3.569 8.59 8.015 12.266 13.216l2.013 2.463-2.43 1.985z"/>
            <path fill="#E47128" d="M143.954 13.769c-7.108-6.801-16.572-10.547-26.65-10.547-1.927 0-3.883.14-5.812.415l-.296-2.071a43.459 43.459 0 0 1 6.108-.436c10.62 0 20.597 3.952 28.096 11.127l-1.446 1.512z"/>
            <path fill="#00878F" d="M44.381 72.135l-.762-5.339c21.345-3.047 31.98-27.909 32.085-28.16.472-1.136 11.882-27.94 36.298-31.424l.762 5.338c-21.41 3.055-31.978 27.91-32.082 28.16-.475 1.14-11.891 27.94-36.3 31.425"/>
            <path fill="#00878F" d="M21.954 66.738l2.34-4.029c5.746 3.337 12.403 4.583 19.254 3.603l.66 4.61c4.464-.637 8.824-2.165 12.961-4.541l-3.906-6.801c-3.27 1.878-6.69 3.082-10.165 3.578a28.62 28.62 0 0 1-4.034.29c-6.792 0-13.142-2.498-17.88-7.03-2.294-2.197-4.083-4.739-5.317-7.556l-6.733 2.95c1.607 3.668 3.952 7.032 6.967 9.918l-.34.354a32.796 32.796 0 0 0 6.193 4.654"/>
            <path fill="#00878F" d="M39.066 73.342c-9.354 0-18.133-3.473-24.722-9.776l1.48-1.548c6.189 5.921 14.442 9.183 23.24 9.183 1.696 0 3.421-.124 5.13-.368 17.603-2.515 28.244-17.41 33.033-26.103l1.215-2.876 1.973.834-1.285 3.026c-4.97 9.035-16.077 24.588-34.632 27.238-1.81.259-3.637.39-5.432.39"/>
            <path fill="#00878F" d="M39.066 79.135C28.21 79.134 18.01 75.09 10.34 67.75l2.712-2.834c6.936 6.64 16.174 10.296 26.012 10.297 1.888 0 3.804-.137 5.697-.409 7.338-1.048 14.249-4.172 20.543-9.286l2.473 3.044c-6.853 5.568-14.41 8.974-22.46 10.124-2.076.298-4.18.45-6.251.45"/>
            <path fill="#E5AD24" d="M44.936 76.017l-.486-3.397c15.814-2.258 26.276-14.024 32.274-23.51.183-.318 1.798-3.12 2.416-4.296l3.038 1.597c-.685 1.302-2.426 4.318-2.5 4.446l-.035.058c-6.381 10.101-17.582 22.657-34.707 25.102"/>
            <path fill="#62AEB2" d="M22.079 66.524C12.233 60.807 6.356 50.77 6.356 39.674c0-1.614.127-3.233.378-4.81l2.42.384c-.23 1.451-.347 2.94-.347 4.427 0 10.211 5.421 19.456 14.502 24.73l-1.23 2.119z"/>
            <path fill="#E47128" d="M10.268 35.425l-4.649-.738c1.346-8.478 6.032-15.97 13.197-21.094 7.276-5.205 16.336-7.352 25.518-6.042 2.068.296 4.127.778 6.123 1.433l-1.47 4.472a31.29 31.29 0 0 0-5.319-1.245c-16.29-2.319-30.965 7.873-33.4 23.214"/>
            <path fill="#E5AD24" d="M9.663 68.458C5.37 64.351 2.119 59.528 0 54.121l5.477-2.147c1.805 4.606 4.582 8.722 8.252 12.234l-4.066 4.25z"/>
            <path fill="#62AEB2" d="M39.066 76.438c-10.158-.001-19.696-3.778-26.863-10.636C5.68 59.56 1.724 51.248 1.064 42.399l-.003-.064-.097-2.596 3.429-.128.096 2.564c.603 7.99 4.185 15.5 10.087 21.148 6.524 6.243 15.221 9.683 24.488 9.684 1.781 0 3.593-.13 5.386-.387l.486 3.397c-1.954.28-3.928.42-5.87.42"/>
            <path fill="#E5AD24" d="M54.82 64.442l-1.066-1.858.929-.533c12.11-6.95 18.874-20.24 20.107-22.834l.46-.966 1.934.92-.46.966c-1.28 2.694-8.312 16.503-20.975 23.772l-.929.533z"/>
            <path fill="#00878F" d="M81.573 38.268c-.107-.257-.87-2.058-2.323-4.691l.545-.3C74.745 24.11 63.457 8.333 44.606 5.643a39.158 39.158 0 0 0-5.528-.395v3.66c1.662 0 3.347.121 5.01.359 2.039.291 3.978.758 5.829 1.36l-1.339 4.071c17.4 5.723 26.15 26.182 26.235 26.382.482 1.16 12.1 28.448 37.052 32.01l1.035-7.248C92.109 62.874 81.675 38.51 81.573 38.268"/>
            <path fill="#E5AD24" d="M150.262 39.675h-2.941c0-8.1-3.574-15.846-9.806-21.252-6.694-5.808-15.778-8.39-24.925-7.086l-.415-2.912c9.99-1.426 19.929 1.41 27.268 7.776 6.876 5.965 10.82 14.52 10.82 23.474"/>
            <mask id="d" fill="#fff">
                <use xlink:href="#c"/>
            </mask>
            <path fill="#E5AD24" d="M35.354 52.017h7.955v-24.68h-7.955z" mask="url(#d)"/>
            <path fill="#00878F" d="M26.992 43.656H51.67V35.7H26.992z" mask="url(#d)"/>
            <path fill="#62AEB2" d="M157.558 43.27l-3.144-.292c.1-1.085.152-2.196.152-3.303 0-9.683-3.9-18.747-10.981-25.521l2.183-2.282c7.709 7.376 11.955 17.25 11.955 27.803 0 1.203-.056 2.413-.165 3.595" mask="url(#d)"/>
            <path fill="#00878F" d="M146.741 45.107l-2.052-.408c.33-1.66.497-3.364.497-5.067 0-7.128-2.884-13.813-8.12-18.823l1.446-1.512c5.653 5.41 8.766 12.631 8.766 20.335 0 1.84-.18 3.682-.537 5.475" mask="url(#d)"/>
            <path fill="#E47128" d="M143.147 45.611l-4.75-1.21c.391-1.534.59-3.124.59-4.727 0-11.215-9.727-20.34-21.683-20.34-1.165 0-2.355.085-3.538.253-.314.045-.626.096-.937.153l-.885-4.821a30.214 30.214 0 0 1 5.36-.487c14.659 0 26.585 11.324 26.585 25.243 0 2.01-.25 4.007-.742 5.936" mask="url(#d)"/>
            <path fill="#00878F" d="M103.871 20.44l-.565-1.02c-11.254 6.24-17.843 18.452-19.049 20.837l-1.192 2.426-1.26-.62-.52 1.154 4.472 2.008 2.005-4.464c1.18-2.186 10.335-18.306 25.069-21.021l-.444-2.407c-2.892.535-5.752 1.576-8.516 3.107" mask="url(#d)"/>
            <path fill="#62AEB2" d="M117.316 74.477c-1.847 0-3.73-.135-5.593-.401-8.322-1.189-16.044-5.055-22.95-11.493l3.007-3.227c6.235 5.811 13.154 9.294 20.566 10.353 1.98.282 3.97.39 5.925.344l.103 4.411c-.352.008-.704.013-1.058.013" mask="url(#d)"/>
        </g>
        <path fill="#62AEB2" d="M232.986 77.857l-3.82-2.592a.16.16 0 0 0-.252.132v2.261a.24.24 0 0 1-.24.241h-1.024a.24.24 0 0 1-.24-.24v-4.5c0-.134.108-.242.24-.242h.185c.048 0 .095.014.135.041l3.821 2.576a.16.16 0 0 0 .25-.133v-2.243c0-.133.109-.241.242-.241h1.023c.133 0 .24.108.24.241v4.5a.24.24 0 0 1-.24.241h-.185a.24.24 0 0 1-.135-.042M237.523 77.651v-4.493c0-.133.108-.241.242-.241h1.022c.133 0 .24.108.24.241v4.493a.241.241 0 0 1-.24.241h-1.022a.242.242 0 0 1-.242-.24"/>
        <g transform="translate(243 72.7)">
            <mask id="f" fill="#fff">
                <use xlink:href="#e"/>
            </mask>
            <path fill="#62AEB2" d="M7.334.459v4.5a.241.241 0 0 1-.24.241H6.07a.241.241 0 0 1-.241-.241V2.537a.16.16 0 0 0-.244-.138L3.794 3.48a.242.242 0 0 1-.249 0l-1.792-1.08a.16.16 0 0 0-.244.138v2.422a.241.241 0 0 1-.24.241H.245a.241.241 0 0 1-.241-.241v-4.5a.24.24 0 0 1 .24-.242H.69c.044 0 .088.013.126.036l2.727 1.676a.24.24 0 0 0 .253 0L6.524.253A.24.24 0 0 1 6.65.217h.443c.133 0 .241.108.241.242" mask="url(#f)"/>
        </g>
        <g transform="translate(268.6 72.7)">
            <mask id="h" fill="#fff">
                <use xlink:href="#g"/>
            </mask>
            <path fill="#62AEB2" d="M7.519.459v4.5a.242.242 0 0 1-.242.241H6.255a.242.242 0 0 1-.241-.241V2.537a.16.16 0 0 0-.244-.138L3.978 3.48a.242.242 0 0 1-.249 0l-1.791-1.08a.16.16 0 0 0-.244.138v2.422a.241.241 0 0 1-.241.241H.43a.241.241 0 0 1-.24-.241v-4.5A.24.24 0 0 1 .43.217h.444C.918.217.962.23 1 .253l2.728 1.676a.24.24 0 0 0 .252 0L6.708.253a.24.24 0 0 1 .126-.036h.443c.133 0 .242.108.242.242" mask="url(#h)"/>
        </g>
        <path fill="#62AEB2" d="M254.31 77.649v-4.493c0-.133.108-.241.241-.241h1.022c.133 0 .242.108.242.241v4.493a.242.242 0 0 1-.242.241h-1.022a.241.241 0 0 1-.241-.241"/>
        <g transform="translate(259.8 72.7)">
            <mask id="j" fill="#fff">
                <use xlink:href="#i"/>
            </mask>
            <path fill="#62AEB2" d="M5.003 1.049V.46a.241.241 0 0 0-.241-.24h-3.23V.217H.27a.241.241 0 0 0-.241.24v2.546c0 .133.108.24.24.24h2.99a.24.24 0 0 1 .24.242v.403a.24.24 0 0 1-.24.241H.267a.241.241 0 0 0-.24.241v.588c0 .133.108.241.24.241h4.494a.241.241 0 0 0 .24-.241V2.416a.241.241 0 0 0-.24-.241H1.774a.24.24 0 0 1-.242-.24V1.53c0-.133.108-.24.242-.24h2.988a.241.241 0 0 0 .24-.242" mask="url(#j)"/>
        </g>
        <g transform="translate(216.6 72.7)">
            <mask id="l" fill="#fff">
                <use xlink:href="#k"/>
            </mask>
            <path fill="#62AEB2" d="M7.496 5.2H6.238a.242.242 0 0 1-.196-.1L4.175 2.487a.16.16 0 0 0-.261 0L2.046 5.099a.24.24 0 0 1-.196.101H.592a.241.241 0 0 1-.196-.382L3.623.308a.241.241 0 0 1 .196-.102h.45a.24.24 0 0 1 .196.101l3.227 4.511c.114.16 0 .382-.196.382" mask="url(#l)"/>
        </g>
        <path fill="#62AEB2" d="M248.885 57.514h4.442c.131 0 .238.106.238.238v6.606a.477.477 0 0 1-.078.26l-2.721 4.158c-.104.16.01.37.2.37l2.008-.004c.16 0 .31-.08.398-.214l2.418-3.673a.48.48 0 0 0 .078-.263V55.95a.238.238 0 0 0-.238-.238h-5.893a.238.238 0 0 0-.2.11l-.852 1.325a.238.238 0 0 0 .2.368M261.314 56.509l1.641 1.63c.09.089.21.138.336.138h1.06a.238.238 0 0 0 .238-.238v-1.386a.238.238 0 0 0-.239-.238h-.529a.239.239 0 0 1-.175-.076l-1.552-1.682a.476.476 0 0 0-.35-.154h-1.097a.476.476 0 0 0-.336.139l-1.714 1.704a.238.238 0 0 1-.168.07h-.657a.238.238 0 0 0-.238.237v1.386c0 .132.107.238.238.238h1.34c.126 0 .246-.05.336-.138l1.642-1.63a.159.159 0 0 1 .224 0M263.057 66.26h1.293a.238.238 0 0 0 .239-.239v-1.294a.238.238 0 0 0-.239-.238h-1.293a.238.238 0 0 0-.239.238v1.294c0 .132.107.238.239.238M259.066 64.49h-1.293a.238.238 0 0 0-.239.237v1.294c0 .132.107.238.239.238h1.293a.238.238 0 0 0 .238-.238v-1.294a.238.238 0 0 0-.238-.238M267.009 58.277h-1.326a.238.238 0 0 0-.238.239v1.981c0 .132.106.239.238.239h1.326a.238.238 0 0 0 .238-.239v-1.981a.238.238 0 0 0-.238-.239M267.009 54.942h-1.326a.238.238 0 0 0-.238.238v1.982c0 .131.106.238.238.238h1.326a.238.238 0 0 0 .238-.238V55.18a.238.238 0 0 0-.238-.238M219.49 55.032h-2.301a.238.238 0 0 0-.239.238v2.18c0 .132.107.238.239.238h2.301a.238.238 0 0 0 .239-.238v-2.18a.238.238 0 0 0-.239-.238M233.075 55.032h-5.153a.239.239 0 0 1-.239-.238v-.212a.238.238 0 0 0-.237-.238h-2.089a.238.238 0 0 0-.238.238v.212a.238.238 0 0 1-.238.238h-4.145a.238.238 0 0 0-.238.238v.818c0 .132.107.238.238.238h12.1c.131 0 .239.107.239.239v.885c0 .132.106.238.238.238h2.301a.238.238 0 0 0 .238-.238v-2.18a.238.238 0 0 0-.238-.238h-2.539z"/>
        <path fill="#62AEB2" d="M229.96 59.493c0 .137-.111.248-.25.248h-3.385a.248.248 0 0 1-.248-.248v-.851c0-.137.112-.248.248-.248h3.385c.139 0 .25.111.25.248v.851zm5.222-1.091h-2.611a.239.239 0 0 1-.24-.238v-.817a.248.248 0 0 0-.248-.247h-8.131a.248.248 0 0 0-.248.247v3.44c0 .138.112.248.248.248h8.131c.137 0 .248-.11.248-.247v-.851a.24.24 0 0 1 .24-.24h2.611a.248.248 0 0 0 .248-.248v-.799a.248.248 0 0 0-.248-.248zM222.87 60.762v-3.425a.238.238 0 0 0-.238-.238h-1.896a.238.238 0 0 0-.238.238v.827a.238.238 0 0 1-.238.239h-2.65a.238.238 0 0 0-.238.238v.818c0 .131.107.238.239.238h2.649c.131 0 .238.106.238.238v.827c0 .131.107.238.238.238h1.896a.238.238 0 0 0 .239-.238M235.43 67.187v-5.299a.238.238 0 0 0-.238-.238h-14.456a.238.238 0 0 0-.238.238v.818c0 .132.107.239.238.239h12.1c.132 0 .238.106.238.238v.469a.238.238 0 0 1-.238.238h-12.1a.238.238 0 0 0-.238.239v.817c0 .132.107.239.238.239h12.1c.132 0 .238.107.238.238v.47a.238.238 0 0 1-.238.238h-12.87a.238.238 0 0 1-.238-.238v-4.005a.238.238 0 0 0-.238-.238h-1.88a.238.238 0 0 0-.238.238v5.3c0 .13.107.238.238.238h1.488l-2.005.874a.238.238 0 0 0-.143.219v.406c0 .132.107.238.239.238h3.49c.099 0 .194-.03.274-.086l2.299-1.609a.238.238 0 0 1 .137-.042h6.025c.05 0 .097.014.137.042l2.299 1.61c.08.055.175.085.273.085h3.491a.238.238 0 0 0 .238-.238v-.406a.238.238 0 0 0-.143-.219l-2.004-.874h1.487a.238.238 0 0 0 .239-.239M246.1 59.346l2.888-4.576a.238.238 0 0 0-.201-.366h-2.042a.238.238 0 0 0-.2.11l-1.787 2.77a.238.238 0 0 1-.2.11h-1.721a.238.238 0 0 1-.239-.24v-2.428a.238.238 0 0 0-.238-.239h-1.88a.238.238 0 0 0-.238.239v4.309a.478.478 0 0 1-.083.268l-2.993 4.398a.239.239 0 0 0-.041.134v3.12c0 .236.304.33.435.134l2.682-3.978v5.826c0 .132.107.239.238.239h1.88a.238.238 0 0 0 .238-.239v-9.13c0-.132.107-.239.239-.239h2.86a.476.476 0 0 0 .403-.222M274.08 59.932c.132 0 .24.106.24.238v.936a.238.238 0 0 1-.24.238h-3.866a.238.238 0 0 1-.238-.238v-.936c0-.132.107-.238.238-.238h3.867zm-.601-2.892h2.401a.238.238 0 0 0 .239-.239v-1.177a.24.24 0 0 0-.239-.238h-2.401a.238.238 0 0 1-.239-.238v-.428a.239.239 0 0 0-.238-.238h-1.708a.238.238 0 0 0-.238.238v.428a.239.239 0 0 1-.238.238h-2.403a.24.24 0 0 0-.239.238V56.8c0 .132.107.239.239.239h2.403c.13 0 .238.106.238.237v.763a.238.238 0 0 1-.238.238h-2.403a.238.238 0 0 0-.239.238v4.243c0 .132.107.238.239.238h7.465a.238.238 0 0 0 .239-.238v-4.243a.238.238 0 0 0-.239-.238h-2.401a.238.238 0 0 1-.239-.238v-.763c0-.131.107-.237.239-.237z"/>
        <path fill="#62AEB2" d="M276.12 68.907a.239.239 0 0 1-.238.24h-8.074a.473.473 0 0 1-.356-.162l-.57-.643a.159.159 0 0 0-.25.015l-.47.681a.237.237 0 0 1-.196.103h-1.616a.238.238 0 0 1-.198-.37l1.253-1.888a.244.244 0 0 0 .04-.132v-3.237H262.2a.238.238 0 0 0-.238.238v3.277c0 .131.107.238.238.238h1.268c.19 0 .303.21.2.368l-.92 1.403a.232.232 0 0 1-.199.108h-4.777a.238.238 0 0 1-.239-.238v-1.403c0-.131.107-.238.239-.238h2.149a.238.238 0 0 0 .238-.238v-3.277a.238.238 0 0 0-.238-.238h-2.15a.238.238 0 0 1-.238-.239V61.95c0-.132.107-.238.239-.238h2.149a.239.239 0 0 0 .238-.238v-.5a.239.239 0 0 0-.238-.238h-2.15a.238.238 0 0 1-.238-.238v-1.324c0-.132.107-.239.239-.239h6.577c.132 0 .238.107.238.239v1.324a.238.238 0 0 1-.238.238H262.2a.239.239 0 0 0-.238.239v.499c0 .13.107.238.238.238h4.808c.132 0 .238.106.238.238v3.74c0 .104.035.207.099.29l.851 1.102c.09.118.23.186.379.186h2.242c.13 0 .238-.106.238-.238v-1.096a.239.239 0 0 0-.238-.238h-2.403a.238.238 0 0 1-.238-.239V64.28c0-.131.106-.238.238-.238h7.465c.132 0 .239.107.239.238v1.177a.238.238 0 0 1-.239.239h-2.401a.238.238 0 0 0-.238.238v1.096c0 .131.106.238.238.238h2.4c.133 0 .24.107.24.238l.001 1.402zM250.196 58.604h-2.26a.238.238 0 0 0-.2.11l-1.757 2.743a.479.479 0 0 1-.4.22h-.809a.238.238 0 0 0-.238.239v1.68c0 .133.106.24.238.24l2.118.002c.16 0 .31-.08.398-.212l3.109-4.652a.238.238 0 0 0-.199-.37M238.98 55.69h-1.617a.238.238 0 0 0-.239.239v4.826c0 .235.304.328.436.134l1.576-2.323a.477.477 0 0 0 .082-.267v-2.37a.238.238 0 0 0-.238-.238"/>
        <path fill="#62AEB2" d="M252.228 58.606h-.245a.239.239 0 0 0-.201.11l-4.652 7.098a.478.478 0 0 1-.4.216l-1.96-.003a.238.238 0 0 0-.238.238v1.682c0 .131.106.238.238.238l3.353.003c.16 0 .31-.08.398-.214l3.866-5.636a.473.473 0 0 0 .08-.262v-3.232a.238.238 0 0 0-.239-.238M264.588 58.04v-1.387M219.49 50.02l-1.457-.002a.148.148 0 0 1-.148-.148v-1.465c0-.081.066-.148.148-.148l1.457.002c.081 0 .147.066.147.147v1.465a.148.148 0 0 1-.148.148zm.147-2.427l-1.752-.002h-.787a.148.148 0 0 0-.148.148v2.797c0 .082.067.148.148.148h.787l1.752.001v.001h.787a.148.148 0 0 0 .148-.148V47.74a.148.148 0 0 0-.148-.149h-.787v.002zM242.954 48.735h-1.428a.148.148 0 0 1-.148-.148v-.845a.148.148 0 0 0-.148-.149h-.639a.148.148 0 0 0-.147.149v2.793c0 .081.066.148.147.148h.639a.148.148 0 0 0 .148-.148v-.987c0-.081.066-.148.148-.148h1.428c.082 0 .148.067.148.148v.987c0 .081.066.148.148.148h.638a.148.148 0 0 0 .148-.148v-2.793a.148.148 0 0 0-.148-.149h-.638a.148.148 0 0 0-.148.149v.845a.148.148 0 0 1-.148.148M228.593 48.255V50.535c0 .081.066.148.148.148h2.793a.148.148 0 0 0 .148-.148v-.37a.148.148 0 0 0-.148-.148h-1.859a.148.148 0 0 1-.148-.148v-.295c0-.081.066-.148.148-.148h1.482a.147.147 0 0 0 .148-.147v-.37a.148.148 0 0 0-.148-.148h-1.482a.148.148 0 0 1-.148-.148v-.21c0-.082.066-.148.148-.148h1.86a.148.148 0 0 0 .147-.148v-.37a.148.148 0 0 0-.148-.148h-2.793a.148.148 0 0 0-.148.148v.518zM265.38 50.017h-.925a.148.148 0 0 1-.148-.148v-1.466c0-.082.067-.148.148-.148h.925c.081 0 .148.066.148.148v1.466a.148.148 0 0 1-.148.148zm-2.007-1.762V50.535c0 .081.066.148.148.148h2.793a.148.148 0 0 0 .148-.148v-2.798a.148.148 0 0 0-.148-.148h-2.793a.148.148 0 0 0-.148.148v.518zM275.036 48.779h-.924a.148.148 0 0 1-.148-.148v-.228c0-.082.066-.148.148-.148h.924c.082 0 .148.066.148.148v.228a.148.148 0 0 1-.148.148zm0 1.238h-.924a.148.148 0 0 1-.148-.148v-.276c0-.082.066-.148.148-.148h.924c.082 0 .148.066.148.148v.276a.147.147 0 0 1-.148.148zm-1.858-2.428a.148.148 0 0 0-.149.148v2.798c0 .082.067.148.149.148h2.793a.148.148 0 0 0 .148-.148v-2.798a.148.148 0 0 0-.148-.148h-2.793zM268.879 48.255h.602c.082 0 .148.066.148.148v2.132c0 .081.066.148.148.148h.639a.148.148 0 0 0 .148-.148v-2.798a.148.148 0 0 0-.148-.148h-1.537a.148.148 0 0 0-.148.148v.37c0 .082.066.148.148.148M246.502 48.255V50.535c0 .081.066.148.148.148h2.794a.148.148 0 0 0 .147-.148v-.37a.148.148 0 0 0-.147-.148h-1.86a.148.148 0 0 1-.148-.148v-1.466c0-.082.067-.148.148-.148h1.86a.148.148 0 0 0 .147-.148v-.37a.148.148 0 0 0-.147-.148h-2.794a.148.148 0 0 0-.148.148v.518zM223.972 48.956v-.55c0-.082.066-.148.148-.148h.925c.081 0 .148.066.148.147v.551a.148.148 0 0 1-.148.148h-.925a.148.148 0 0 1-.148-.148zm1.93-1.364h-2.715a.15.15 0 0 0-.15.15v2.795c0 .082.067.148.148.148h.64a.148.148 0 0 0 .147-.148v-.62c0-.08.066-.147.148-.147h1.859a.148.148 0 0 0 .148-.148v-1.878a.148.148 0 0 0-.148-.148h-.078v-.004zM237.818 47.59h-.634a.15.15 0 0 0-.15.149v1.392a.1.1 0 0 1-.156.083l-2.373-1.6a.149.149 0 0 0-.083-.025h-.115a.15.15 0 0 0-.15.15v2.794c0 .083.067.15.15.15h.635a.15.15 0 0 0 .15-.15V49.13a.1.1 0 0 1 .155-.082l2.373 1.61a.15.15 0 0 0 .084.026h.114a.15.15 0 0 0 .15-.15V47.74a.15.15 0 0 0-.15-.15M252.841 47.598h-.634a.15.15 0 0 0-.15.15v2.79c0 .082.067.15.15.15h.634a.15.15 0 0 0 .15-.15v-2.79a.15.15 0 0 0-.15-.15M260.757 50.025h-1.855a.15.15 0 0 1-.15-.15v-.25a.15.15 0 0 1 .15-.15h1.855a.15.15 0 0 0 .15-.15v-1.58a.15.15 0 0 0-.15-.15h-.784v.002h-2.006a.15.15 0 0 0-.15.15v.365c0 .083.068.15.15.15h1.856a.15.15 0 0 1 .15.15v.25a.15.15 0 0 1-.15.149h-1.856a.15.15 0 0 0-.15.15v1.579c0 .083.068.15.15.15h2.79a.15.15 0 0 0 .15-.15v-.365a.15.15 0 0 0-.15-.15"/>
    </g>
</svg>
