<svg xmlns="http://www.w3.org/2000/svg" xmlns:xlink="http://www.w3.org/1999/xlink" width="368" height="80" viewBox="0 0 368 80">
    <defs>
        <path id="a" d="M0 .263h79.03V80H0z"/>
    </defs>
    <g fill="none" fill-rule="evenodd">
        <path d="M0 0h368v80H0z" opacity=".409"/>
        <g transform="translate(48)">
            <mask id="b" fill="#fff">
                <use xlink:href="#a"/>
            </mask>
            <path fill="#FFF" d="M32.907 55.09h.023c0-.748-.01-1.496.005-2.244.007-.348-.14-.477-.468-.47-.764.017-1.534-.029-2.293.046-1.454.143-2.429 1.304-2.389 2.757.04 1.422 1.12 2.554 2.553 2.63.716.037 1.435-.002 2.152.015.307.007.427-.1.422-.415-.014-.773-.005-1.545-.005-2.318M21.264 72.734v-.66c.013-4.781.026-9.563.041-14.344.005-1.52.045-3.042.02-4.562-.029-1.794-1.131-3.317-2.734-3.872a4.077 4.077 0 0 0-4.482 1.272c-.671.816-.947 1.766-.946 2.818.003 1.763-.011 3.525-.022 5.288-.002.24.002.486-.044.72a.825.825 0 0 1-.808.69.82.82 0 0 1-.822-.67 3.885 3.885 0 0 1-.064-.79c.004-1.546.002-3.091.033-4.636.015-.769.004-1.538.2-2.3 1.064-4.163 5.908-5.41 8.714-3.46 1.825 1.27 2.73 2.98 2.72 5.201-.03 6.544-.055 13.087-.105 19.63-.004.54.17.797.649 1.024 6.812 3.236 13.938 4.292 21.382 3.192 5.23-.774 10.076-2.586 14.508-5.507.535-.352 1.05-.735 1.577-1.106-.061-.12-.08-.194-.126-.243-2.72-2.923-4.253-6.376-4.538-10.381-.023-.323-.164-.402-.45-.403-1.052-.005-2.104-.03-3.156-.034-5.095-.015-10.19-.027-15.285-.039-.789-.002-1.579-.007-2.368.002-.497.006-.497.016-.513.534-.003.096 0 .193 0 .29l-.041 11.083c-.001.217.008.438-.027.65-.074.446-.432.745-.845.74-.412-.004-.758-.311-.836-.755-.021-.117-.016-.24-.016-.361 0-1.208.002-2.415.005-3.622.007-2.657.018-5.313.021-7.97.001-.591-.01-.596-.59-.602-.693-.006-1.387.02-2.08-.008-2.52-.101-4.446-2.384-4.156-4.908.266-2.318 2.008-3.924 4.352-3.998.67-.02 1.34.004 2.01-.007.5-.008.5-.018.517-.54.005-.168-.002-.338.001-.507.01-.53-.006-1.064.04-1.591.04-.442.344-.706.748-.742a.8.8 0 0 1 .874.592c.054.182.068.38.071.57.01.532 0 1.063.004 1.594.005.644.008.646.616.654.31.004.622-.003.933.002.67.01 1.34.002 2.007.046.468.031.755.367.773.8.018.428-.254.778-.704.872-.184.039-.38.035-.57.036-.838.003-1.675-.004-2.512.003-.513.005-.535.013-.54.506-.015 1.424-.021 2.849-.01 4.273.004.615.027.62.648.62 5.43.014 10.86.027 16.29.037.171.001.343-.019.537-.03-.043-.086-.049-.114-.063-.12-.198-.087-.398-.167-.594-.254a9.07 9.07 0 0 1-4.22-3.786 8.736 8.736 0 0 1-1.221-4.627c.009-.53.298-.86.738-.91.468-.054.86.254.957.778.039.212.03.433.042.65.184 3.28 2.707 6.183 5.9 6.787.63.119.667.096.671-.597.013-2.246.016-4.492.024-6.738.001-.217-.013-.438.024-.65a.825.825 0 0 1 .743-.675.818.818 0 0 1 .887.58c.055.179.056.38.057.57.005 1.015.004 2.029.001 3.043-.006 1.835-.016 3.67-.022 5.505 0 .507.004.507.524.525.072.002.144 0 .216 0 2.703.01 5.405.02 8.108.032.598.002 1.197-.007 1.793.025.479.026.75.327.776.784.027.454-.218.801-.66.902-.161.036-.333.03-.5.03-2.44-.004-4.88-.01-7.32-.018-.167 0-.334-.012-.5-.022-.26-.015-.42.068-.387.368.014.12.007.241.02.361.363 3.322 1.646 6.222 3.901 8.677.098.106.203.205.304.307.117.119.244.14.38.034.133-.103.267-.205.396-.312 10.747-8.884 15.94-23.366 12.576-37.61-1.691-7.158-5.194-13.302-10.457-18.39C58.82 6.85 51.124 3.382 42.246 2.65c-3.91-.323-7.787.01-11.598.985-7.086 1.813-13.173 5.353-18.17 10.76-.463.502-.506.359-.126 1.03 1.477 2.617 3.497 4.696 6.084 6.205 1.02.595 2.1 1.038 3.257 1.284 1.201.256 1.094.27 1.1-.883.018-3.622.02-7.244.027-10.867 0-.217-.016-.437.016-.65a.85.85 0 0 1 .849-.734c.388.004.73.281.82.684.032.14.028.288.028.432l-.023 8.91c-.003 1.329.007 2.657-.01 3.985-.005.374.118.54.491.498.071-.009.143-.001.216 0 2.463.01 4.926.021 7.39.03 2.081.007 4.162.01 6.243.016.574.002 1.15-.008 1.722.02.48.025.763.32.802.764.041.47-.232.845-.71.932-.21.039-.429.025-.644.025-4.066-.01-8.133-.022-12.2-.029-.246 0-.502-.043-.792.058.232.234.497.275.724.38 2.884 1.327 4.807 3.51 5.75 6.567a9.27 9.27 0 0 1 .412 2.926c-.012.633-.293.964-.81.985-.522.022-.813-.268-.898-.91a4.845 4.845 0 0 1-.039-.577c-.008-.658-.136-1.296-.318-1.922-.965-3.334-3.987-5.87-7.264-6.1-.148.19-.089.416-.09.627-.014 2.173-.02 4.346-.033 6.519-.005.893-.01 1.787-.031 2.68-.015.589-.36.954-.858.947-.456-.006-.792-.363-.84-.909-.017-.192-.007-.386-.006-.58l.025-8.765c.001-.573.003-.573-.544-.483-3.414.56-6.229 3.263-6.94 6.683-.118.566-.165 1.145-.203 1.724-.036.549-.39.888-.853.893-.488.005-.83-.375-.854-.96-.028-.68.066-1.35.222-2.008.847-3.591 2.964-6.09 6.343-7.505.163-.068.43-.041.484-.351l-8.865-.001c-.598 0-1.196.005-1.794-.017-.56-.02-.87-.335-.875-.84-.006-.504.302-.826.85-.88.118-.012.239-.005.358-.004 2.942.011 5.884.024 8.826.032.18 0 .373.06.628-.129-3.78-1.608-6.583-4.274-8.655-7.76C-3.6 32.693.504 61.434 21.264 72.733m43.224-1.757c.182.282.411.362.611.478a10.358 10.358 0 0 0 4.627 1.4c.191.011.384.01.573.034.539.067.85.414.828.905-.021.46-.331.781-.842.818-.72.053-1.433-.06-2.138-.192-1.689-.316-3.246-.969-4.683-1.919-.585-.386-.426-.372-.977.026-4.778 3.448-10.046 5.742-15.821 6.825-3.259.61-6.54.777-9.855.552-4.656-.316-9.096-1.441-13.353-3.347-.124-.055-.248-.152-.492-.08 0 .76.016 1.547-.006 2.332-.018.662-.421 1.012-1.005.923-.448-.068-.698-.371-.707-.937-.015-.869-.032-1.74.016-2.607.03-.534-.17-.803-.624-1.06C11.701 70.094 5.526 62.69 2.102 52.957.88 49.476.212 45.874.046 42.191c-.428-9.46 2.142-18.023 7.67-25.675.52-.722 1.07-1.426 1.653-2.096.288-.332.354-.61.208-1.028a12.056 12.056 0 0 1-.674-3.613c-.005-.12-.01-.241-.005-.362.022-.592.34-.966.833-.983.492-.018.857.344.874.933.017.581.067 1.157.168 1.727.073.416.11.848.347 1.282C19.905 3.663 30.372-.54 42.655.39c10.167.77 18.739 5.123 25.721 12.574 5.042 5.38 8.325 11.771 9.808 19.025 1.486 7.267 1.023 14.445-1.459 21.464-2.47 6.986-6.606 12.79-12.237 17.524" mask="url(#b)"/>
        </g>
        <path fill="#FFF" d="M236.828 28.758v-.002c-.367 0-.733.01-1.1-.003-.294-.01-.452.07-.443.394.017.64.01 1.28.002 1.919-.003.238.088.343.341.34.782-.006 1.563-.002 2.345 0 .224.002.38-.055.378-.313-.004-.663-.004-1.326 0-1.99.001-.236-.11-.347-.351-.346-.39.002-.782 0-1.172 0m-4.635 2.649c.47 0 .86-.008 1.25.002.285.007.38-.12.376-.385-.01-.614-.018-1.229.003-1.842.012-.363-.171-.438-.49-.429-.438.013-.877.003-1.315.003-1.22 0-1.233 0-1.212 1.206.007.464-.223 1.052.12 1.36.305.271.89.055 1.268.085m3.285-5.125h-3.108a.423.423 0 0 0-.327.125c-.52.545-1.042 1.089-1.57 1.64.268.192.523.28.793.282.925.01 1.85.004 2.776.006.177 0 .345-.018.449-.179.369-.572.77-1.129.987-1.874m5.107 2.516c-.686.18-.727.64-.693 1.173.036.543.012 1.09.008 1.634-.006.606-.056.673-.66.831-.186.05-.383.064-.576.086-.205.024-.33-.052-.32-.271.012-.317-.176-.4-.465-.396-.537.008-1.075.01-1.612-.001-.354-.007-.42.148-.327.444.285.908.643 1.785 1.203 2.647.642-.517 1.199-1.075 1.742-1.646.166-.175.33-.35.491-.528.1-.11.207-.118.314-.025.446.389.889.78 1.313 1.23-.75.002-1.28.456-1.898.692-.454.173-.896.375-1.354.539-.293.105-.317.233-.138.464a10.341 10.341 0 0 0 2.72 2.456c.28.175.621.272.875.595-.647.224-1.149.572-1.425 1.265-2.789-2.042-3.807-4.915-4.368-8.05-.46-.008-.659.378-.973.563-.327.193-.633.42-.95.633.164.263.412.385.606.562 1.577 1.44 2.32 3.186 2.092 5.295-.052.477-.2.926-.44 1.345-.382.67-.968 1.046-1.75 1.141-.599.073-.61.08-.868-.495-.193-.428-.588-.527-.99-.645-.23-.068-.672.03-.623-.291.043-.276.462-.102.71-.117.437-.027.88-.023 1.318.005.432.028.689-.169.863-.52.325-.658.398-1.344.29-2.105-.319.051-.509.243-.721.38-1.656 1.074-3.427 1.907-5.35 2.422-.212.056-.426.104-.639.159-.145.037-.314.084-.36-.106-.046-.186.139-.211.272-.259 2.329-.828 4.348-2.126 6.137-3.781.316-.293.427-.557.11-.908-.218-.078-.353.098-.507.19-1.506.9-3.122 1.557-4.803 2.074-.163.05-.326.1-.494.129-.058.01-.16-.023-.188-.068-.053-.084-.034-.196.063-.246.171-.09.353-.159.53-.237 1.607-.72 3.098-1.61 4.364-2.825.312-.3.291-.439.011-.69-.202-.183-.36-.06-.526.023a16.5 16.5 0 0 1-2.078.88c-.713.244-1.439.451-2.16.67a2.171 2.171 0 0 1-.426.087c-.11.011-.181-.084-.2-.173-.01-.05.05-.142.102-.167.174-.085.36-.146.54-.219 1.494-.6 2.914-1.331 4.208-2.279.144-.105.34-.184.389-.499-.65 0-1.27-.003-1.89.003-.13 0-.24.073-.259.205-.056.388-.38.47-.681.551-.716.193-.848.089-.849-.626-.001-.782.005-1.564-.004-2.345-.002-.18.06-.373-.102-.592l-1.106.646c-.104.06-.22.138-.326.023-.119-.128.007-.21.09-.288 1.541-1.428 2.691-3.118 3.565-4.992.123-.265.259-.356.558-.263.612.191 1.272.23 2.012.578-.74.112-1.128.44-1.356 1.074h2.722c.195.001.301-.13.426-.243.21-.192.374-.436.724-.626l1.351 1.548c-1.013.232-1.684 1.134-2.638 1.619.09.27.292.178.438.18.659.01 1.32-.013 1.978.011.377.014.676-.07.867-.396.214-.365.455-.329.759-.094.413.32.899.55 1.332.96M278.647 29.576c0-1.209-.023-1.225-1.065-1.117-.251.026-.328.13-.325.354.005.378-.002.756 0 1.134.001.744-.05.685.704.686.744 0 .683.047.686-.703v-.354zm0-2.611c0-1.179 0-1.165-1.035-1.091-.304.022-.36.16-.356.403.005.357 0 .713 0 1.07 0 .766-.03.688.71.69.674.003.674 0 .68-.644.002-.143.001-.285.001-.428zm0 5.228h-.002c0-.26-.003-.521 0-.782.004-.24-.12-.313-.354-.335-.989-.094-1.035-.062-1.035.88 0 .356.001.711.004 1.066 0 .147.014.3.211.305.358.007.76.125 1.061-.053.259-.153.078-.525.113-.797.012-.094.002-.19.002-.284zm7.25.936c0-1.354 0-1.347-1.178-1.222-.245.027-.338.123-.337.35.003.568.014 1.136-.005 1.703-.013.343.133.438.467.45 1.053.04 1.053.053 1.053-.997v-.284zm-9.867-8.237c.059.008.14-.003.193.029 1.268.76 2.675.48 4.04.534.368.014.49-.265.665-.478.58-.706.39-.623 1.104-.16.302.195.59.414.88.628.032.023.035.083.054.132-.21.29-.526.302-.845.303-.582.002-1.164.009-1.745-.002-.29-.006-.456.064-.443.393.02.476.003.953.01 1.428 0 .111-.03.254.119.303.164.054.344.077.474-.065.161-.177.309-.366.45-.56.146-.198.283-.303.529-.112.358.28.74.53 1.134.809-.17.34-.44.387-.735.388-.509.003-1.019.018-1.527-.003-.356-.015-.468.127-.454.46.02.452.003.905.007 1.357.002.136-.027.304.171.34.143.024.293.026.4-.103.136-.167.28-.329.402-.506.165-.24.314-.286.588-.111.857.546.872.54 1.557-.173a16.696 16.696 0 0 0 3.387-5.118c.214-.507.215-.513.722-.383.555.143 1.108.297 1.657.445-.03.36-.399.266-.538.497 1.136 1.501 2.624 2.563 4.375 3.293.156.065.32.112.473.183.173.08.203.242.051.332-.545.32-.71.874-.927 1.464-1.929-1.305-3.286-2.997-4.246-4.995-.257-.01-.287.19-.37.318a14.94 14.94 0 0 1-4.62 4.579c-.122.077-.3.134-.35.244-.235.536-.705.503-1.166.507-.34.003-.68-.006-1.019.003-.528.012-.534.016-.547.51-.01.357-.02.716.004 1.07.015.218-.153.56.154.623.354.071.765.188 1.097-.136.182-.177.276-.539.56-.49.234.04.431.288.646.442.227.163.456.324.746.53.134-.93.001-1.781.095-2.67.317.029.564.179.817.29.337.149.677.222 1.05.226.41.004.767-.025.994-.42.12-.211.287-.211.48-.06.375.292.76.571 1.114.835-.084.366-.54.233-.57.553-.021.237-.016.475-.017.713-.002.595.008 1.19-.004 1.785-.009.43-.618.813-1.041.674-.187-.061-.174-.216-.165-.35.025-.333-.161-.406-.447-.39-.169.009-.34.007-.509 0-.312-.014-.55.004-.594.42-.028.27-.7.542-.966.462-.14-.042-.171-.154-.172-.278-.003-.357.004-.714-.008-1.071-.005-.15.04-.369-.226-.352-.22.013-.44.048-.457.345-.033.547-.084 1.092-.118 1.638-.07 1.118-.183 2.23-.434 3.324a9.45 9.45 0 0 1-.24.82c-.334 1.02-1.2 1.347-2.075 1.373-.148.004-.307.014-.322-.189-.044-.597-.456-.788-.975-.874a1.38 1.38 0 0 1-.346-.104c-.054-.025-.119-.098-.12-.151-.003-.108.085-.16.193-.16.484.007.97.023 1.454.023.637 0 .796-.113 1.014-.702.209-.563.26-1.16.363-1.744.034-.194-.017-.32-.234-.36-.173-.033-.306-.117-.359-.308-.173-.634-.517-1.173-.974-1.649-.04-.04-.03-.127-.054-.242.695.032 1.186.404 1.727.83.146-.611.134-1.194.16-1.771.013-.311-.229-.314-.453-.315-.678-.002-1.357-.001-2.036-.002-.291 0-.582.007-.873-.002-.311-.009-.544-.003-.581.423-.035.404-.765.74-1.144.593a.223.223 0 0 1-.155-.215l-.006-.357c0-2.952-.001-5.903.003-8.855 0-.157-.06-.333.094-.485zM255.863 29.568v.002h.652c.872-.001.872-.001.874-.85 0-.024-.001-.048.003-.07.055-.327-.121-.398-.416-.39-.58.013-1.16.001-1.74.003-.706.003-.706.004-.75.681-.007.093-.007.188-.021.28-.036.236.058.35.31.345.363-.006.725-.001 1.088-.001m4.427-.002v.004h.725c.945 0 .945-.011.895-.946-.015-.273-.114-.369-.388-.364-.604.011-1.208.003-1.812.003-.932 0-.99.07-.946 1 .01.21.085.302.293.303h1.233m-4.461.421v-.001c-.168 0-.337-.003-.505 0-1.148.023-.866-.183-1.074.976-.05.277.068.38.349.375.625-.01 1.25 0 1.875-.003.717-.002.717-.004.765-.68.007-.115.008-.232.018-.349.02-.247-.112-.325-.347-.32-.36.008-.72.002-1.081.002m4.326 1.348h.649c1.036 0 1.03-.003 1.045-.982.004-.275-.09-.376-.37-.37-.6.011-1.201-.005-1.802.005-1.173.019-.88-.183-1.077.957-.058.334.11.401.402.392.384-.011.769-.003 1.153-.002m-2.112 6.791h3.19c.338 0 .677-.006 1.015 0 .238.004.363-.086.35-.33-.007-.116.001-.234 0-.351-.002-.604-.002-.61-.637-.61-1.667-.004-3.334-.002-5.002-.002-.966 0-1.933.012-2.9-.005-.343-.006-.495.1-.454.44.014.116-.001.235.002.352.013.492.013.502.522.505 1.305.005 2.61.001 3.914.001m.08-3.009c-1.327 0-2.653-.002-3.98.003-.16 0-.388-.075-.466.092-.152.327-.106.694-.032 1.029.061.282.365.158.559.159 2.581.008 5.162.006 7.743.005.096 0 .193-.004.29-.001.23.008.37-.076.36-.323-.005-.117.002-.234.002-.35-.003-.605-.003-.61-.64-.613-1.279-.004-2.557-.001-3.836 0m-.001-.432h.434c1.183 0 2.365-.01 3.548.006.366.004.551-.101.496-.479-.01-.069 0-.14-.001-.21-.004-.602-.004-.608-.643-.609-1.907-.003-3.814-.001-5.72-.001-.724 0-1.449.013-2.173-.005-.343-.009-.498.104-.458.443.01.092 0 .187.002.28.008.565.008.572.605.574 1.303.005 2.606.001 3.91.001m-2.837 3.872c-.53 0-.977.002-1.424-.001-.138 0-.214.06-.27.18-.118.26-.366.364-.62.447-.775.252-.93.147-.93-.63v-6.147c.388-.065.666.15.95.278.452.2.904.286 1.4.283a406.51 406.51 0 0 1 7.324.007c.583.007.98-.133 1.187-.687-.173-.13-.358-.006-.535-.02-.284-.021-.625.117-.69-.379-.03-.23-.375-.133-.58-.133-1.933-.007-3.867-.005-5.8-.004-.266 0-.532.001-.798 0-.153 0-.252.054-.36.177-.309.354-.869.465-1.292.314-.187-.067-.175-.183-.153-.333.073-.486.13-.976.207-1.462.051-.327-.05-.47-.417-.46-.749.02-1.498.006-2.248.005-.169 0-.338 0-.507-.009-.146-.007-.212-.106-.22-.232-.009-.164.121-.179.245-.18.41-.003.822-.002 1.233-.002.556 0 1.112-.008 1.668.002.267.004.388-.093.411-.36.048-.56.122-1.119.188-1.678.01-.09.02-.187.11-.247.1-.047.193-.005.27.04.87.497 1.814.549 2.795.526 1.547-.036 3.094-.02 4.641-.003.436.005.813-.029 1.055-.437.165-.278.367-.33.638-.094.41.354.916.598 1.28 1.001-.126.168-.285.219-.448.265-.18.05-.302.152-.287.35.015.199-.1.427.093.59.137.115.96.047 1.106-.093.189-.181.36-.38.527-.58.145-.173.28-.218.49-.08.436.288.886.555 1.344.839-.184.39-.517.372-.82.377-.75.012-1.499-.001-2.248.008-.495.006-.506.028-.567.514-.063.51.024 1.033-.135 1.533-.063.196.09.243.196.319.462.331.928.655 1.485 1.046-.613.21-.681.59-.668 1.07.035 1.218.015 2.438.01 3.657-.001.592-.055.657-.654.818-.185.05-.378.076-.568.107-.1.016-.244-.004-.252-.085-.059-.615-.54-.41-.874-.413-1.813-.015-3.626-.009-5.439-.005-.208 0-.424-.044-.698.072.44.501 1.06.75 1.49 1.233-.101.05-.17.113-.225.104-.632-.104-1.167.168-1.728.377-1.54.573-3.142.917-4.774 1.134a4.502 4.502 0 0 1-.65.032c-.052-.001-.122-.073-.15-.128-.033-.068.013-.136.087-.161.16-.053.322-.099.484-.145 1.583-.456 3.088-1.08 4.481-1.944.21-.13.46-.23.634-.573M148.533 36.906c.35-.918.563-1.684.682-2.478-1.285-.242-1.347-.216-1.953.823-.06.101-.114.206-.196.354.586.259 1.144.536 1.467 1.301m4.716-.711c0-.45-.013-.9.003-1.35.015-.406-.253-.375-.523-.384-.296-.01-.5.026-.49.41.022.851.02 1.705.001 2.557-.009.413.251.367.517.375.29.009.52-.01.498-.4-.024-.402-.006-.805-.006-1.208m3.102-2.585c-.033-.114-.038-.247-.102-.34-.482-.7-.344-1.415-.158-2.181a267.09 267.09 0 0 0 1.486-6.552c.072-.33.155-.452.509-.352.528.149 1.07.252 1.584.369.043.104.038.208-.024.216-.575.072-.65.542-.799.96a126.505 126.505 0 0 1-2.268 5.945c-.167.404-.124.69.116 1.043.969 1.425 1.821 2.913 2.397 4.546.239.678.408 1.37.478 2.084.047.481.006.956-.187 1.403-.185.433-.475.62-.816.554-.424-.082-.472-.403-.511-.753a29.312 29.312 0 0 0-1.304-5.923c-.044-.135-.064-.281-.222-.403-.47.305-1.024.243-1.564.232-.368-.007-.51.12-.5.495.02.81.004 1.621.008 2.431.001.159-.04.352.197.397.167.032.267-.069.355-.19l.573-.79c.393.302.756.566 1.1.85.27.224.238.372-.086.5-.323.13-.664.074-.997.076-1.144.008-1.144.003-1.144 1.12 0 .454.007.907-.003 1.36-.01.512-.52.892-1.03.784-.24-.051-.193-.241-.194-.397-.006-.644-.003-1.287-.004-1.931 0-.167-.014-.336.002-.5.037-.358-.138-.447-.466-.438-.647.018-1.295.006-1.943.004-.144 0-.29 0-.43-.023-.102-.016-.151-.105-.165-.207-.016-.116.05-.169.153-.19.207-.04.482.085.61-.113.143-.222.057-.512.06-.772.006-.644.003-1.287 0-1.931-.002-.166.01-.35-.234-.362-.204-.01-.288.115-.344.293-.171.545-.33 1.096-.538 1.628-.715 1.839-1.77 3.435-3.449 4.55-.197.131-.452.544-.7.205-.191-.26.23-.405.398-.57.878-.87 1.65-2.008 1.936-2.932-.56.03-.825-.259-.906-.788-.05-.326-.196-.633-.467-.948-.277.307-.536.6-.803.885a1.692 1.692 0 0 1-.327.274c-.044.028-.137 0-.198-.025-.076-.033-.082-.114-.06-.183.02-.067.059-.129.094-.19.833-1.467 1.331-3.055 1.727-4.68.022-.091.05-.181.09-.327.618.093 1.194.29 1.918.512-.683.334-1.051.79-1.072 1.464.733.27 1.294.003 1.727-.572.437.202.67.604 1.065.771.232-.098.057-.376.262-.504.294.04.55.23.84.326.18.06.357.149.542.177.557.086.661-.017.68-.582.016-.472-.052-.948.053-1.43.111-.007.206-.025.3-.017.5.043.999.093 1.48.138.097.167.006.29-.093.308-.508.093-.56.434-.513.849.024.21-.038.428.066.638.276 0 .35-.235.45-.4.208-.34.413-.325.687-.084.16.14.355.24.534.358.052.066.127.17.195.112.1-.084.026-.194-.051-.277M187.673 36.524c0 .922.012 1.728-.005 2.533-.007.33.03.559.387.726.435.205.42.651.01.957-.294.22-.65.298-1.007.311-1.59.058-3.182.064-4.77.003-.91-.035-1.277-.419-1.323-1.343-.048-.97-.03-1.945-.033-2.918-.005-1.448.003-2.896-.004-4.343-.003-.557-.014-.564-.548-.574-.522-.01-1.046.02-1.566-.01-.356-.022-.623.21-.954.252-.217.028-.175.25-.195.406-.104.776-.204 1.552-.389 2.314-.743 3.072-2.54 5.25-5.476 6.466a5.163 5.163 0 0 1-.265.102c-.17.06-.382.213-.49-.026-.096-.212.155-.251.287-.325a9.423 9.423 0 0 0 1.638-1.128c1.532-1.344 2.326-3.086 2.727-5.039.153-.744.252-1.498.29-2.257.042-.828.078-.755-.754-.757-1.211-.003-2.422.005-3.633-.007-.211-.002-.571.126-.58-.21-.011-.361.356-.206.554-.207 2.137-.012 4.274-.008 6.41-.008.167 0 .333-.004.5-.003.234.002.343-.111.339-.348-.005-.308 0-.617 0-.925 0-1.827-.003-3.655.002-5.483.002-.562.011-.56.549-.513.496.045.993.083 1.49.13.114.01.258.02.271.166.011.13-.099.205-.213.254-.044.018-.087.053-.13.054-.42.011-.406.302-.404.6.006.688.002 1.376.002 2.064 0 1.163-.005 2.326.003 3.49.003.496.014.509.52.511 1.329.008 2.659-.01 3.988.011.378.006.61-.133.831-.424.223-.293.374-.79.747-.785.296.004.59.356.883.557.255.174.513.345.756.533.239.184.214.346-.063.45-.248.092-.511.093-.774.093-1.187-.002-2.374-.002-3.562 0-.19 0-.382-.011-.568.018-.564.087-.675.214-.676.78-.004 2.114-.006 4.226 0 6.338.003.718.05.758.774.762.902.004 1.805.006 2.707-.001.625-.005.741-.08.91-.675.194-.684.352-1.378.523-2.068.038-.154.046-.32.284-.504M313.756 32.706c-.354-.45-.744-.629-1.078-.872-.34-.248-.756-.387-1.05-.691.096-.201.243-.144.382-.124 1.069.154 2.102.425 3.07.908.514.257.982.58 1.342 1.03.224.28.393.584.406.954.01.336-.096.61-.432.734-.323.118-.605.03-.83-.237-.273-.324-.56-.637-.829-.965-.204-.25-.447-.293-.76-.247-3.211.475-6.44.8-9.67 1.117-.286.027-.569.046-.781.283-.17.19-.327.149-.447-.069-.28-.508-.563-1.015-.901-1.624.866 0 1.62-.021 2.374.008.431.017.705-.117.912-.497.457-.839.961-1.654 1.294-2.637-1.062 0-2.059.002-3.056-.001-.19 0-.385 0-.569-.038-.058-.012-.11-.144-.127-.229-.027-.132.094-.14.183-.145.19-.01.381-.008.572-.009 3.033 0 6.067-.013 9.1.013.532.004.926-.105 1.187-.57.045-.082.126-.143.174-.223.173-.286.368-.323.633-.1.121.102.26.209.48.222.265-.52.369-1.082.504-1.627-.255-.13-.473-.082-.683-.083-3.606-.003-7.212-.002-10.818-.002-.072 0-.144.007-.215 0-.333-.037-.525.047-.55.433a2.173 2.173 0 0 1-.374 1.05c-.314.479-.751.781-1.327.868-.445.069-.842-.11-.981-.414-.158-.344-.004-.743.405-1.021.117-.08.25-.136.377-.2.717-.37 1.182-.932 1.374-1.706.037-.148-.01-.375.233-.36.217.014.196.23.234.384.011.045.026.091.029.137.018.334.21.404.526.4 1.385-.015 2.77-.019 4.155.002.397.006.493-.15.48-.496-.02-.491.01-.984-.01-1.474-.015-.33.077-.473.442-.43.638.078 1.28.123 1.91.18.064.29-.125.35-.304.42-.151.059-.383.057-.412.234-.073.462-.07.931 0 1.394.027.18.209.16.349.162.406.003.812.002 1.218.002 1.027 0 2.054-.023 3.08.01.538.016.954-.098 1.31-.525.339-.404.387-.386.766-.013.386.379.744.783 1.136 1.199-1.057.198-1.475 1.253-2.34 1.728-.025.29.343.296.315.55-.253.309-.623.276-.977.277-1.959.002-3.917.001-5.875.001h-.692l-.032.109.529.247c-.027.067-.042.141-.06.142-.522.025-.828.35-1.131.72-.535.655-1.182 1.208-1.795 1.892l7.625-.18M237.434 62.547c-.068.136-.202.085-.308.085-.94-.005-1.88-.04-2.902-.144a1.48 1.48 0 0 0 .174-.918c-.217-1.878-.42-3.757-.629-5.637-.007-.069-.026-.14-.135-.168-.221.107-.275.355-.383.553-1.03 1.896-2.052 3.797-3.077 5.697-.068.126-.13.257-.205.38-.137.22-.301.234-.446.015-.186-.28-.364-.566-.527-.86-.943-1.698-1.88-3.4-2.824-5.097-.102-.185-.157-.405-.348-.53-.168.035-.148.17-.16.28-.175 1.69-.35 3.38-.523 5.07a3.83 3.83 0 0 0-.023.359c-.006.556.05.62.637.746.107.022.249-.006.278.21h-2.93c-.041-.157.078-.198.202-.195.538.014.71-.325.773-.768.138-.972.273-1.943.404-2.915.244-1.802.485-3.605.726-5.407.013-.095.013-.194.045-.282.078-.212.213-.265.361-.069.116.152.202.326.296.494 1.25 2.214 2.499 4.43 3.752 6.641.115.204.19.443.413.578.2-.2.295-.449.42-.68 1.172-2.173 2.343-4.348 3.514-6.523.058-.105.108-.215.174-.315.085-.129.108-.36.34-.29.173.05.13.235.148.37.289 2.159.574 4.318.863 6.476.073.545.126 1.095.238 1.632.158.76.392.94 1.173 1.033.162.019.344-.032.48.105.013.012.006.044.009.074M148.015 53.957c0 .594.009 1.188-.003 1.782-.007.3.124.443.416.444.453.003.905.015 1.357 0 .353-.013.626-.198.852-.463.626-.735.681-1.991.127-2.953-.465-.804-1.318-1.155-2.34-.984-.282.048-.42.164-.412.463.012.57.003 1.14.003 1.711m0 5.058h.023c0 .69-.006 1.38.002 2.068.006.45.208.776.661.905.748.215 1.5.284 2.246.004.7-.263 1.133-.75 1.27-1.502.1-.558.015-1.093-.155-1.614-.527-1.617-2.059-2.52-3.767-2.257-.27.042-.28.199-.28.398v1.998m2.916-2.78c.544.229.994.433 1.395.73 1.885 1.393 1.754 3.907-.271 5.09a4.104 4.104 0 0 1-1.899.57c-1.498.068-2.996-.108-4.484.009-.05-.225.074-.235.191-.26.585-.125.67-.19.728-.773.063-.638.108-1.28.112-1.921.01-2.189 0-4.377-.005-6.566 0-.166-.006-.333-.019-.499-.06-.792-.171-.911-.968-1.05-.113-.02-.235-.01-.353-.122.105-.173.281-.111.422-.112 1.121-.005 2.241-.002 3.362-.004.478 0 .951.034 1.415.167 1.76.501 2.354 2.122 1.336 3.638-.253.377-.589.682-.962 1.102M201.709 26.862c.527 0 1.054.008 1.582-.002 1.094-.021.975.211.979-.994.001-.526-.014-.533-.583-.536-1.15-.006-2.3-.016-3.451.002-1.186.017-1.036-.273-1.056 1.144-.005.338.162.393.443.389.695-.01 1.39-.004 2.086-.003zm.003 1.997c.503 0 1.006.008 1.509-.002 1.18-.023 1.03.225 1.058-1.075.007-.369-.106-.5-.487-.494-1.198.021-2.396-.005-3.594.012-1.162.015-.99-.245-1.018 1.1-.007.333.094.475.448.464.694-.02 1.39-.006 2.084-.005zm.792.589c.139.074.34-.013.454.16-.065.302-.498.224-.521.618-.056.96-.05 1.005.922 1.006.12 0 .244-.016.36.003.71.114 1.269-.081 1.62-.748.177-.336.402-.34.692-.106.32.255.67.47 1.001.71.091.066.233.114.211.262-.025.164-.17.238-.305.268-.21.046-.428.073-.643.073-3.033.005-6.065.004-9.098.004-.096 0-.193 0-.288-.01-.184-.015-.24-.149-.228-.302.013-.163.157-.152.274-.152.554-.003 1.107-.002 1.66-.002.65 0 1.3-.01 1.95.003.305.007.438-.1.424-.415a17.647 17.647 0 0 1-.003-1.157c.005-.237-.081-.356-.33-.352-.385.007-.77 0-1.155.002-.15 0-.278.02-.327.204-.064.24-.285.311-.487.387-.797.3-.958.187-.959-.66v-4.963c.425.017.749.222 1.083.368.383.166.767.248 1.187.242 1.18-.016 2.359-.02 3.538.002.397.007.675-.096.91-.435.278-.4.31-.385.725-.096.45.313.894.637 1.357.968-.732.502-.732.502-.732 1.395v2.17c-.003.756-.128.9-.882 1.034-.345.06-.693.15-.656-.415.013-.2-.17-.202-.314-.2-.48.007-.96.021-1.44.033a1.834 1.834 0 0 0-.918.1h.918zM186.594 60.47c0-.916.01-1.772-.002-2.628-.014-1.05-.044-2.1-.071-3.15-.007-.238-.013-.479-.049-.714-.082-.541-.182-.64-.702-.749-.183-.038-.37-.059-.589-.093.377-.168 2.477-.208 3.18-.076.03.04.018.083-.043.1-.835.223-.868.238-.876 1.102-.023 2.507-.023 5.013-.046 7.52-.003.288.17.71-.152.838-.29.115-.528-.255-.752-.452a177.466 177.466 0 0 1-7-6.521c-.167-.164-.31-.36-.532-.458-.19.08-.117.246-.113.372.057 1.814.12 3.627.184 5.44.003.096.016.19.027.285.102.924.134.957 1.054 1.083.09.012.19.02.205.196h-3.257c-.023-.163.08-.176.17-.192.7-.127.8-.184.83-.903.051-1.192.046-2.386.05-3.58.005-1.456-.005-2.912-.007-4.369 0-.143.002-.286.015-.429.023-.272.16-.336.375-.174.132.1.243.227.364.342 2.423 2.288 4.845 4.577 7.27 6.862.133.126.251.28.467.347"/>
        <path fill="#FFF" d="M229.132 24.78c-.06.096-.09.198-.13.202-.608.068-.717.527-.89.977-.325.843-.696 1.669-1.054 2.499-.208.483-.212.48.307.748.036.018.056.065.122.144-.572.208-.539.67-.537 1.145.009 3.318.005 6.635.004 9.952 0 .67-.119.814-.783.982-.696.176-.793.103-.793-.61-.002-2.796 0-5.593 0-8.389v-.698l-.11-.052c-.206.273-.406.55-.622.817-.364.446-.736.886-1.11 1.325-.09.105-.197.253-.36.139-.16-.113-.049-.252.024-.373.936-1.565 1.62-3.237 2.235-4.938a37.112 37.112 0 0 0 1.224-4.09c.083-.356.185-.497.582-.353.609.221 1.267.307 1.891.572M201.994 33.612v.002c-.667 0-1.335.008-2.003-.004-.292-.005-.393.12-.39.387.007.529.007 1.058 0 1.587-.004.266.094.388.387.386 1.336-.01 2.671-.008 4.006-.002.258 0 .348-.107.344-.346-.008-.505-.019-1.01.005-1.515.016-.36-.09-.521-.494-.502-.618.028-1.237.007-1.855.007m-2.858 6.413c.488-.008.967-.014 1.446-.024.616-.012.658-.038.666-.595.013-.846-.005-1.692.008-2.538.005-.333-.107-.503-.473-.464-.148.016-.298.001-.447.003-.336.005-.7-.085-.84.38-.034.117-.254.18-.445.305l1.72.88c-.804.204-1.166.846-1.678 1.3-.534.473-1.102.902-1.716 1.272a2.89 2.89 0 0 1-.393.205c-.094.038-.2.026-.262-.07-.055-.087-.065-.178.017-.261.137-.14.276-.278.407-.424.755-.837 1.395-1.745 1.85-2.795-.275-.193-.578.017-.825-.164v-4.41c.069-.096.11-.101.163-.072 1.08.594 2.254.678 3.46.611.496-.027.995-.024 1.49.001.547.027 1.04.002 1.328-.555.123-.237.301-.169.49-.036.46.325.933.633 1.389.94-.022.08-.024.155-.046.162-.533.157-.612.536-.578 1.012.032.457.011.918.006 1.377-.007.602-.03.635-.624.801-.189.052-.388.076-.583.1-.095.01-.25.018-.264-.079-.118-.78-.738-.398-1.15-.476-.42-.08-.497.16-.49.509.015.845.006 1.691.003 2.537 0 .217 0 .436-.029.65-.115.872-.872 1.46-1.774 1.398-.146-.01-.232-.058-.243-.206-.061-.743-.593-.935-1.235-1.001-.134-.015-.308.02-.348-.273M204.226 62.614c-.681 0-1.34.018-1.995-.006-.765-.026-1.399-.382-1.971-.862-1.195-1.003-2.317-2.082-3.417-3.185-.237-.238-.47-.481-.698-.715-.24.147-.149.336-.15.488-.001.946-.028 1.895.032 2.838.052.837.022 1.198 1.13 1.214.063 0 .124.054.198.09-.4.173-2.717.224-3.695.088.012-.044.015-.12.037-.126.772-.217.775-.215.856-1.005.12-1.186.067-2.376.072-3.565a141.87 141.87 0 0 0-.018-3.64c-.02-.989-.042-.99-.943-1.26.34-.144 2.686-.178 3.3-.048-.007.085-.07.101-.137.118-.742.18-.809.232-.823.957-.022 1.016-.006 2.032-.006 3.025.162.12.253.03.345-.048 1.146-.981 2.29-1.967 3.342-3.05.051-.052.102-.104.15-.16.366-.415.366-.419-.09-.932 1.014.054 1.955.028 2.896.005.069-.002.146.019.184.18-1.245.028-2.033.89-2.895 1.618-.855.722-1.687 1.472-2.543 2.194-.243.206-.267.346-.02.568 1.497 1.355 2.95 2.76 4.527 4.026.634.509 1.323.913 2.166.968.078.005.13.05.166.225M311.859 35.096c-.083.05-.172.09-.247.15-.175.142-.534.047-.544.39-.012.461-.002.925.027 1.387.008.13.168.153.291.153 1.014.002 2.03.002 3.044.003.321 0 .44-.27.604-.47.584-.708.581-.711 1.323-.199.26.18.52.357.776.54.095.067.238.123.209.268-.032.157-.176.232-.32.251a6.888 6.888 0 0 1-.863.075c-1.402.007-2.803.003-4.204.003-.145 0-.291.01-.435 0-.335-.029-.477.107-.47.459.015.83.014 1.66 0 2.49-.004.358.156.458.485.455 1.401-.01 2.803-.014 4.204.003.345.005.514-.195.712-.416.237-.265.374-.745.733-.74.286.004.57.327.852.515.241.16.484.321.715.5.28.216.253.356-.074.506-.207.095-.424.09-.64.09h-15.874c-.024 0-.048.002-.072 0-.204-.019-.504.069-.506-.252-.002-.375.331-.199.5-.2 2.223-.014 4.446-.008 6.669-.01.676-.001.68-.006.685-.673.006-.732.008-1.465-.001-2.197-.006-.512-.016-.525-.532-.527-1.595-.007-3.19-.002-4.784-.004-.193 0-.39.007-.576-.032-.12-.024-.185-.164-.166-.289.015-.105.12-.139.224-.14l.507-.003h4.566c.795 0 .764.057.764-.74 0-.463.006-.927-.002-1.39-.004-.25.09-.361.345-.33.666.083 1.346.05 2.075.374M150.238 29.736c-.342.118-.507.329-.71.488-1.08.85-2.284 1.496-3.56 2.027a2.821 2.821 0 0 1-.341.12c-.111.03-.178-.042-.235-.122-.077-.106-.007-.181.067-.235.136-.097.286-.177.428-.266a12.737 12.737 0 0 0 3.161-2.774c.144-.178.335-.337.364-.577-.13-.18-.312-.126-.47-.127-.874-.006-1.75-.001-2.624-.005-.166 0-.343.04-.495-.064-.087-.06-.103-.154-.094-.248.007-.079.076-.123.148-.128.17-.01.34-.008.51-.008 1.118 0 2.236.005 3.354-.003.507-.004.517-.015.52-.515.008-.911.015-1.822-.003-2.733-.006-.35.124-.45.474-.405.505.064 1.016.088 1.524.135.067.006.145.018.173.102.035.109-.028.185-.11.229a1.542 1.542 0 0 1-.34.12c-.198.051-.26.172-.26.36.007.795.007 1.59.002 2.384-.002.243.121.326.356.324a122.21 122.21 0 0 1 1.823.002c.216.001.364-.094.489-.253.146-.187.31-.36.454-.548.14-.183.278-.224.484-.08.393.274.799.531 1.199.796.248.164.167.31-.043.417-.243.123-.516.119-.784.118h-3.208c-.17 0-.34-.001-.51.008-.129.006-.233.056-.247.2-.015.15.003.288.186.325.19.038.383.062.575.089.701.097 1.38.268 2.02.565.353.163.675.372.936.656.195.213.35.448.382.74.037.327-.032.61-.36.775-.298.15-.63.066-.88-.269-.622-.833-1.436-1.451-2.333-1.98-.135-.08-.263-.217-.54-.146v2.119c0 .874-.191 1.058-1.071 1.102-.29.015-.393-.073-.388-.347.01-.677.004-1.355.002-2.032 0-.09-.013-.179-.025-.336M264.322 55.502c-.124-.129-.179-.158-.182-.192-.102-1-.798-1.427-1.672-1.672-1.137-.319-2.296-.388-3.45-.134-1.415.312-2.36 1.138-2.688 2.573-.838 3.66 2.357 6.632 6.14 5.813.503-.11.598-.25.605-.79.008-.723.012-1.447-.003-2.17-.016-.734-.108-.823-.851-.94-.093-.015-.19-.005-.26-.086.364-.15 2.691-.19 3.374-.058.039.042.03.089-.032.103-.77.169-.82.207-.844.947-.026.817-.017 1.634-.027 2.452-.007.637-.018.69-.6.862-2.141.636-4.268.603-6.316-.328-1.857-.844-2.853-2.574-2.71-4.528.142-1.94 1.402-3.526 3.314-4.14 1.502-.484 3.038-.443 4.58-.243.47.061.937.14 1.409.19.25.027.391.098.364.383-.059.623-.097 1.247-.151 1.958M315.408 55.13v.796c0 1.164.035 1.197 1.213 1.114.144-.01.286-.038.43-.05a.966.966 0 0 0 .765-.485c.498-.808.376-1.625-.05-2.404-.37-.677-1.08-.933-1.936-.805-.289.044-.432.153-.424.458.012.459.003.917.002 1.376m0 4.236h.004c0 .388-.007.775 0 1.162.027 1.332.3 1.602 1.628 1.639.296.008.58-.045.857-.127.755-.225 1.157-.758 1.185-1.548.065-1.852-1.418-3.224-3.262-3.032-.302.032-.424.15-.415.454.014.484.004.968.004 1.452m-2.503-6.4c.056-.059.073-.092.09-.092 1.447 0 2.899-.12 4.34.038.847.093 1.628.455 1.903 1.35.274.887-.052 1.663-.679 2.322-.145.154-.349.257-.436.496.32.168.651.314.954.506.924.586 1.491 1.385 1.355 2.533-.127 1.069-.796 1.729-1.73 2.159-.353.163-.73.276-1.113.311-1.465.135-2.928-.09-4.419.053.038-.133.041-.206.064-.213.711-.213.79-.282.829-1.042.04-.773.04-1.55.043-2.325.005-1.55.006-3.1-.006-4.65-.01-1.174-.02-1.174-1.195-1.445M303.527 55.035l-.15-.006c-.389 1.125-.829 2.232-1.202 3.436h2.276c.203 0 .33-.082.249-.304-.386-1.044-.781-2.085-1.173-3.126m5.605 7.603h-2.996c.253-.335.15-.59.04-.853-.325-.774-.653-1.548-.954-2.332-.131-.342-.327-.48-.686-.468-.727.022-1.456.017-2.183.002-.31-.007-.472.135-.57.42-.243.703-.52 1.395-.742 2.106-.223.716-.181.757.546.966.056.017.076.057.05.163h-3.071c.04-.238.203-.199.326-.202.533-.013.87-.32 1.1-.775.13-.255.24-.523.347-.79.997-2.496 1.99-4.995 2.993-7.489.084-.21.1-.55.369-.556.269-.005.3.332.389.54 1.01 2.387 2.008 4.778 3.014 7.166.13.31.271.616.432.91.313.57.72 1.016 1.428 1.005.074 0 .126.043.168.187M162.664 24.666c-.057.237-.169.287-.283.292-.28.011-.378.2-.477.435a121.907 121.907 0 0 1-3.012 6.507c-.159.319-.096.507.099.754 1.033 1.315 1.988 2.687 2.743 4.196.445.893.81 1.815.952 2.82.058.41.04.811-.09 1.2-.135.407-.433.65-.746.64-.336-.013-.514-.222-.62-.719-.613-2.851-1.456-5.615-2.942-8.124-.178-.3-.079-.537.007-.808.583-1.857 1.167-3.714 1.742-5.574.182-.59.35-1.185.501-1.784.07-.275.14-.423.464-.314.544.183 1.102.32 1.662.479M247.449 58.429l-1.35-3.594-1.29 3.594h2.64zm4.325 4.072c-.9.181-1.783.143-2.666.122-.211-.006-.296-.101-.166-.316.105-.173-.023-.326-.082-.472-.331-.817-.687-1.624-1.01-2.444-.125-.32-.313-.43-.64-.42-.704.02-1.409.02-2.112 0-.353-.011-.567.098-.686.455-.211.633-.473 1.248-.683 1.882-.282.85-.236.924.564 1.264-.505.122-1.023.039-1.535.047-.514.01-1.03.002-1.542.002-.041-.18.077-.217.196-.212.732.025 1.106-.437 1.36-1.044.357-.858.697-1.723 1.044-2.585l2.108-5.24c.071-.177.138-.357.224-.526.123-.238.277-.248.41-.01.093.165.16.345.235.52 1.016 2.39 2.03 4.781 3.048 7.17.112.262.234.522.375.77.308.54.707.955 1.383.95.058 0 .116.056.175.087zM275.562 52.83l-.195 1.682c-.273.019-.219-.168-.258-.294-.17-.55-.288-.664-.9-.7-.633-.037-1.27-.022-1.903-.04-.279-.009-.418.076-.415.367.011.99.007 1.978.004 2.967 0 .197.06.33.295.326.786-.015 1.572-.026 2.359-.046.258-.007.457-.176.682-.283.082.46.014 1.232-.16 1.88-.18-.022-.142-.167-.153-.268-.051-.438-.341-.637-.765-.662-.633-.037-1.268-.041-1.901-.066-.262-.01-.36.1-.359.343.01 1.037-.013 2.075.022 3.111.019.57.239.78.828.859.63.085 1.266.076 1.898.005.497-.057.845-.293.966-.789.035-.143.026-.337.296-.422a3.65 3.65 0 0 1-.197 1.62c-.085.249-.37.221-.595.22-.812-.002-1.624-.01-2.436-.022-.939-.013-1.877-.055-2.816-.006-.131.007-.3.07-.39-.092.012-.09.061-.125.142-.148.647-.184.736-.259.773-.884.045-.77.06-1.542.062-2.314.005-1.616 0-3.232-.018-4.849-.012-1.02-.038-1.034-1.122-1.256-.036-.008-.063-.057-.174-.162 2.166-.043 4.259.1 6.43-.077M294.77 60.6c.085.586-.084 1.146-.234 1.705-.064.242-.267.318-.497.324-.285.008-.57.015-.855.012-1.733-.017-3.466-.106-5.2-.036-.174.007-.36.031-.536-.059.05-.083.065-.144.094-.152.831-.226.842-.225.936-1.072.044-.4.051-.806.052-1.21.005-2.328.003-4.656.002-6.985 0-.19-.001-.38-.013-.57-.043-.704-.187-.865-.867-.988-.137-.025-.287-.004-.407-.102.341-.168 3.21-.205 3.94-.039-.178.15-.373.121-.544.158-.497.107-.638.245-.682.757-.03.355-.03.712-.03 1.069.004 2.233.01 4.466.018 6.699.001.381.04.757.118 1.132.075.368.273.602.64.676.94.189 1.884.194 2.827.013.407-.078.67-.343.837-.705.098-.21.172-.432.256-.648l.144.022M289.16 36.226c.686.198 1.303.33 2.043.638-.98.205-1.066.928-1.404 1.522.232.197.522.233.77.339.593.254 1.142.561 1.554 1.05.276.327.457.694.392 1.122-.045.306-.182.575-.56.608-.354.032-.558-.121-.686-.454-.341-.888-.964-1.585-1.745-2.198-.429.48-.766.974-1.206 1.387-.46.43-.949.822-1.507 1.133-.123.069-.256.164-.368.004-.078-.113.007-.211.092-.294.231-.224.485-.43.644-.711-.118-.156-.21-.017-.301 0-.382.075-.631-.032-.783-.397a3.023 3.023 0 0 0-.898-1.191c-.263.06-.314.283-.432.44-.598.8-1.3 1.497-2.181 2.02a4.02 4.02 0 0 1-.374.198c-.06.028-.133.044-.192-.021-.073-.08-.072-.163-.011-.243.04-.055.093-.102.144-.149 1.329-1.225 2.026-2.758 2.421-4.438.026-.109.035-.223.187-.347l1.778.54c-.052.436-.624.208-.72.587-.075.295-.254.568-.4.878.967.345 2.013.582 1.917 1.878.973-1.135 1.454-2.46 1.825-3.9M164.877 60.746c.18.545.101 1.06-.042 1.57a.388.388 0 0 1-.361.302 5.797 5.797 0 0 1-.5.023c-1.738-.011-3.475-.097-5.214-.026-.09.004-.18-.02-.258-.03-.038-.106 0-.177.067-.194.674-.17.729-.22.813-.879.03-.24.035-.486.035-.73.002-2.12 0-4.24 0-6.361 0-.17 0-.342-.01-.511-.042-.702-.158-.83-.844-.93-.112-.017-.235.017-.374-.15h3.722c-1.129.334-1.14.334-1.138 1.564.002 1.95.02 3.9.034 5.849.001.17.014.34.027.51.076.988.307 1.226 1.28 1.274.452.023.906.018 1.357 0 .66-.024 1.144-.305 1.3-1.017.02-.092.07-.176.106-.264M219.32 62.642h-3.704c-.035-.25.141-.212.255-.217.382-.016.535-.266.598-.634.065-.377.105-.755.105-1.139l.004-7.812c0-.143-.004-.287-.019-.429-.048-.464-.229-.805-.674-.821-.105-.004-.21-.053-.338-.087.34-.18 2.123-.239 3.296-.12-.018.254-.22.18-.346.22-.449.138-.54.237-.592.725-.022.213-.027.43-.026.644.002 2.604.005 5.207.014 7.812 0 .309.015.623.066.926.084.5.23.618.704.696.186.03.397-.056.658.236M258.879 24.342c-.04.296-.204.352-.352.43-.155.08-.423.01-.438.283-.016.314-.034.638.025.943.037.194.28.132.437.132.975.005 1.95.003 2.923.003.262 0 .524-.016.785.003.87.062 1.724.084 2.237-.913l1.617 1.577c-.954.163-1.341.96-1.978 1.426-.182.133-.344.436-.59.294-.28-.16-.04-.435-.004-.655.066-.403.158-.802.237-1.19-.275-.14-.515-.086-.747-.086-3.707-.004-7.414-.003-11.12-.003-.143 0-.286.008-.428 0-.21-.011-.286.095-.316.296-.042.288-.097.574-.227.84-.322.657-.93 1.03-1.546.945-.277-.038-.51-.147-.6-.438-.083-.273-.04-.537.165-.743.117-.118.25-.232.396-.303.69-.335 1.139-.859 1.274-1.642.022-.129.065-.247.213-.229.094.011.183.097.184.198.007.63.408.635.87.629 1.355-.017 2.71-.003 4.064-.008.53-.002.533-.01.541-.568.006-.365 0-.73.004-1.095.001-.148.01-.33.202-.316.724.05 1.447.124 2.172.19M169.51 52.926c.566-.134 3.027-.12 3.423-.003-.96.323-.972.323-.974 1.366-.005 2.191.004 4.383.008 6.575 0 .122 0 .244.01.365.063.767.118 1.214 1.094 1.175.092-.003.197.008.212.14-.458.122-3.115.133-3.653.014.019-.04.03-.11.057-.117.773-.228.796-.226.833-1.015.118-2.433.064-4.87.039-7.304-.01-.92-.043-.92-1.05-1.196M290.646 33.056c0-1.261 0-1.25-1.137-1.159-.285.023-.351.146-.347.38.007.334-.006.67.002 1.004.026 1.049-.247.952 1.069.962.289.002.433-.087.416-.384-.017-.267-.004-.535-.003-.803m-2.545-2.025c.258.024.5.159.744.271.324.148.654.196 1.01.201.413.007.783-.012 1.003-.42.093-.176.24-.176.402-.054.38.284.765.558 1.268.923-.808.11-.684.599-.686 1.028-.002.557.008 1.114-.002 1.671-.01.455-.575.82-1.027.678-.176-.055-.174-.197-.165-.326.022-.31-.153-.382-.43-.367a5.23 5.23 0 0 1-.557 0c-.283-.015-.465.028-.525.367-.05.283-.586.509-.91.463-.275-.04-.219-.25-.22-.416a552.672 552.672 0 0 1 0-3.61c.001-.128-.044-.267.095-.41M214.792 35.591c-.041.102-.048.14-.058.14-.68.053-.945.588-1.29 1.03-1.66 2.127-3.796 3.641-6.36 4.601-.182.068-.423.28-.559.024-.143-.27.196-.313.355-.402 2.44-1.359 4.238-3.297 5.536-5.69.056-.102.12-.2.16-.308.103-.273.245-.342.537-.19.54.283 1.103.526 1.68.795M214.038 30.594c-.734-.074-1.04.483-1.454.876-1.413 1.346-3.04 2.357-4.821 3.133a3.997 3.997 0 0 1-.256.102c-.103.037-.176-.017-.228-.096-.06-.09-.035-.181.036-.247.066-.062.15-.104.227-.155 1.768-1.17 3.205-2.665 4.351-4.446.258-.401.269-.402.676-.17.489.279.971.57 1.456.856l.013.147M214.036 25.35c-.686-.085-1.05.383-1.494.708a18.998 18.998 0 0 1-4.58 2.463c-.09.034-.175.077-.267.104-.16.048-.342.125-.432-.087-.077-.183.116-.226.224-.29a16.74 16.74 0 0 0 2.926-2.232 15.337 15.337 0 0 0 1.51-1.66c.121-.155.22-.289.464-.141.542.33 1.1.637 1.65.953v.183M187.623 26.591c-.06.115-.07.153-.082.154-.783.066-1.13.649-1.566 1.127-.847.928-1.74 1.815-2.734 2.61-.156.123-.317.241-.477.361-.102.077-.214.148-.341.059-.131-.093-.087-.203-.008-.308.044-.06.082-.121.123-.182.941-1.393 1.737-2.857 2.48-4.347.24-.481.246-.485.774-.262.605.254 1.205.518 1.83.788M172.547 25.724c.076-.093.165-.069.254-.025 1.075.521 2.06 1.174 2.803 2.155.44.58.736 1.222.694 1.99-.017.308-.094.59-.299.818-.43.479-1.169.326-1.3-.3-.342-1.643-1.085-3.071-2.08-4.375-.06-.077-.123-.153-.072-.263M258.962 39.262c1.57.076 3.042.193 4.477.549.385.096.76.215 1.115.377.21.097.41.205.57.36.164.158.291.333.208.562-.09.252-.32.344-.589.384a1.357 1.357 0 0 1-.877-.16c-1.488-.833-3.124-1.33-4.825-1.682-.023-.005-.048-.01-.067-.02-.14-.079-.455.011-.402-.24.046-.217.302-.129.39-.13"/>
        <path fill="#FFF" d="M203.472 37.754c1.021-.137 2.357.508 2.808 1.285.145.25.223.521.209.825-.02.452-.253.803-.588.877-.306.068-.583-.111-.747-.545-.36-.947-.94-1.697-1.682-2.442M276.68 38.184c-.008.715-.055 1.246-.226 1.75-.105.314-.259.59-.521.737-.2.111-.413.128-.597-.053-.188-.185-.187-.446-.139-.703a.903.903 0 0 1 .135-.342c.567-.8.708-1.77.787-2.773.016-.203-.072-.55.174-.573.253-.022.205.34.235.536.079.526.115 1.062.151 1.421M155.17 25.847c-.708-.006-1.026.577-1.468.974-.39.35-.786.691-1.182 1.03-.09.078-.202.108-.304.018-.114-.1-.054-.205.002-.31.417-.776.773-1.584 1.107-2.403.082-.2.175-.32.4-.206.476.243.955.479 1.433.718l.012.18M149.13 27.005a.913.913 0 0 1-.227.655c-.164.188-.37.317-.629.244-.238-.067-.432-.193-.474-.478a5.524 5.524 0 0 0-.12-.57c-.153-.59-.376-1.149-.746-1.637-.062-.08-.104-.174-.016-.253.046-.04.139-.074.19-.054.79.299 1.526.676 1.914 1.512.084.18.113.369.109.581M290.264 29.75c-.188.403-.417.432-.647.433-1.414.006-2.828.005-4.243.006-.068 0-.137-.007-.204-.018-.134-.023-.193-.125-.189-.284.004-.135.082-.185.178-.192.136-.01.274-.01.41-.01.64-.001 1.279-.03 1.916.009.492.03.866-.077 1.145-.642.242-.488.289-.46.684-.129.315.265.624.542.95.826M278.187 38.71c.013.384-.07.744-.348 1.052-.172.191-.396.29-.674.21-.304-.089-.337-.291-.285-.54.197-.945.071-1.88-.125-2.813-.026-.13-.19-.29.064-.377.161-.055.264.043.351.146.583.693 1.01 1.438 1.017 2.322M278.189 35.472c.861.342 1.552 1.478 1.507 2.31-.012.215-.056.412-.187.567-.205.24-.59.164-.61-.152-.06-.931-.335-1.782-.71-2.725M106.952 30.786c-3.24-.037-6.46-.05-9.69.005.012.109.006.14.019.153 1.972 2.152 4.45 3.261 7.334 3.537.293.028.434-.106.565-.333.56-.976 1.13-1.947 1.698-2.918.06-.103.128-.202.074-.444m-3.189-18.279c-.119-.031-.164-.05-.21-.054a.512.512 0 0 0-.144.008c-2.994.588-5.37 2.127-7.159 4.589-.203.28-.174.495-.013.772.667 1.14 1.312 2.29 1.972 3.432.065.112.098.287.35.248a398.791 398.791 0 0 0 5.204-8.995m-3.2 16.513c-.486-1.182-5.177-9.263-5.556-9.585a9.766 9.766 0 0 0-.693 2.858 10.99 10.99 0 0 0 1.292 6.391c.128.237.283.344.563.341 1.443-.012 2.886-.005 4.394-.005m4.957-10.244v-.015c-.963 0-1.925.005-2.888-.003-.285-.002-.503.057-.66.33a366.908 366.908 0 0 1-2.32 3.98c-.152.26-.144.482.003.737.937 1.62 1.87 3.244 2.791 4.873.148.262.333.373.632.372 1.54-.001 3.081.004 4.621.024.33.004.526-.113.69-.398.92-1.603 1.849-3.2 2.796-4.787.185-.309.188-.538.003-.847a137.539 137.539 0 0 1-2.198-3.801c-.208-.375-.468-.483-.87-.472-.866.022-1.733.007-2.6.007m6.903 6.439c-.785 1.336-1.515 2.576-2.242 3.816-1.152 1.968-2.3 3.937-3.453 5.904-.133.228-.275.45-.423.669-.306.454-.718.637-1.286.622-5.462-.146-10.81-3.877-12.178-10.048-1.515-6.832 2.607-13.472 9.388-15.224a12.01 12.01 0 0 1 2.924-.388c1.051-.008 1.427.629.897 1.552-.8 1.394-1.62 2.777-2.427 4.168-.116.2-.3.376-.284.636.131.17.314.102.47.104 1.636.01 3.273.038 4.909.007.719-.014 1.161.272 1.51.878 2.046 3.556 4.112 7.102 6.171 10.651.12.207.253.407.276.657.035.403-.14.732-.481.883a.838.838 0 0 1-.987-.206c-.125-.142-.22-.314-.316-.479-.666-1.14-1.328-2.281-1.993-3.421-.132-.225-.27-.446-.475-.781M81.242 12.83a3.005 3.005 0 0 1 2.984 3.052 3.02 3.02 0 0 1-3.06 2.986 3.013 3.013 0 0 1-2.977-3.063c.014-1.68 1.353-2.986 3.053-2.975M110.643 53.286a1.19 1.19 0 0 0 1.21-1.227 1.21 1.21 0 0 0-1.233-1.212 1.213 1.213 0 0 0-1.21 1.233c.004.685.542 1.211 1.233 1.206m-.004-4.23a3.018 3.018 0 0 1 3.021 3.022c.008 1.655-1.365 3.021-3.032 3.016a2.997 2.997 0 0 1-3.005-3.028 2.98 2.98 0 0 1 3.016-3.01M91.774 71.582c-.008-.382.242-.63.458-.89 1.462-1.759 2.93-3.514 4.394-5.272.795-.954 1.586-1.91 2.382-2.863.14-.167.28-.341.449-.476a.8.8 0 0 1 1.061.014c.32.278.41.76.194 1.13-.085.146-.201.274-.31.405l-6.869 8.249c-.155.187-.304.38-.53.488a.86.86 0 0 1-1.23-.785M67.622 57.77c-.016 1.068-.843 1.871-1.91 1.852-1.039-.017-1.884-.889-1.863-1.92a1.904 1.904 0 0 1 1.932-1.853c1.057.017 1.857.852 1.841 1.922M56.792 41.777c.034.214-.114.566.315.565.425 0 .807-.307.81-.65.004-.325-.337-.616-.74-.632-.323-.013-.372.076-.385.717m.407.889c-.366-.005-.407.022-.375.67.014.29-.239.77.298.824.528.053.92-.328.91-.802-.01-.443-.302-.686-.833-.692m.713-.23c.254.197.49.316.59.592.177.488-.02 1.005-.5 1.255a1.484 1.484 0 0 1-.402.128c-1.255.245-1.292.21-1.292-1.144 0-.678.015-1.357-.005-2.034-.011-.363.113-.494.448-.477.35.019.705-.039 1.05.061.685.2.845.783.374 1.365-.06.074-.136.133-.263.255M85.64 44.455l-.885-1.803c-.25.347-.161.662-.229.932-.067.268 0 .581-.29.944-.062-1.105.218-2.023.243-2.967l.154-.05 1.106 2.197 1.083-2.199.124.011c.1.88.2 1.758.296 2.638.012.105-.003.218-.126.245-.149.031-.225-.064-.244-.211-.065-.496-.122-.993-.2-1.647-.495.6-.631 1.293-1.033 1.91M76.606 41.57l-1.3 1.274 1.373 1.563c-.498.09-.497.089-.9-.353-.241-.266-.487-.528-.784-.849-.172.405-.083.74-.11 1.06-.013.142-.065.252-.229.263-.17.01-.242-.095-.24-.241.004-.855.013-1.709.023-2.562.002-.112.05-.204.18-.214.164-.014.244.076.261.226.033.28-.044.569.08.887.665-.196.857-1.032 1.646-1.054M69.141 41.567c.761.658 1.229 1.437 1.993 2.09V41.51c.276.411.324 1.558.19 3.02-.376-.3-.62-.667-.902-.985-.294-.332-.575-.678-.96-1.134-.132.785-.021 1.408-.085 2.09-.367-.263-.206-.597-.229-.864-.028-.34-.007-.683-.007-1.025v-1.044zM118.527 42.278c.005.436.044.51.25.49a.522.522 0 0 0 .482-.555c-.032-.355-.237-.444-.473-.46-.334-.02-.236.312-.259.525m.108.74c-.174.015-.115.33-.101.561.014.243-.139.62.218.666.309.039.585-.256.597-.602.012-.346-.237-.617-.714-.625m-.445-.044c0-.29-.004-.578.001-.867.012-.584.014-.585.487-.594.121-.003.243-.009.364.006.57.072.728.47.405 1.11-.112.222-.054.268.047.43.37.59.223 1.164-.335 1.374-.134.051-.277.076-.418.086-.498.039-.545-.022-.55-.678-.003-.29 0-.578 0-.867M96.183 44.52c-1.06.124-1.705-1.058-1.235-2.203.302-.735 1.37-1.051 1.959-.596.08.063.127.136.083.249-.043.11-.113.136-.202.068-.072-.055-.141-.114-.217-.16-.384-.23-.745-.17-1.064.162-.313.325-.405 1.032-.226 1.568.153.457.471.705.899.7.408-.006.51-.123.53-.614.003-.102-.004-.204-.002-.306.003-.137.032-.258.176-.242.093.01.151.087.155.2.007.205-.006.41.013.612.033.338-.13.46-.362.504-.168.031-.338.039-.507.057M108.39 44.518c-.865.009-.736.15-.745-.964-.005-.7-.014-1.402.007-2.102.007-.245-.142-.678.171-.697.326-.02.195.417.201.662.017.7-.003 1.402.01 2.102.013.679.034.691.532.683.154-.003.309 0 .463.005.071.002.103.08.103.153 0 .076-.04.153-.104.155-.213.008-.426.003-.638.003M102.34 44.386c-.504.221-.907.118-1.298.12-.184 0-.213-.187-.212-.351.006-.766.02-1.532.024-2.298.001-.22.061-.351.287-.347.351.006.702.001 1.166.001-.284.37-.54.246-.754.266-.362.033-.33.3-.333.567-.003.254.006.473.326.468.188-.003.388-.064.575.072-.09.351-.357.192-.538.192-.375.001-.363.263-.349.535.014.265-.103.614.338.62.212.003.436-.066.768.155M113.234 42.347c-.1.33-.35.517-.144.77.087.11.282.1.356-.02.159-.263-.052-.435-.212-.75m-1.083 2.181l1.189-3.019c.383.99.71 1.834 1.034 2.679.035.09.08.205-.02.268-.11.067-.224.027-.289-.092a1.674 1.674 0 0 1-.168-.408c-.095-.405-.307-.544-.68-.54-.372.003-.491.225-.602.557-.064.19-.06.467-.464.555M91.594 42.998c.015-.278-.095-.482-.251-.753-.153.295-.251.5-.267.789.177.035.346.096.518-.036m-1.33 1.53c.339-1.09.738-2.04 1.102-3.019.277.097.27.387.35.59.264.666.504 1.345.756 2.017.048.13.106.284-.019.36-.14.084-.262-.018-.328-.187-.048-.123-.107-.245-.135-.375-.085-.403-.281-.558-.64-.56-.364-.001-.538.162-.642.562-.053.206-.065.499-.444.612M81.92 42.626v1.553c0 .197-.042.363-.397.348-.303-.012-.315-.17-.315-.326 0-1.035.011-2.07.01-3.105 0-.211.063-.358.405-.34.273.015.34.146.34.32-.003.516-.001 1.034-.001 1.55h-.042zM63.094 44.397c-.476.221-.895.09-1.299.117-.145.01-.21-.108-.21-.245 0-.845.008-1.69.018-2.534 0-.097.009-.209.138-.223.141-.016.231.057.238.204.014.306.012.614.014.92.002.308.001.615 0 .922-.003.753.012.693.6.686.117 0 .233.011.349.021.018.002.034.028.152.132M66.854 42.993c0 .417.002.834 0 1.251-.002.137-.046.268-.329.283-.264.014-.413-.077-.412-.23.008-.86.019-1.72.046-2.579.005-.147.178-.226.445-.205.236.018.256.13.258.23.01.416.004.833.004 1.25h-.012z"/>
    </g>
</svg>
