<svg xmlns="http://www.w3.org/2000/svg" width="368" height="80" viewBox="0 0 368 80">
    <g fill="none" fill-rule="evenodd">
        <path d="M0 0h368v80H0z" opacity=".409"/>
        <g fill="#FFF" fill-rule="nonzero">
            <path d="M267.12 48.231c-.713 0-1.36.26-1.88.713-.388.39-.583.973-.647 1.75 0 .713.259 1.362.713 1.815.453.39 1.037.648 1.814.648.713 0 1.297-.194 1.75-.648.454-.453.713-1.102.713-1.815 0-.713-.194-1.296-.648-1.75-.454-.453-1.037-.713-1.815-.713zM276.13 27.556c-.39-.39-.908-.584-1.556-.584s-1.167.195-1.555.584c-.39.388-.584.907-.584 1.555 0 .648.195 1.167.584 1.556.388.389.907.583 1.555.583.648 0 1.167-.194 1.556-.583.389-.39.583-.908.583-1.556.065-.648-.194-1.167-.583-1.555zM273.148 33.778c-.065 0-.065 0 0 0-.194 0-.26.065-.26.194V51.343c0 1.296 2.399 1.75 3.306 1.814.13 0 .195-.064.195-.194V36.111c.065-1.555-2.204-2.139-3.24-2.333zM295.704 52.963V41.361c0-1.88-.26-3.37-.843-4.278a6.181 6.181 0 0 0-2.333-2.139c-1.037-.518-2.204-.777-3.5-.777-1.62 0-3.047.583-4.278 1.814-.065.065-.065.065-.13.065-.064 0-.13-.065-.194-.13-.713-1.425-2.333-1.879-3.306-2.073-.13 0-.194.064-.194.194v17.24c0 1.232 2.398 1.816 3.305 1.945.13 0 .195-.065.195-.194V41.815c.065-.778.194-1.426.454-1.945.259-.648.713-1.231 1.426-1.75.518-.389 1.231-.583 2.074-.583 1.296 0 2.268.324 2.981.972.583.584.908 1.556.908 2.917v10.111c0 1.232 2.462 1.62 3.305 1.75h.065c0-.065.065-.13.065-.324zM201.593 34.75c-1.167-.648-2.593-.972-4.278-.972-1.75 0-3.24.324-4.472 1.102-1.297.907-2.269 1.944-2.982 3.11-.842 1.491-1.296 3.306-1.296 5.316 0 2.138.389 4.083 1.102 5.574.713 1.296 1.685 2.333 2.916 3.176 1.297.777 2.852 1.231 4.667 1.231 1.88 0 3.565-.454 4.99-1.426 1.103-.713 2.01-1.815 2.723-3.305.583-1.297.907-3.047.907-5.056 0-2.204-.453-4.148-1.36-5.769-.714-1.231-1.686-2.203-2.917-2.981zm.064 12.056c-.324.777-.907 1.49-1.62 2.009-.713.518-1.685.842-2.917.842-.972 0-1.88-.259-2.657-.777-.648-.454-1.232-1.167-1.75-2.01-.389-.907-.648-2.203-.648-3.63 0-1.425.26-2.592.713-3.434a5.637 5.637 0 0 1 1.75-1.75c.648-.39 1.555-.649 2.657-.649.908 0 1.815.26 2.658.713.583.39 1.101 1.037 1.62 1.88.389.778.648 1.944.648 3.435.065 1.296-.13 2.463-.454 3.37zM185.519 41.426c0-2.074-.325-3.695-1.038-4.732a6.964 6.964 0 0 0-2.268-2.074c-1.037-.518-2.204-.777-3.565-.777-1.685 0-3.111.583-4.342 1.685-.065.065-.13.065-.195.065-.13 0-.194-.065-.194-.26v-9.722c0-1.685-2.528-2.074-3.37-2.139h-.066c-.13 0-.194.065-.194.195v27.611c0 1.426 2.528 1.944 3.37 2.009h.065c.13 0 .195-.065.195-.194V41.88c.064-.778.194-1.426.453-2.01a4.133 4.133 0 0 1 1.426-1.814c.519-.39 1.232-.584 2.14-.584 1.295 0 2.333.324 3.045.972.584.584.908 1.556.908 2.917v9.722c0 1.62 2.528 2.074 3.37 2.14.13 0 .195-.066.195-.195V41.426h.065zM224.083 35.981c0-1.75-2.527-2.074-3.37-2.138h-.065c-.13 0-.194.064-.194.194v9.917c0 1.555-.519 2.852-1.62 3.824-.778.713-1.815 1.102-3.047 1.166-1.102 0-1.944-.324-2.528-.972-.518-.583-.778-1.49-.778-2.722v-9.333c0-1.75-2.527-2.074-3.37-2.14h-.065c-.13 0-.194.066-.194.195V45.12c0 2.463.583 4.343 1.685 5.64.972 1.101 2.528 1.684 4.667 1.684 1.426 0 2.657-.388 3.565-1.231.583-.519.972-.972 1.296-1.361.065-.065.13-.13.194-.13.13 0 .195.065.195.195v1.166c0 1.62 2.527 2.074 3.37 2.14h.065c.13 0 .194-.066.26-.195V35.98h-.066zM240.287 44.343c-.778-.778-2.463-1.62-5.056-2.593-2.074-.778-3.305-1.296-3.694-1.62-.26-.195-.454-.584-.454-1.037 0-.454.195-.908.648-1.232.519-.389 1.362-.648 2.399-.648.907 0 1.685.13 2.203.389.454.26.843.583 1.167.972.907.907 2.593-.324 3.24-.907 0 0 .066 0 .066-.065.064-.065.064-.065.064-.13v-.065c-.064-.259-.194-.453-.324-.713-.583-1.037-1.49-1.814-2.657-2.333a8.569 8.569 0 0 0-3.435-.713c-2.204 0-3.954.583-5.25 1.815-1.037 1.037-1.62 2.333-1.62 3.76 0 .971.259 1.814.777 2.527.583.713 2.463 1.685 5.639 2.981 2.01.843 3.24 1.426 3.565 1.815.194.26.324.648.389 1.102 0 .389-.26.843-.778 1.296-.389.39-1.232.584-2.528.584-1.102 0-2.01-.195-2.657-.584-.648-.388-1.037-.842-1.361-1.49-.519-.908-2.528.065-3.37.648 0 0-.066 0-.066.065-.064.064-.064.13-.064.194v.065c.064.324.194.713.453 1.037.519 1.037 1.361 1.944 2.398 2.593 1.167.713 2.658 1.101 4.343 1.101 2.269 0 4.083-.518 5.315-1.62 1.361-1.167 2.074-2.593 2.074-4.213-.065-1.102-.519-2.139-1.426-2.981zM248.713 44.667h10.694c1.232 0 1.88-.519 1.945-1.556 0-2.268-.389-4.083-1.232-5.444-.842-1.361-1.88-2.398-3.11-3.047-1.167-.583-2.334-.907-3.566-.907-2.722 0-4.925 1.102-6.61 3.24-1.362 1.816-2.075 4.02-2.14 6.547 0 2.593.843 4.926 2.463 6.74 1.686 1.945 3.89 2.982 6.482 2.982 1.231 0 2.528-.389 3.889-1.166 1.36-.778 2.398-1.686 3.046-2.723.065-.194.195-.324.26-.453v-.13c0-.065 0-.13-.065-.194-.713-.584-2.528-1.815-3.5-.843-.39.583-.908 1.037-1.556 1.426a4.023 4.023 0 0 1-2.01.518c-1.49 0-2.786-.583-3.759-1.685-.713-.842-1.166-1.88-1.36-2.981-.13-.195 0-.324.129-.324zm-.065-3.5c.195-.713.583-1.361 1.037-1.945.972-1.231 2.269-1.88 3.76-1.944 1.036 0 2.009.453 2.851 1.296.584.583.973 1.426 1.167 2.657 0 .195-.065.26-.26.26h-8.36c-.065 0-.26-.13-.195-.324z"/>
        </g>
        <path fill="#FFF" fill-rule="nonzero" d="M120.639 5.065h-4.019c-23.787 0-41.61 9.268-43.037 32.148 0 11.537 4.732 18.99 12.38 23.593-.389 1.231-1.037 2.657-1.815 4.407-2.074 4.537-5.51 8.49-4.731 9.074.777.583 6.092-1.167 10.889-3.824 4.925-2.722 7.194-4.407 7.777-4.926.065-.065.13-.13.195-.13 5.574 1.232 11.796 1.88 18.342 1.88h4.019c23.787 0 43.037-5.639 43.037-30.139-2.204-24.435-19.315-32.083-43.037-32.083zm-18.602 44.787H89.204c-1.75 0-2.658-.843-2.658-2.658V26.843a.14.14 0 0 1 .13-.13c.843.065 3.694.583 3.694 2.139v17.046c0 .065.065.13.13.13h9.593c1.685 0 1.944 2.916 2.074 3.694a.14.14 0 0 1-.13.13zm7.13-.13a.14.14 0 0 1-.13.13c-.843-.065-3.694-.583-3.694-2.139V26.778a.14.14 0 0 1 .13-.13c.842.13 3.694.583 3.694 2.204v20.87zm23.981-22.685c-.389.972-2.398 6.028-4.342 10.954-2.075 5.25-4.084 10.37-4.084 10.37-.13.324-.389.713-.778 1.037-.324.324-.842.519-1.36.519-.649 0-1.103-.13-1.491-.519-.39-.389-.649-.713-.778-1.037l-3.89-10.37-4.082-10.954v-.065c0-.065 0-.13.064-.13.649-.129 3.565-.648 4.343 1.102l3.63 10.047 2.074 5.703s.065.065.13.065c.064 0 .129 0 .129-.065l2.204-5.703 3.889-10.241c.713-1.556 3.5-1.037 4.277-.843.065 0 .13.065.065.13zm18.343 22.88h-12.51c-1.75 0-2.657-.843-2.657-2.658V29.37c0-1.75.907-2.657 2.657-2.657h10.436c1.75 0 2.139 2.787 2.203 3.694a.14.14 0 0 1-.13.13h-11.147a.14.14 0 0 0-.13.13v15.296c0 .065.065.13.13.13h9.074c1.814 0 2.139 2.722 2.203 3.694a.14.14 0 0 1-.13.13zm-.454-10.76l-4.796 3.047c-.972.713-2.398-.13-2.398-1.102v-6.028c0-1.102 1.49-1.88 2.398-1.231l4.796 3.11c.843.584.778 1.491 0 2.204z"/>
        <path d="M133.083 26.907c-.777-.194-3.564-.713-4.277.843l-3.89 10.24-2.203 5.704c0 .065-.065.065-.13.065-.064 0-.13-.065-.13-.065l-2.073-5.703-3.63-10.047c-.778-1.75-3.694-1.231-4.343-1.101-.064 0-.064.064-.064.13v.064l4.083 10.954 3.889 10.37c.13.324.389.648.778 1.037.388.389.842.519 1.49.519.519 0 1.037-.195 1.361-.519.39-.324.649-.713.778-1.037 0 0 2.01-5.12 4.084-10.37 1.944-4.926 3.953-9.982 4.342-10.89v-.064c.065-.065 0-.13-.065-.13zM100.093 46.028H90.5a.14.14 0 0 1-.13-.13V28.852c0-1.556-2.851-2.074-3.694-2.139a.14.14 0 0 0-.13.13v20.351c0 1.815.908 2.658 2.658 2.658h12.833a.14.14 0 0 0 .13-.13c-.13-.778-.39-3.694-2.074-3.694zM105.472 26.648a.14.14 0 0 0-.13.13v20.935c0 1.556 2.852 2.074 3.695 2.139a.14.14 0 0 0 .13-.13v-20.87c0-1.62-2.852-2.074-3.695-2.204zM149.417 46.093h-9.074a.14.14 0 0 1-.13-.13V30.667a.14.14 0 0 1 .13-.13h11.148a.14.14 0 0 0 .13-.13c-.065-.907-.454-3.694-2.204-3.694H138.98c-1.75 0-2.657.907-2.657 2.657v17.89c0 1.814.907 2.657 2.657 2.657h12.51a.14.14 0 0 0 .13-.13c-.065-.972-.39-3.694-2.204-3.694z"/>
        <path d="M151.037 36.954l-4.796-3.111c-.908-.649-2.398.13-2.398 1.231v6.028c0 .972 1.426 1.815 2.398 1.102l4.796-3.047c.778-.713.843-1.62 0-2.203z"/>
    </g>
</svg>
