<svg xmlns="http://www.w3.org/2000/svg" xmlns:xlink="http://www.w3.org/1999/xlink" width="368" height="80" viewBox="0 0 368 80">
    <defs>
        <path id="a" d="M0 .082h50.23V50.37H0z"/>
    </defs>
    <g fill="none" fill-rule="evenodd">
        <path fill="#FFF" d="M115.47 34.96V18.185h5.514c5.146 0 8.038 2.47 8.038 7.948v.489c0 5.38-2.622 8.338-8.014 8.338h-5.538zm3.014-2.372h2.549c3.284 0 4.803-1.614 4.803-5.673v-.807c0-4.23-1.838-5.551-5.024-5.551h-2.328v12.031zm18.87 2.592c-4.19 0-6.249-2.372-6.249-6.358v-.342c0-4.23 2.574-6.309 5.784-6.309 3.725 0 5.343 2.079 5.343 6.089v1.174h-8.235c.172 2.616 1.52 3.546 3.921 3.546 1.618 0 2.794-.367 3.897-.93v1.957c-.858.562-2.328 1.173-4.46 1.173zm-.514-10.93c-1.299 0-2.647.684-2.843 3.252h5.367c0-2.372-.882-3.252-2.524-3.252zm11.445 10.906c-1.642 0-3.112-.293-4.166-.856v-2.054c1.054.416 1.985.783 3.75.783 1.764 0 2.5-.587 2.5-1.517 0-.904-.49-1.345-1.863-1.638l-1.177-.269c-1.936-.391-3.21-1.37-3.21-3.62 0-2.322 1.495-3.814 4.68-3.814 1.716 0 2.795.318 3.628.685v2.127a8.796 8.796 0 0 0-3.382-.685c-1.47 0-2.255.49-2.255 1.468 0 .88.49 1.198 1.691 1.491l1.201.27c2.475.562 3.431 1.54 3.431 3.716 0 2.617-1.74 3.913-4.828 3.913zm7.5-.196V22.367h2.842V34.96h-2.843zm0-14.672V17.72h2.867v2.568h-2.868zm10.88 18.243c-3.945 0-5.832-1.125-5.832-2.91 0-1.296 1.03-2.079 2.353-2.47v-.098c-.76-.269-1.324-.954-1.324-1.834 0-.856.564-1.37 1.47-1.956-.955-.612-1.592-1.541-1.592-2.96v-.22c0-2.592 2.058-3.912 5.048-3.912.686 0 1.348.073 1.96.196h4.265v1.858h-1.936c.417.465.637 1.003.637 1.785v.171c0 2.69-2.107 3.864-4.95 3.864-.711 0-1.397-.049-1.985-.244-.294.244-.466.318-.466.635 0 .612.343.832 1.127.832h3.48c2.402 0 4.093.856 4.093 3.179 0 2.347-1.911 4.084-6.347 4.084zm-.048-1.908c2.622 0 3.504-.66 3.504-1.712 0-.978-.44-1.271-1.96-1.271h-3.235c-.76.244-1.3.709-1.3 1.565 0 .93.81 1.418 2.99 1.418zm.147-8.387c1.446 0 2.23-.538 2.23-1.932v-.318c0-1.492-.858-2.03-2.23-2.03-1.446 0-2.255.66-2.255 1.98v.294c0 1.468.858 2.006 2.255 2.006zm8.43 6.724V22.367h2.72v1.124h.099c1.078-.782 2.622-1.345 4.141-1.345 2.427 0 3.676.979 3.676 3.473v9.341h-2.842v-8.68c0-1.272-.417-1.786-2.133-1.786-.98 0-2.083.318-2.842.685v9.781h-2.819zm20.734 0V18.185h3.038V34.96h-3.038zm6.764 0V22.367h2.72v1.124h.098c1.078-.782 2.622-1.345 4.142-1.345 2.426 0 3.676.979 3.676 3.473v9.341h-2.843v-8.68c0-1.272-.417-1.786-2.132-1.786-.98 0-2.083.318-2.843.685v9.781h-2.818zm14.68 0V24.567h-1.814v-2.2h1.814v-1.565c0-2.715 1.69-3.913 4.068-3.913 1.127 0 1.911.196 2.377.391v1.883a7.504 7.504 0 0 0-1.617-.171c-1.324 0-2.06.611-2.06 2.103v1.272h2.77v2.2h-2.77V34.96h-2.768zm13.136.22c-3.848 0-5.98-2.323-5.98-6.26v-.391c0-4.035 2.45-6.383 6.004-6.383 3.774 0 5.955 2.3 5.955 6.31v.342c0 4.06-2.45 6.382-5.98 6.382zm.049-2.127c1.887 0 2.99-1.296 2.99-4.01v-.612c0-3.277-1.348-4.157-3.064-4.157-1.936 0-3.063 1.345-3.063 4.06v.586c0 3.253 1.372 4.133 3.137 4.133zm8.528 1.907V22.367h2.72v1.467h.098c.687-.905 1.986-1.565 3.309-1.565.343 0 .662.024.784.073v2.494a7.551 7.551 0 0 0-1.03-.073c-1.126 0-2.254.318-3.063.832v9.365h-2.818zm9.24 0V22.367h2.72v1.124h.098c1.078-.758 2.377-1.345 3.847-1.345 1.446 0 2.427.44 2.99 1.419h.147c1.3-.88 2.72-1.419 4.142-1.419 2.23 0 3.48.954 3.48 3.449v9.365h-2.794v-8.705c0-1.247-.49-1.76-1.936-1.76-.833 0-1.666.244-2.622.708.024.196.049.318.049.563v9.194h-2.77v-8.705c0-1.247-.514-1.76-1.935-1.76-.907 0-1.838.293-2.598.684v9.781h-2.819zm23.845.22c-2.279 0-3.872-1.149-3.872-3.57 0-2.323 1.544-3.399 4.044-3.766l2.965-.342v-.954c0-1.712-.76-2.103-2.892-2.103-1.225 0-2.303.171-3.063.343v-1.932c1.176-.465 2.524-.685 4.166-.685 2.916 0 4.607 1.125 4.607 3.741v9.048h-2.328l-.22-1.027h-.147c-.613.71-1.618 1.247-3.26 1.247zm.858-1.98c.907 0 1.813-.318 2.28-.758v-3.106l-2.33.245c-1.249.097-1.91.61-1.91 1.882 0 1.199.808 1.737 1.96 1.737zm12.695 1.907c-2.181 0-3.578-.88-3.578-3.252v-7.288h-1.765v-2.2h1.765v-2.96h2.769v2.96h3.014v2.2h-3.014v6.896c0 1.052.392 1.443 1.716 1.443.49 0 1.004-.073 1.445-.195v1.883c-.49.244-1.176.513-2.352.513zm4.975-.147V22.367h2.843V34.96h-2.843zm0-14.672V17.72h2.867v2.568h-2.867zm11.518 14.892c-3.847 0-5.98-2.323-5.98-6.26v-.391c0-4.035 2.451-6.383 6.005-6.383 3.774 0 5.955 2.3 5.955 6.31v.342c0 4.06-2.45 6.382-5.98 6.382zm.05-2.127c1.886 0 2.99-1.296 2.99-4.01v-.612c0-3.277-1.349-4.157-3.064-4.157-1.936 0-3.064 1.345-3.064 4.06v.586c0 3.253 1.373 4.133 3.137 4.133zm8.528 1.907V22.367h2.72v1.124h.098c1.079-.782 2.623-1.345 4.142-1.345 2.426 0 3.676.979 3.676 3.473v9.341h-2.843v-8.68c0-1.272-.416-1.786-2.132-1.786-.98 0-2.083.318-2.843.685v9.781h-2.818zM120.396 61.43c-3.848 0-6.103-1.712-6.103-4.866 0-2.446 1.52-3.913 3.652-4.915-.956-1.199-1.397-2.275-1.397-3.449 0-2.738 2.132-4.083 4.705-4.083 2.598 0 4.412 1.418 4.412 3.692 0 2.25-1.667 3.448-3.75 4.426l3.333 3.962c.417-.905.71-2.03.858-3.252h2.45c-.195 1.931-.808 3.692-1.813 5.11l2.647 3.106h-3.48l-1.03-1.198a7.516 7.516 0 0 1-4.484 1.467zm.196-2.152c1.152 0 2.132-.342 2.94-.93l-4.313-5.134c-1.152.684-2.01 1.516-2.01 3.007 0 1.859 1.104 3.057 3.383 3.057zm-1.177-11.249c0 .88.392 1.639 1.103 2.495l.196.293c1.177-.66 2.28-1.516 2.28-2.886 0-1.124-.736-1.834-1.716-1.834-1.078 0-1.863.612-1.863 1.932zm22.204 13.132V46.758h-4.828v-2.372h12.621v2.372h-4.779V61.16h-3.014zm10.17 0V43.285h2.819v6.358h.123c1.029-.758 2.5-1.296 4.019-1.296 2.426 0 3.676.978 3.676 3.473v9.341h-2.843V52.48c0-1.272-.417-1.785-2.132-1.785-.98 0-2.083.318-2.843.685v9.781h-2.818zm13.945 0V48.567h2.843v12.594h-2.843zm0-14.672V43.92h2.868v2.568h-2.868zm6.25 14.672V48.567h2.72v1.125h.098c1.078-.782 2.622-1.345 4.142-1.345 2.426 0 3.676.978 3.676 3.473v9.341h-2.843V52.48c0-1.272-.416-1.785-2.132-1.785-.98 0-2.083.318-2.843.685v9.781h-2.818zm13.895 0V43.285h2.819v17.876h-2.819zm7.524 0c-.22-.342-4.264-6.187-4.46-6.505.196-.342 4.117-5.746 4.313-6.064h2.941c-.245.293-4.117 5.6-4.313 5.893.22.318 4.411 6.31 4.632 6.676h-3.113zm5.343 0V48.567h2.843v12.594h-2.843zm0-14.672V43.92h2.867v2.568h-2.867zm6.25 14.672V48.567h2.72v1.125h.098c1.078-.782 2.622-1.345 4.141-1.345 2.427 0 3.677.978 3.677 3.473v9.341h-2.843V52.48c0-1.272-.417-1.785-2.132-1.785-.98 0-2.084.318-2.843.685v9.781h-2.819zm18.527 3.57c-3.946 0-5.833-1.124-5.833-2.91 0-1.296 1.03-2.078 2.353-2.47v-.097c-.76-.27-1.324-.954-1.324-1.834 0-.856.564-1.37 1.47-1.957-.955-.611-1.592-1.54-1.592-2.959v-.22c0-2.592 2.059-3.912 5.048-3.912.687 0 1.348.073 1.961.195h4.264v1.859h-1.936c.417.464.637 1.002.637 1.785v.171c0 2.69-2.107 3.864-4.95 3.864-.71 0-1.397-.049-1.985-.245-.294.245-.466.318-.466.636 0 .611.343.832 1.128.832h3.48c2.401 0 4.092.855 4.092 3.179 0 2.347-1.911 4.083-6.347 4.083zm-.05-1.907c2.623 0 3.505-.66 3.505-1.712 0-.978-.44-1.271-1.96-1.271h-3.235c-.76.244-1.299.709-1.299 1.565 0 .929.809 1.418 2.99 1.418zm.148-8.388c1.446 0 2.23-.538 2.23-1.932v-.318c0-1.491-.858-2.03-2.23-2.03-1.446 0-2.255.661-2.255 1.982v.293c0 1.467.858 2.005 2.255 2.005zm15.195 6.725V44.386h3.014v14.403h7.107v2.372h-10.121zm15.758.22c-2.28 0-3.872-1.15-3.872-3.57 0-2.323 1.544-3.4 4.043-3.766l2.966-.342v-.954c0-1.712-.76-2.103-2.892-2.103-1.225 0-2.304.171-3.064.342v-1.932c1.177-.464 2.525-.684 4.167-.684 2.916 0 4.607 1.125 4.607 3.741v9.048h-2.328l-.22-1.027h-.148c-.612.71-1.617 1.247-3.26 1.247zm.858-1.98c.906 0 1.813-.318 2.279-.759v-3.105l-2.328.244c-1.25.098-1.912.612-1.912 1.883 0 1.198.809 1.736 1.96 1.736zm13.307 2.03c-1.69 0-3.75-.27-4.926-.735v-17.41h2.818v6.137h.123c.931-.611 2.059-1.076 3.725-1.076 2.353 0 4.804 1.443 4.804 6.09v.293c0 4.45-2.28 6.7-6.544 6.7zm.172-2.153c1.838 0 3.43-.856 3.43-4.133v-.489c0-3.056-1.004-4.01-3.185-4.01-1.054 0-2.01.367-2.525.611v7.654c.49.172 1.201.367 2.28.367zM82.153 18.35h3.8V15.7h-3.8z"/>
        <g transform="translate(47 15.618)">
            <mask id="b" fill="#fff">
                <use xlink:href="#a"/>
            </mask>
            <path fill="#FFF" d="M47.58 47.71H35.45V26.341h3.326v18.641h8.804v2.726zm-23.93.007H14.98v-16h5.523v-3.264H5.844v3.264h5.523v16H2.698V26.342H23.65v21.375zM2.698 2.882l5.272-.144c2.934-.057 5.264.318 6.992 1.129a9.817 9.817 0 0 1 4.157 3.64 10.038 10.038 0 0 1 1.629 5.326 9.729 9.729 0 0 1-.75 3.983 9.978 9.978 0 0 1-2.306 3.376 10.478 10.478 0 0 1-3.612 2.306c-.807.323-1.55.542-2.226.66-.678.116-1.974.193-3.889.23l-5.267.136V2.882zM48.6.082h-7.763v2.652h6.743v20.921h-8.627V5.9h-3.8v17.755h-8.647V2.734h6.754V.08H1.629C.729.081 0 .812 0 1.714v47.024c0 .902.73 1.633 1.63 1.633h9.913l.002-2.662h3.258v2.662H48.6c.9 0 1.63-.73 1.63-1.633V1.714c0-.902-.73-1.633-1.63-1.633z" mask="url(#b)"/>
        </g>
        <path fill="#FFF" d="M58.717 35.994c.85-.218 1.557-.49 2.122-.811a7.257 7.257 0 0 0 1.543-1.178c1.492-1.51 2.214-3.393 2.165-5.652-.048-2.22-.869-4.015-2.464-5.385a7.531 7.531 0 0 0-2.012-1.248c-.754-.32-1.467-.528-2.138-.623-.672-.096-1.749-.13-3.23-.1l-2.037.076v15.373l2.459-.077c1.544-.03 2.741-.155 3.592-.375"/>
    </g>
</svg>
