<svg xmlns="http://www.w3.org/2000/svg" xmlns:xlink="http://www.w3.org/1999/xlink" width="368" height="80" viewBox="0 0 368 80">
    <defs>
        <path id="a" d="M0 .136h67.745v68.5H0z"/>
    </defs>
    <g fill="none" fill-rule="evenodd">
        <path fill="#FFF" d="M216.816 28.429c.519-.142.958-.383.95-.994-.008-.578-.331-.937-.938-.947-.618-.01-.927.353-.96.932-.035.63.425.84.948 1.009m.897 3.888h.007c0-.792-.014-1.585.005-2.376.018-.76-.507-.618-.978-.67-.509-.056-.802.039-.8.616.006 1.649-.002 3.297-.003 4.945-.001.746.6.617 1.03.669.484.058.768-.15.747-.711-.031-.823-.008-1.648-.008-2.473m-6.778-.02h.005c0 .792.059 1.59-.017 2.374-.077.81.47.768.957.82.595.065.857-.218.849-.831-.014-.981.006-1.964.043-2.944.028-.712.389-1.13 1.146-1.014.436.068.695.026.842-.468.102-.347.1-.558-.174-.805-.355-.32-.783-.434-1.102-.124-.392.381-.646.25-1.065.071-1.08-.46-1.488-.147-1.484 1.021v1.9m-18.805.045h.003c0 .413-.016.826.003 1.238.08 1.782 1.244 2.511 2.91 1.821.264-.11.711-.13.513-.603-.136-.327-.326-.53-.798-.347-.64.249-1.018-.09-1.028-.776-.014-.857.044-1.718-.028-2.569-.06-.718.185-1.002.885-.913.368.047.76.068.776-.429.016-.494-.425-.54-.756-.499-.824.1-.958-.316-.9-.999.02-.239.173-.599-.245-.713a1.036 1.036 0 0 0-1.33.932c-.029.355-.019.71-.507.772-.248.032-.378.23-.39.473-.013.251.116.457.37.47.578.028.526.425.523.81-.004.444-.001.888-.001 1.332m27.513-.009h-.014c0 .669.003 1.337 0 2.005-.004.542-.11 1.053.773 1.05.814-.004.852-.39.83-1.002-.033-.89-.012-1.781-.012-2.673 0-.793.456-1.28 1.174-1.379.744-.103 1.115.479 1.337 1.1.092.26.09.562.095.845.01.796.046 1.595-.012 2.386-.063.858.573.673 1.018.742.554.087.602-.287.594-.719-.018-1.05-.084-2.106-.001-3.149.18-2.262-1.925-2.92-3.497-2.034-.292.164-.487.249-.863-.06-.62-.509-1.416-.01-1.421.789-.005.7-.001 1.4-.001 2.1m-12.12.247v-.008c.477 0 .953.004 1.43-.001.427-.005.626-.26.652-.656.079-1.202-.922-2.546-2.03-2.743-1.585-.281-3.217.613-3.565 1.965-.334 1.302-.255 2.587.756 3.534 1.033.966 2.314 1.237 3.69.66.383-.16 1.029-.126.876-.746-.177-.713-.702-.38-1.152-.214-.869.32-1.786.077-2.2-.619-.18-.305-.529-.668-.301-1.038.171-.278.586-.111.891-.13.317-.019.635-.004.953-.004m-17.308.652h-.02c0-.539.045-1.083-.01-1.616-.083-.778-.109-1.63-.913-2.071-1.215-.667-2.436-.521-3.615.125-.245.135-.503.331-.242.68.218.29.452.432.791.155.276-.226.623-.37.962-.357.51.018 1.117.135 1.169.74.05.589-.592.405-.939.54-.115.044-.252.026-.375.056-1.323.318-2.2 1.184-2.258 2.222-.085 1.512 1.35 2.309 2.86 1.605.351-.163.67-.667 1.132.001.218.316.849.223 1.266.072.477-.173.167-.602.186-.916.024-.41.006-.823.006-1.236m8.048-3.277c0-1.048-.033-1.928.012-2.804.028-.556-.166-.739-.705-.69-.489.044-1.048-.131-1.038.699.028 2.51.03 5.018.025 7.527-.001.488.067.805.676.732.526-.064 1.107.086 1.047-.799-.063-.917-.032-1.842-.007-2.763.028-1.07.487-1.573 1.37-1.555 1.044.02 1.09.795 1.117 1.536.034.984.04 1.97.011 2.955-.016.61.348.678.796.657.384-.018.897.137.895-.53-.005-1.367.043-2.737-.046-4.098-.066-1.035-.814-1.591-1.857-1.677-.827-.067-1.527.197-2.296.81m-14.704 3.3c0-.286-.037-.578.007-.857.106-.679-.077-.958-.842-.961-.732-.003-.978.227-.883.92.03.218.012.444.012.667 0 1.156-.098 1.297-1.206 1.266-.876-.025-1.667-.31-2.23-1.064-.862-1.156-.903-2.938-.068-4.09.756-1.045 2.408-1.517 3.747-.932.689.3.81-.069 1.046-.509.331-.615-.307-.521-.507-.647-.49-.308-1.097-.293-1.659-.338-3.37-.265-5.783 2.443-4.986 5.568.614 2.405 3.289 3.886 5.841 3.234 1.733-.442 1.733-.442 1.728-2.257m47.834 1.586c.574 1.442-.573 2.823-2.306 2.506-.311-.057-.617-.145-.927-.21-.289-.06-.628-.457-.822.138-.167.514.087.824.52.93.924.225 1.864.395 2.823.2 1.42-.29 2.18-1.026 2.386-2.446.284-1.952.119-3.922.174-5.883.02-.658-.209-.94-.801-.802-.839.196-1.617.028-2.447-.073-1.967-.239-3.303 1.348-3.138 3.536.085 1.13.514 2.053 1.59 2.6 1.08.55 2.009.255 2.948-.496M220.975 64.3c-2.397.07-4.39-.498-6.3-1.386-4.6-2.14-8.024-5.64-11-9.636-.395-.53-.753-.88-1.473-.953-3.632-.372-7.228-.97-10.693-2.163-7.158-2.466-13.514-6.083-17.392-12.909-3.392-5.97-3.153-11.969.434-17.816 2.85-4.646 7.039-7.77 11.852-10.092 5.729-2.765 11.817-4.089 18.173-4.307 4.57-.157 9.092.162 13.522 1.259 7.182 1.778 13.677 4.877 18.587 10.614 3.663 4.28 5.332 9.274 4.308 14.9-.675 3.708-2.531 6.895-5.143 9.636-4.109 4.314-9.136 7.058-14.778 8.81-2.033.633-4.077 1.184-6.183 1.476-.75.103-.841.476-.746 1.107.396 2.63 1.652 4.869 3.141 7.004a35.639 35.639 0 0 0 3.69 4.456"/>
        <g transform="translate(126 6.08)">
            <mask id="b" fill="#fff">
                <use xlink:href="#a"/>
            </mask>
            <path fill="#FFF" d="M40.587 16.347c-.007-1.552-1.236-2.797-2.743-2.78-1.585.018-2.721 1.177-2.74 2.794-.018 1.519 1.227 2.726 2.796 2.712a2.726 2.726 0 0 0 2.687-2.726m-.366 14.498h-.003c0-2.701-.033-5.403.02-8.104.016-.755-.213-.915-.909-.867-.917.063-1.847.078-2.761-.004-.863-.078-1.062.227-1.055 1.056.038 5.085.02 10.17.023 15.255 0 .476-.001.953.021 1.428.01.219.05.333.387.311a30.403 30.403 0 0 1 3.332-.037c.73.033.98-.153.965-.935-.052-2.7-.02-5.402-.02-8.103m-25.61-7.287h-.095c0-2.73-.01-5.461.009-8.192.003-.53-.157-.72-.71-.7-1.144.042-2.294.063-3.435-.006-.818-.05-1.095.161-1.085 1.035.047 4.231.023 8.463.02 12.694-.001 1.622.009 3.236.308 4.845.5 2.689 1.918 4.678 4.36 5.892 2.29 1.138 4.747 1.3 7.244 1.07 2.324-.212 4.343-1.146 5.976-2.8 1.518-1.538 2.335-3.447 2.468-5.6.34-5.496.102-11.002.182-16.503.008-.542-.242-.633-.693-.622-.763.02-1.527.006-2.29.006-1.58 0-1.546 0-1.587 1.614-.132 5.21.329 10.43-.308 15.632-.32 2.625-1.755 4.225-4.334 4.655-1.706.284-4.073-.155-5.12-2.047-.494-.893-.89-1.834-.9-2.862-.03-2.704-.01-5.407-.01-8.11M67.745 47.37c-1.38 1.059-2.795 1.745-4.198 2.438-5.926 2.928-12.216 4.503-18.794 4.973-.45.033-.669.255-.902.575-1.875 2.574-3.904 5.02-6.31 7.116-3.806 3.316-7.97 5.893-13.208 6.15-.158.008-.318.018-.477.013-.05-.001-.1-.05-.228-.118.858-1.015 1.708-2.008 2.544-3.014 2.007-2.414 3.683-5.024 4.673-8.03.129-.389.213-.794.3-1.195.478-2.182.608-1.844-1.663-2.27a52.306 52.306 0 0 1-7.612-2.015c-4.1-1.432-7.95-3.376-11.427-5.993-4.766-3.586-8.46-8.014-9.88-13.921C-.805 26.39.36 21.066 3.615 16.214c3.192-4.76 7.613-8.085 12.632-10.688 3.673-1.905 7.574-3.224 11.599-4.08C33.78.184 39.78-.202 45.85.446c3.1.332 6.138.901 9.151 1.658.398.1.778.27 1.265.442-1.595 1.127-3.17 2.145-4.6 3.368-4.48 3.83-7.51 8.535-8.303 14.422-.693 5.149.763 9.867 3.752 14.065 3.434 4.826 8.096 8.129 13.481 10.479 2.26.985 4.58 1.79 7.149 2.49" mask="url(#b)"/>
        </g>
        <path fill="#FFF" d="M231.558 32.367c-.029.314.01.656-.101.938-.244.616-.539 1.216-1.36 1.24-.808.024-1.06-.53-1.289-1.148-.239-.648-.23-1.283-.091-1.956.162-.793.611-1.283 1.389-1.267.854.017 1.213.694 1.4 1.435.06.237.009.503.009.756l.043.002M188.527 32.791c-.089.957-.78 1.779-1.402 1.66-.546-.105-.785-.484-.723-1.038.044-.393 1.28-1.438 1.637-1.343.357.096.618.326.488.721M206.57 31.747c-.257-.24-.893.408-.986-.364-.07-.586.75-1.397 1.335-1.35.643.053 1.12.44 1.097 1.081-.036 1.006-.892.46-1.446.633"/>
    </g>
</svg>
