<svg xmlns="http://www.w3.org/2000/svg" xmlns:xlink="http://www.w3.org/1999/xlink" width="323" height="110" viewBox="0 0 323 110">
    <defs>
        <path id="a" d="M0 62.913h312.583V0H0z"/>
    </defs>
    <g fill="none" fill-rule="evenodd" transform="translate(5 22)">
        <path fill="#FFF" d="M145.303 17.713l-9.446.019v1.166h9.446v-1.185zm-10.165-.681h10.884v2.57H135.12l.02-2.57zm12.557 6.147v-1.984h-14.15v2.1h-.72v-2.801h15.588v2.665l-.718.02zm-14.908-9.453h7.423v-1.324h.72v1.324h7.502v.7h-7.523v1.05l5.93.02v.68l-12.518.019v-.68l5.89-.02v-1.049h-7.406l-.018-.72zm13.877 12.448c-.485-.39-.915-.778-1.438-1.109l-4.317.271v1.344l5.987-.02v.7h-5.987v1.401l8.398-.02v.72H131.93v-.72l8.261.02v-1.4l-5.851-.022v-.7h5.851v-1.303l-3.46.195-1.943.235-.099-.818c1.303-.525 2.546-1.185 3.772-1.907l-3.867-.038v-.699h11.991v.7h-6.861c-1.263.759-2.449 1.595-3.848 1.963.33.04.66-.077.992-.096l7.403-.39c-.466-.331-1.049-.623-1.573-.855l.524-.467c1.322.74 2.72 1.498 3.906 2.547l-.465.468zM168.757 21.915a15.045 15.045 0 0 0-.623-2.295l.603-.137c.254.739.447 1.497.642 2.255l-.622.177zm-1.847.038c-.079-.758-.155-1.516-.31-2.237l.62-.058c.138.739.214 1.497.293 2.257l-.603.038zm1.964-2.88c-.098-.27-.195-.465-.312-.716-1.088.155-2.157.446-3.246.66l-.213-.565c.835-.817 1.515-1.79 2.177-2.703l-2.001.155-.156-.31a18.97 18.97 0 0 0 1.65-3.17l.566.31c-.37.857-.817 1.672-1.303 2.47.544-.018 1.128-.077 1.69-.097.235-.371.487-.758.662-1.11l.563.371c-.835 1.341-1.77 2.684-2.895 3.832.68-.08 1.516-.292 2.255-.41-.098-.29-.254-.545-.371-.814l.563-.196c.313.64.643 1.34.934 2.041l-.563.253zm-3.518 3.056l-.585-.138c.216-.641.468-2.176.488-2.39l.563.173c-.098.8-.292 1.558-.466 2.355zm-3.459-1.051h1.787v-1.653h-1.787v1.653zm.74-7.254c-.273-.468-.547-.935-.916-1.362l.544-.233c.33.445.622.876.876 1.322l-.504.273zm-1.44 7.896h3.187v-2.936h-3.187v2.936zm-.02-4.124h3.227v-.642h-3.227v.642zm-.02-1.515h3.265v-.644h-3.264v.644zm-.603-1.577v-.64l4.451-.022v.662h-4.45zm-.564 7.43c-.155-.76-.35-1.478-.581-2.237l.581-.155c.195.544.428 1.496.584 2.295l-.584.097zm-1.866.116c.04-.816-.095-1.439-.173-2.235l.622-.022c.096.799.154 1.499.194 2.198l-.643.06zm9.973 7.06c-.118.409-.293 1.148-1.438 1.091l-3.013-.156-.31-.701 3.495.234c.623.038.741-1.207.916-2.044h-10.632l.64-2.664h9.64v-1.38h-10.164v-.643h10.885v2.665h-9.777l-.33 1.382h10.612c-.138.758-.31 1.497-.524 2.216zm-8.028-9.997l-.252-.66c-1.05.194-2.139.368-3.186.603l-.254-.409c.776-.72 1.943-2.352 2.215-2.743a18.92 18.92 0 0 0-1.961.409l-.214-.446c.698-1.09 1.242-2.336 1.766-3.543l.564.294a36.512 36.512 0 0 1-1.44 2.955c.547-.096 1.09-.214 1.653-.25.294-.351.486-.76.72-1.131l.524.294c-.912 1.496-1.69 2.605-2.72 3.811.719-.117 1.457-.253 2.002-.37l-.291-.76.6-.25.857 2.021-.583.175zm-3.478 3.151l-.565-.117c.232-.546.468-1.964.526-2.47l.582.156c-.154.797-.311 1.654-.543 2.431zm-1.204-6.651a37.098 37.098 0 0 0-2.274-2.257l.484-.563c.623.563 1.614 1.613 2.215 2.276l-.425.544zm-2.374 14.47l-.582-.332c1.497-3.48 1.768-4.686 2.624-7.506l.66.31a51.816 51.816 0 0 1-2.702 7.528zm1.73-10.016c-.795-.875-1.517-1.597-2.371-2.276l.467-.488c.855.759 1.517 1.403 2.372 2.199l-.468.565zM189.412 29.909c-1.942-1.285-6.764-5.837-8.143-10.307-1.556 5.425-4.917 7.874-7.931 10.267l-.699-.583c5.344-3.85 7.385-6.962 8.008-11.261h-7.405v-.78h7.482c.137-1.71.137-3.402.117-5.094h.837c.037 1.731-.042 3.404-.118 5.115h7.968v.759H181.5c1.692 5.173 4.567 8.382 8.533 11.261l-.622.623zM199.787 15.496c.544-.37 1.126-.72 1.67-1.147-.486-.371-1.01-.643-1.516-.935l.427-.486c.585.292 1.126.641 1.693.954.522-.372.99-.778 1.458-1.244.214.058.386.212.58.33-.426.466-.953.914-1.417 1.301.464.352.972.681 1.459 1.013l-.45.504c-.505-.31-1.009-.736-1.534-1.03-.583.37-1.147.799-1.748 1.187l-.622-.447zm2.429 2.022c.466-.33.952-.66 1.379-1.05.233.06.428.235.622.37-.484.388-.933.758-1.438 1.11l1.807 1.302-.524.485h-.078l-1.847-1.342c-.757.428-1.515.876-2.274 1.285-.195-.118-.33-.35-.505-.485.7-.409 1.438-.759 2.117-1.227-.504-.35-1.066-.64-1.612-.954l.487-.485c.581.29 1.166.622 1.73.971l.136.02zm-8.24 5.447v-2.723h1.476l-.505-6.516c1.437-.33 2.855-.7 4.118-1.42.254.137.468.35.7.487-1.222.64-2.584 1.07-3.964 1.4.04.428.02.875.079 1.303l3.304.02-.02.679-3.208.022c.022.505.078 1.067.118 1.593l3.11-.02v.7h-3.034c.02.604.06 1.207.097 1.79h11.412l.135-1.77-2.996-.02.022-.7 3.031.02.135-1.593h-3.146l-.02-.683h3.206l.118-1.457h-3.636v-.7h4.49l-.505 6.903h1.477l-.02 2.783h-.778V20.96h-14.42v2.042l-.777-.038zm8.356 6.3c0 .39-.31.759-.893.78-.37.019-1.052.078-1.594 0l-.39-.74c.486.02 1.127.078 1.614.02.35-.06.505-.254.505-.488v-2.703h-7.87v-.699h7.85l.02-.74c1.164-.447 2.313-1.01 3.44-1.497l-8.59-.039v-.7h10.086v.777c-.661.313-1.361.622-1.962.954-.72.272-1.497.642-2.197.954l.02.272h7.87l.02.7h-7.91l-.02 3.15zM146.429 37.895c-.369.99-.873 1.983-1.398 2.897l-.64-.31c.503-.934 1.029-1.868 1.417-2.841l.62.254zm-3.497 4.2c.583.621 1.224 1.266 1.768 1.907l-.641.485a25.84 25.84 0 0 0-1.671-1.925l.544-.467zm-1.497-4.336c.64.894 1.263 1.846 1.807 2.78l-.621.31c-.583-.932-1.147-1.885-1.826-2.762l.64-.328zm-1.167 6.961h6.942v.703h-4.822v2.449c0 .31.31.544.681.544h3.382l.018.7-4.003.02c-.448 0-.836-.332-.836-.875l.02-2.86h-1.34l-.042-.68zm-.39-3.52h7.796V36.96h-7.795V41.2zm5.23 10.678c.758.038 1.398.118 1.944.097.448-.02.622-.329.622-.66V41.92h-7.795l.022 11.124h-.798V36.28l9.368-.02.02 15.387c0 .445-.292.933-.72 1.03-.62.116-1.632.078-2.292.038l-.371-.836zm-7.501-4.356c.388 1.01.814 2.04 1.146 3.11a3.17 3.17 0 0 1-.718.274c-.079-.526-.312-1.09-.468-1.635l-.603-1.536.643-.213zm-1.982.33c.308 1.205.544 2.469.738 3.754l-.738.214a27.77 27.77 0 0 0-.682-3.793l.682-.174zm-3.383 4.727c.409-1.478.835-2.995.954-4.612l.659.1c-.096 1.613-.465 3.226-.895 4.725l-.718-.213zm3.945-17.078c-.99 2.16-1.787 3.677-3.05 5.525 1.03-.079 2.038-.254 3.07-.35.485-.779.932-1.577 1.284-2.394l.64.292c-2.04 4.142-3.283 5.369-4.957 7.645l4.121-.895c-.254-.564-.427-1.147-.7-1.692.214-.079.409-.195.623-.271.505 1.166 1.011 2.313 1.438 3.499l-.68.254c-.195-.314-.253-.76-.448-1.072-1.75.371-3.516.663-5.208 1.167l-.368-.623a43.521 43.521 0 0 0 3.826-5.114c-1.067.098-2.156.235-3.186.468l-.369-.72c1.34-1.889 2.488-3.87 3.383-5.971l.58.252zM162.518 38.44c-.077.155-.194.31-.291.485.66.992 1.3 2.004 2.098 2.897 1.049-.99 2.042-2.119 2.644-3.363l-4.45-.02zm4.178 12.602v-3.87h-4.936v3.89l4.936-.02zm-4.936.76v1.458h-.835v-6.846l6.628-.02v6.574l-.857.018.022-1.185h-4.958zm-7.561-10.27h3.598v-3.949h-3.598v3.949zm13.8-3.19c-.68 1.498-1.866 2.839-3.052 4.064 1.4 1.363 2.974 2.373 4.704 2.976l-.409.7c-.99-.35-1.924-.855-2.82-1.42-.677-.524-1.397-1.069-2.057-1.653-.449.311-.895.7-1.342 1.011a32.419 32.419 0 0 1-3.537 2.199l-.64-.428.019.135h-2.062v4.008l.137-.022c.776-.387 1.556-.815 2.352-1.185l.019.836-6.004 3.093-.545.29-.486-.736 1.067-.468v-7.487h.838v7.019l.135-.017 1.633-.838v-8.13h-2.606l.02-5.446 5.288-.02v5.467h-1.866v2.878h2.06l.02.331h.116c1.631-.856 3.303-1.79 4.78-3.054l-.017-.078c-.798-.835-1.402-1.809-2.003-2.741-.564.642-1.129 1.34-1.692 1.906-.232-.138-.426-.333-.64-.488 1.63-1.574 2.836-3.538 3.732-5.523l.738.293c-.215.64-.584 1.244-.915 1.867H168v.66zM189.43 53.511c-1.225-.892-4.04-2.781-5.615-3.442l.523-.563c1.946.992 3.83 2.178 5.638 3.422l-.545.583zm-10.609-3.966l.564.504a36.75 36.75 0 0 1-5.425 3.483l-.522-.641c1.515-.74 3.69-2.044 5.383-3.346zm5.48-5.622h3.05l.138-2.665h-3.208v-.72h3.226l.155-2.47h-3.615v-.717h4.471l-.525 10.289h2.1v.718h-17.046v-.718h2.02l-.426-10.057c1.204-.31 2.47-.66 3.654-1.05l.66.544c-1.145.387-2.332.72-3.498 1.05l.117 2.393h3.206v.72h-3.149l.079 2.703h3.07v.72h-3.03l.116 2.977h3.868v-4.65h.796v4.65h1.982v-5.72h-2.76v-6.087l.798-.02v2.237h3.03v.7h-3.03v2.449h2.759v6.44h3.847l.137-2.996h-2.992v-.72zM194.266 53.22l-.485-.738c3.496-.35 7.637-1.557 9.737-2.975-.759-.74-1.575-1.518-2.373-2.16l.585-.547c.854.703 1.788 1.381 2.583 2.161 1.692-1.167 3.306-2.802 4.49-4.396h-5.656c-1.866 1.4-3.925 2.703-5.986 3.676-.25-.155-.427-.387-.62-.583 2.914-1.499 6.006-3.21 8.18-5.797l.759.35c-.427.565-.97 1.128-1.476 1.614h5.81v.74c-3.75 5.115-7.267 7.546-15.548 8.655m.02-7.255l-.564-.582c2.196-.818 4.313-1.77 6.356-2.976-.7-.662-1.516-1.264-2.275-1.85l.603-.563c.816.604 1.63 1.286 2.411 1.946.758-.428 1.477-.992 2.194-1.577a20.196 20.196 0 0 0 2.16-1.924l-6.55.02c-1.186.874-2.412 1.75-3.675 2.45l-.62-.564c2.252-1.362 4.566-2.762 6.275-4.881l.68.369c-.444.66-1.107 1.361-1.707 1.886l6.897-.02v.583c-3.343 3.734-7.793 6.05-12.186 7.683"/>
        <mask id="b" fill="#fff">
            <use xlink:href="#a"/>
        </mask>
        <path fill="#FFF" d="M222.87 43.496h4.489v-2.238h-4.49v2.238zm0-2.956h4.489v-1.985h-4.49v1.985zm-4.083 11.921c3.773-2.819 4.045-3.87 5.113-5.503h-4.528l-.02-.74h5.346v-2.002l-2.664.018.02-5.679h-2.645v-.72h2.625l.02-2.216h.797v2.236h4.53v-2.257h.795v2.257l2.778-.02v.74h-2.778v5.641l-2.643.018v2.003h5.402v.72h-4.603c1.435 2.723 2.7 3.676 4.894 5.253l-.562.563c-2.139-1.516-4.14-3.385-5.112-5.737l-.037 6.32h-.817v-6.282c-1.108 2.352-3.188 4.2-5.267 5.817l-.644-.43zm-2.058-11.69l-.37 1.519-.719 2.879-.135.582c.64.408 1.302.876 1.903 1.323h.098c.835-1.964 1.128-4.122 1.4-6.302h-2.177zm1.245-4.997c-.312 1.458-.74 2.84-1.09 4.28h2.858c-.098 1.204-.293 2.352-.487 3.559a18.348 18.348 0 0 1-1.146 3.986l2.08 1.691-.467.487h-.078c-.621-.524-1.224-1.07-1.847-1.536-.154.213-.291.486-.446.72-.857 1.42-1.809 2.645-2.936 3.93-.253-.137-.409-.312-.64-.467a25.51 25.51 0 0 0 3.4-4.67c-.603-.426-1.244-.932-1.906-1.281l-.251 1.05-.72-.215.565-2.18.777-3.013.31-1.343h-2.057v-.737h2.193c.508-1.44.74-2.958 1.187-4.437l.7.176zM103.935 16c-.428-.699-1.071-1.244-1.692-1.749l.585-.408c.603.506 1.242 1.03 1.747 1.633l-.64.524zm-8.375 5.683h2.855v-2.59H95.56v2.59zm-.722.678h4.296v-3.948h-4.296v3.948zm4.742 1.46c-1.768.486-3.556.992-5.305 1.536l-.408-.72c.952-.156 3.323-.837 5.713-1.574v.758zm1.187-9.824c.018.72.058 1.44.135 2.18h4.899v.7h-4.86c.116 1.848.602 3.5 1.147 5.019.7-.955 1.593-2.957 1.906-3.834l.68.273c-.643 1.499-1.323 2.957-2.237 4.338.7 1.282 1.362 2.275 1.692 2.43.155.078.291-.038.37-.136l.738-1.263.64.428c-.466.68-.699 2.062-1.883 1.808-.798-.174-1.42-1.595-2.08-2.508-1.244 1.75-3.499 3.306-4.024 3.617l-.623-.506a14.049 14.049 0 0 0 4.317-3.852c-.662-1.845-1.225-3.772-1.381-5.814h-6.61v-.7h6.534l-.119-2.12.76-.06zM93.128 27.34h13.178V13.473H93.128v13.866zm-.759-14.565h14.694v16.764h-.757V28.02H93.128l-.02 1.518h-.739V12.774zM118.72 12.598c.855.972 1.71 1.984 2.41 2.957l-.641.426c-.72-1.01-1.497-2.061-2.371-2.994l.603-.39zm-3.73 5.719c1.592 3.071 2.855 5.774 3.477 8.05l-.698.314c-.914-2.86-2.043-5.272-3.46-8.073l.68-.291zm-2.373-1.557h15.16v-.72h-15.16v.72zm16.111 11.553v.738h-17.14v-.738h8.647c2.001-3.54 2.994-6.438 4.16-10.289l.738.252c-1.263 4.32-2.68 7.782-4.041 10.037h7.636zM106.985 53.355a94.533 94.533 0 0 0-5.11-1.845l.367-.604c1.538.447 3.54 1.11 5.132 1.77l-.389.68zm-3.11-5.133H95.52v1.595l8.357.038v-1.633zm-8.356-2.217c.018.504 0 .99 0 1.478h8.375v-1.459l-8.375-.02zm-.001-.72h8.376V43.69h-8.376v1.596zm9.408-5.815c.544-.643 1.048-1.284 1.42-1.964l-3.345-.02c-.116.544-.195.99-.427 1.496 1.458 1.79 3.324 2.958 5.266 3.775-.136.214-.31.428-.466.661-1.904-.837-3.75-2.024-5.168-3.696-1.148 1.576-2.878 2.608-4.567 3.19l7.073.04v7.642h-10.01v-7.643h2.8l-.466-.603c2.174-.74 4.839-2.275 5.188-4.862h-2.565c-.525.973-1.262 1.846-2.002 2.685l-.718-.352c1.204-1.283 2.253-2.704 2.797-4.335.232.037.467.135.68.212-.076.37-.253.74-.407 1.07h7.073v.68c-.465.993-1.03 1.693-1.554 2.413l-.602-.39zm-9.601-1.226c-1.09-.603-2.1-1.226-3.208-1.75l.39-.564.564.27 2.66 1.402-.406.642zm2 13.109c-1.651.68-3.342 1.303-5.033 1.907-.155-.177-.31-.449-.445-.641 1.652-.527 3.323-1.052 4.876-1.81l.603.544zm-5.77-8.48a100.898 100.898 0 0 1 3.867-3.403l.545.465c-1.516 1.363-2.488 2.239-3.908 3.444l-.505-.505zM129.294 50.925c-.508.722-.837 1.613-1.634 2.042-.254.138-.486.079-.68-.135-.835-.917-1.108-2.762-1.128-4.3l-.038-2.332v-8.033l-6.706.02v-.76l7.522.018V47.64c0 1.4.155 2.877.662 4.14.056.136.213.235.328.136.487-.445.722-1.01 1.052-1.534l.622.544zm-6.863-11.65v4.96h2.663v.72l-2.663-.021.022 8.656h-.838v-8.636l-2.702-.02v-.7h2.723l-.02-4.959h.815zm-8.299-3.461c.64.836 1.128 1.75 1.557 2.663l-.76.331c-.388-.895-.816-1.79-1.4-2.607l.603-.387zm-.854 15.402h3.674v-3.5l-3.674-.02v3.52zm-.817 2.431v-6.651h5.308v6.322h-.837v-1.403h-3.673l.019 1.732h-.817zm-.039-8.634h5.307v-.722h-5.307v.722zm0-2.762h5.325v-.72h-5.325v.72zm6.299-2.606h-7.289v-.7l7.289-.02v.72zM247.665 42.367h1.652v-1.81h-1.652v1.81zm0-2.489h1.652v-1.71h-1.652v1.71zm-2.39 2.489h1.652v-1.81h-1.652v1.81zm0-2.489h1.652v-1.71h-1.652v1.71zm-2.06 8.635h5.888v-1.77h-5.889v1.77zm-.466-6.146h1.787v-1.81h-1.787v1.81zm0-2.489h1.787v-1.71h-1.787v1.71zm-.273 9.316h7.367v-3.13h-7.367v3.13zm-.468-6.146v-5.562h2.528V36.22h.738v1.266h1.653V36.22h.738v1.266h2.39v5.562h-8.047zm-.232 1.926l-.02-.682h8.824v.682h-8.804zm-.817 7.896v-.682h3.518c-.35-.699-.933-1.536-1.438-2.195l.545-.39c.563.68 1.088 1.439 1.553 2.158l-.522.39 1.847.037c.66-.836 1.32-1.71 1.844-2.625l.643.293a21.855 21.855 0 0 1-1.673 2.332h3.789v.682h-10.106zm-2.778-10.697h1.417v-2.082h-1.417v2.082zm-1.692 4.513h2.76v-1.654h-2.76v1.654zm-.02 2.508h2.78v-1.828h-2.78v1.828zm3.13-11.513h-3.361v4.492h1.223v-2.76h2.137V37.68zm-.427 15.714h-.952l-.37-.72c.35.021.662.098.932.058.235 0 .467-.174.467-.504v-2.354h-2.78v3.734h-.717v-9.258h4.217v8.246c0 .331-.213.798-.797.798zm1.398-8.83v-1.712h-5.363v1.713h-.72v-2.393h1.03V37h4.802v5.173h.973v2.393h-.722zM264.451 43.613h3.964V37.25h-3.964v6.362zm-3.694 9.296c1.265-.894 2.04-2.294 2.469-3.675.467-1.576.467-3.112.446-4.823h-2.467v-.798h2.447V37.25h-1.728l.018-.777h9.098v.798h-1.85l.023 6.34h2.429v.817h-2.451l.022 9.103h-.798l.018-9.121h-3.982c.018 2.527-.136 4.977-1.36 7.04-.428.737-.972 1.517-1.712 2.003l-.622-.545zm-3.808-10.21l-.02 6.068h2.701v-6.05l-2.681-.019zm3.478 8.11h-.777v-1.246h-2.72v1.889l-.779-.022v-7.701c-.135-.04-.135.136-.211.176-.353.524-.76 1.01-1.19 1.459l-.676-.644c1.533-1.38 2.447-3.09 2.973-4.98.173-.64.328-1.282.386-1.963h-2.759v-.798h6.59v.798h-2.995a12.455 12.455 0 0 1-1.126 4.144h3.284v8.887zM285.34 39.527v2.665c0 .333.29.584.581.584h4.608l-.02.72h-4.995c-.563 0-.991-.507-.991-1.052v-2.917h.817zm5.927-1.381l.02 2.802h-.837v-2.081h-14.149v2.255h-.817v-2.976h7.912a11.155 11.155 0 0 0-1.537-2.217l.623-.369c.408.35.719.76 1.05 1.187.232.331.465.661.66 1.031l-.428.368h7.503zm-4.392 7.353v5.757c0 .253.194.641.525.603h2.526c.29 0 .466-.136.504-.293.175-.641.331-1.301.448-1.924l.795.233-.426 1.926c-.195.545-.642.797-1.166.797l-3.09-.02c-.467 0-.933-.68-.933-1.204v-5.136l-4.022-.02c-.041 2.938-2.548 5.388-4.958 6.614l-1.262.641-.64-.565c2.193-.874 4.545-2.488 5.634-4.727.29-.582.39-1.263.447-1.943h-4.198l.02-.74h4.178v-2.973h.779v2.974h4.839zm-5.288-5.486c-.873 2.295-3.225 3.794-5.44 4.26l-.468.097-.563-.66c2.234-.449 4.626-1.48 5.675-3.715l.095-.292.701.31zM308.967 53.317V42.738h-3.556c.018 3.44.35 7.196-2.992 10.386l-.527-.624c1.964-1.983 2.72-4.533 2.72-7.371V38.03c2.062-.466 4.082-1.012 5.93-1.965l.68.487c-1.807.993-3.81 1.535-5.793 2.062v3.402l7.153-.018v.74h-2.798v10.559l-.817.02zm-11.214-8.032h4.372V41.57h-4.372v3.715zm5.21-4.454v5.174h-5.21c-.095 1.109-.195 2.236-.428 3.306-.29 1.322-.776 2.567-1.574 3.676l-.562-.545c1.398-2.1 1.728-4.61 1.728-7.214V37.66c1.925-.409 3.79-1.05 5.58-1.75l.561.546c-1.69.68-3.516 1.303-5.324 1.73v2.645h5.229zM11.815 44.358c-1.83 0-3.38 1.15-3.994 2.773a.989.989 0 0 0-.11.266c-.017.11-.047.198-.061.3-.015.044-.028.079-.037.125-.603 2.519-1.33 4.655-2.233 5.49-1.016.95-1.842 1.856-3.378 2.13h-.005A2.233 2.233 0 0 0 .001 57.66a2.244 2.244 0 1 0 4.487 0c.324-1.948.833-2.628 2.039-3.201 1.176-.563 4.808-.915 6.915-1.864.031-.004.057-.017.086-.029.021-.013.048-.023.048-.023.054-.024.065-.044.098-.052 1.425-.705 2.417-2.151 2.417-3.848a4.28 4.28 0 0 0-4.276-4.284M54.62 37.84h-2.365l1.25-7.155-3.08 7.154h-2.148l-.561-7.154-1.26 7.154H44.08l1.654-9.384h3.811l.458 5.711 2.47-5.711h3.801l-1.653 9.384zm-12.425 0h-2.734l-2.607-5.154-.903 5.153h-2.726l1.655-9.384h2.704l2.617 5.191.907-5.191h2.736l-1.649 9.384zm-11.06 0h-2.901l1.643-9.385h2.91l-1.653 9.384zM20.77 35.29c.31.438.798.657 1.48.657.327 0 .641-.051.947-.147a6.274 6.274 0 0 0 1.102-.48l.15-.881h-1.934l.344-1.949h4.476l-.707 3.999c-.96.583-1.79.976-2.479 1.192-.692.21-1.494.317-2.399.317-1.111 0-1.988-.189-2.623-.573-.634-.38-1.077-.94-1.333-1.695-.25-.752-.287-1.61-.113-2.582.172-1.023.545-1.913 1.094-2.667a5.315 5.315 0 0 1 2.16-1.727c.687-.302 1.57-.45 2.641-.45 1.035 0 1.797.084 2.278.28.483.183.849.476 1.125.867.272.397.436.894.502 1.504l-2.89.494a1.186 1.186 0 0 0-.44-.811c-.235-.184-.575-.277-1-.277-.632 0-1.182.214-1.634.658-.45.444-.764 1.14-.938 2.098-.177 1.015-.11 1.739.191 2.173zM67.395 46.5c-.695 0-1.378.097-2.023.26h-.016c-2.052.262-3.815-.203-5.763-1.8-1.946-1.603-2.4-3.66-1.889-6.296h-.001c.407-1.657.63-3.4.63-5.182 0-7.4-3.732-13.924-9.407-17.804-1.082-.68-2.295-2.696.379-3.595l.016-.003a6.144 6.144 0 0 0 4.548-5.928C53.87 2.757 51.12 0 47.73 0a6.156 6.156 0 0 0-6.155 6.15 6.11 6.11 0 0 0 1.893 4.428c.01.009.022.022.03.027 1.798 1.849-.528 2.144-1.923 1.883h-.019a21.401 21.401 0 0 0-4.721-.53c-11.878 0-21.51 9.634-21.51 21.523 0 11.877 9.632 21.515 21.51 21.515 5.124 0 9.822-1.797 13.515-4.792l.015-.014c2.922-1.996 5.165-1.741 6.654-.6 1.485 1.143 2.233 2.344 2.214 4.346v.01a8.199 8.199 0 0 0 8.162 8.966 8.208 8.208 0 0 0 0-16.412z" mask="url(#b)"/>
    </g>
</svg>
