<svg xmlns="http://www.w3.org/2000/svg" width="31" height="31" viewBox="0 0 31 31">
    <path fill="#FFF" fill-rule="evenodd" d="M13.126 18.946l6.212-3.175-6.212-3.212v6.387zM15.5 8c4.839 0 8.047.229 8.047.229.45.05 1.438.05 2.31.965 0 0 .707.685.912 2.26.244 1.841.23 3.683.23 3.683v1.726s.014 1.842-.23 3.683c-.205 1.562-.911 2.26-.911 2.26-.873.902-1.861.902-2.31.953 0 0-3.21.241-8.048.241-5.981-.05-7.816-.229-7.816-.229-.514-.088-1.669-.063-2.542-.965 0 0-.706-.698-.91-2.26C3.986 18.705 4 16.863 4 16.863v-1.726s-.013-1.842.231-3.683c.205-1.575.911-2.26.911-2.26.873-.915 1.861-.915 2.31-.965 0 0 3.21-.229 8.048-.229z"/>
</svg>
