<svg xmlns="http://www.w3.org/2000/svg" width="166" height="59" viewBox="0 0 166 59">
    <g fill="none" fill-rule="evenodd">
        <path d="M0 0h166v59H0z" opacity=".272"/>
        <g fill="#50E6B4" fill-rule="nonzero">
            <path d="M163.8 6h-9.5c-1.2 0-2.2 1-2.2 2.2v13.3c0 1.2-1 2.2-2.2 2.2h-13.8c-1.2 0-2.2-1-2.2-2.2V8.2c0-1.2-1-2.2-2.2-2.2h-9.5C121 6 120 7 120 8.2v23.3c0 1.2 1 2.2 2.2 2.2h27.7c1.2 0 2.2 1 2.2 2.2v14c0 1.2 1 2.2 2.2 2.2h9.5c1.2 0 2.2-1 2.2-2.2V8.2c0-1.2-1-2.2-2.2-2.2zM46.8 9.2L26 50.9c-.4.7-1.1 1.2-2 1.2h-9c-1.6 0-2.7-1.7-2-3.2l15.9-31.4c.4-.7-.2-1.6-1-1.6H3.2c-1.2 0-2.2-1-2.2-2.2V8.2C1 7 2 6 3.2 6h41.6c1.7 0 2.7 1.7 2 3.2zM78.2 15.9h9c1.2 0 2.2 1 2.2 2.2v31.8c0 1.2 1 2.2 2.2 2.2h9.5c1.2 0 2.2-1 2.2-2.2V8.2c0-1.2-1-2.2-2.2-2.2H78.2C77 6 76 7 76 8.2v5.5c0 1.2 1 2.2 2.2 2.2zM65.3 52.2h-8.4c-1.6 0-2.9-1.3-2.9-2.9v-8.4c0-1.6 1.3-2.9 2.9-2.9h8.4c1.6 0 2.9 1.3 2.9 2.9v8.4c0 1.6-1.3 2.9-2.9 2.9z"/>
        </g>
    </g>
</svg>
