<svg xmlns="http://www.w3.org/2000/svg" width="50" height="50" viewBox="0 0 50 50">
    <path fill="#50E6B4" fill-rule="evenodd" d="M25 23.912a5.477 5.477 0 0 0 2.808-.756 5.675 5.675 0 0 0 2.052-2.025 5.334 5.334 0 0 0 .756-2.781 5.477 5.477 0 0 0-.756-2.808 5.61 5.61 0 0 0-2.052-2.052A5.477 5.477 0 0 0 25 12.734a5.334 5.334 0 0 0-2.781.756 5.675 5.675 0 0 0-2.025 2.052 5.477 5.477 0 0 0-.756 2.808c0 1.548.54 2.862 1.62 3.942s2.394 1.62 3.942 1.62zm0-21.276c2.88 0 5.526.702 7.938 2.106a15.85 15.85 0 0 1 5.67 5.67c1.404 2.412 2.106 5.058 2.106 7.938 0 2.196-.54 4.716-1.62 7.56-.936 2.412-2.232 5.022-3.888 7.83a103.291 103.291 0 0 1-4.698 6.966 84.109 84.109 0 0 1-3.888 4.968L25 47.564l-1.62-1.89a84.109 84.109 0 0 1-3.888-4.968 103.291 103.291 0 0 1-4.698-6.966c-1.656-2.808-2.952-5.418-3.888-7.83-1.08-2.844-1.62-5.364-1.62-7.56 0-2.88.702-5.526 2.106-7.938a15.85 15.85 0 0 1 5.67-5.67C19.474 3.338 22.12 2.636 25 2.636z"/>
</svg>
