<svg xmlns="http://www.w3.org/2000/svg" xmlns:xlink="http://www.w3.org/1999/xlink" width="376" height="261" viewBox="0 0 376 261">
    <defs>
        <path id="a" d="M0 0h376v261H0z"/>
        <path id="b" d="M0 .37h10.524V18.57H0z"/>
        <path id="d" d="M0 258h368V0H0z"/>
    </defs>
    <g fill="none" fill-rule="evenodd" transform="translate(4 4)">
        <path fill="#50E6B4" d="M99.528 187.742L75.87 171.606c-.66-.45-1.554.026-1.554.829V186.5c0 .829-.668 1.5-1.491 1.5h-6.333A1.497 1.497 0 0 1 65 186.5v-28c0-.829.67-1.5 1.493-1.5h1.143c.298 0 .588.09.834.257l23.66 16.027a.996.996 0 0 0 1.553-.828V158.5c0-.829.668-1.5 1.493-1.5h6.33c.826 0 1.494.671 1.494 1.5v28c0 .829-.668 1.5-1.493 1.5h-1.142c-.297 0-.59-.09-.837-.258M128 186.498v-27.996c0-.828.717-1.502 1.603-1.502h6.794c.884 0 1.603.674 1.603 1.502v27.996c0 .83-.719 1.502-1.603 1.502h-6.794c-.886 0-1.603-.672-1.603-1.502M207 158.5v28c0 .827-.677 1.5-1.513 1.5h-6.417a1.507 1.507 0 0 1-1.513-1.5v-15.07c0-.778-.856-1.258-1.53-.855l-11.246 6.716a1.526 1.526 0 0 1-1.56 0l-11.246-6.716c-.674-.403-1.53.077-1.53.855v15.07c0 .827-.678 1.5-1.513 1.5h-6.419a1.508 1.508 0 0 1-1.513-1.5v-28c0-.829.679-1.5 1.513-1.5h2.784c.28 0 .555.077.794.221l17.117 10.425a1.52 1.52 0 0 0 1.584 0l17.119-10.425c.239-.144.512-.221.792-.221h2.784c.836 0 1.513.671 1.513 1.5M368 158.5v28c0 .827-.677 1.5-1.513 1.5h-6.419a1.507 1.507 0 0 1-1.511-1.5v-15.07c0-.778-.858-1.258-1.53-.855l-11.247 6.716c-.48.286-1.08.286-1.56 0l-11.247-6.716c-.672-.403-1.53.077-1.53.855v15.07c0 .827-.676 1.5-1.511 1.5h-6.419a1.507 1.507 0 0 1-1.513-1.5v-28c0-.829.677-1.5 1.513-1.5h2.784c.28 0 .555.077.792.221l17.119 10.425a1.52 1.52 0 0 0 1.584 0l17.119-10.425a1.53 1.53 0 0 1 .792-.221h2.784c.836 0 1.513.671 1.513 1.5M232 186.498v-27.996c0-.828.717-1.502 1.603-1.502h6.794c.884 0 1.603.674 1.603 1.502v27.996c0 .83-.719 1.502-1.603 1.502h-6.794c-.886 0-1.603-.672-1.603-1.502M298 162.172v-3.658c0-.827-.672-1.5-1.503-1.5h-20.12V157h-7.874a1.5 1.5 0 0 0-1.503 1.5v15.835c0 .83.672 1.5 1.503 1.5h18.618a1.5 1.5 0 0 1 1.503 1.5v2.508c0 .827-.672 1.5-1.503 1.5h-18.618a1.5 1.5 0 0 0-1.503 1.499v3.658c0 .827.672 1.5 1.503 1.5h27.994c.83 0 1.503-.673 1.503-1.5V170.679a1.5 1.5 0 0 0-1.503-1.5h-18.62a1.5 1.5 0 0 1-1.5-1.5v-2.506c0-.83.671-1.5 1.5-1.5h18.62c.83 0 1.503-.673 1.503-1.5M44.496 188h-7.833c-.483 0-.939-.233-1.22-.626l-11.629-16.209a1.003 1.003 0 0 0-1.628 0l-11.628 16.21a1.505 1.505 0 0 1-1.222.625H1.505c-1.222 0-1.933-1.378-1.222-2.368l20.094-28.006A1.505 1.505 0 0 1 21.6 157h2.803c.483 0 .939.233 1.22.626l20.094 28.006c.712.99.002 2.368-1.22 2.368M198.487 61.271h27.677c.82 0 1.485.668 1.485 1.49v41.306c0 .579-.17 1.146-.486 1.631l-16.957 25.998c-.648.99.063 2.306 1.244 2.304l12.52-.02a2.964 2.964 0 0 0 2.475-1.341l15.068-22.965a2.998 2.998 0 0 0 .487-1.64V51.49c0-.824-.663-1.491-1.483-1.491h-36.723c-.505 0-.977.258-1.25.685l-5.307 8.293c-.633.99.076 2.293 1.25 2.293M275.577 55.755l10.234 10.365c.557.564 1.31.88 2.095.88h6.608c.82 0 1.486-.679 1.486-1.515v-8.813c0-.836-.666-1.515-1.486-1.515l-3.3.002c-.415 0-.813-.176-1.093-.488l-9.678-10.696a2.95 2.95 0 0 0-2.185-.975h-6.844c-.786 0-1.54.318-2.096.882L258.63 54.717c-.278.284-.655.44-1.048.44h-4.097c-.82 0-1.486.679-1.486 1.515v8.813c0 .836.666 1.515 1.486 1.515h8.356a2.94 2.94 0 0 0 2.094-.88l10.245-10.365a.977.977 0 0 1 1.396 0M286.48 116h8.04a1.48 1.48 0 0 0 1.48-1.48v-8.04c0-.818-.663-1.48-1.48-1.48h-8.04a1.48 1.48 0 0 0-1.48 1.48v8.04c0 .817.663 1.48 1.48 1.48M261.52 105h-8.04a1.48 1.48 0 0 0-1.48 1.48v8.04c0 .817.663 1.48 1.48 1.48h8.04c.817 0 1.48-.663 1.48-1.48v-8.04c0-.818-.663-1.48-1.48-1.48M310.546 66h-8.092c-.804 0-1.454.65-1.454 1.454v12.092c0 .803.65 1.454 1.454 1.454h8.092c.803 0 1.454-.651 1.454-1.454V67.454c0-.804-.651-1.454-1.454-1.454M310.546 46h-8.092c-.804 0-1.454.65-1.454 1.454v12.092c0 .803.65 1.454 1.454 1.454h8.092c.803 0 1.454-.651 1.454-1.454V47.454c0-.804-.651-1.454-1.454-1.454M16.456 46H1.544C.692 46 0 46.683 0 47.525v13.95C0 62.317.692 63 1.544 63h14.912c.852 0 1.544-.683 1.544-1.525v-13.95c0-.842-.692-1.525-1.544-1.525M99.812 46.32H67.934a1.483 1.483 0 0 1-1.473-1.497v-1.327c0-.826-.66-1.496-1.476-1.496H52.067c-.814 0-1.475.67-1.475 1.496v1.327c0 .828-.66 1.496-1.474 1.496H23.475c-.815 0-1.475.67-1.475 1.497v5.136c0 .826.66 1.495 1.475 1.495h74.863c.816 0 1.474.67 1.474 1.496v5.56c0 .827.66 1.497 1.475 1.497h14.24c.814 0 1.473-.67 1.473-1.496V47.816c0-.827-.659-1.497-1.473-1.497H99.812z"/>
        <path fill="#50E6B4" d="M80.408 74.204c0 .868-.683 1.574-1.53 1.574H58.091c-.838 0-1.52-.706-1.52-1.574v-5.408c0-.868.682-1.574 1.52-1.574h20.785c.848 0 1.531.706 1.531 1.574v5.408zm32.07-6.93H96.443c-.81 0-1.474-.677-1.474-1.514v-5.187c0-.866-.681-1.573-1.52-1.573H43.52c-.838 0-1.521.707-1.521 1.573v21.854c0 .868.683 1.573 1.52 1.573H93.45c.839 0 1.52-.705 1.52-1.573V77.02c0-.849.664-1.525 1.474-1.525h16.035c.848 0 1.522-.705 1.522-1.573v-5.076c0-.868-.674-1.572-1.522-1.572zM37 81.534V60.466A1.47 1.47 0 0 0 35.526 59H23.801a1.47 1.47 0 0 0-1.473 1.466v5.085c0 .81-.66 1.466-1.474 1.466H4.474A1.47 1.47 0 0 0 3 68.484v5.03c0 .812.658 1.467 1.474 1.467h16.38a1.47 1.47 0 0 1 1.474 1.466v5.087c0 .81.66 1.466 1.473 1.466h11.725A1.47 1.47 0 0 0 37 81.534M114.39 121.637V88.491c0-.823-.66-1.491-1.475-1.491H23.431c-.812 0-1.473.668-1.473 1.49v5.118c0 .823.66 1.49 1.473 1.49H98.33c.814 0 1.475.667 1.475 1.49v2.937c0 .824-.66 1.491-1.475 1.491H23.43c-.812 0-1.473.666-1.473 1.49v5.117c0 .823.66 1.49 1.473 1.49H98.33c.814 0 1.475.668 1.475 1.49v2.937c0 .823-.66 1.49-1.475 1.49H18.67a1.483 1.483 0 0 1-1.475-1.49V88.49c0-.822-.66-1.49-1.475-1.49H4.085c-.815 0-1.475.668-1.475 1.49v33.147c0 .823.66 1.49 1.475 1.49h9.206L.884 128.603A1.487 1.487 0 0 0 0 129.967v2.542C0 133.332.659 134 1.473 134h21.61c.605 0 1.196-.189 1.693-.539l14.229-10.063c.248-.176.543-.27.846-.27h37.298c.303 0 .598.094.846.27l14.23 10.063c.496.35 1.087.539 1.691.539h21.609c.816 0 1.475-.668 1.475-1.49v-2.543a1.49 1.49 0 0 0-.884-1.365l-12.407-5.474h9.206c.815 0 1.475-.668 1.475-1.49M180.808 72.778l17.96-28.502c.624-.989-.085-2.276-1.251-2.276h-12.695c-.502 0-.97.257-1.245.679l-11.114 17.26a1.482 1.482 0 0 1-1.245.678h-10.7a1.482 1.482 0 0 1-1.482-1.483v-15.13c0-.82-.663-1.485-1.482-1.485h-11.688c-.818 0-1.482.665-1.482 1.484v26.839c0 .594-.179 1.176-.513 1.669L125.256 99.9a1.496 1.496 0 0 0-.256.835v19.44c0 1.465 1.893 2.044 2.71.829l16.674-24.774v36.286c0 .82.664 1.484 1.482 1.484h11.688c.819 0 1.482-.665 1.482-1.484V75.645c0-.818.664-1.483 1.482-1.483h17.785a2.961 2.961 0 0 0 2.505-1.384M354.427 75.92c.813 0 1.47.662 1.47 1.482v5.823c0 .82-.657 1.483-1.47 1.483h-23.854c-.813 0-1.47-.662-1.47-1.483v-5.823c0-.82.657-1.483 1.47-1.483h23.854zm-3.714-18.004h14.818c.812 0 1.469-.663 1.469-1.482v-7.327c0-.81-.657-1.483-1.469-1.483h-14.818c-.814 0-1.47-.663-1.47-1.482v-2.66A1.48 1.48 0 0 0 347.771 42h-10.535c-.814 0-1.469.663-1.469 1.482v2.66c0 .82-.667 1.482-1.47 1.482H319.47c-.813 0-1.47.673-1.47 1.483v7.327c0 .82.657 1.482 1.47 1.482h14.828c.803 0 1.47.662 1.47 1.483v4.745c0 .82-.667 1.483-1.47 1.483H319.47c-.813 0-1.47.663-1.47 1.484v26.406c0 .82.657 1.483 1.47 1.483h46.061c.812 0 1.469-.663 1.469-1.483V67.11c0-.821-.657-1.484-1.469-1.484h-14.818c-.814 0-1.47-.662-1.47-1.483V59.4c0-.82.656-1.483 1.47-1.483z"/>
        <path fill="#50E6B4" d="M368 133.505c0 .824-.664 1.495-1.487 1.495h-50.391a2.944 2.944 0 0 1-2.221-1.007l-3.558-4.031a.99.99 0 0 0-1.558.09l-2.934 4.27a1.474 1.474 0 0 1-1.229.648H294.54a1.49 1.49 0 0 1-1.24-2.32l7.822-11.836c.159-.25.247-.527.247-.826v-20.29h-20.243a1.49 1.49 0 0 0-1.487 1.494v20.537a1.49 1.49 0 0 0 1.487 1.494h7.912c1.19 0 1.892 1.315 1.247 2.31l-5.74 8.79a1.447 1.447 0 0 1-1.239.677h-29.82a1.49 1.49 0 0 1-1.486-1.494v-8.79a1.49 1.49 0 0 1 1.486-1.493H266.9a1.49 1.49 0 0 0 1.487-1.494v-20.537a1.49 1.49 0 0 0-1.487-1.493h-13.415c-.82 0-1.486-.667-1.486-1.492v-8.314a1.49 1.49 0 0 1 1.486-1.492H266.9a1.49 1.49 0 0 0 1.487-1.493v-3.126c0-.823-.67-1.493-1.487-1.493h-13.415A1.49 1.49 0 0 1 252 80.795v-8.303A1.49 1.49 0 0 1 253.486 71h41.054a1.49 1.49 0 0 1 1.487 1.492v8.303a1.49 1.49 0 0 1-1.487 1.494h-13.414c-.817 0-1.487.67-1.487 1.493v3.126a1.49 1.49 0 0 0 1.487 1.493h30.008a1.49 1.49 0 0 1 1.488 1.492v23.436c0 .656.218 1.302.615 1.82l5.313 6.91a2.976 2.976 0 0 0 2.36 1.164h13.998c.813 0 1.488-.667 1.488-1.494v-6.868c0-.826-.675-1.493-1.488-1.493h-15a1.49 1.49 0 0 1-1.487-1.494v-7.376a1.49 1.49 0 0 1 1.488-1.494h46.595a1.49 1.49 0 0 1 1.487 1.494v7.376a1.49 1.49 0 0 1-1.487 1.494h-14.99a1.49 1.49 0 0 0-1.488 1.493v6.868a1.49 1.49 0 0 0 1.487 1.494h14.989c.821 0 1.487.667 1.49 1.493l.008 8.789zM206.504 68H192.34c-.512 0-.986.262-1.26.694L180.07 85.99a2.978 2.978 0 0 1-2.512 1.385l-5.065.002A1.5 1.5 0 0 0 171 88.878v10.6c0 .83.667 1.5 1.492 1.502l13.278.02a2.979 2.979 0 0 0 2.492-1.342l19.486-29.324c.66-.999-.053-2.334-1.244-2.334M136.52 50h-10.042c-.815 0-1.478.664-1.478 1.483v30.031c0 1.462 1.885 2.042 2.704.833l9.786-14.454c.331-.492.51-1.072.51-1.666V51.483c0-.819-.663-1.483-1.48-1.483"/>
        <path fill="#50E6B4" d="M218.528 69h-1.517c-.502 0-.971.256-1.241.678l-28.729 43.705a2.94 2.94 0 0 1-2.464 1.327l-12.105-.016a1.47 1.47 0 0 0-1.472 1.468v10.35c0 .81.657 1.465 1.468 1.467l20.706.021a2.946 2.946 0 0 0 2.46-1.32l23.88-34.697c.317-.48.486-1.042.486-1.615v-19.9c0-.81-.66-1.468-1.472-1.468M296 66v-9"/>
        <g transform="translate(0 210)">
            <mask id="c" fill="#fff">
                <use xlink:href="#b"/>
            </mask>
            <path fill="#50E6B4" d="M5.263 3.336c-1.258 0-2.182.963-2.182 2.637 0 1.596.877 2.636 2.182 2.636 1.255 0 2.181-.964 2.181-2.636 0-1.674-.926-2.637-2.181-2.637m3.863 7.427l-3.58 7.806H2.206l3.508-7.452c-.403.178-.853.228-1.258.228C2.181 11.345 0 9.344 0 5.998 0 2.45 2.276.37 5.263.37c2.986 0 5.261 2.004 5.261 5.577 0 1.647-.64 3.169-1.398 4.816" mask="url(#c)"/>
        </g>
        <path fill="#50E6B4" d="M18.205 228c-2.68 0-3.816-1.819-3.816-3.612v-6.255H13v-2.4h1.39V212h3.284v3.733H20v2.4h-2.326v6.061c0 .727.354 1.139 1.137 1.139H20V228h-1.795zM29.667 228v-8.04c0-1.744-1.13-2.325-2.18-2.325-1.051 0-2.154.606-2.154 2.324V228H22v-18h3.333v6.043c.897-.912 2.025-1.367 3.204-1.367 2.923 0 4.463 2.024 4.463 4.803V228h-3.333zM50.512 228c-2.036 0-3.872-.22-5.512-1.828l2.111-2.074c1.067 1.048 2.458 1.194 3.451 1.194 1.117 0 2.283-.365 2.283-1.316 0-.634-.346-1.074-1.365-1.17l-2.036-.197c-2.333-.22-3.772-1.219-3.772-3.56 0-2.633 2.357-4.049 4.99-4.049 2.011 0 3.698.341 4.941 1.489l-1.987 1.974c-.744-.658-1.888-.853-3.004-.853-1.29 0-1.837.585-1.837 1.219 0 .465.197 1.001 1.34 1.099l2.035.195c2.558.243 3.85 1.584 3.85 3.731 0 2.804-2.434 4.146-5.488 4.146M62.205 228c-2.68 0-3.816-1.819-3.816-3.612v-6.255H57v-2.4h1.39V212h3.284v3.733H64v2.4h-2.326v6.061c0 .727.354 1.139 1.137 1.139H64V228h-1.795zM73.773 228.852v-1.183c-.863.887-2.082 1.331-3.302 1.331-1.32 0-2.389-.42-3.125-1.134-1.067-1.036-1.346-2.245-1.346-3.65V216h3.303v7.77c0 1.752 1.142 2.344 2.185 2.344 1.041 0 2.21-.592 2.21-2.344V216H77v12.852h-3.227zM85.488 217.57c-1.964 0-2.215 1.605-2.215 3.736 0 2.132.251 3.76 2.215 3.76 1.965 0 2.241-1.628 2.241-3.76 0-2.131-.276-3.735-2.24-3.735zm2.317 10.28v-1.228c-.908 1.002-1.864 1.378-3.25 1.378-1.282 0-2.49-.451-3.222-1.178-1.308-1.304-1.333-3.56-1.333-5.516 0-1.954.025-4.186 1.333-5.49.732-.728 1.914-1.179 3.2-1.179 1.333 0 2.34.351 3.196 1.303V210H91v17.85h-3.195zM101.608 218.95c-.34-.755-1.042-1.316-2.109-1.316-1.065 0-1.768.561-2.107 1.317-.194.463-.266.804-.29 1.367h4.796c-.024-.563-.096-.904-.29-1.367zm-4.506 3.537c0 1.635.993 2.83 2.762 2.83 1.38 0 2.059-.39 2.86-1.195l1.913 1.877c-1.284 1.294-2.52 2.001-4.797 2.001-2.982 0-5.84-1.365-5.84-6.512 0-4.146 2.23-6.488 5.5-6.488 3.512 0 5.5 2.586 5.5 6.073v1.414h-7.898zM115.697 228v-7.771c0-1.75-1.142-2.343-2.185-2.343-1.041 0-2.21.592-2.21 2.343V228H108v-12.852h3.227v1.185c.863-.89 2.083-1.333 3.302-1.333 1.32 0 2.389.42 3.125 1.134 1.067 1.037 1.346 2.245 1.346 3.65V228h-3.303zM126.205 228c-2.68 0-3.816-1.819-3.816-3.612v-6.255H121v-2.4h1.39V212h3.284v3.733H128v2.4h-2.326v6.061c0 .727.354 1.139 1.137 1.139H128V228h-1.795z"/>
        <mask id="e" fill="#fff">
            <use xlink:href="#d"/>
        </mask>
        <path fill="#50E6B4" d="M131 223h8v-3h-8zM147.01 218.415c-.375-.366-.873-.561-1.522-.561-.65 0-1.123.195-1.497.56-.673.659-.748 1.756-.748 3.074 0 1.316.075 2.44.748 3.097.374.366.847.561 1.497.561.649 0 1.147-.195 1.521-.56.673-.659.748-1.782.748-3.098 0-1.318-.075-2.415-.748-3.073m2.52 8.023c-.798.829-2.12 1.562-4.04 1.562-1.922 0-3.218-.733-4.016-1.562-1.174-1.194-1.473-2.633-1.473-4.95 0-2.293.3-3.732 1.473-4.926.798-.83 2.094-1.562 4.015-1.562 1.92 0 3.243.731 4.041 1.562 1.172 1.194 1.471 2.633 1.471 4.926 0 2.317-.3 3.756-1.47 4.95M161.427 218.65c-.524-.492-.972-.764-1.811-.764-1.05 0-2.204.74-2.204 2.369V228H154v-12.852h3.333v1.233c.656-.738 1.968-1.381 3.439-1.381 1.337 0 2.282.32 3.228 1.208l-2.573 2.443zM169.488 217.91c-1.966 0-2.17 1.64-2.17 3.356 0 1.714.204 3.381 2.17 3.381s2.196-1.667 2.196-3.381c0-1.717-.23-3.357-2.196-3.357M169.157 233c-2.043 0-3.446-.398-4.825-1.69l2.068-2.04c.74.698 1.481.997 2.603.997 1.99 0 2.68-1.369 2.68-2.686v-1.317c-.867.944-1.863 1.292-3.164 1.292-1.303 0-2.425-.422-3.167-1.143-1.25-1.22-1.352-2.884-1.352-5.147 0-2.263.102-3.904 1.352-5.123.742-.72 1.89-1.143 3.19-1.143 1.405 0 2.324.373 3.244 1.367v-1.218H175v12.482c0 3.108-2.27 5.369-5.843 5.369M184.682 222.502h-2.63c-1.198 0-1.862.538-1.862 1.441 0 .882.613 1.468 1.914 1.468.918 0 1.507-.073 2.093-.613.357-.317.485-.83.485-1.612v-.684zm.076 5.378v-1.101c-.892.855-1.736 1.221-3.267 1.221-1.506 0-2.603-.366-3.394-1.124-.714-.708-1.097-1.734-1.097-2.86 0-2.027 1.454-3.69 4.542-3.69h3.14v-.634c0-1.393-.716-2.005-2.476-2.005-1.276 0-1.862.295-2.553 1.052l-2.117-1.98c1.3-1.368 2.578-1.759 4.797-1.759 3.726 0 5.667 1.514 5.667 4.496v8.384h-3.242zM199.698 228v-7.771c0-1.75-1.143-2.343-2.185-2.343-1.041 0-2.209.592-2.209 2.343V228H192v-12.852h3.226v1.185c.865-.89 2.084-1.333 3.302-1.333 1.322 0 2.388.42 3.125 1.134 1.068 1.037 1.347 2.245 1.347 3.65V228h-3.302zM206.06 228h3.91v-13.098h-3.91V228zm-.06-15.335h4V210h-4v2.665zM212 228v-2.28l5.82-7.025h-5.493V216H222v2.28l-5.895 7.025H222V228zM230.608 218.95c-.34-.755-1.042-1.316-2.109-1.316-1.065 0-1.768.561-2.107 1.317-.194.463-.266.804-.29 1.367h4.796c-.024-.563-.096-.904-.29-1.367zm-4.506 3.537c0 1.635.993 2.83 2.762 2.83 1.38 0 2.059-.39 2.86-1.195l1.913 1.877c-1.284 1.294-2.52 2.001-4.797 2.001-2.982 0-5.84-1.365-5.84-6.512 0-4.146 2.23-6.488 5.5-6.488 3.512 0 5.5 2.586 5.5 6.073v1.414h-7.898zM242.487 217.57c-1.963 0-2.215 1.605-2.215 3.736 0 2.132.252 3.76 2.215 3.76 1.964 0 2.241-1.628 2.241-3.76 0-2.131-.277-3.735-2.24-3.735zm2.316 10.28v-1.228c-.907 1.002-1.863 1.378-3.246 1.378-1.285 0-2.492-.451-3.222-1.178-1.31-1.304-1.335-3.56-1.335-5.516 0-1.954.025-4.186 1.335-5.49.73-.728 1.912-1.179 3.197-1.179 1.333 0 2.34.351 3.196 1.303V210H248v17.85h-3.197zM273.977 228h-2.707l-2.758-7.532-2.758 7.532h-2.706L259 216h3.491l2.125 7.416 2.682-7.416h2.404l2.706 7.416 2.126-7.416H278zM286.01 218.415c-.375-.366-.873-.561-1.522-.561-.65 0-1.123.195-1.497.56-.673.659-.748 1.756-.748 3.074 0 1.316.075 2.44.748 3.097.374.366.847.561 1.497.561.649 0 1.147-.195 1.521-.56.673-.659.748-1.782.748-3.098 0-1.318-.075-2.415-.748-3.073m2.52 8.023c-.798.829-2.12 1.562-4.04 1.562-1.922 0-3.218-.733-4.016-1.562-1.174-1.194-1.473-2.633-1.473-4.95 0-2.293.3-3.732 1.473-4.926.798-.83 2.094-1.562 4.015-1.562 1.92 0 3.243.731 4.041 1.562 1.172 1.194 1.471 2.633 1.471 4.926 0 2.317-.3 3.756-1.47 4.95M299.427 218.65c-.524-.492-.972-.764-1.811-.764-1.05 0-2.204.74-2.204 2.369V228H292v-12.852h3.333v1.233c.656-.738 1.968-1.381 3.439-1.381 1.337 0 2.282.32 3.228 1.208l-2.573 2.443zM311.264 228l-2.971-5.487-1.276 1.569V228H304v-18h3.017v10.214l4.015-5.386h3.643l-4.316 5.31L315 228zM321.512 228c-2.036 0-3.874-.22-5.512-1.828l2.111-2.074c1.067 1.048 2.458 1.194 3.451 1.194 1.117 0 2.283-.365 2.283-1.316 0-.634-.346-1.074-1.365-1.17l-2.036-.197c-2.333-.22-3.772-1.219-3.772-3.56 0-2.633 2.357-4.049 4.99-4.049 2.011 0 3.698.341 4.941 1.489l-1.987 1.974c-.744-.658-1.888-.853-3.004-.853-1.29 0-1.837.585-1.837 1.219 0 .465.197 1.001 1.34 1.099l2.035.195c2.558.243 3.85 1.584 3.85 3.731 0 2.804-2.434 4.146-5.488 4.146M337.666 228v-8.04c0-1.744-1.127-2.325-2.18-2.325-1.05 0-2.152.606-2.152 2.324V228H330v-18h3.334v6.043c.896-.912 2.024-1.367 3.205-1.367 2.921 0 4.461 2.024 4.461 4.803V228h-3.334zM350.01 218.415c-.375-.366-.873-.561-1.522-.561-.65 0-1.123.195-1.497.56-.673.659-.748 1.756-.748 3.074 0 1.316.075 2.44.748 3.097.374.366.847.561 1.497.561.649 0 1.147-.195 1.521-.56.673-.659.748-1.782.748-3.098 0-1.318-.075-2.415-.748-3.073m2.52 8.023c-.798.829-2.12 1.562-4.04 1.562-1.922 0-3.218-.733-4.016-1.562-1.174-1.194-1.473-2.633-1.473-4.95 0-2.293.3-3.732 1.473-4.926.798-.83 2.094-1.562 4.015-1.562 1.92 0 3.243.731 4.041 1.562 1.172 1.194 1.471 2.633 1.471 4.926 0 2.317-.3 3.756-1.47 4.95M362.5 217.933c-1.968 0-2.219 1.604-2.219 3.736 0 2.131.25 3.76 2.219 3.76 1.968 0 2.22-1.629 2.22-3.76 0-2.132-.252-3.736-2.22-3.736m4.162 9.252c-.731.727-1.916 1.178-3.204 1.178-1.336 0-2.32-.351-3.177-1.303V233H357v-17.85h3.179v1.228c.91-1.002 1.892-1.378 3.28-1.378 1.287 0 2.472.451 3.203 1.18 1.313 1.302 1.338 3.534 1.338 5.489 0 1.956-.025 4.211-1.338 5.516M7.01 243.415c-.375-.366-.873-.561-1.522-.561-.65 0-1.123.195-1.497.56-.673.659-.748 1.756-.748 3.074 0 1.316.075 2.44.748 3.097.374.366.847.561 1.497.561.649 0 1.147-.195 1.521-.56.673-.659.748-1.782.748-3.098 0-1.318-.075-2.415-.748-3.073m2.52 8.023c-.798.829-2.12 1.562-4.04 1.562-1.922 0-3.218-.733-4.016-1.562C.299 250.244 0 248.805 0 246.488c0-2.293.3-3.732 1.473-4.926.798-.83 2.094-1.562 4.015-1.562 1.92 0 3.243.731 4.041 1.562 1.172 1.194 1.471 2.633 1.471 4.926 0 2.317-.3 3.756-1.47 4.95M21.698 253v-7.771c0-1.75-1.143-2.343-2.185-2.343-1.041 0-2.209.592-2.209 2.343V253H14v-12.852h3.226v1.185c.865-.89 2.084-1.333 3.302-1.333 1.322 0 2.388.42 3.125 1.134 1.068 1.037 1.347 2.245 1.347 3.65V253h-3.302zM48.667 254v-8.04c0-1.744-1.13-2.325-2.18-2.325-1.051 0-2.154.606-2.154 2.324V254H41v-18h3.333v6.043c.897-.912 2.025-1.367 3.204-1.367 2.923 0 4.463 2.024 4.463 4.803V254h-3.333zM63.773 253.852v-1.183c-.863.887-2.082 1.331-3.302 1.331-1.32 0-2.389-.42-3.123-1.134-1.069-1.036-1.348-2.245-1.348-3.65V241h3.303v7.77c0 1.752 1.142 2.344 2.185 2.344 1.041 0 2.21-.592 2.21-2.344V241H67v12.852h-3.227zM84.82 253v-7.771c0-1.75-1.1-2.343-2.103-2.343-.978 0-2.127.592-2.127 2.269V253h-3.18v-7.771c0-1.75-1.1-2.343-2.103-2.343-1.002 0-2.126.592-2.126 2.343V253H70v-12.852h3.108v1.185c.83-.865 2.004-1.333 3.177-1.333 1.42 0 2.568.518 3.375 1.627 1.077-1.134 2.226-1.627 3.815-1.627 1.272 0 2.421.42 3.13 1.134 1.028 1.037 1.395 2.245 1.395 3.65V253h-3.18zM97.682 247.502h-2.63c-1.198 0-1.862.538-1.862 1.441 0 .882.613 1.468 1.914 1.468.918 0 1.507-.073 2.093-.613.357-.317.485-.83.485-1.612v-.684zm.076 5.378v-1.101c-.892.855-1.736 1.221-3.267 1.221-1.506 0-2.603-.366-3.394-1.124-.714-.708-1.097-1.734-1.097-2.86 0-2.027 1.454-3.69 4.542-3.69h3.14v-.634c0-1.393-.716-2.005-2.476-2.005-1.276 0-1.862.295-2.553 1.052l-2.117-1.98c1.3-1.368 2.578-1.759 4.797-1.759 3.726 0 5.667 1.514 5.667 4.496v8.384h-3.242zM111.698 253v-7.771c0-1.75-1.143-2.343-2.185-2.343-1.041 0-2.209.592-2.209 2.343V253H104v-12.852h3.226v1.185c.865-.89 2.084-1.333 3.302-1.333 1.322 0 2.388.42 3.125 1.134 1.068 1.037 1.347 2.245 1.347 3.65V253h-3.302zM118 248h8v-3h-8zM133.753 253c-2.568 0-5.753-1.365-5.753-6.512 0-5.147 3.185-6.488 5.753-6.488 1.778 0 3.11.536 4.247 1.708l-2.173 2.145c-.666-.707-1.234-1-2.074-1-.765 0-1.358.269-1.826.83-.494.61-.716 1.464-.716 2.805 0 1.34.222 2.22.716 2.83.468.56 1.06.828 1.826.828.84 0 1.408-.292 2.074-1l2.173 2.121c-1.137 1.172-2.47 1.733-4.247 1.733M146.01 243.415c-.375-.366-.873-.561-1.522-.561-.65 0-1.123.195-1.497.56-.673.659-.748 1.756-.748 3.074 0 1.316.075 2.44.748 3.097.374.366.847.561 1.497.561.649 0 1.147-.195 1.521-.56.673-.659.748-1.782.748-3.098 0-1.318-.075-2.415-.748-3.073m2.52 8.023c-.798.829-2.12 1.562-4.04 1.562-1.922 0-3.218-.733-4.016-1.562-1.174-1.194-1.473-2.633-1.473-4.95 0-2.293.3-3.732 1.473-4.926.798-.83 2.094-1.562 4.015-1.562 1.92 0 3.243.731 4.041 1.562 1.172 1.194 1.471 2.633 1.471 4.926 0 2.317-.3 3.756-1.47 4.95M168.82 253v-7.771c0-1.75-1.1-2.343-2.103-2.343-.978 0-2.127.592-2.127 2.269V253h-3.179v-7.771c0-1.75-1.101-2.343-2.104-2.343-1.002 0-2.126.592-2.126 2.343V253H154v-12.852h3.106v1.185a4.438 4.438 0 0 1 3.18-1.333c1.419 0 2.567.518 3.374 1.627 1.077-1.134 2.226-1.627 3.815-1.627 1.272 0 2.421.42 3.13 1.134 1.028 1.037 1.395 2.245 1.395 3.65V253h-3.18zM180.5 242.933c-1.968 0-2.219 1.604-2.219 3.736 0 2.131.25 3.76 2.219 3.76 1.968 0 2.22-1.629 2.22-3.76 0-2.132-.252-3.736-2.22-3.736m4.162 9.252c-.731.727-1.916 1.178-3.204 1.178-1.336 0-2.32-.351-3.177-1.303V258H175v-17.85h3.179v1.228c.91-1.002 1.892-1.378 3.28-1.378 1.287 0 2.472.451 3.203 1.18 1.313 1.302 1.338 3.534 1.338 5.489 0 1.956-.025 4.211-1.338 5.516M195.773 253.852v-1.183c-.863.887-2.082 1.331-3.302 1.331-1.32 0-2.389-.42-3.123-1.134-1.069-1.036-1.348-2.245-1.348-3.65V241h3.303v7.77c0 1.752 1.142 2.344 2.185 2.344 1.041 0 2.21-.592 2.21-2.344V241H199v12.852h-3.227zM206.205 254c-2.68 0-3.816-1.819-3.816-3.612v-6.255H201v-2.4h1.39V238h3.284v3.733H208v2.4h-2.326v6.061c0 .727.354 1.139 1.137 1.139H208V254h-1.795zM218.608 243.95c-.34-.755-1.042-1.316-2.109-1.316-1.065 0-1.768.561-2.107 1.317-.194.463-.266.804-.29 1.367h4.796c-.024-.563-.096-.904-.29-1.367zm-4.506 3.537c0 1.635.993 2.83 2.762 2.83 1.38 0 2.059-.39 2.86-1.195l1.913 1.877c-1.284 1.294-2.52 2.001-4.797 2.001-2.982 0-5.84-1.365-5.84-6.512 0-4.146 2.23-6.488 5.5-6.488 3.512 0 5.5 2.586 5.5 6.073v1.414h-7.898zM231.427 243.65c-.524-.492-.972-.764-1.811-.764-1.05 0-2.204.74-2.204 2.369V253H224v-12.852h3.333v1.233c.656-.738 1.968-1.381 3.439-1.381 1.337 0 2.282.32 3.228 1.208l-2.573 2.443zM250.06 254h3.91v-13.097h-3.91V254zm-.06-15.335h4V236h-4v2.665zM263.698 253v-7.771c0-1.75-1.143-2.343-2.185-2.343-1.041 0-2.209.592-2.209 2.343V253H256v-12.852h3.226v1.185c.865-.89 2.084-1.333 3.302-1.333 1.322 0 2.388.42 3.125 1.134 1.068 1.037 1.347 2.245 1.347 3.65V253h-3.302zM274.205 254c-2.68 0-3.816-1.819-3.816-3.612v-6.255H269v-2.4h1.39V238h3.284v3.733H276v2.4h-2.326v6.061c0 .727.354 1.139 1.137 1.139H276V254h-1.795zM285.608 243.95c-.34-.755-1.042-1.316-2.109-1.316-1.065 0-1.768.561-2.107 1.317-.194.463-.266.804-.29 1.367h4.796c-.024-.563-.096-.904-.29-1.367zm-4.506 3.537c0 1.635.993 2.83 2.762 2.83 1.38 0 2.059-.39 2.86-1.195l1.913 1.877c-1.284 1.294-2.52 2.001-4.797 2.001-2.982 0-5.84-1.365-5.84-6.512 0-4.146 2.23-6.488 5.5-6.488 3.512 0 5.5 2.586 5.5 6.073v1.414h-7.898zM299.427 243.65c-.524-.492-.972-.764-1.811-.764-1.05 0-2.204.74-2.204 2.369V253H292v-12.852h3.331v1.233c.658-.738 1.97-1.381 3.44-1.381 1.338 0 2.283.32 3.229 1.208l-2.573 2.443zM309.682 247.502h-2.63c-1.198 0-1.862.538-1.862 1.441 0 .882.613 1.468 1.914 1.468.918 0 1.507-.073 2.093-.613.357-.317.485-.83.485-1.612v-.684zm.076 5.378v-1.101c-.892.855-1.736 1.221-3.267 1.221-1.506 0-2.603-.366-3.394-1.124-.714-.708-1.097-1.734-1.097-2.86 0-2.027 1.454-3.69 4.542-3.69h3.14v-.634c0-1.393-.716-2.005-2.476-2.005-1.276 0-1.862.295-2.553 1.052l-2.117-1.98c1.3-1.368 2.578-1.759 4.797-1.759 3.726 0 5.667 1.514 5.667 4.496v8.384h-3.242zM321.753 253c-2.568 0-5.753-1.365-5.753-6.512 0-5.147 3.185-6.488 5.753-6.488 1.778 0 3.11.536 4.247 1.708l-2.173 2.145c-.666-.707-1.234-1-2.074-1-.765 0-1.358.269-1.826.83-.494.61-.716 1.464-.716 2.805 0 1.34.222 2.22.716 2.83.468.56 1.06.828 1.826.828.84 0 1.408-.292 2.074-1l2.173 2.121c-1.137 1.172-2.47 1.733-4.247 1.733M332.205 254c-2.68 0-3.816-1.819-3.816-3.612v-6.255H327v-2.4h1.39V238h3.284v3.733H334v2.4h-2.326v6.061c0 .727.354 1.139 1.137 1.139H334V254h-1.795zM336.058 254h3.91v-13.097h-3.91V254zM336 238.665h4V236h-4v2.665zM349.01 243.415c-.375-.366-.873-.561-1.522-.561-.65 0-1.123.195-1.497.56-.673.659-.748 1.756-.748 3.074 0 1.316.075 2.44.748 3.097.374.366.847.561 1.497.561.649 0 1.147-.195 1.521-.56.673-.659.748-1.782.748-3.098 0-1.318-.075-2.415-.748-3.073m2.52 8.023c-.798.829-2.12 1.562-4.04 1.562-1.922 0-3.218-.733-4.016-1.562-1.174-1.194-1.473-2.633-1.473-4.95 0-2.293.3-3.732 1.473-4.926.798-.83 2.094-1.562 4.015-1.562 1.92 0 3.243.731 4.041 1.562 1.172 1.194 1.471 2.633 1.471 4.926 0 2.317-.3 3.756-1.47 4.95M364.697 253v-7.771c0-1.75-1.142-2.343-2.185-2.343-1.041 0-2.21.592-2.21 2.343V253H357v-12.852h3.227v1.185c.863-.89 2.083-1.333 3.302-1.333 1.32 0 2.389.42 3.125 1.134 1.067 1.037 1.346 2.245 1.346 3.65V253h-3.303zM15.424 14.907l-8.85-.007a.904.904 0 0 1-.896-.908V4.998c0-.503.403-.91.898-.908l8.85.006c.495 0 .896.408.896.909v8.994a.902.902 0 0 1-.898.908zM16.322.009L5.678 0H.898A.905.905 0 0 0 0 .908v17.17c0 .502.403.91.899.91h4.779l10.644.007V19h4.78a.905.905 0 0 0 .898-.908V.908A.905.905 0 0 0 21.101 0h-4.779v.009zM161.373 7.018h-8.744a.908.908 0 0 1-.908-.91V.91a.906.906 0 0 0-.904-.91h-3.911c-.5 0-.906.406-.906.91v17.178a.91.91 0 0 0 .906.912h3.911c.5 0 .904-.408.904-.912v-6.066a.91.91 0 0 1 .908-.91h8.744c.501 0 .906.409.906.91v6.066a.91.91 0 0 0 .906.912h3.91c.5 0 .905-.408.905-.912V.91a.906.906 0 0 0-.904-.91h-3.911c-.5 0-.906.406-.906.91v5.198c0 .503-.405.91-.906.91M72 4.089v14c0 .503.406.911.91.911H90.092a.91.91 0 0 0 .908-.91v-2.272a.909.909 0 0 0-.908-.909H78.657a.909.909 0 0 1-.908-.908v-1.809a.91.91 0 0 1 .908-.91h9.118c.502 0 .91-.406.91-.907V8.1a.909.909 0 0 0-.91-.906h-9.118a.909.909 0 0 1-.908-.91V4.999c0-.502.406-.91.908-.91h11.435A.908.908 0 0 0 91 3.18V.91A.908.908 0 0 0 90.092 0H72.91a.908.908 0 0 0-.91.909v3.18zM301.343 14.91h-5.686a.91.91 0 0 1-.91-.908V4.998a.91.91 0 0 1 .91-.909h5.686a.91.91 0 0 1 .91.909v9.004a.91.91 0 0 1-.91.909zM289 4.09V18.09c0 .503.406.909.91.909H307.092a.908.908 0 0 0 .908-.909V.91a.908.908 0 0 0-.908-.909H289.91a.908.908 0 0 0-.91.909v3.18zM361.343 7.306h-5.686a.91.91 0 0 1-.91-.909V4.998a.91.91 0 0 1 .91-.909h5.686a.91.91 0 0 1 .91.909v1.4a.91.91 0 0 1-.91.908zm0 7.605h-5.686a.91.91 0 0 1-.91-.909v-1.698a.91.91 0 0 1 .91-.909h5.686a.91.91 0 0 1 .91.91v1.697a.91.91 0 0 1-.91.909zM349.91 0a.908.908 0 0 0-.91.909V18.09a.91.91 0 0 0 .91.909h17.18a.91.91 0 0 0 .91-.909V.91a.908.908 0 0 0-.91-.909h-17.18zM321.888 4.089h3.616a.9.9 0 0 1 .89.909V18.09c0 .502.396.91.887.91h3.831a.9.9 0 0 0 .888-.91V.909a.898.898 0 0 0-.888-.909h-9.224a.897.897 0 0 0-.888.909V3.18c0 .503.396.909.888.909M184 4.089v14c0 .503.408.911.91.911h17.18a.91.91 0 0 0 .91-.91v-2.272a.91.91 0 0 0-.91-.909h-11.434a.909.909 0 0 1-.908-.908V4.998c0-.502.406-.91.908-.91h11.434a.91.91 0 0 0 .91-.908V.91a.91.91 0 0 0-.91-.909h-17.18a.91.91 0 0 0-.91.909v3.18zM43.747 8.38V5a.91.91 0 0 1 .91-.91h5.686a.91.91 0 0 1 .91.91v3.38a.91.91 0 0 1-.91.91h-5.686a.91.91 0 0 1-.91-.91zM55.614 0H38.917A.917.917 0 0 0 38 .917v17.174a.91.91 0 0 0 .91.909h3.927a.91.91 0 0 0 .91-.909v-3.804a.91.91 0 0 1 .91-.909H56.09c.504 0 .91-.406.91-.908V.938a.91.91 0 0 0-.91-.91h-.476V0zM130.058 0h-4a.93.93 0 0 0-.942.919v8.552c0 .492-.562.783-.98.51L109.192.155a.963.963 0 0 0-.528-.156h-.722c-.519 0-.942.41-.942.919v17.16c0 .508.423.921.942.921h4a.932.932 0 0 0 .942-.92V9.457c0-.492.565-.783.983-.506l14.94 9.888c.157.103.342.16.53.16h.72a.932.932 0 0 0 .943-.92V.918a.93.93 0 0 0-.942-.919M223.039 0h-4.078c-.531 0-.961.412-.961.92v17.16c0 .508.43.92.961.92h4.078c.531 0 .961-.412.961-.92V.92c0-.508-.43-.92-.961-.92M272.08 14.918h-11.412a.92.92 0 0 1-.922-.919v-1.536a.92.92 0 0 1 .922-.919h11.412c.507 0 .92-.412.92-.92V.919a.92.92 0 0 0-.92-.919h-4.826v.009h-12.332a.922.922 0 0 0-.922.92v2.24a.92.92 0 0 0 .922.92h11.41c.509 0 .922.412.922.92v1.535c0 .508-.413.92-.922.92h-11.41a.92.92 0 0 0-.922.92v9.695c0 .508.413.921.922.921h17.158c.507 0 .92-.413.92-.92v-2.24a.922.922 0 0 0-.92-.922" mask="url(#e)"/>
    </g>
</svg>
