<svg xmlns="http://www.w3.org/2000/svg" xmlns:xlink="http://www.w3.org/1999/xlink" width="144" height="48" viewBox="0 0 144 48">
    <defs>
        <path id="a" d="M.234.18h24.733v5.384H.234z"/>
        <path id="c" d="M.308.297h29.939v16.439H.308z"/>
        <path id="e" d="M0 .18h33.239v30.734H0z"/>
        <path id="g" d="M.093.083h2.711v4.462H.094z"/>
        <path id="i" d="M0 39.82h135.772V.454H0z"/>
    </defs>
    <g fill="none" fill-rule="evenodd" transform="translate(4 4)">
        <path fill="#50E6B4" d="M66.29 38.312l-6.154-4.174a.26.26 0 0 0-.405.214v3.639a.388.388 0 0 1-.388.388h-1.648a.388.388 0 0 1-.388-.388v-7.244c0-.214.174-.388.388-.388h.298c.077 0 .153.023.217.066l6.156 4.147a.259.259 0 0 0 .403-.215v-3.61c0-.214.174-.388.389-.388h1.647c.214 0 .388.174.388.388v7.244a.388.388 0 0 1-.388.388h-.297a.39.39 0 0 1-.218-.067M73.599 37.98v-7.233c0-.214.173-.388.388-.388h1.647c.214 0 .389.174.389.388v7.233a.388.388 0 0 1-.389.388h-1.647a.388.388 0 0 1-.388-.388M94.235 30.747v7.244a.388.388 0 0 1-.388.388H92.2a.388.388 0 0 1-.389-.388v-3.899a.259.259 0 0 0-.392-.221l-2.887 1.737a.389.389 0 0 1-.4 0l-2.887-1.737a.258.258 0 0 0-.392.221v3.9a.388.388 0 0 1-.389.387h-1.647a.388.388 0 0 1-.389-.388v-7.244c0-.215.175-.389.389-.389h.714c.072 0 .143.02.204.058l4.394 2.697a.388.388 0 0 0 .406 0l4.394-2.697a.391.391 0 0 1 .203-.058h.715c.215 0 .388.174.388.389M135.77 30.747v7.244a.388.388 0 0 1-.39.388h-1.646a.388.388 0 0 1-.389-.388v-3.899a.259.259 0 0 0-.392-.221l-2.887 1.737a.389.389 0 0 1-.4 0l-2.887-1.737a.259.259 0 0 0-.392.221v3.9a.388.388 0 0 1-.389.387h-1.647a.388.388 0 0 1-.389-.388v-7.244c0-.215.174-.389.389-.389h.715c.071 0 .142.02.203.058l4.393 2.697a.388.388 0 0 0 .407 0l4.394-2.697a.391.391 0 0 1 .203-.058h.715c.214 0 .388.174.388.389M100.639 37.976v-7.233c0-.214.173-.388.388-.388h1.647c.214 0 .389.174.389.388v7.233a.389.389 0 0 1-.389.388h-1.647a.388.388 0 0 1-.388-.388M117.541 31.697v-.946a.388.388 0 0 0-.388-.388h-5.202v-.004h-2.035a.388.388 0 0 0-.389.388v4.097c0 .214.174.388.389.388h4.813c.215 0 .388.174.388.388v.649a.388.388 0 0 1-.388.388h-4.814a.388.388 0 0 0-.388.388v.946c0 .214.174.388.388.388h7.238a.388.388 0 0 0 .388-.388v-4.093a.388.388 0 0 0-.388-.389h-4.814a.388.388 0 0 1-.388-.387v-.649c0-.214.174-.388.388-.388h4.814a.388.388 0 0 0 .388-.388M51.97 38.379h-2.026a.388.388 0 0 1-.315-.162l-3.009-4.204a.26.26 0 0 0-.42 0l-3.01 4.204a.388.388 0 0 1-.315.162h-2.027a.388.388 0 0 1-.315-.614l5.198-7.262a.389.389 0 0 1 .316-.163h.725a.39.39 0 0 1 .316.163l5.198 7.262a.388.388 0 0 1-.315.614M91.9 5.557h7.155c.212 0 .384.171.384.383v10.634c0 .15-.044.296-.126.42l-4.383 6.693a.383.383 0 0 0 .322.594l3.236-.005c.258 0 .498-.13.64-.346l3.894-5.912a.764.764 0 0 0 .127-.422V3.038a.383.383 0 0 0-.384-.383h-9.493a.384.384 0 0 0-.322.176l-1.372 2.135c-.164.255.02.59.323.59M111.922 3.94l2.643 2.624a.768.768 0 0 0 .54.222h1.708a.384.384 0 0 0 .384-.383V4.172a.383.383 0 0 0-.384-.383h-.853a.383.383 0 0 1-.282-.124l-2.5-2.707a.767.767 0 0 0-.564-.248h-1.767a.768.768 0 0 0-.541.224l-2.76 2.743a.383.383 0 0 1-.271.112h-1.058a.383.383 0 0 0-.384.383v2.23c0 .213.172.384.384.384h2.158c.202 0 .397-.08.54-.222l2.647-2.624c.1-.1.26-.1.36 0M114.729 19.635h2.084a.384.384 0 0 0 .383-.384V17.17a.384.384 0 0 0-.383-.383h-2.084a.384.384 0 0 0-.384.383v2.082c0 .212.172.384.384.384M108.3 16.786h-2.083a.383.383 0 0 0-.384.383v2.082c0 .212.172.384.384.384h2.084a.384.384 0 0 0 .384-.384V17.17a.384.384 0 0 0-.384-.383M121.095 6.786h-2.136a.384.384 0 0 0-.384.384v3.19c0 .211.172.383.384.383h2.136a.384.384 0 0 0 .384-.383V7.17a.384.384 0 0 0-.384-.384M121.095 1.417h-2.136a.384.384 0 0 0-.384.383v3.19c0 .212.172.384.384.384h2.136a.384.384 0 0 0 .384-.384V1.8a.384.384 0 0 0-.384-.383M44.55 1.562h-3.706a.384.384 0 0 0-.385.384v3.508c0 .212.172.384.385.384h3.707a.384.384 0 0 0 .383-.384V1.946a.384.384 0 0 0-.383-.384"/>
        <g transform="translate(45.94 .274)">
            <mask id="b" fill="#fff">
                <use xlink:href="#a"/>
            </mask>
            <path fill="#50E6B4" d="M20.493 1.288h-8.3a.384.384 0 0 1-.384-.383v-.34a.384.384 0 0 0-.384-.385H8.062a.384.384 0 0 0-.384.384v.34a.384.384 0 0 1-.384.384H.618a.383.383 0 0 0-.384.384v1.316c0 .212.172.384.384.384h19.49c.213 0 .385.172.385.383V5.18c0 .212.172.384.384.384h3.707a.384.384 0 0 0 .383-.384V1.672a.383.383 0 0 0-.383-.384h-4.091z" mask="url(#b)"/>
        </g>
        <path fill="#50E6B4" d="M61.415 8.744a.4.4 0 0 1-.402.398h-5.452a.4.4 0 0 1-.4-.398v-1.37c0-.22.18-.4.4-.4h5.452a.4.4 0 0 1 .402.4v1.37zm8.413-1.757H65.62a.386.386 0 0 1-.386-.383V5.289a.4.4 0 0 0-.4-.399H51.739a.4.4 0 0 0-.399.4v5.537c0 .22.179.4.399.4h13.098a.4.4 0 0 0 .399-.4v-1.37c0-.215.174-.386.386-.386h4.207c.222 0 .4-.179.4-.399V7.386c0-.22-.178-.399-.4-.399zM49.996 10.785V5.273a.384.384 0 0 0-.384-.383h-3.054a.384.384 0 0 0-.384.383v1.33a.384.384 0 0 1-.384.384h-4.268a.384.384 0 0 0-.383.384v1.317c0 .212.172.383.383.383h4.268c.212 0 .384.172.384.384v1.33c0 .212.172.384.384.384h3.054a.384.384 0 0 0 .384-.384M70.228 21.129v-8.53a.383.383 0 0 0-.384-.384H46.558a.384.384 0 0 0-.384.384v1.316c0 .212.172.384.384.384h19.49c.212 0 .384.172.384.384v.755a.384.384 0 0 1-.383.384H46.558a.384.384 0 0 0-.384.383v1.317c0 .212.172.383.384.383h19.49c.212 0 .384.172.384.384v.756a.384.384 0 0 1-.383.383h-20.73a.384.384 0 0 1-.385-.383v-6.446a.383.383 0 0 0-.384-.384h-3.028a.384.384 0 0 0-.383.384v8.53c0 .211.171.383.383.383h2.396L40.69 22.92c-.14.062-.23.2-.23.352v.654c0 .212.171.384.383.384h5.624a.768.768 0 0 0 .44-.14l3.703-2.589a.384.384 0 0 1 .22-.069h9.707c.078 0 .155.024.22.07l3.703 2.589c.13.09.283.139.44.139h5.624a.384.384 0 0 0 .384-.384v-.654c0-.152-.091-.29-.231-.352l-3.229-1.408h2.396a.384.384 0 0 0 .384-.383M87.414 8.506l4.653-7.367a.383.383 0 0 0-.325-.588h-3.288a.385.385 0 0 0-.323.176l-2.879 4.46a.385.385 0 0 1-.322.177h-2.772a.384.384 0 0 1-.384-.384V1.07a.384.384 0 0 0-.384-.384h-3.028a.384.384 0 0 0-.384.383v6.937a.77.77 0 0 1-.133.432l-4.822 7.078a.386.386 0 0 0-.066.216v5.025c0 .378.49.528.702.214l4.32-6.403v9.378c0 .213.171.384.383.384h3.028a.384.384 0 0 0 .384-.384V9.247c0-.211.172-.383.384-.383h4.607a.768.768 0 0 0 .65-.358M132.486 9.45c.213 0 .384.17.384.383v1.506a.383.383 0 0 1-.384.383h-6.227a.383.383 0 0 1-.384-.383V9.833c0-.212.171-.384.384-.384h6.227zm-.97-4.657h3.87c.212 0 .383-.171.383-.383V2.515a.385.385 0 0 0-.383-.383h-3.87a.383.383 0 0 1-.383-.384V1.06a.385.385 0 0 0-.384-.383H128a.383.383 0 0 0-.384.383v.688a.385.385 0 0 1-.384.384h-3.871a.385.385 0 0 0-.384.383V4.41c0 .212.171.383.384.383h3.871c.21 0 .384.171.384.384v1.227a.385.385 0 0 1-.384.384h-3.871a.383.383 0 0 0-.384.383v6.83c0 .212.171.383.384.383h12.026a.383.383 0 0 0 .383-.383V7.17a.383.383 0 0 0-.383-.383h-3.87a.383.383 0 0 1-.383-.384V5.177c0-.213.171-.384.384-.384z"/>
        <g transform="translate(105.525 7.547)">
            <mask id="d" fill="#fff">
                <use xlink:href="#c"/>
            </mask>
            <path fill="#50E6B4" d="M30.247 16.352a.384.384 0 0 1-.384.384H16.857a.762.762 0 0 1-.573-.258l-.919-1.036a.255.255 0 0 0-.401.023l-.758 1.097a.38.38 0 0 1-.317.166h-2.602a.383.383 0 0 1-.32-.596l2.02-3.04a.39.39 0 0 0 .063-.212V7.668H7.825a.384.384 0 0 0-.383.384v5.275c0 .212.171.384.383.384h2.042c.307 0 .489.337.322.593l-1.481 2.258a.374.374 0 0 1-.32.174H.692a.383.383 0 0 1-.384-.384v-2.258c0-.211.172-.383.384-.383h3.461a.383.383 0 0 0 .384-.384V8.052a.384.384 0 0 0-.384-.384H.692a.383.383 0 0 1-.384-.383V5.15c0-.212.172-.383.384-.383h3.461a.384.384 0 0 0 .384-.384V3.58a.384.384 0 0 0-.384-.383H.692a.383.383 0 0 1-.384-.384V.681C.308.469.48.297.692.297h10.595c.212 0 .384.172.384.384v2.132a.384.384 0 0 1-.384.384H7.825a.385.385 0 0 0-.383.383v.803c0 .212.171.384.383.384h7.745c.212 0 .384.171.384.383v6.02c0 .168.056.334.159.467l1.371 1.775c.146.189.371.299.61.299h3.612c.21 0 .383-.172.383-.384v-1.764a.385.385 0 0 0-.383-.384h-3.871a.384.384 0 0 1-.384-.383V8.9c0-.212.172-.383.384-.383H29.86c.213 0 .384.171.384.383v1.895a.384.384 0 0 1-.384.383h-3.868a.384.384 0 0 0-.384.384v1.764c0 .212.172.384.384.384h3.868c.212 0 .384.172.384.383l.003 2.258z" mask="url(#d)"/>
        </g>
        <path fill="#50E6B4" d="M94.013 7.311h-3.64a.384.384 0 0 0-.324.177l-2.83 4.417a.766.766 0 0 1-.645.353l-1.302.001a.384.384 0 0 0-.384.383v2.708c0 .211.171.382.383.383l3.413.005a.768.768 0 0 0 .64-.343l5.009-7.488a.384.384 0 0 0-.32-.596M75.945 2.623H73.34a.383.383 0 0 0-.383.383v7.77c0 .377.489.528.701.215l2.539-3.74a.77.77 0 0 0 .132-.43V3.006a.384.384 0 0 0-.384-.383"/>
        <path fill="#50E6B4" d="M97.286 7.315h-.396a.384.384 0 0 0-.324.177L89.073 18.92a.766.766 0 0 1-.643.347l-3.158-.004a.383.383 0 0 0-.384.383v2.706c0 .212.172.383.383.384l5.401.005c.259 0 .5-.13.642-.345l6.229-9.071a.767.767 0 0 0 .127-.423V7.7a.384.384 0 0 0-.384-.384"/>
        <g transform="translate(0 .274)">
            <mask id="f" fill="#fff">
                <use xlink:href="#e"/>
            </mask>
            <path fill="#50E6B4" d="M6.536 2.82l4.67 6.604v12.65L2.26 28.57l4.277-25.75zm24.453 25.827l-9.695-6.583V9.438l5.357-6.75 4.338 25.959zM11.818 22.77h8.872l9.28 6.3H3.143l8.675-6.3zm.311-.923h8.242V9.74H12.13v12.108zm8.48-13.03h-8.703L7.103 2.025H26L20.61 8.817zM28.103.18h-23L0 30.913h33.239L28.103.18z" mask="url(#f)"/>
        </g>
        <path fill="#50E6B4" d="M2.74 35.177a.72.72 0 0 0-.553-.236.733.733 0 0 0-.56.236c-.167.186-.21.391-.21 1.243 0 .851.043 1.057.21 1.243a.733.733 0 0 0 .56.236c.237 0 .43-.093.554-.236.168-.186.218-.392.218-1.243 0-.852-.05-1.057-.218-1.243m.64 3.008a1.6 1.6 0 0 1-1.194.485c-.503 0-.889-.174-1.2-.485-.448-.447-.435-1-.435-1.765 0-.764-.013-1.317.435-1.765.311-.31.697-.485 1.2-.485a1.6 1.6 0 0 1 1.194.485c.448.448.442 1 .442 1.765 0 .764.006 1.318-.442 1.765"/>
        <g transform="translate(4.548 35.274)">
            <mask id="h" fill="#fff">
                <use xlink:href="#g"/>
            </mask>
            <path fill="#50E6B4" d="M1.449.81c-.485 0-.547.398-.547.926 0 .529.062.933.547.933.485 0 .547-.404.547-.933 0-.528-.062-.925-.547-.925m1.026 2.293c-.18.18-.473.292-.79.292-.33 0-.572-.087-.783-.323v1.473H.093V.12h.783v.304c.224-.249.467-.342.81-.342.316 0 .608.112.789.293.323.323.33.876.33 1.36 0 .485-.007 1.045-.33 1.368" mask="url(#h)"/>
        </g>
        <path fill="#50E6B4" d="M9.913 36.364a.562.562 0 0 0-.54-.335.563.563 0 0 0-.542.335.898.898 0 0 0-.075.348h1.232a.898.898 0 0 0-.075-.348zm-1.157.901c0 .416.256.72.71.72.354 0 .528-.098.733-.304l.492.479c-.33.33-.647.51-1.232.51-.765 0-1.498-.348-1.498-1.66 0-1.056.572-1.653 1.411-1.653.902 0 1.412.659 1.412 1.547v.361H8.756zM13.412 38.632v-1.957c0-.441-.28-.59-.535-.59-.254 0-.54.149-.54.59v1.957h-.81v-3.237h.79v.298a1.11 1.11 0 0 1 .81-.336c.323 0 .584.106.764.286.261.261.33.566.33.92v2.07h-.809zM17.515 38.632v-1.851h-1.499v1.851h-.864v-4.424h.864v1.808h1.499v-1.808h.864v4.424zM20.89 38.67c-.486 0-.884-.174-1.195-.485-.447-.448-.435-1-.435-1.765 0-.764-.012-1.318.435-1.765.311-.31.71-.484 1.194-.484.827 0 1.474.472 1.63 1.398h-.877c-.087-.355-.311-.628-.746-.628a.714.714 0 0 0-.554.23c-.168.186-.218.398-.218 1.25 0 .85.05 1.062.218 1.248.124.143.317.23.554.23.435 0 .659-.273.746-.628h.877c-.156.926-.809 1.399-1.63 1.399"/>
        <mask id="j" fill="#fff">
            <use xlink:href="#i"/>
        </mask>
        <path fill="#50E6B4" d="M23.262 38.632h.865v-4.424h-.865zM25.065 35.618v-1.41h.845v.77zM27.881 38.632v-3.554l-.901.783v-.87l.901-.783h.808v4.424zM31.405 34.897a.544.544 0 0 0-.553.56c0 .323.236.56.553.56.317 0 .547-.237.547-.56a.54.54 0 0 0-.547-.56m0 1.821a.607.607 0 0 0-.61.615c0 .342.268.61.61.61.342 0 .61-.268.61-.61a.607.607 0 0 0-.61-.615m0 1.952c-.783 0-1.418-.467-1.418-1.324 0-.54.311-.833.554-.994-.224-.156-.498-.448-.498-.92 0-.783.622-1.262 1.362-1.262.74 0 1.356.479 1.356 1.262 0 .472-.274.764-.497.92.242.161.559.453.559.994 0 .857-.634 1.324-1.418 1.324" mask="url(#j)"/>
    </g>
</svg>
