<svg xmlns="http://www.w3.org/2000/svg" width="128" height="64" viewBox="0 0 128 64">
    <g fill="none" fill-rule="evenodd">
        <path fill="#50E6B4" d="M85.151 2v.004H2V7.26h8.214V62H126V37.696h-18.032V26.314H90.01V5.204h2.52V2z"/>
        <path fill="#1A1654" d="M19.891 13.43l-1.709-5c-.388-1.134-.647-2.164-.906-3.17h-.052a52.323 52.323 0 0 1-.88 3.145l-1.709 5.025h5.256zm-5.722 1.753l-1.813 5.463h-2.33l5.93-17.37h2.718l5.955 17.37h-2.408l-1.864-5.463H14.17zM36.773 17.244c0 1.289.026 2.423.103 3.402h-2.02l-.129-2.035h-.052c-.595 1.004-1.916 2.319-4.142 2.319-1.968 0-4.324-1.082-4.324-5.464V8.173h2.278v6.906c0 2.372.725 3.97 2.797 3.97 1.527 0 2.589-1.057 3.003-2.062.13-.335.207-.748.207-1.16V8.173h2.279v9.071zM48.475 13.095c0-.387-.025-.722-.13-1.03-.413-1.315-1.527-2.398-3.184-2.398-2.174 0-3.728 1.83-3.728 4.717 0 2.448 1.243 4.484 3.702 4.484 1.398 0 2.667-.876 3.16-2.32.129-.386.18-.824.18-1.21v-2.243zm2.357-4.922a54.318 54.318 0 0 0-.104 3.428v7.241c0 2.86-.57 4.613-1.786 5.696-1.217 1.134-2.978 1.494-4.557 1.494-1.502 0-3.16-.36-4.17-1.03l.57-1.727c.83.515 2.123.98 3.677.98 2.33 0 4.04-1.212 4.04-4.356v-1.392h-.052c-.7 1.16-2.046 2.088-3.988 2.088-3.107 0-5.334-2.629-5.334-6.082 0-4.227 2.77-6.624 5.645-6.624 2.175 0 3.366 1.134 3.91 2.165h.052l.103-1.881h1.994zM63.181 6.008h-.051L60.204 7.58l-.44-1.727 3.676-1.958h1.942v16.751h-2.2zM73.149 9.41c0 2.087 1.269 3.556 3.237 3.556 1.527 0 2.718-.747 3.314-1.752.13-.206.207-.464.207-.825 0-2.86-1.062-5.051-3.444-5.051-1.942 0-3.314 1.7-3.314 4.072zm-.828 9.638c.491.052 1.06 0 1.838-.077 1.32-.18 2.563-.722 3.521-1.623 1.114-1.006 1.916-2.475 2.227-4.46h-.078c-.932 1.135-2.278 1.805-3.961 1.805-3.03 0-4.972-2.268-4.972-5.128 0-3.17 2.305-5.954 5.748-5.954 3.444 0 5.567 2.784 5.567 7.062 0 3.685-1.242 6.262-2.9 7.86-1.294 1.263-3.08 2.036-4.893 2.242-.829.13-1.554.155-2.097.13v-1.857zM22.791 47.407h12.48v.979H21.807v-13.35h.984z"/>
        <path stroke="#1A1654" stroke-width="3" d="M22.791 47.407h12.48v.979H21.807v-13.35h.984z"/>
        <path fill="#1A1654" d="M50.236 50.473l-1.709-5c-.389-1.133-.648-2.164-.906-3.169h-.052a52.323 52.323 0 0 1-.88 3.144l-1.71 5.025h5.257zm-5.722 1.753L42.7 57.69h-2.33L46.3 40.32h2.719l5.955 17.37h-2.408l-1.864-5.464h-6.188zM67.117 54.288c0 1.288.026 2.422.104 3.402H65.2l-.13-2.036h-.051c-.595 1.005-1.916 2.319-4.143 2.319-1.967 0-4.324-1.082-4.324-5.463v-7.294h2.279v6.907c0 2.371.725 3.969 2.796 3.969 1.528 0 2.59-1.057 3.004-2.062.129-.335.207-.747.207-1.16v-7.654h2.278v9.072zM78.82 50.139c0-.387-.026-.722-.13-1.032-.414-1.314-1.527-2.396-3.184-2.396-2.175 0-3.729 1.83-3.729 4.716 0 2.448 1.243 4.484 3.703 4.484 1.398 0 2.667-.876 3.159-2.319.13-.387.181-.825.181-1.211v-2.242zm2.357-4.923a54.318 54.318 0 0 0-.104 3.428v7.242c0 2.86-.57 4.613-1.787 5.695-1.217 1.134-2.977 1.495-4.557 1.495-1.502 0-3.159-.36-4.169-1.031l.57-1.727c.829.516 2.123.98 3.677.98 2.33 0 4.039-1.212 4.039-4.356v-1.391h-.052c-.699 1.16-2.045 2.087-3.987 2.087-3.107 0-5.334-2.629-5.334-6.082 0-4.227 2.77-6.623 5.645-6.623 2.175 0 3.366 1.133 3.91 2.165h.051l.103-1.882h1.995zM88.58 57.69v-1.392l1.787-1.727c4.299-4.072 6.24-6.236 6.266-8.762 0-1.701-.829-3.273-3.34-3.273-1.528 0-2.796.773-3.573 1.417l-.725-1.598c1.165-.979 2.822-1.7 4.764-1.7 3.625 0 5.153 2.473 5.153 4.87 0 3.093-2.253 5.593-5.8 8.995l-1.347 1.237v.051h7.561v1.881H88.581zM108.388 51.35v-5.593c0-.876.025-1.752.077-2.629h-.077a47.6 47.6 0 0 1-1.399 2.474l-4.116 5.696v.052h5.515zm0 6.34v-4.562h-7.82v-1.495l7.51-10.695h2.459V51.35h2.356v1.778h-2.356v4.561h-2.15z"/>
    </g>
</svg>
