<svg xmlns="http://www.w3.org/2000/svg" xmlns:xlink="http://www.w3.org/1999/xlink" width="47" height="276" viewBox="0 0 47 276">
    <defs>
        <path id="a" d="M.192.64h20.555V244H.192z"/>
    </defs>
    <g fill="none" fill-rule="evenodd">
        <path fill="#50E6B4" d="M1 19v32.501h9.496V201.18h12.193v60.02h24.035V19z"/>
        <g transform="translate(25 18.632)">
            <mask id="b" fill="#fff">
                <use xlink:href="#a"/>
            </mask>
            <path fill="#1A1654" d="M11.233 10.419h5.797V8.383h-5.797v2.036zm9.315-8.031v1.305h-4.757c.774.62 1.703 1.416 2.19 1.992l-1.084.929c-.509-.575-1.482-1.505-2.279-2.146l.951-.775h-2.477a11.928 11.928 0 0 1-1.682 2.036c-.266-.266-.885-.775-1.239-.974 1.216-1.018 2.213-2.522 2.744-4.115l1.526.354c-.177.486-.376.929-.575 1.394h6.682zM4.639 11.813c-.11.686-.22 1.416-.332 2.058h5.311v-2.058H4.639zm14.736 2.058s-.022.442-.044.686c-.31 3.053-.598 4.402-1.173 4.934-.354.398-.774.53-1.372.553-.575.044-1.659.044-2.787 0a3.697 3.697 0 0 0-.443-1.527c1.084.111 2.102.111 2.5.111.376 0 .597-.023.796-.177.288-.31.532-1.173.753-3.164h-6.372v5.708H9.618v-5.089C7.671 18.097 4.816 20 2.183 21.017c-.243-.398-.685-.996-1.061-1.305 2.566-.841 5.376-2.545 7.19-4.425H2.471c.288-1.328.598-3.297.775-4.868h6.372V8.384H2.471V6.99h16.174v4.823h-7.412v2.058h8.142zM3.975 3.693c-.685 1.106-1.46 2.08-2.255 2.854C1.498 6.26.923 5.729.568 5.463 1.918 4.246 3.157 2.477 3.909.64l1.438.398c-.176.442-.376.885-.597 1.328h5.664v1.327H6.232c.731.62 1.572 1.438 1.991 1.992l-1.084.907c-.419-.62-1.349-1.571-2.101-2.257l.841-.642H3.975zM18.247 43.671c.663 0 .774-.642.862-3.672.376.31 1.063.597 1.528.73-.156 3.451-.576 4.513-2.257 4.513h-2.5c-1.793 0-2.257-.575-2.257-2.544V32.144H8.71c-.443 5.421-1.903 10.598-6.881 13.651-.266-.398-.841-.973-1.306-1.283 4.736-2.699 6.063-7.39 6.439-12.368H1.188V30.53h5.885c.067-1.637.067-3.297.067-4.89h1.77c0 1.593-.022 3.253-.11 4.89h6.504V42.7c0 .817.11.972.774.972h2.169zM11.808 64.976v-3.252h-3.03V60.33h3.03v-2.633h1.504v2.633h3.054v1.394h-3.054v3.252h3.54v1.372H8.135v-1.372h3.673zm7.545-5.797v11.373h-1.57v-.95H5.612v-10.4h1.592v8.938h10.577v-8.96h1.571zM4.307 55.617H17.34V52.94H4.307v2.677zm0 1.527v.73c0 3.717-.31 9.093-2.588 12.7-.31-.265-1.018-.686-1.438-.84 2.212-3.452 2.411-8.342 2.411-11.86v-6.439h16.284v5.71H4.307zM11.432 75.196c-.022.796-.045 1.903-.155 3.208.332 2.633 1.66 11.881 9.47 15.355-.465.376-.952.93-1.196 1.394-5.53-2.589-7.898-8.054-8.96-12.169-1.018 4.425-3.363 9.381-8.762 12.257-.288-.442-.818-.929-1.328-1.283 9.183-4.646 9.05-15.399 9.117-18.762h1.814zM19.287 109.643c-.066-.265-.155-.62-.288-.996-3.208.51-3.74.62-4.005.775-.088-.266-.287-.95-.442-1.283.354-.067.685-.443 1.106-.974.243-.288.752-1.018 1.327-1.969-1.636.221-2.012.332-2.234.443a9.318 9.318 0 0 0-.42-1.24c.265-.022.509-.309.774-.73.244-.376 1.15-1.99 1.593-3.473l1.239.376c-.553 1.305-1.24 2.611-1.925 3.628l1.615-.177c.288-.486.554-1.017.774-1.526l1.262.464c-.951 1.814-2.103 3.562-3.23 4.956l2.212-.31c-.177-.442-.354-.906-.531-1.327l.995-.287c.488 1.04 1.019 2.455 1.24 3.274l-1.062.376zm-7.987.376c-.067-.265-.156-.575-.244-.929-3.164.487-3.672.575-3.983.752-.044-.265-.221-.907-.376-1.239.31-.066.687-.442 1.129-.996.22-.265.796-1.039 1.416-1.99-1.726.243-2.146.353-2.368.464-.044-.266-.243-.907-.376-1.217.266-.066.53-.354.819-.819.31-.442 1.305-2.146 1.859-3.805l1.238.398c-.62 1.438-1.416 2.9-2.212 4.005l1.748-.177c.266-.487.53-.974.752-1.483l1.194.465c-.972 1.77-2.145 3.518-3.318 4.89l2.146-.288a21.088 21.088 0 0 0-.508-1.394l1.039-.287c.465 1.062.952 2.456 1.129 3.274l-1.084.376zm7.832 3.32a12.732 12.732 0 0 1-2.722 3.54c.642.972 1.416 1.504 2.302 1.592.464.045.752-.796.929-2.39.265.311.818.687 1.106.841-.421 2.412-1.106 3.231-1.991 3.164-1.44-.088-2.59-.885-3.496-2.256a18.24 18.24 0 0 1-3.872 2.146 5.434 5.434 0 0 0-.885-1.04c1.526-.598 2.942-1.372 4.115-2.3-.51-1.13-.93-2.5-1.283-4.05H9.728v.332c0 .155 0 .331-.022.51 1.062.817 2.39 1.945 3.054 2.632l-1.018.995a32.208 32.208 0 0 0-2.234-2.079c-.377 1.77-1.306 3.672-3.253 5.154-.222-.309-.775-.818-1.084-.995 2.589-1.903 3.14-4.38 3.14-6.24v-.309h-1.68v-1.328h6.46c-.531-3.14-.818-6.969-.95-11.195h1.416c.11 4.314.419 8.164.972 11.195h3.164c-.53-.464-1.327-1.017-1.97-1.416l.842-.774c.775.442 1.792 1.128 2.3 1.593l-.574.597h1.837v1.328h-5.333c.288 1.172.575 2.19.952 3.031.818-.84 1.504-1.792 1.969-2.788l1.416.51zM5.59 111.7c-.221-.598-.708-1.638-1.172-2.567v10.952h-1.44v-10.53c-.551 2.277-1.304 4.446-2.08 5.795-.132-.464-.508-1.194-.707-1.593 1.063-1.792 2.124-5.177 2.656-8.075H.635v-1.549H2.98v-4.248h1.439v4.248h1.747v1.55H4.419v1.437c.486.774 1.68 2.832 1.969 3.363l-.797 1.217zM14.11 137.364c.242-1.726.42-3.385.574-4.734H7.03c-.332 1.681-.664 3.34-.974 4.734h8.054zm6.35 5.111v1.616H.722v-1.616H13.38a220.3 220.3 0 0 0 .531-3.562H3.865c.774-2.899 1.748-7.722 2.346-11.372H1.454v-1.593h18.342v1.593H7.96a97.673 97.673 0 0 1-.642 3.54h7.7l.31-.089 1.216.155c-.288 2.987-.929 7.7-1.46 11.328h5.376zM6.764 161.302h2.898v-1.615H6.764v1.615zm-.001-2.699h2.898v-1.593H6.763v1.593zm-4.27 2.699h2.788v-1.615H2.493v1.615zm0-2.699h2.788v-1.593H2.493v1.593zm17.679-4.027s-.023.619-.023.841c-.243 9.27-.442 12.346-1.194 13.274-.376.576-.819.753-1.483.82-.62.088-1.659.066-2.677 0-.044-.443-.221-1.129-.464-1.549a32.69 32.69 0 0 0 2.455.11c.377 0 .575-.066.797-.353.509-.643.774-3.563.996-11.594h-3.164c-.266 5.885-1.283 10.708-5.178 13.629-.243-.355-.818-.907-1.217-1.173.355-.243.664-.509.974-.774-3.363.398-6.793.774-9.271 1.04l-.243-1.439c1.327-.11 2.987-.265 4.801-.442v-1.903H1.099v-1.261h4.182v-1.35H1.143v-6.571h4.138v-1.394H.502v-1.283h4.779v-1.46c-1.416.11-2.853.199-4.159.243-.067-.354-.222-.884-.399-1.216 3.275-.177 7.257-.576 9.537-1.084l.818 1.26c-1.194.266-2.699.465-4.315.642v1.615h4.691v1.283H6.763v1.394h4.292v6.571H6.763v1.35H11.1v1.261H6.763v1.749c1.439-.133 2.943-.289 4.425-.465v.11c1.925-2.61 2.501-6.173 2.699-10.332H11.3v-1.549h2.632c.044-1.549.044-3.164.044-4.846h1.549c0 1.66 0 3.297-.044 4.846h4.691zM20.437 191.102v1.638H.701v-1.638h8.894v-12.7H1.851v-1.68h17.48v1.68h-7.944v12.7zM13.866 204.266v3.163h6.306v1.527h-6.306v3.34h6.615v1.55h-6.615v5.355h-1.659v-14.935h-1.528c-.951 1.77-2.035 3.362-3.141 4.602a10.82 10.82 0 0 0-1.283-1.107c1.991-2.058 3.783-5.243 4.867-8.474l1.571.42a34.603 34.603 0 0 1-1.217 2.988h9.204v1.57h-6.814zm-6.461-4.67c-.598 1.594-1.393 3.209-2.257 4.736v14.846H3.512v-12.302a22.006 22.006 0 0 1-2.191 2.633c-.155-.376-.642-1.283-.952-1.637 2.19-2.124 4.226-5.42 5.466-8.784l1.57.509zM13.976 227.406c-.199-.84-.642-2.279-1.04-3.363l1.527-.332c.42 1.04.907 2.434 1.128 3.253l-1.615.442zm-.995 4.846v.442h6.46s0 .553-.022.774c-.288 6.44-.53 8.806-1.217 9.581-.398.531-.863.685-1.57.752-.642.044-1.859.044-3.076-.022-.045-.509-.244-1.173-.53-1.615 1.26.088 2.476.11 2.92.11.42 0 .641-.022.862-.265.442-.487.731-2.5.974-7.766h-4.89c-.288 3.297-1.438 6.947-5.598 9.757a5.993 5.993 0 0 0-1.239-1.107c4.735-3.208 5.311-7.456 5.311-10.664v-2.986H7.693v-1.594h12.943v1.594h-7.655v3.01zM8.29 237.85c-2.61 1.018-5.419 2.08-7.522 2.9l-.42-1.705a95.77 95.77 0 0 0 3.186-1.107v-7.057H.723v-1.57h2.81v-5.222h1.593v5.221h2.655v1.571H5.126v6.505c.93-.333 1.903-.686 2.876-1.04l.287 1.504z" mask="url(#b)"/>
        </g>
    </g>
</svg>
