<svg xmlns="http://www.w3.org/2000/svg" xmlns:xlink="http://www.w3.org/1999/xlink" width="62" height="125" viewBox="0 0 62 125">
    <defs>
        <path id="a" d="M0 124.5h60.237V.461H0z"/>
    </defs>
    <g fill="none" fill-rule="evenodd">
        <path fill="#50E6B4" d="M35.823.5H1v15.222h12.51v70.103h16.065v38.714h31.662V.501z"/>
        <g transform="translate(1 .039)">
            <path fill="#1A1654" d="M50.731 5.15c-.021.775-.043 1.85-.15 3.12.323 2.559 1.613 11.549 9.205 14.926-.452.365-.925.903-1.161 1.354-5.377-2.516-7.678-7.828-8.71-11.828-.99 4.3-3.27 9.119-8.518 11.915-.28-.43-.796-.904-1.29-1.248 8.926-4.517 8.796-14.97 8.86-18.238h1.764zM58.367 38.64c-.065-.257-.15-.601-.28-.967-3.118.495-3.635.602-3.893.753-.086-.258-.28-.925-.43-1.248.344-.064.667-.43 1.075-.946.237-.28.732-.99 1.29-1.914-1.59.215-1.956.322-2.171.43a8.782 8.782 0 0 0-.41-1.204c.26-.022.496-.302.754-.71.237-.366 1.118-1.936 1.548-3.377l1.205.366c-.538 1.269-1.205 2.537-1.871 3.527l1.57-.172c.28-.473.538-.99.752-1.484l1.226.452c-.924 1.763-2.043 3.463-3.14 4.818l2.151-.302c-.172-.43-.344-.882-.516-1.29l.968-.28c.473 1.011.99 2.388 1.204 3.183l-1.032.366zm-7.764.366c-.065-.258-.15-.559-.237-.903-3.075.473-3.57.56-3.871.732-.043-.259-.215-.882-.366-1.205.301-.064.667-.43 1.097-.968.215-.258.774-1.01 1.377-1.935-1.678.236-2.087.343-2.302.451a7.372 7.372 0 0 0-.365-1.183c.257-.064.516-.344.795-.796.301-.43 1.27-2.086 1.807-3.699l1.204.387c-.602 1.398-1.376 2.818-2.15 3.893l1.699-.172c.258-.473.516-.946.731-1.44l1.161.45c-.946 1.721-2.086 3.42-3.226 4.754l2.087-.28a20.22 20.22 0 0 0-.495-1.355l1.01-.28c.452 1.033.925 2.388 1.097 3.184l-1.053.365zm7.613 3.227a12.378 12.378 0 0 1-2.645 3.44c.623.947 1.376 1.463 2.237 1.55.451.042.73-.775.903-2.323.258.3.795.666 1.075.817-.409 2.344-1.075 3.14-1.935 3.075-1.398-.086-2.517-.86-3.399-2.193a17.657 17.657 0 0 1-3.763 2.086 5.236 5.236 0 0 0-.86-1.011c1.484-.58 2.86-1.334 4-2.237-.495-1.097-.904-2.43-1.248-3.936h-3.505v.323c0 .15 0 .323-.022.494 1.032.796 2.323 1.893 2.968 2.56l-.99.968a31.393 31.393 0 0 0-2.172-2.022c-.365 1.72-1.269 3.57-3.161 5.011-.215-.3-.753-.795-1.054-.968 2.517-1.85 3.054-4.258 3.054-6.065v-.3h-1.634v-1.29h6.28c-.516-3.055-.796-6.776-.925-10.884h1.376c.108 4.194.41 7.936.947 10.883h3.075c-.516-.452-1.29-.99-1.914-1.376l.817-.753c.753.43 1.742 1.096 2.237 1.548l-.56.581h1.786v1.29h-5.183c.28 1.14.56 2.13.924 2.947.796-.818 1.463-1.742 1.915-2.71l1.376.495zM45.054 40.64c-.216-.58-.689-1.592-1.14-2.495v10.646h-1.398V38.555c-.538 2.215-1.269 4.323-2.022 5.635-.129-.452-.494-1.162-.688-1.549 1.032-1.742 2.065-5.032 2.58-7.85h-2.15v-1.505h2.28v-4.13h1.398v4.13h1.699v1.505h-1.7v1.398c.474.753 1.635 2.753 1.915 3.27l-.774 1.182zM53.334 65.592c.237-1.677.408-3.29.559-4.602H46.45a209.192 209.192 0 0 1-.946 4.602h7.829zm6.172 4.969v1.57H40.322v-1.57h12.302c.172-1.076.344-2.259.516-3.463h-9.764c.753-2.818 1.699-7.506 2.28-11.055h-4.624v-1.548h17.83v1.548H47.354a91.988 91.988 0 0 1-.624 3.441h7.485l.3-.086 1.183.15c-.279 2.904-.903 7.485-1.419 11.013h5.226z"/>
            <mask id="b" fill="#fff">
                <use xlink:href="#a"/>
            </mask>
            <path fill="#1A1654" d="M46.193 88.866h2.818v-1.57h-2.818v1.57zm0-2.624h2.819v-1.549h-2.819v1.549zm-4.15 2.624h2.71v-1.57h-2.71v1.57zm0-2.624h2.71v-1.549h-2.71v1.549zm17.184-3.915s-.021.603-.021.818c-.238 9.011-.43 12.001-1.162 12.904-.366.56-.795.731-1.441.796-.602.086-1.613.064-2.602 0-.043-.43-.215-1.097-.453-1.505 1.033.085 1.98.106 2.389.106.364 0 .559-.064.774-.343.494-.624.753-3.463.967-11.27h-3.075c-.259 5.721-1.248 10.41-5.033 13.249-.236-.344-.795-.882-1.183-1.14.344-.237.645-.495.947-.753-3.27.387-6.603.753-9.012 1.01l-.236-1.397a334.2 334.2 0 0 0 4.666-.43v-1.85h-4.065v-1.226h4.066v-1.312H40.73v-6.387h4.021v-1.355h-4.645v-1.248h4.645v-1.42a94.074 94.074 0 0 1-4.043.237c-.065-.344-.215-.86-.387-1.183 3.183-.172 7.054-.558 9.27-1.053l.796 1.225c-1.162.258-2.624.452-4.194.624v1.57h4.559v1.248h-4.56v1.355h4.173v6.388h-4.172v1.311h4.215v1.226h-4.215v1.699c1.397-.129 2.86-.28 4.301-.452v.108c1.871-2.537 2.43-6 2.624-10.044h-2.517v-1.505h2.56c.043-1.506.043-3.076.043-4.71h1.506c0 1.613 0 3.204-.044 4.71h4.56zM31.673 21.475v1.592H12.489v-1.592h8.645V9.13h-7.527V7.495h16.99V9.13h-7.72v12.345zM25.285 34.275v3.075h6.13v1.484h-6.13v3.248h6.43v1.505h-6.43v5.205h-1.613V34.275h-1.483c-.925 1.72-1.98 3.269-3.055 4.473a10.428 10.428 0 0 0-1.247-1.075c1.936-2 3.678-5.097 4.732-8.238l1.527.41a34.19 34.19 0 0 1-1.184 2.902h8.948v1.528h-6.625zm-6.28-4.538c-.58 1.548-1.355 3.118-2.193 4.602V48.77H15.22V36.812a21.385 21.385 0 0 1-2.13 2.56c-.15-.366-.623-1.248-.924-1.592 2.13-2.064 4.108-5.269 5.312-8.538l1.527.495zM25.393 56.774c-.194-.817-.624-2.215-1.01-3.269l1.483-.323c.409 1.011.882 2.366 1.097 3.162l-1.57.43zm-.968 4.71v.43h6.28s0 .538-.022.753c-.28 6.259-.516 8.56-1.182 9.313-.388.516-.84.666-1.528.73-.623.044-1.806.044-2.989-.02-.043-.495-.237-1.14-.516-1.57 1.226.085 2.409.107 2.839.107.409 0 .623-.022.839-.258.43-.473.71-2.43.946-7.55h-4.753c-.28 3.205-1.398 6.754-5.441 9.486a5.817 5.817 0 0 0-1.205-1.076c4.603-3.118 5.162-7.248 5.162-10.366v-2.904h-3.57v-1.548h12.581v1.548h-7.441v2.925zm-4.56 5.442c-2.538.989-5.269 2.021-7.312 2.817l-.409-1.656a97.71 97.71 0 0 0 3.097-1.075V60.15H12.51v-1.527h2.731v-5.076h1.549v5.076h2.581v1.527H16.79v6.323c.903-.323 1.85-.667 2.796-1.01l.28 1.462z" mask="url(#b)"/>
        </g>
    </g>
</svg>
