<svg xmlns="http://www.w3.org/2000/svg" xmlns:xlink="http://www.w3.org/1999/xlink" width="176" height="123" viewBox="0 0 176 123">
    <defs>
        <path id="a" d="M0 123h175.718V.02H0z"/>
    </defs>
    <g fill="none" fill-rule="evenodd">
        <path fill="#50E6B4" d="M0 0v123h105.456v-19.458h67.921V81.639H30.773V62.76h71.678V41.545H176V19.381H38.23V5.506h16.99V0z"/>
        <g>
            <path fill="#1A1654" d="M9.49 3.518c-.43-.486-1-.73-1.71-.73s-1.277.244-1.7.73c-.424.487-.635 1.142-.635 1.966 0 .375.05.724.149 1.049.1.325.246.608.44.852.192.243.435.436.728.58a2.29 2.29 0 0 0 1.019.215c.71 0 1.28-.243 1.71-.73.43-.487.644-1.142.644-1.966 0-.824-.215-1.479-.645-1.966m1.785 3.342a8.818 8.818 0 0 1-.635 1.563l-3.27 6.61H5.967l2.99-5.991c-.411.186-.885.28-1.42.28-.524 0-.997-.094-1.42-.28a3.113 3.113 0 0 1-1.085-.787c-.299-.337-.53-.736-.691-1.198a4.551 4.551 0 0 1-.243-1.516c0-.562.087-1.086.262-1.573.174-.487.42-.905.738-1.255a3.38 3.38 0 0 1 1.158-.823c.455-.2.963-.3 1.524-.3.56 0 1.07.091 1.532.272.46.181.85.44 1.168.777.317.337.563.742.738 1.217.174.474.262.998.262 1.572 0 .475-.07.952-.206 1.432M18.077 15.032c-.399 0-.745-.066-1.038-.197a2.039 2.039 0 0 1-.728-.533 2.307 2.307 0 0 1-.44-.786c-.1-.3-.149-.618-.149-.955V6.907h-1.158v-1.03h1.158V2.996h1.346v2.883h1.962v1.03h-1.962v5.616c0 .424.1.754.299.992.199.237.516.356.953.356h.71v1.16h-.953zM28.71 15.032V9.341c0-.811-.2-1.42-.598-1.825-.399-.406-.948-.609-1.645-.609-.697 0-1.255.206-1.672.618-.418.412-.626 1.017-.626 1.816v5.691h-1.346V1.702h1.346v5.13c.66-.749 1.52-1.123 2.579-1.123 1.046 0 1.859.306 2.438.917.58.612.87 1.442.87 2.49v5.916H28.71zM10.985 34.742a2.59 2.59 0 0 1-.766.88c-.33.243-.722.428-1.177.552a5.75 5.75 0 0 1-1.523.187c-.785 0-1.483-.1-2.093-.3a4.405 4.405 0 0 1-1.682-1.03l.897-.898c.362.387.785.662 1.271.824A4.971 4.971 0 0 0 7.5 35.2c.76 0 1.358-.133 1.794-.402.436-.268.654-.677.654-1.226 0-.4-.121-.711-.364-.936-.243-.224-.632-.362-1.168-.412l-1.514-.131c-.897-.075-1.58-.315-2.046-.721-.467-.405-.7-.989-.7-1.75 0-.424.083-.802.251-1.133.169-.33.402-.611.701-.842a3.27 3.27 0 0 1 1.075-.534 4.704 4.704 0 0 1 1.355-.187c.66 0 1.273.081 1.84.243a4.035 4.035 0 0 1 1.467.75l-.878.879a3.268 3.268 0 0 0-1.112-.552 4.866 4.866 0 0 0-1.336-.178c-.673 0-1.184.134-1.532.402-.35.269-.524.64-.524 1.114 0 .4.122.712.364.937.244.224.657.361 1.243.411l1.476.131c.399.038.767.106 1.104.206.335.1.622.25.859.45.236.2.42.448.55.748.132.3.197.662.197 1.086 0 .45-.09.846-.27 1.189M17.404 36.249c-.398 0-.744-.066-1.037-.197a2.039 2.039 0 0 1-.728-.533 2.305 2.305 0 0 1-.44-.787c-.1-.3-.149-.617-.149-.954v-5.654h-1.159v-1.03h1.159v-2.882h1.345v2.882h1.963v1.03h-1.963v5.617c0 .424.1.755.3.991.199.238.516.356.952.356h.71v1.16h-.953zM27.944 36.249v-1.03a3.184 3.184 0 0 1-1.146.852c-.44.193-.922.29-1.443.29-1.006 0-1.795-.287-2.366-.861a2.957 2.957 0 0 1-.708-1.132 4.435 4.435 0 0 1-.224-1.452V27.04h1.346v5.672c0 .823.198 1.438.596 1.844.396.405.942.608 1.637.608.695 0 1.25-.206 1.666-.618.415-.412.623-1.023.623-1.834V27.04h1.364v9.21h-1.345zM39.156 30.333a3.397 3.397 0 0 0-.316-1.123 1.978 1.978 0 0 0-.698-.787c-.304-.199-.704-.299-1.2-.299-.497 0-.897.1-1.2.3a1.98 1.98 0 0 0-.7.786c-.16.324-.269.7-.324 1.123-.057.424-.085.861-.085 1.31 0 .45.028.887.085 1.311.055.425.164.799.325 1.124.161.324.394.586.698.786.304.199.704.299 1.2.299.497 0 .897-.1 1.2-.299.305-.2.538-.462.699-.786.16-.325.267-.7.316-1.124.05-.424.074-.86.074-1.31 0-.45-.024-.887-.074-1.31zm.093 5.916v-1.105c-.372.487-.773.812-1.201.974a3.95 3.95 0 0 1-1.407.243c-.471 0-.9-.072-1.285-.215a2.598 2.598 0 0 1-.95-.59 2.916 2.916 0 0 1-.568-.805 4.767 4.767 0 0 1-.336-.964 7.381 7.381 0 0 1-.168-1.058 12.975 12.975 0 0 1 0-2.171 7.33 7.33 0 0 1 .17-1.058c.08-.343.192-.665.335-.964.144-.3.334-.568.57-.805.25-.25.567-.446.953-.59a3.677 3.677 0 0 1 1.29-.215c.51 0 .978.078 1.402.234.423.156.822.472 1.195.945l-.019-5.185h1.365v13.329H39.25zM50.742 30.501a4.95 4.95 0 0 0-.047-.374 2.758 2.758 0 0 0-.074-.327 3.882 3.882 0 0 0-.122-.347 2.15 2.15 0 0 0-.84-1.01 2.357 2.357 0 0 0-1.309-.375c-.486 0-.922.125-1.308.375-.386.249-.667.586-.84 1.01-.1.25-.169.474-.206.674-.038.2-.063.487-.075.861h4.858a21.04 21.04 0 0 0-.037-.487zM45.921 32c0 1.005.23 1.785.691 2.336.461.552 1.134.828 2.019.828.535 0 .98-.084 1.336-.252.355-.17.713-.434 1.074-.796l.916.805c-.237.238-.47.446-.7.623-.232.178-.478.327-.739.448-.261.12-.551.212-.87.275-.316.063-.669.095-1.055.095-.61 0-1.162-.093-1.654-.28a3.211 3.211 0 0 1-1.261-.862c-.349-.386-.62-.877-.813-1.47-.193-.592-.29-1.294-.29-2.106 0-1.497.337-2.658 1.01-3.481.673-.824 1.594-1.236 2.765-1.236 1.196 0 2.124.4 2.785 1.198.66.799.99 1.885.99 3.258v.617h-6.204zM61.992 36.249v-5.673c0-.823-.203-1.437-.607-1.843-.405-.405-.957-.609-1.654-.609-.698 0-1.252.206-1.663.618-.412.412-.617 1.023-.617 1.834v5.673h-1.346v-9.21h1.346v1.01a3.118 3.118 0 0 1 1.14-.842 3.61 3.61 0 0 1 1.439-.281c.996 0 1.781.287 2.355.861.635.624.952 1.48.952 2.565v5.897h-1.345zM70.308 36.249c-.4 0-.745-.066-1.038-.197a2.039 2.039 0 0 1-.728-.533 2.305 2.305 0 0 1-.44-.787c-.1-.3-.149-.617-.149-.954v-5.654h-1.158v-1.03h1.158v-2.882H69.3v2.882h1.962v1.03h-1.962v5.617c0 .424.1.755.298.991.2.238.517.356.954.356h.71v1.16h-.953z"/>
            <mask id="b" fill="#fff">
                <use xlink:href="#a"/>
            </mask>
            <path fill="#1A1654" d="M74.792 31.83h5.12v-1.254h-5.12zM89.798 30.858a5.245 5.245 0 0 0-.093-.768 3.23 3.23 0 0 0-.225-.702c-.1-.218-.23-.415-.392-.59-.448-.449-1.01-.674-1.682-.674-.66 0-1.215.225-1.663.674a1.88 1.88 0 0 0-.402.59 4.02 4.02 0 0 0-.224.702c-.056.25-.09.505-.103.768a16.99 16.99 0 0 0 0 1.571 4.432 4.432 0 0 0 .327 1.48c.094.224.227.418.402.58.448.45 1.003.674 1.663.674.673 0 1.234-.224 1.682-.673.162-.163.292-.357.392-.581.1-.225.174-.462.225-.712.05-.249.08-.505.093-.768a16.97 16.97 0 0 0 0-1.571m1.15 2.798a3.434 3.434 0 0 1-.906 1.657c-.325.325-.705.58-1.141.768-.436.187-.934.28-1.495.28-.56 0-1.06-.093-1.495-.28a3.593 3.593 0 0 1-1.14-.768 3.063 3.063 0 0 1-.57-.777 4.414 4.414 0 0 1-.336-.88 5.763 5.763 0 0 1-.168-.964 11.282 11.282 0 0 1 0-2.087c.03-.343.086-.668.168-.974.08-.305.193-.599.336-.88.143-.28.334-.54.57-.777.324-.324.704-.58 1.14-.768.436-.187.934-.28 1.495-.28.56 0 1.059.093 1.495.28a3.44 3.44 0 0 1 2.047 2.424c.143.632.214 1.302.214 2.014 0 .71-.071 1.382-.214 2.012M100.3 28.798c-.249-.25-.486-.424-.71-.524-.224-.1-.517-.15-.878-.15-.336 0-.642.063-.916.187-.274.125-.504.3-.691.524a2.528 2.528 0 0 0-.439.787c-.106.3-.16.624-.16.974v5.653h-1.345v-9.21h1.346v1.123c.249-.387.607-.69 1.075-.908a3.507 3.507 0 0 1 1.504-.328c.436 0 .832.062 1.186.187.355.125.695.35 1.02.674l-.992 1.01zM108.878 30.31a3.29 3.29 0 0 0-.318-1.107 2.037 2.037 0 0 0-.691-.779c-.3-.2-.698-.3-1.196-.3-.499 0-.9.1-1.206.3-.305.201-.539.46-.7.78a3.28 3.28 0 0 0-.318 1.107c-.05.42-.074.842-.074 1.267 0 .438.024.864.074 1.276.05.414.156.78.318 1.099.161.32.395.578.7.778.306.201.707.301 1.206.301.498 0 .897-.1 1.196-.3.299-.2.53-.46.691-.78a3.28 3.28 0 0 0 .318-1.098 10.709 10.709 0 0 0 0-2.543m1.158 7.8c-.174.48-.423.896-.747 1.246a3.4 3.4 0 0 1-1.205.823c-.48.2-1.019.3-1.617.3-.349 0-.66-.022-.934-.066a3.448 3.448 0 0 1-.776-.22 3.895 3.895 0 0 1-.71-.39 5.609 5.609 0 0 1-.7-.578l.878-.862c.162.15.32.281.476.394.156.112.318.208.486.29.168.08.352.14.551.178.2.037.43.056.692.056.449 0 .832-.075 1.15-.223.316-.148.578-.347.784-.593.206-.248.355-.542.448-.882.094-.34.14-.709.14-1.105V35.05c-.373.468-.772.781-1.195.94-.424.16-.885.24-1.383.24-.474 0-.9-.075-1.28-.224a2.72 2.72 0 0 1-.944-.6 3.334 3.334 0 0 1-.906-1.703 10.244 10.244 0 0 1-.215-2.135c0-.748.072-1.46.215-2.134a3.338 3.338 0 0 1 .906-1.703c.249-.25.567-.446.953-.59a3.677 3.677 0 0 1 1.29-.215c.51 0 .975.078 1.392.234.417.156.813.477 1.186.964v-1.085h1.327v9.491c0 .573-.087 1.1-.262 1.582M119.997 32h-2.579c-1.37 0-2.056.542-2.056 1.628 0 .537.169.933.505 1.189.337.256.872.384 1.607.384.399 0 .77-.032 1.112-.094.343-.062.657-.236.944-.525.31-.299.467-.829.467-1.59v-.993zm0 4.249v-.88c-.374.375-.757.634-1.15.777-.392.143-.893.215-1.504.215-.635 0-1.155-.065-1.56-.196a2.455 2.455 0 0 1-1.037-.646 2.22 2.22 0 0 1-.514-.833 3.053 3.053 0 0 1-.177-1.04c0-.81.27-1.457.813-1.937.541-.48 1.329-.72 2.363-.72h2.766v-.88c0-.674-.18-1.18-.542-1.517-.362-.337-.965-.505-1.813-.505-.598 0-1.065.078-1.401.234-.337.156-.642.428-.916.814l-.915-.842c.41-.537.869-.9 1.373-1.086.505-.187 1.13-.281 1.878-.281 1.246 0 2.171.26 2.775.776.604.519.907 1.283.907 2.294v6.253h-1.346zM131.62 36.249v-5.673c0-.823-.203-1.437-.607-1.843-.405-.405-.957-.609-1.654-.609-.698 0-1.252.206-1.663.618-.412.412-.617 1.023-.617 1.834v5.673h-1.345v-9.21h1.345v1.01a3.118 3.118 0 0 1 1.14-.842 3.61 3.61 0 0 1 1.439-.281c.997 0 1.781.287 2.355.861.635.624.952 1.48.952 2.565v5.897h-1.345zM137.357 36.249h1.345v-9.21h-1.345v9.21zm-.075-11.832h1.514V22.9h-1.514v1.517zM142.459 36.249v-1.16l5.12-6.853h-4.84V27.04h6.39v1.141l-5.138 6.87h5.139v1.199zM158.567 30.501a4.95 4.95 0 0 0-.047-.374 2.758 2.758 0 0 0-.074-.327 3.882 3.882 0 0 0-.122-.347 2.15 2.15 0 0 0-.84-1.01 2.357 2.357 0 0 0-1.309-.375c-.486 0-.922.125-1.308.375-.386.249-.667.586-.841 1.01-.1.25-.168.474-.205.674-.038.2-.063.487-.075.861h4.858a21.04 21.04 0 0 0-.037-.487zM153.746 32c0 1.005.23 1.785.691 2.336.461.552 1.134.828 2.018.828.536 0 .981-.084 1.337-.252.355-.17.712-.434 1.074-.796l.916.805c-.237.238-.47.446-.701.623-.23.178-.477.327-.738.448-.262.12-.551.212-.87.275-.316.063-.669.095-1.055.095-.61 0-1.162-.093-1.654-.28a3.211 3.211 0 0 1-1.261-.862c-.35-.386-.62-.877-.813-1.47-.193-.592-.29-1.294-.29-2.106 0-1.497.337-2.658 1.01-3.481.672-.824 1.594-1.236 2.765-1.236 1.196 0 2.124.4 2.785 1.198.66.799.99 1.885.99 3.258v.617h-6.204zM169.313 30.333a3.397 3.397 0 0 0-.317-1.123 1.978 1.978 0 0 0-.698-.787c-.304-.199-.704-.299-1.2-.299-.497 0-.897.1-1.2.3a1.98 1.98 0 0 0-.699.786c-.16.324-.27.7-.325 1.123-.056.424-.084.861-.084 1.31 0 .45.028.887.084 1.311.055.425.164.799.325 1.124.161.324.394.586.699.786.303.199.703.299 1.2.299.496 0 .896-.1 1.2-.299.304-.2.537-.462.698-.786.161-.325.267-.7.317-1.124.049-.424.074-.86.074-1.31 0-.45-.025-.887-.074-1.31zm.092 5.916v-1.105c-.372.487-.773.812-1.2.974a3.95 3.95 0 0 1-1.407.243c-.472 0-.9-.072-1.286-.215a2.598 2.598 0 0 1-.95-.59 2.916 2.916 0 0 1-.568-.805 4.767 4.767 0 0 1-.335-.964 7.381 7.381 0 0 1-.168-1.058 12.975 12.975 0 0 1 0-2.171 7.33 7.33 0 0 1 .169-1.058c.08-.343.192-.665.336-.964.143-.3.333-.568.57-.805.249-.25.566-.446.953-.59a3.677 3.677 0 0 1 1.29-.215c.51 0 .977.078 1.4.234.424.156.823.472 1.196.945l-.018-5.185h1.364v13.329h-1.346zM13.368 57.466h-1.252l-2.41-7.151-2.393 7.151H6.062l-2.916-9.21h1.458l2.111 7.394 2.411-7.395h1.159l2.43 7.395 2.092-7.395h1.457zM24.842 52.074a5.24 5.24 0 0 0-.093-.767 3.25 3.25 0 0 0-.225-.703c-.1-.217-.23-.414-.392-.589-.448-.45-1.01-.674-1.682-.674-.66 0-1.215.225-1.663.674a1.87 1.87 0 0 0-.402.59 4.05 4.05 0 0 0-.224.702 4.44 4.44 0 0 0-.103.767 17.01 17.01 0 0 0 0 1.573 4.427 4.427 0 0 0 .327 1.479c.094.225.227.418.402.58.448.45 1.003.674 1.663.674.673 0 1.234-.225 1.682-.674.162-.162.292-.355.392-.58.1-.225.174-.462.225-.712.05-.249.08-.505.093-.767a16.99 16.99 0 0 0 0-1.573m1.15 2.799a3.435 3.435 0 0 1-.906 1.657c-.325.325-.705.58-1.141.767-.436.187-.934.282-1.495.282-.56 0-1.06-.095-1.495-.282a3.591 3.591 0 0 1-1.14-.767 3.063 3.063 0 0 1-.57-.777 4.419 4.419 0 0 1-.336-.88 5.752 5.752 0 0 1-.168-.964 11.29 11.29 0 0 1 0-2.088 5.77 5.77 0 0 1 .168-.973c.08-.306.193-.599.336-.88a3.08 3.08 0 0 1 .57-.777c.324-.324.704-.58 1.14-.767.436-.187.934-.281 1.495-.281.56 0 1.059.094 1.495.28a3.62 3.62 0 0 1 1.14.768 3.44 3.44 0 0 1 .907 1.657c.143.63.214 1.3.214 2.013 0 .711-.071 1.382-.214 2.012M35.344 50.015c-.249-.25-.486-.424-.71-.524-.224-.1-.517-.15-.878-.15-.336 0-.642.062-.916.187-.274.126-.504.3-.691.525a2.53 2.53 0 0 0-.439.786c-.106.299-.16.624-.16.973v5.654h-1.345v-9.211h1.346v1.124c.249-.387.607-.69 1.075-.909a3.507 3.507 0 0 1 1.504-.327c.436 0 .832.063 1.186.187.355.125.695.35 1.02.674l-.992 1.011zM45.248 57.466l-2.914-4.718-1.795 2.06v2.658h-1.345v-13.33h1.345v8.912l4.149-4.793h1.681l-3.12 3.52 3.663 5.691zM56.694 55.959c-.18.343-.436.636-.766.88-.33.243-.722.427-1.177.552a5.79 5.79 0 0 1-1.523.187c-.785 0-1.483-.1-2.093-.3a4.412 4.412 0 0 1-1.682-1.03l.897-.898c.362.387.785.662 1.271.824a4.985 4.985 0 0 0 1.588.243c.76 0 1.358-.134 1.794-.402.436-.268.654-.677.654-1.226 0-.4-.12-.712-.364-.937-.243-.224-.632-.361-1.168-.412l-1.514-.13c-.897-.075-1.579-.315-2.046-.72-.467-.406-.7-.99-.7-1.751 0-.424.083-.802.251-1.133a2.48 2.48 0 0 1 .701-.843c.3-.23.657-.408 1.075-.533a4.72 4.72 0 0 1 1.355-.187c.66 0 1.273.08 1.84.244a4.027 4.027 0 0 1 1.467.748l-.878.88a3.261 3.261 0 0 0-1.111-.553 4.884 4.884 0 0 0-1.337-.177c-.673 0-1.184.134-1.532.402-.35.269-.524.64-.524 1.114 0 .4.122.711.365.936.243.225.656.363 1.242.412l1.477.132c.398.037.766.105 1.103.205.335.1.622.25.859.45.236.2.42.449.551.749.13.299.197.66.197 1.085 0 .449-.091.846-.272 1.189M66.608 57.466v-5.692c0-.81-.2-1.419-.598-1.824-.399-.406-.947-.609-1.645-.609-.697 0-1.255.206-1.672.617-.417.412-.626 1.018-.626 1.816v5.692H60.72v-13.33h1.346v5.13c.66-.749 1.52-1.124 2.579-1.124 1.046 0 1.86.307 2.439.918.579.612.868 1.442.868 2.49v5.916h-1.345zM78.007 52.074a5.24 5.24 0 0 0-.093-.767 3.25 3.25 0 0 0-.225-.703c-.1-.217-.23-.414-.392-.589-.448-.45-1.01-.674-1.682-.674-.66 0-1.215.225-1.663.674a1.87 1.87 0 0 0-.402.59 4.05 4.05 0 0 0-.224.702 4.44 4.44 0 0 0-.103.767 17.01 17.01 0 0 0 0 1.573 4.427 4.427 0 0 0 .327 1.479c.094.225.227.418.402.58.448.45 1.003.674 1.663.674.673 0 1.234-.225 1.682-.674.162-.162.292-.355.392-.58.1-.225.175-.462.225-.712.05-.249.08-.505.093-.767a16.99 16.99 0 0 0 0-1.573m1.15 2.799a3.435 3.435 0 0 1-.906 1.657c-.325.325-.705.58-1.141.767-.436.187-.934.282-1.495.282-.56 0-1.06-.095-1.495-.282a3.591 3.591 0 0 1-1.14-.767 3.063 3.063 0 0 1-.57-.777 4.419 4.419 0 0 1-.336-.88 5.752 5.752 0 0 1-.168-.964 11.29 11.29 0 0 1 0-2.088 5.77 5.77 0 0 1 .168-.973c.081-.306.193-.599.336-.88a3.08 3.08 0 0 1 .57-.777c.324-.324.704-.58 1.14-.767.436-.187.935-.281 1.495-.281s1.059.094 1.495.28a3.62 3.62 0 0 1 1.14.768 3.44 3.44 0 0 1 .907 1.657c.143.63.214 1.3.214 2.013 0 .711-.071 1.382-.214 2.012M89.257 51.55a3.37 3.37 0 0 0-.318-1.123 1.975 1.975 0 0 0-.701-.786c-.305-.2-.707-.3-1.205-.3-.499 0-.9.1-1.206.3-.305.2-.539.461-.7.786-.162.324-.271.699-.327 1.123-.056.424-.084.861-.084 1.31 0 .45.028.886.084 1.311.056.424.165.798.326 1.123.162.325.396.587.701.787.306.2.707.299 1.206.299.498 0 .9-.1 1.205-.3.305-.199.54-.461.7-.786.163-.325.27-.699.319-1.123.05-.425.074-.86.074-1.31 0-.45-.025-.887-.074-1.311m1.373 2.397a7.413 7.413 0 0 1-.168 1.057 4.77 4.77 0 0 1-.337.964c-.142.3-.333.568-.57.805-.249.25-.566.446-.952.59a3.689 3.689 0 0 1-1.29.216c-.511 0-.978-.082-1.401-.245-.424-.161-.823-.48-1.196-.954v5.205H83.37v-13.33h1.346v1.086c.373-.487.772-.808 1.196-.964.423-.156.89-.234 1.401-.234.474 0 .903.072 1.29.215.386.143.703.34.953.59.236.237.427.506.57.805.143.3.255.621.336.964.08.343.137.696.168 1.057a12.635 12.635 0 0 1 0 2.173M10.284 73.291a5.183 5.183 0 0 0-.093-.768 3.18 3.18 0 0 0-.224-.702c-.1-.217-.231-.414-.393-.59-.448-.448-1.009-.673-1.681-.673-.66 0-1.215.225-1.664.674a1.88 1.88 0 0 0-.402.59 4.02 4.02 0 0 0-.224.701c-.056.25-.09.506-.102.768a16.36 16.36 0 0 0 0 1.572 4.432 4.432 0 0 0 .326 1.48c.094.224.227.418.402.58.449.45 1.003.674 1.664.674.672 0 1.233-.225 1.681-.674.162-.162.293-.356.393-.58.1-.225.174-.462.224-.712.05-.25.081-.505.093-.768a16.97 16.97 0 0 0 0-1.572m1.15 2.799a3.426 3.426 0 0 1-.906 1.657c-.325.325-.704.58-1.14.767-.436.188-.935.281-1.495.281s-1.06-.093-1.496-.28a3.59 3.59 0 0 1-1.14-.768 3.063 3.063 0 0 1-.57-.777 4.358 4.358 0 0 1-.336-.88 5.81 5.81 0 0 1-.168-.964 11.45 11.45 0 0 1 0-2.087c.031-.343.087-.668.168-.974.081-.305.193-.599.337-.88.143-.28.333-.54.57-.777.323-.324.703-.58 1.14-.768.436-.187.934-.28 1.495-.28.56 0 1.059.093 1.495.28.436.188.815.444 1.14.768.46.475.762 1.027.906 1.657.143.63.215 1.301.215 2.013 0 .71-.072 1.382-.215 2.012M21.534 78.682V73.01c0-.824-.202-1.438-.607-1.844-.405-.405-.957-.608-1.654-.608-.698 0-1.252.206-1.663.618-.411.412-.617 1.023-.617 1.834v5.672h-1.345v-9.21h1.345v1.011a3.118 3.118 0 0 1 1.14-.843 3.61 3.61 0 0 1 1.44-.28c.996 0 1.78.287 2.354.86.635.625.953 1.48.953 2.566v5.896h-1.346zM10.509 99.9v-5.691c0-.811-.2-1.42-.598-1.826-.399-.405-.948-.608-1.645-.608-.697 0-1.255.206-1.672.618-.418.412-.626 1.017-.626 1.816v5.69H4.622V86.57h1.346v5.13c.66-.749 1.52-1.123 2.579-1.123 1.046 0 1.859.306 2.438.917.58.612.87 1.442.87 2.49V99.9h-1.346zM22.039 99.9v-1.03a3.184 3.184 0 0 1-1.146.852 3.55 3.55 0 0 1-1.444.29c-1.005 0-1.794-.287-2.365-.861a2.944 2.944 0 0 1-.708-1.133 4.42 4.42 0 0 1-.223-1.45v-5.879h1.344v5.673c0 .823.199 1.438.596 1.843.397.406.943.609 1.638.609s1.25-.206 1.666-.618c.416-.411.623-1.023.623-1.834v-5.673h1.364v9.21H22.04zM39.68 99.9v-5.673c0-.824-.203-1.438-.608-1.844-.405-.405-.956-.608-1.654-.608-.672 0-1.224.2-1.653.599-.43.4-.646.968-.646 1.704V99.9h-1.345v-5.673c0-.824-.202-1.438-.607-1.844-.405-.405-.956-.608-1.654-.608-.697 0-1.255.206-1.672.618-.418.412-.626 1.023-.626 1.834V99.9h-1.346v-9.21h1.346v1.01a3.097 3.097 0 0 1 1.149-.842 3.678 3.678 0 0 1 1.448-.281c.636 0 1.193.128 1.673.384.479.256.862.64 1.149 1.151.722-1.023 1.731-1.535 3.027-1.535.499 0 .947.075 1.346.225.399.15.74.362 1.028.636.66.637.99 1.492.99 2.565V99.9H39.68zM50.63 95.65h-2.578c-1.371 0-2.056.543-2.056 1.629 0 .536.168.933.504 1.188.337.256.872.384 1.608.384.398 0 .768-.031 1.112-.093.342-.062.656-.237.943-.524.311-.3.467-.83.467-1.591v-.992zm0 4.25v-.88c-.374.375-.757.633-1.149.777-.393.143-.894.215-1.505.215-.635 0-1.155-.065-1.56-.196a2.464 2.464 0 0 1-1.037-.646 2.22 2.22 0 0 1-.514-.833 3.054 3.054 0 0 1-.177-1.04c0-.81.27-1.457.813-1.937.541-.48 1.329-.72 2.363-.72h2.766v-.88c0-.674-.18-1.18-.542-1.517-.361-.337-.965-.506-1.812-.506-.598 0-1.066.079-1.402.235-.336.156-.642.427-.916.814l-.915-.842c.41-.537.869-.9 1.373-1.086.505-.187 1.13-.281 1.878-.281 1.246 0 2.171.259 2.775.777.604.518.907 1.282.907 2.293V99.9H50.63zM62.254 99.9v-5.673c0-.824-.203-1.438-.608-1.844-.405-.405-.956-.608-1.654-.608s-1.251.206-1.663.618c-.411.412-.617 1.023-.617 1.834V99.9h-1.345v-9.21h1.345v1.01a3.12 3.12 0 0 1 1.14-.842 3.613 3.613 0 0 1 1.44-.281c.996 0 1.78.287 2.354.86.635.625.953 1.48.953 2.566V99.9h-1.345zM67.729 95.482h5.12v-1.255h-5.12zM82.277 99.713c-.455.2-1 .3-1.636.3a4.376 4.376 0 0 1-1.616-.291 3.504 3.504 0 0 1-1.29-.88c-.367-.393-.653-.886-.859-1.479-.205-.593-.308-1.282-.308-2.069 0-.786.103-1.472.308-2.059.206-.586.492-1.076.86-1.47.367-.393.797-.69 1.29-.889.491-.199 1.03-.3 1.615-.3.636 0 1.18.101 1.636.3.455.2.919.556 1.392 1.068l-.916.86c-.349-.386-.679-.655-.99-.804-.312-.15-.685-.225-1.122-.225-.448 0-.853.088-1.214.262a2.396 2.396 0 0 0-.915.787c-.213.299-.365.639-.459 1.02-.093.38-.14.864-.14 1.45 0 .588.047 1.07.14 1.451.094.381.246.721.459 1.02.249.35.553.612.915.787.361.175.766.262 1.214.262.437 0 .81-.078 1.122-.234.311-.156.641-.428.99-.814l.916.88c-.473.511-.937.867-1.392 1.067M92.732 94.508a5.253 5.253 0 0 0-.093-.768 3.246 3.246 0 0 0-.225-.702c-.1-.217-.23-.414-.392-.589-.449-.45-1.01-.674-1.682-.674-.66 0-1.215.225-1.663.674a1.877 1.877 0 0 0-.402.59 4.045 4.045 0 0 0-.224.701 4.45 4.45 0 0 0-.103.768 16.99 16.99 0 0 0 0 1.573 4.427 4.427 0 0 0 .327 1.478c.093.225.227.419.402.581.448.45 1.002.674 1.663.674.673 0 1.233-.225 1.682-.674.161-.162.292-.356.392-.58.1-.225.174-.462.225-.712.05-.25.08-.505.093-.767a16.99 16.99 0 0 0 0-1.573m1.15 2.799a3.434 3.434 0 0 1-.907 1.656 3.59 3.59 0 0 1-1.14.768c-.436.187-.934.281-1.495.281-.56 0-1.06-.094-1.495-.28a3.585 3.585 0 0 1-1.14-.769 3.061 3.061 0 0 1-.57-.776 4.43 4.43 0 0 1-.337-.88 5.749 5.749 0 0 1-.167-.964 11.28 11.28 0 0 1 0-2.087c.03-.344.086-.668.167-.974.082-.305.194-.6.337-.88.143-.28.333-.54.57-.777.324-.324.704-.58 1.14-.767.436-.187.934-.281 1.495-.281.56 0 1.059.094 1.495.28a3.62 3.62 0 0 1 1.14.768c.46.475.763 1.027.906 1.657.143.63.215 1.301.215 2.012a9.08 9.08 0 0 1-.215 2.013M109.905 99.9v-5.673c0-.824-.202-1.438-.607-1.844-.405-.405-.956-.608-1.654-.608-.672 0-1.224.2-1.654.599-.43.4-.644.968-.644 1.704V99.9H104v-5.673c0-.824-.203-1.438-.608-1.844-.405-.405-.956-.608-1.654-.608s-1.255.206-1.672.618c-.418.412-.626 1.023-.626 1.834V99.9h-1.346v-9.21h1.346v1.01a3.099 3.099 0 0 1 1.149-.842 3.678 3.678 0 0 1 1.448-.281c.635 0 1.193.128 1.672.384.48.256.863.64 1.15 1.151.722-1.023 1.731-1.535 3.028-1.535.497 0 .946.075 1.345.225.398.15.74.362 1.028.636.66.637.99 1.492.99 2.565V99.9h-1.346zM121.529 93.984a3.37 3.37 0 0 0-.318-1.123 1.982 1.982 0 0 0-.7-.787c-.306-.199-.707-.3-1.206-.3-.498 0-.9.101-1.205.3-.305.2-.54.463-.701.787-.162.324-.27.699-.327 1.123-.056.424-.084.861-.084 1.31 0 .45.028.887.084 1.31.056.426.165.8.327 1.124.162.325.396.587.7.787.306.2.708.299 1.206.299.499 0 .9-.1 1.205-.3.306-.199.54-.461.701-.786.162-.324.269-.698.318-1.123.05-.424.075-.861.075-1.31 0-.45-.025-.887-.075-1.311m1.373 2.396a7.402 7.402 0 0 1-.168 1.058 4.765 4.765 0 0 1-.336.964 2.92 2.92 0 0 1-.57.805c-.25.25-.567.446-.953.59a3.689 3.689 0 0 1-1.29.215c-.51 0-.977-.081-1.4-.243-.424-.163-.823-.48-1.197-.955v5.205h-1.345v-13.33h1.345v1.086c.374-.487.773-.808 1.196-.964a4.02 4.02 0 0 1 1.402-.234c.473 0 .902.071 1.289.215.386.144.704.34.953.59.236.237.427.505.57.805.143.3.255.62.336.964.081.343.137.696.168 1.057a12.617 12.617 0 0 1 0 2.172M132.741 99.9v-1.03a3.182 3.182 0 0 1-1.145.852c-.44.193-.923.29-1.444.29-1.006 0-1.795-.287-2.366-.861a2.95 2.95 0 0 1-.708-1.133 4.432 4.432 0 0 1-.223-1.45v-5.879h1.346v5.673c0 .823.198 1.438.595 1.843.397.406.943.609 1.638.609s1.25-.206 1.666-.618c.415-.411.623-1.023.623-1.834v-5.673h1.364v9.21h-1.346zM141.15 99.9c-.398 0-.744-.066-1.037-.197a2.045 2.045 0 0 1-.728-.533 2.305 2.305 0 0 1-.44-.786c-.1-.3-.149-.618-.149-.955v-5.654h-1.158v-1.03h1.158v-2.882h1.346v2.882h1.962v1.03h-1.962v5.617c0 .423.1.755.299.992.199.237.516.355.953.355h.71v1.16h-.953zM151.41 94.152a4.964 4.964 0 0 0-.047-.374 2.779 2.779 0 0 0-.075-.328 3.934 3.934 0 0 0-.121-.346 2.154 2.154 0 0 0-.84-1.01 2.357 2.357 0 0 0-1.309-.375c-.486 0-.922.125-1.308.374-.387.25-.667.587-.841 1.01-.1.251-.168.476-.206.675-.037.2-.062.487-.074.861h4.858c-.012-.187-.025-.349-.037-.487zm-4.821 1.498c0 1.006.23 1.784.691 2.336.46.552 1.134.828 2.018.828.536 0 .981-.084 1.336-.253.356-.169.713-.433 1.075-.795l.916.805c-.237.238-.47.446-.701.624-.23.177-.477.326-.738.446-.262.12-.552.213-.87.276-.317.063-.669.095-1.056.095-.61 0-1.161-.093-1.653-.28a3.215 3.215 0 0 1-1.262-.862c-.348-.386-.62-.876-.812-1.47-.194-.592-.29-1.294-.29-2.106 0-1.497.336-2.658 1.01-3.482.672-.823 1.594-1.235 2.765-1.235 1.196 0 2.124.4 2.784 1.198.66.8.991 1.885.991 3.257v.618h-6.204zM161.912 92.449c-.249-.25-.486-.424-.71-.524-.224-.1-.517-.15-.878-.15a2.19 2.19 0 0 0-.916.187c-.274.125-.504.3-.692.524a2.537 2.537 0 0 0-.438.787c-.106.3-.16.624-.16.973V99.9h-1.345v-9.21h1.346v1.122c.249-.386.607-.689 1.074-.908a3.505 3.505 0 0 1 1.504-.327c.436 0 .832.062 1.187.187.355.125.695.35 1.019.674l-.99 1.011zM4.622 121.117h1.346v-9.21H4.622v9.21zm-.074-11.832H6.06v-1.516H4.548v1.516zM16.358 121.117v-5.673c0-.823-.203-1.438-.608-1.843-.405-.406-.956-.609-1.653-.609-.698 0-1.252.206-1.663.618-.412.412-.617 1.023-.617 1.834v5.673h-1.345v-9.21h1.345v1.01a3.122 3.122 0 0 1 1.14-.842 3.613 3.613 0 0 1 1.439-.281c.997 0 1.78.287 2.354.861.635.624.953 1.479.953 2.565v5.897h-1.345zM24.674 121.117c-.4 0-.745-.066-1.038-.197a2.04 2.04 0 0 1-.728-.534 2.315 2.315 0 0 1-.44-.785c-.1-.3-.15-.618-.15-.955v-5.654h-1.157v-1.03h1.158v-2.883h1.345v2.883h1.962v1.03h-1.962v5.616c0 .425.1.755.3.993.198.237.516.355.953.355h.71v1.16h-.953zM34.933 115.37a5.154 5.154 0 0 0-.047-.375 2.765 2.765 0 0 0-.075-.328 3.722 3.722 0 0 0-.121-.346 2.154 2.154 0 0 0-.841-1.01 2.356 2.356 0 0 0-1.308-.375c-.486 0-.923.124-1.308.374-.387.25-.667.587-.842 1.011-.1.25-.168.474-.205.674-.037.2-.063.487-.075.861h4.86c-.013-.187-.026-.35-.038-.487zm-4.822 1.497c0 1.005.23 1.784.692 2.335.46.553 1.133.83 2.018.83.536 0 .981-.085 1.336-.254.355-.168.713-.433 1.075-.795l.916.804c-.237.239-.471.447-.701.624a3.835 3.835 0 0 1-.738.448c-.262.12-.552.211-.87.275-.317.063-.669.095-1.056.095-.61 0-1.161-.094-1.653-.28a3.204 3.204 0 0 1-1.262-.862c-.349-.386-.62-.877-.813-1.47-.193-.592-.29-1.294-.29-2.106 0-1.498.337-2.658 1.01-3.481.673-.824 1.594-1.237 2.766-1.237 1.195 0 2.124.4 2.784 1.2.66.797.99 1.883.99 3.257v.617h-6.204zM45.435 113.666c-.25-.25-.486-.424-.71-.524-.224-.1-.517-.15-.878-.15-.337 0-.642.062-.916.187s-.504.3-.692.524a2.53 2.53 0 0 0-.438.786c-.107.3-.16.625-.16.974v5.654h-1.345v-9.211h1.345v1.124c.25-.387.608-.69 1.075-.908a3.507 3.507 0 0 1 1.504-.328c.436 0 .832.062 1.187.187.355.125.695.35 1.019.674l-.991 1.01zM54.311 116.867h-2.579c-1.37 0-2.055.543-2.055 1.628 0 .538.168.934.504 1.19.337.256.872.384 1.607.384a6.19 6.19 0 0 0 1.113-.094c.342-.062.656-.237.943-.525.311-.299.467-.83.467-1.59v-.993zm0 4.25v-.88c-.374.374-.756.634-1.15.777-.392.143-.893.215-1.504.215-.635 0-1.155-.065-1.56-.197a2.444 2.444 0 0 1-1.037-.646 2.208 2.208 0 0 1-.514-.833 3.053 3.053 0 0 1-.177-1.038c0-.811.271-1.458.813-1.938.542-.48 1.33-.72 2.364-.72h2.765v-.88c0-.675-.18-1.18-.542-1.517-.361-.337-.965-.505-1.812-.505-.598 0-1.065.077-1.402.234-.337.156-.642.427-.915.814l-.916-.843c.411-.536.869-.898 1.374-1.085.504-.187 1.13-.281 1.877-.281 1.246 0 2.171.26 2.775.776.604.52.907 1.283.907 2.294v6.253H54.31zM65.253 120.93c-.456.2-1 .3-1.636.3a4.386 4.386 0 0 1-1.616-.29 3.511 3.511 0 0 1-1.29-.88c-.367-.394-.653-.887-.859-1.48-.206-.592-.308-1.283-.308-2.068 0-.787.102-1.473.308-2.06.206-.587.492-1.076.86-1.47.367-.393.796-.689 1.289-.889.492-.2 1.03-.3 1.616-.3.636 0 1.18.1 1.636.3.454.2.918.556 1.392 1.067l-.916.861c-.349-.386-.68-.655-.99-.804-.312-.15-.685-.225-1.122-.225a2.75 2.75 0 0 0-1.214.262 2.387 2.387 0 0 0-.916.787c-.212.298-.365.64-.458 1.02-.093.38-.14.864-.14 1.45 0 .587.047 1.07.14 1.451.093.381.246.72.458 1.02.25.35.554.613.916.787.36.175.766.262 1.214.262.437 0 .81-.078 1.122-.234.31-.156.641-.427.99-.814l.916.88c-.474.511-.938.867-1.392 1.066M72.904 121.117c-.398 0-.744-.066-1.037-.197a2.033 2.033 0 0 1-.728-.534 2.307 2.307 0 0 1-.44-.785 3 3 0 0 1-.149-.955v-5.654h-1.159v-1.03h1.16v-2.883h1.345v2.883h1.962v1.03h-1.962v5.616c0 .425.099.755.298.993.2.237.517.355.954.355h.71v1.16h-.954zM77.65 121.117h1.346v-9.21h-1.345v9.21zm-.074-11.832h1.514v-1.516h-1.514v1.516zM89.162 115.725a5.231 5.231 0 0 0-.093-.767 3.234 3.234 0 0 0-.225-.703c-.1-.218-.23-.414-.392-.589-.448-.449-1.01-.674-1.682-.674-.66 0-1.215.225-1.663.674a1.872 1.872 0 0 0-.402.59 4.025 4.025 0 0 0-.224.702c-.056.25-.09.505-.103.767a17.01 17.01 0 0 0 0 1.573 4.432 4.432 0 0 0 .327 1.479c.094.224.227.418.402.58.448.45 1.003.674 1.663.674.673 0 1.234-.224 1.682-.674a1.92 1.92 0 0 0 .392-.58c.1-.225.175-.462.225-.712.05-.249.08-.505.093-.767a16.97 16.97 0 0 0 0-1.573m1.15 2.799a3.435 3.435 0 0 1-.906 1.657c-.325.324-.705.58-1.141.767-.436.187-.934.281-1.495.281-.56 0-1.06-.094-1.495-.28a3.6 3.6 0 0 1-1.14-.768 3.066 3.066 0 0 1-.57-.778 4.404 4.404 0 0 1-.336-.88 5.766 5.766 0 0 1-.168-.963 11.292 11.292 0 0 1 0-2.088c.03-.342.086-.667.168-.973.081-.305.193-.599.336-.88.143-.28.334-.54.57-.777.324-.324.704-.58 1.14-.768.436-.187.935-.28 1.495-.28s1.059.093 1.495.28c.436.188.816.444 1.14.768.46.475.763 1.027.907 1.657.143.63.214 1.301.214 2.013 0 .71-.071 1.382-.214 2.012M100.412 121.117v-5.673c0-.823-.203-1.438-.608-1.843-.404-.406-.956-.609-1.653-.609-.698 0-1.252.206-1.663.618-.411.412-.617 1.023-.617 1.834v5.673h-1.345v-9.21h1.345v1.01a3.122 3.122 0 0 1 1.14-.842 3.613 3.613 0 0 1 1.439-.281c.997 0 1.781.287 2.354.861.636.624.954 1.479.954 2.565v5.897h-1.346z" mask="url(#b)"/>
        </g>
    </g>
</svg>
