<svg xmlns="http://www.w3.org/2000/svg" xmlns:xlink="http://www.w3.org/1999/xlink" viewBox="0 0 271.52 195.55"><defs><style>.cls-1{fill:#fff;}.cls-2{fill:#50e6b4;}.cls-3{fill:#1a1654;}.cls-4{mask:url(#mask);}.cls-5{mask:url(#mask-2);}</style><mask id="mask" x="0" y="-0.29" width="177.09" height="123.71" maskUnits="userSpaceOnUse"><g id="b"><path id="a" class="cls-1" d="M0,123.42H177.09V-.29H0Z"/></g></mask><mask id="mask-2" x="252.31" y="176.3" width="19.22" height="19.24" maskUnits="userSpaceOnUse"><g id="b-2" data-name="b"><path id="a-2" data-name="a" class="cls-1" d="M252.31,176.3h19.21v19.24H252.31Z"/></g></mask></defs><title>資產 1</title><g id="圖層_2" data-name="圖層 2"><g id="圖層_1-2" data-name="圖層 1"><path class="cls-2" d="M0,0V123.71h106.1V104.14h68.34v-22H31v-19h72.12V41.79h74V19.49H38.47V5.54h17.1V0Z"/><path class="cls-3" d="M4.67,2.79c-1.43,0-2.35,1.07-2.35,2.71,0,1.48.81,2.71,2.35,2.71S7,7.15,7,5.5A2.4,2.4,0,0,0,4.67,2.79M7.55,8.45,4.26,15.1H2.84l3-6A3.51,3.51,0,0,1,1,5.55a3.66,3.66,0,0,1,3.71-4A3.57,3.57,0,0,1,8.4,5.44a6.55,6.55,0,0,1-.85,3m7.5,6.65a2.27,2.27,0,0,1-2.38-2.48V6.93H11.51v-1h1.16V3H14v2.9h2v1H14v5.65c0,.84.39,1.35,1.26,1.35H16V15.1Zm10.71,0V9.38A2.14,2.14,0,0,0,23.5,6.93a2.19,2.19,0,0,0-2.32,2.45V15.1H19.83V1.69h1.35V6.85a3.33,3.33,0,0,1,2.6-1.13,3.14,3.14,0,0,1,3.34,3.43V15.1ZM4.41,36.56A5.11,5.11,0,0,1,.6,35.22l.91-.9a3.78,3.78,0,0,0,2.88,1.07c1.52,0,2.46-.55,2.46-1.64,0-.81-.47-1.26-1.54-1.35l-1.53-.14C2,32.11,1,31.3,1,29.78c0-1.7,1.43-2.71,3.41-2.71a5.24,5.24,0,0,1,3.33,1L6.87,29a3.92,3.92,0,0,0-2.46-.73c-1.36,0-2.07.58-2.07,1.52S2.79,31,4,31.1l1.49.13c1.62.15,2.73.77,2.73,2.5s-1.52,2.83-3.76,2.83m10-.12A2.27,2.27,0,0,1,12,34V28.27H10.83v-1H12v-2.9h1.35v2.9h2v1h-2v5.65c0,.85.4,1.36,1.26,1.36h.72v1.16Zm10.64,0v-1a3.41,3.41,0,0,1-2.62,1.15A3.26,3.26,0,0,1,20,35.69a3.44,3.44,0,0,1-.94-2.6V27.18h1.35v5.7c0,1.64.87,2.47,2.26,2.47A2.19,2.19,0,0,0,25,32.88v-5.7h1.36v9.26Zm9.06-8.17c-2,0-2.34,1.73-2.34,3.54s.32,3.54,2.34,3.54,2.31-1.73,2.31-3.54S36.08,28.27,34.07,28.27Zm2.33,8.17V35.33a3,3,0,0,1-2.64,1.23,3.23,3.23,0,0,1-2.26-.81c-.94-.94-1.12-2.49-1.12-3.94a5.48,5.48,0,0,1,1.13-3.93,3.21,3.21,0,0,1,2.26-.81,3,3,0,0,1,2.61,1.18V23h1.36v13.4Zm11.32-6.83a2.37,2.37,0,0,0-4.33,0,3.72,3.72,0,0,0-.28,1.54H48A3.89,3.89,0,0,0,47.72,29.61Zm-4.61,2.56c0,2,1,3.2,2.73,3.2a3.07,3.07,0,0,0,2.43-1l.92.81a4.25,4.25,0,0,1-3.39,1.43c-2.45,0-4-1.47-4-4.75,0-3,1.45-4.74,3.8-4.74s3.81,1.73,3.81,4.48v.62ZM59.3,36.44v-5.7a2.29,2.29,0,1,0-4.57,0v5.7H53.37V27.18h1.36v1a3.62,3.62,0,0,1,5-.27,3.42,3.42,0,0,1,1,2.58v5.93Zm8.38,0A2.27,2.27,0,0,1,65.31,34V28.27H64.14v-1h1.17v-2.9h1.36v2.9h2v1h-2v5.65c0,.85.39,1.36,1.26,1.36h.71v1.16Z"/><g class="cls-4"><path class="cls-3" d="M72.2,32h5.16V30.74H72.2ZM86.61,29a2.38,2.38,0,0,0-1.7-.68,2.32,2.32,0,0,0-1.67.68,4,4,0,0,0-.76,2.86,4,4,0,0,0,.76,2.86,2.29,2.29,0,0,0,1.67.68,2.37,2.37,0,0,0,1.7-.68,4,4,0,0,0,.73-2.86A4,4,0,0,0,86.61,29m1,6.55a3.86,3.86,0,0,1-5.31,0,5,5,0,0,1-1.13-3.69,5,5,0,0,1,1.13-3.69,3.88,3.88,0,0,1,5.31,0,5,5,0,0,1,1.13,3.69,5,5,0,0,1-1.13,3.69M97.91,29a1.94,1.94,0,0,0-1.6-.68,2.27,2.27,0,0,0-2.23,2.49v5.68H92.73V27.18h1.35v1.13a3.12,3.12,0,0,1,2.6-1.24,2.82,2.82,0,0,1,2.22.86Zm6.42-.68c-2,0-2.32,1.73-2.32,3.47s.3,3.46,2.32,3.46,2.29-1.73,2.29-3.46-.28-3.47-2.29-3.47m-.21,12.43A4.1,4.1,0,0,1,101,39.46l.88-.87a2.86,2.86,0,0,0,2.22.92c1.79,0,2.55-1.26,2.55-2.84V35.22a3,3,0,0,1-2.6,1.21,3.19,3.19,0,0,1-2.24-.83,5.31,5.31,0,0,1-1.13-3.86,5.28,5.28,0,0,1,1.13-3.86,3.21,3.21,0,0,1,2.26-.81,2.9,2.9,0,0,1,2.59,1.2V27.18H108v9.55a3.69,3.69,0,0,1-3.86,4m13.64-8.53h-2.6c-1.4,0-2.07.56-2.07,1.64s.65,1.58,2.12,1.58a2.72,2.72,0,0,0,2.07-.62,2.14,2.14,0,0,0,.48-1.6Zm0,4.27v-.88a3.29,3.29,0,0,1-2.68,1,3.33,3.33,0,0,1-2.62-.85,2.67,2.67,0,0,1-.69-1.88c0-1.62,1.13-2.68,3.2-2.68h2.79v-.88c0-1.36-.68-2-2.38-2a2.43,2.43,0,0,0-2.33,1.05l-.93-.85a3.6,3.6,0,0,1,3.28-1.37c2.49,0,3.71,1.07,3.71,3.09v6.28Zm11.71,0v-5.7a2.16,2.16,0,0,0-2.28-2.47,2.18,2.18,0,0,0-2.3,2.47v5.7h-1.35V27.18h1.35v1a3.33,3.33,0,0,1,2.6-1.13,3.25,3.25,0,0,1,2.37.86,3.42,3.42,0,0,1,1,2.58v5.93Zm5.78,0h1.36V27.18h-1.36Zm-.07-11.9h1.52V23h-1.52Zm5.21,11.9V35.28l5.16-6.9h-4.87v-1.2h6.44v1.15l-5.18,6.91h5.18v1.2Zm16-6.83a2.37,2.37,0,0,0-4.33,0,3.89,3.89,0,0,0-.28,1.54h4.89a3.72,3.72,0,0,0-.28-1.54Zm-4.61,2.56c0,2,1,3.2,2.73,3.2a3.07,3.07,0,0,0,2.43-1l.92.81a4.25,4.25,0,0,1-3.39,1.43c-2.45,0-4.05-1.47-4.05-4.75,0-3,1.45-4.74,3.8-4.74S158,28.8,158,31.55v.62Zm13.46-3.9c-2,0-2.33,1.73-2.33,3.54s.32,3.54,2.33,3.54,2.32-1.73,2.32-3.54-.31-3.54-2.32-3.54Zm2.34,8.17V35.33a3,3,0,0,1-2.64,1.23,3.23,3.23,0,0,1-2.26-.81,5.55,5.55,0,0,1-1.13-3.94,5.52,5.52,0,0,1,1.13-3.93,3.23,3.23,0,0,1,2.26-.81,3,3,0,0,1,2.62,1.18V23h1.35v13.4ZM10.3,57.79H9l-2.43-7.2L4.2,57.79H2.94L0,48.52H1.47L3.6,56,6,48.52H7.19L9.64,56l2.11-7.44h1.47Zm10.85-7.5a2.42,2.42,0,0,0-1.7-.68,2.32,2.32,0,0,0-1.67.68A4.05,4.05,0,0,0,17,53.16,4,4,0,0,0,17.78,56a2.37,2.37,0,0,0,1.67.68,2.4,2.4,0,0,0,1.7-.68,4,4,0,0,0,.73-2.86,4,4,0,0,0-.73-2.87m1,6.56a3.88,3.88,0,0,1-5.31,0,5,5,0,0,1-1.13-3.69,5,5,0,0,1,1.13-3.7,3.88,3.88,0,0,1,5.31,0,5,5,0,0,1,1.13,3.7,5,5,0,0,1-1.13,3.69m10.34-6.56a2,2,0,0,0-1.6-.68,2.27,2.27,0,0,0-2.23,2.49v5.69H27.27V48.52h1.36v1.13a3.09,3.09,0,0,1,2.59-1.24,2.87,2.87,0,0,1,2.23.87l-1,1Zm10,7.5L39.49,53l-1.81,2.07v2.68H36.33V44.38h1.35v9l4.18-4.82h1.7l-3.15,3.54,3.69,5.73Zm8,.11a5.09,5.09,0,0,1-3.8-1.34l.9-.9a3.8,3.8,0,0,0,2.88,1.07c1.53,0,2.47-.54,2.47-1.64,0-.81-.47-1.26-1.55-1.35l-1.52-.13c-1.81-.15-2.77-1-2.77-2.49,0-1.69,1.43-2.71,3.41-2.71a5.22,5.22,0,0,1,3.33,1l-.88.88a4,4,0,0,0-2.47-.73c-1.35,0-2.07.58-2.07,1.52s.45,1.26,1.62,1.36l1.49.13c1.61.15,2.73.77,2.73,2.51s-1.53,2.82-3.77,2.82M64,57.79V52.06a2.14,2.14,0,0,0-2.26-2.45,2.19,2.19,0,0,0-2.31,2.45v5.73H58V44.38h1.36v5.16A3.31,3.31,0,0,1,62,48.41a3.13,3.13,0,0,1,3.33,3.43v5.95Zm10.78-7.5a2.46,2.46,0,0,0-1.7-.68,2.32,2.32,0,0,0-1.67.68,4.05,4.05,0,0,0-.76,2.87A4,4,0,0,0,71.36,56,2.35,2.35,0,0,0,73,56.7a2.41,2.41,0,0,0,1.7-.68,4.08,4.08,0,0,0,.73-2.86,4.09,4.09,0,0,0-.73-2.87m1,6.56a3.88,3.88,0,0,1-5.31,0,4.94,4.94,0,0,1-1.13-3.69,5,5,0,0,1,1.13-3.7,3.88,3.88,0,0,1,5.31,0,5,5,0,0,1,1.13,3.7,5,5,0,0,1-1.13,3.69m8.85-7.24c-2,0-2.34,1.74-2.34,3.55s.32,3.54,2.34,3.54,2.31-1.74,2.31-3.54-.3-3.55-2.31-3.55m2.54,7.48a3.23,3.23,0,0,1-2.26.81,3,3,0,0,1-2.62-1.21v5.24H80.85V48.52H82.2v1.09a3,3,0,0,1,2.62-1.2,3.23,3.23,0,0,1,2.26.81,5.54,5.54,0,0,1,1.13,3.94,5.52,5.52,0,0,1-1.13,3.93M6.48,71.64A2.34,2.34,0,0,0,4.78,71a2.28,2.28,0,0,0-1.67.68,4,4,0,0,0-.76,2.86,4,4,0,0,0,.76,2.86A2.31,2.31,0,0,0,4.78,78a2.4,2.4,0,0,0,1.7-.68,4,4,0,0,0,.73-2.86,4,4,0,0,0-.73-2.86m1,6.55a3.65,3.65,0,0,1-2.66,1,3.63,3.63,0,0,1-2.65-1A5,5,0,0,1,1,74.5a5,5,0,0,1,1.13-3.69,3.63,3.63,0,0,1,2.65-1.06,3.66,3.66,0,0,1,2.66,1.06A5,5,0,0,1,8.57,74.5a5,5,0,0,1-1.13,3.69m11.09.94V73.42A2.15,2.15,0,0,0,16.25,71,2.18,2.18,0,0,0,14,73.42v5.71H12.6V69.87H14v1a3.36,3.36,0,0,1,2.6-1.13,3.29,3.29,0,0,1,2.38.87,3.46,3.46,0,0,1,1,2.58v5.93ZM7.42,100.47V94.75A2.14,2.14,0,0,0,5.16,92.3a2.19,2.19,0,0,0-2.32,2.45v5.72H1.49V87.07H2.84v5.16a3.29,3.29,0,0,1,2.6-1.13,3.12,3.12,0,0,1,3.33,3.42v6Zm11.64,0v-1a3.42,3.42,0,0,1-2.62,1.15,3.26,3.26,0,0,1-2.39-.87,3.44,3.44,0,0,1-.94-2.6V91.21h1.35v5.71a2.14,2.14,0,0,0,2.26,2.46A2.19,2.19,0,0,0,19,96.92V91.21h1.35v9.26Zm17.75,0v-5.7a2.3,2.3,0,1,0-4.59-.15v5.85H30.87v-5.7a2.16,2.16,0,0,0-2.28-2.47,2.19,2.19,0,0,0-2.32,2.47v5.7H24.92V91.21h1.35v1a3.36,3.36,0,0,1,2.62-1.13,3,3,0,0,1,2.84,1.54,3.54,3.54,0,0,1,3.05-1.54,3.38,3.38,0,0,1,2.39.86,3.45,3.45,0,0,1,1,2.58v5.93H36.81Zm11-4.27h-2.6c-1.39,0-2.07.56-2.07,1.64s.66,1.58,2.13,1.58a2.72,2.72,0,0,0,2.07-.62,2.14,2.14,0,0,0,.47-1.6Zm0,4.27v-.88a3.26,3.26,0,0,1-2.67,1,3.31,3.31,0,0,1-2.62-.85,2.68,2.68,0,0,1-.7-1.88c0-1.62,1.13-2.68,3.2-2.68h2.79V94.3c0-1.36-.68-2-2.37-2a2.45,2.45,0,0,0-2.34,1.06l-.92-.85A3.6,3.6,0,0,1,45.5,91.1c2.48,0,3.71,1.07,3.71,3.08v6.29Zm11.71,0v-5.7a2.15,2.15,0,0,0-2.27-2.47A2.18,2.18,0,0,0,55,94.77v5.7H53.63V91.21H55v1a3.32,3.32,0,0,1,2.6-1.13A3.26,3.26,0,0,1,60,92a3.42,3.42,0,0,1,1,2.58v5.93ZM65.08,96h5.16V94.77H65.08Zm13,4.56C75.76,100.59,74,99,74,95.84s1.77-4.74,4.11-4.74a3.68,3.68,0,0,1,3.05,1.37l-.93.87a2.54,2.54,0,0,0-2.12-1A2.51,2.51,0,0,0,76,93.36a4,4,0,0,0-.6,2.48,4,4,0,0,0,.6,2.49,2.52,2.52,0,0,0,2.15,1,2.55,2.55,0,0,0,2.12-1l.93.88a3.66,3.66,0,0,1-3.05,1.38M89.56,93a2.43,2.43,0,0,0-3.37,0,5.83,5.83,0,0,0,0,5.72,2.43,2.43,0,0,0,3.37,0,4,4,0,0,0,.74-2.86A4,4,0,0,0,89.56,93m1,6.55a3.86,3.86,0,0,1-5.31,0,5,5,0,0,1-1.12-3.69,4.94,4.94,0,0,1,1.13-3.69,3.63,3.63,0,0,1,2.65-1.05,3.67,3.67,0,0,1,2.66,1.05,5,5,0,0,1,1.12,3.69,5,5,0,0,1-1.12,3.69m17.06.94v-5.7a2.3,2.3,0,1,0-4.6-.15v5.85h-1.35v-5.7a2.16,2.16,0,0,0-2.28-2.47A2.19,2.19,0,0,0,97,94.77v5.7H95.69V91.21H97v1a3.36,3.36,0,0,1,2.62-1.13,3,3,0,0,1,2.84,1.54,3.54,3.54,0,0,1,3-1.54,3.38,3.38,0,0,1,2.39.86,3.45,3.45,0,0,1,1,2.58v5.93Zm9.47-8.17c-2,0-2.34,1.73-2.34,3.54s.32,3.54,2.34,3.54,2.32-1.73,2.32-3.54-.31-3.54-2.32-3.54m2.54,7.48a3.23,3.23,0,0,1-2.26.81,3,3,0,0,1-2.62-1.21v5.24h-1.35V91.21h1.35V92.3a3,3,0,0,1,2.62-1.2,3.23,3.23,0,0,1,2.26.81,5.52,5.52,0,0,1,1.13,3.93,5.55,5.55,0,0,1-1.13,3.94m11,.69v-1a3.41,3.41,0,0,1-2.62,1.15,3.26,3.26,0,0,1-2.39-.87,3.44,3.44,0,0,1-.94-2.6V91.21H126v5.71a2.14,2.14,0,0,0,2.26,2.46,2.19,2.19,0,0,0,2.32-2.46V91.21H132v9.26Zm8.45,0A2.27,2.27,0,0,1,136.7,98V92.3h-1.17v-1h1.17v-2.9h1.36v2.9h2v1h-2V98c0,.85.39,1.36,1.26,1.36H140v1.16Zm10.1-6.83A2.3,2.3,0,0,0,147,92.25a2.28,2.28,0,0,0-2.16,1.39,3.87,3.87,0,0,0-.29,1.54h4.9A4.07,4.07,0,0,0,149.17,93.64Zm-4.62,2.56c0,2,1,3.2,2.73,3.2a3,3,0,0,0,2.43-1.05l.93.81a4.26,4.26,0,0,1-3.39,1.43c-2.45,0-4.05-1.47-4.05-4.75,0-3,1.45-4.74,3.8-4.74s3.81,1.73,3.81,4.48v.62ZM160,93a1.94,1.94,0,0,0-1.6-.68,2.27,2.27,0,0,0-2.23,2.49v5.68h-1.35V91.21h1.35v1.13a3.12,3.12,0,0,1,2.6-1.24A2.84,2.84,0,0,1,161,92ZM1.49,121.82H2.84v-9.27H1.49Zm-.08-11.9H2.94v-1.53H1.41Zm11.9,11.9v-5.71A2.16,2.16,0,0,0,11,113.64a2.18,2.18,0,0,0-2.29,2.47v5.71H7.38v-9.27H8.74v1a3.35,3.35,0,0,1,2.6-1.13,3.24,3.24,0,0,1,2.37.87,3.41,3.41,0,0,1,1,2.58v5.93Zm8.38,0a2.27,2.27,0,0,1-2.37-2.49v-5.68H18.15v-1h1.17v-2.9h1.36v2.9h2v1h-2v5.65c0,.84.39,1.35,1.26,1.35h.71v1.17ZM31.79,115a2.3,2.3,0,0,0-2.17-1.39A2.28,2.28,0,0,0,27.46,115a3.89,3.89,0,0,0-.29,1.55h4.9A4.09,4.09,0,0,0,31.79,115Zm-4.62,2.56c0,2,1,3.2,2.73,3.2a3,3,0,0,0,2.43-1l.93.81a4.26,4.26,0,0,1-3.39,1.43c-2.45,0-4.05-1.47-4.05-4.75,0-3,1.45-4.74,3.8-4.74s3.8,1.73,3.8,4.48v.62Zm15.45-3.22a1.94,1.94,0,0,0-1.6-.68,2.27,2.27,0,0,0-2.23,2.49v5.69H37.44v-9.27h1.35v1.13a3.12,3.12,0,0,1,2.6-1.24,2.84,2.84,0,0,1,2.22.87l-1,1Zm8.94,3.22H49c-1.39,0-2.07.57-2.07,1.64s.66,1.58,2.13,1.58a2.68,2.68,0,0,0,2.07-.62,2.14,2.14,0,0,0,.47-1.6v-1Zm0,4.28v-.89a3.23,3.23,0,0,1-2.67,1,3.28,3.28,0,0,1-2.62-.85,2.68,2.68,0,0,1-.7-1.88c0-1.62,1.13-2.67,3.2-2.67h2.79v-.89c0-1.35-.68-2-2.37-2a2.44,2.44,0,0,0-2.34,1l-.92-.85a3.6,3.6,0,0,1,3.28-1.37c2.48,0,3.71,1.07,3.71,3.09v6.29Zm9.38.11c-2.34,0-4.11-1.58-4.11-4.75s1.77-4.74,4.11-4.74A3.68,3.68,0,0,1,64,113.81l-.92.87a2.57,2.57,0,0,0-2.13-1,2.52,2.52,0,0,0-2.15,1.06,5.45,5.45,0,0,0,0,5,2.5,2.5,0,0,0,2.15,1,2.58,2.58,0,0,0,2.13-1l.92.88a3.66,3.66,0,0,1-3.05,1.38m9.36-.11a2.27,2.27,0,0,1-2.37-2.49v-5.68H66.76v-1h1.17v-2.9h1.35v2.9h2v1h-2v5.65c0,.84.4,1.35,1.26,1.35h.72v1.17Zm4.78,0h1.36v-9.27H75.08ZM75,109.92h1.52v-1.53H75Zm11,4.4a2.46,2.46,0,0,0-1.7-.68,2.32,2.32,0,0,0-1.67.68,5.78,5.78,0,0,0,0,5.73,2.35,2.35,0,0,0,1.67.68,2.41,2.41,0,0,0,1.7-.68,6,6,0,0,0,0-5.73m1,6.56a3.88,3.88,0,0,1-5.31,0,6.61,6.61,0,0,1,0-7.39,3.88,3.88,0,0,1,5.31,0,6.61,6.61,0,0,1,0,7.39m11.09.94v-5.71a2.16,2.16,0,0,0-2.28-2.47,2.18,2.18,0,0,0-2.3,2.47v5.71H92.09v-9.27h1.35v1a3.36,3.36,0,0,1,2.6-1.13,3.25,3.25,0,0,1,2.38.87,3.44,3.44,0,0,1,1,2.58v5.93Z"/></g><path class="cls-2" d="M12.48,183.7H6.73a.92.92,0,0,1-.92-.92v-1.42a.92.92,0,0,1,.92-.92h5.75a.92.92,0,0,1,.92.92v1.42A.92.92,0,0,1,12.48,183.7Zm0,7.7H6.73a.92.92,0,0,1-.92-.92v-1.72a.92.92,0,0,1,.92-.92h5.75a.92.92,0,0,1,.92.92v1.72a.92.92,0,0,1-.92.92ZM.92,176.3a.92.92,0,0,0-.92.92v17.4a.92.92,0,0,0,.92.92H18.3a.92.92,0,0,0,.92-.92v-17.4a.93.93,0,0,0-.92-.92Zm195.23,7.4H190.4a.92.92,0,0,1-.92-.92v-1.42a.92.92,0,0,1,.92-.92h5.75a.92.92,0,0,1,.92.92v1.42A.92.92,0,0,1,196.15,183.7Zm0,7.7H190.4a.92.92,0,0,1-.92-.92v-1.72a.92.92,0,0,1,.92-.92h5.75a.92.92,0,0,1,.92.92v1.72a.92.92,0,0,1-.92.92Zm-11.56-15.1a.92.92,0,0,0-.92.92v17.4a.92.92,0,0,0,.92.92H202a.92.92,0,0,0,.92-.92v-17.4a.92.92,0,0,0-.92-.92H184.59ZM68.7,182.78a.92.92,0,0,1-.92.92H62a.92.92,0,0,1-.92-.92h0v-1.42a.92.92,0,0,1,.92-.92h5.75a.92.92,0,0,1,.92.92Zm4.9-6.48H56.22a.92.92,0,0,0-.92.92h0v9.71a.92.92,0,0,0,.91.92H67.78a.92.92,0,0,1,.92.92v5.85a.92.92,0,0,0,.92.92h4a.92.92,0,0,0,.92-.92v-17.4a.92.92,0,0,0-.92-.92h0Z"/><g class="cls-5"><path class="cls-2" d="M270.6,176.3h-4a.92.92,0,0,0-.92.92h0v5.56a.92.92,0,0,1-.92.92H259a.93.93,0,0,1-.92-.92v-5.56a.92.92,0,0,0-.92-.92h-4a.92.92,0,0,0-.91.92v9.71a.91.91,0,0,0,.91.91h11.57a.93.93,0,0,1,.92.93v5.85a.92.92,0,0,0,.92.92h4a.92.92,0,0,0,.92-.92v-17.4a.92.92,0,0,0-.92-.92h0"/></g><path class="cls-2" d="M37.26,180.45H41a.92.92,0,0,1,.92.92v13.26a.92.92,0,0,0,.92.92h4a.92.92,0,0,0,.92-.92V177.22a.93.93,0,0,0-.92-.92H37.26a.93.93,0,0,0-.92.92v2.31a.93.93,0,0,0,.92.92m206.56,11H232.28a.93.93,0,0,1-.93-.93h0v-1.55a.94.94,0,0,1,.93-.94h11.54a.92.92,0,0,0,.93-.93h0v-9.83a.93.93,0,0,0-.93-.93H226.47a.93.93,0,0,0-.93.93v2.27a.92.92,0,0,0,.93.93H238a.93.93,0,0,1,.93.93v1.56a.93.93,0,0,1-.93.93H226.47a.93.93,0,0,0-.93.93h0v9.82a.92.92,0,0,0,.93.93h17.35a.92.92,0,0,0,.93-.93v-2.27a.93.93,0,0,0-.93-.93M32.66,195.55H27.75a.5.5,0,0,1-.5-.5h0v-4.92a.49.49,0,0,1,.5-.49h4.91a.5.5,0,0,1,.5.49v4.92a.5.5,0,0,1-.5.5h0m184,0h-4.92a.51.51,0,0,1-.5-.5v-4.92a.5.5,0,0,1,.5-.49h4.92a.49.49,0,0,1,.49.49v4.92a.5.5,0,0,1-.49.5h0M165.25,187H94.17a1.07,1.07,0,0,1-1.07-1.07h0V186a1.07,1.07,0,0,1,1.07-1.07h71.08a1.07,1.07,0,0,1,1.08,1.07v-.08a1.07,1.07,0,0,1-1.07,1.08h0"/></g></g></svg>